<svg width="1246" height="610" viewBox="0 0 1246 610" fill="none" xmlns="http://www.w3.org/2000/svg">
<mask id="mask0_1699_7157" style="mask-type:alpha" maskUnits="userSpaceOnUse" x="0" y="0" width="1246" height="610">
<rect y="0.773193" width="1245.31" height="609" rx="30" fill="#C4C4C4"/>
</mask>
<g mask="url(#mask0_1699_7157)">
<path d="M1191.99 610.955C1187.53 609.176 1187.49 602.88 1191.92 601.038L1749.49 369.482C1751.13 368.803 1752.96 368.801 1754.6 369.476C1760.11 371.751 1760.1 379.557 1754.58 381.819L1196.01 610.936C1194.72 611.464 1193.28 611.471 1191.99 610.955Z" fill="#9841C6"/>
<path d="M1127.11 610.983C1122.8 609.265 1122.75 603.18 1127.04 601.399L1749.49 342.663C1751.13 341.983 1752.97 341.981 1754.6 342.657C1760.11 344.932 1760.1 352.738 1754.59 355.001L1130.99 610.963C1129.74 611.473 1128.35 611.48 1127.11 610.983Z" fill="#9841C6"/>
<path d="M1062.23 610.816C1058.07 609.16 1058.02 603.287 1062.16 601.569L1749.5 316.038C1751.13 315.359 1752.97 315.357 1754.61 316.032C1760.11 318.307 1760.11 326.112 1754.59 328.374L1065.97 610.797C1064.77 611.288 1063.43 611.295 1062.23 610.816Z" fill="#9841C6"/>
<path d="M997.339 610.845C993.328 609.25 993.284 603.588 997.27 601.931L1749.5 289.219C1751.13 288.539 1752.97 288.537 1754.61 289.213C1760.11 291.488 1760.11 299.294 1754.59 301.556L1000.94 610.825C999.79 611.298 998.497 611.305 997.339 610.845Z" fill="#9841C6"/>
<path d="M932.444 610.677C928.583 609.144 928.54 603.694 932.376 602.1L1749.49 262.593C1751.12 261.914 1752.96 261.912 1754.59 262.588C1760.1 264.862 1760.09 272.668 1754.58 274.929L935.909 610.658C934.8 611.112 933.558 611.119 932.444 610.677Z" fill="#9841C6"/>
<path d="M867.563 610.706C863.851 609.234 863.807 603.996 867.495 602.463L1749.49 235.775C1751.13 235.095 1752.96 235.093 1754.6 235.769C1760.11 238.044 1760.1 245.849 1754.59 248.112L870.891 610.686C869.826 611.123 868.633 611.13 867.563 610.706Z" fill="#9841C6"/>
<path d="M802.624 610.682C799.036 609.201 799.031 604.122 802.615 602.632L1749.5 209.15C1751.13 208.471 1752.97 208.469 1754.61 209.144C1760.11 211.419 1760.11 219.225 1754.59 221.487L805.94 610.686C804.877 611.122 803.686 611.121 802.624 610.682Z" fill="#9841C6"/>
<path d="M737.795 610.567C734.382 609.219 734.339 604.403 737.727 602.994L1749.49 182.331C1751.13 181.651 1752.97 181.649 1754.6 182.325C1760.11 184.599 1760.1 192.405 1754.59 194.667L740.846 610.547C739.87 610.947 738.777 610.954 737.795 610.567Z" fill="#9841C6"/>
<path d="M672.853 610.544C669.564 609.186 669.559 604.53 672.844 603.164L1749.5 155.706C1751.13 155.027 1752.97 155.025 1754.61 155.7C1760.11 157.975 1760.11 165.781 1754.59 168.042L675.893 610.547C674.919 610.947 673.826 610.946 672.853 610.544Z" fill="#9841C6"/>
<path d="M607.962 610.377C604.823 609.08 604.818 604.636 607.954 603.332L1749.49 128.886C1751.13 128.207 1752.96 128.205 1754.6 128.88C1760.11 131.155 1760.1 138.961 1754.59 141.222L610.864 610.38C609.934 610.762 608.891 610.76 607.962 610.377Z" fill="#9841C6"/>
<path d="M543.078 610.405C540.088 609.17 540.083 604.937 543.07 603.696L1749.49 102.262C1751.13 101.583 1752.97 101.58 1754.6 102.256C1760.11 104.53 1760.1 112.336 1754.59 114.598L545.841 610.408C544.956 610.771 543.963 610.77 543.078 610.405Z" fill="#9841C6"/>
<path d="M478.192 610.238C475.352 609.065 475.347 605.043 478.185 603.864L1749.49 75.442C1751.13 74.7627 1752.97 74.7605 1754.6 75.4361C1760.11 77.7106 1760.1 85.516 1754.59 87.7776L480.818 610.241C479.976 610.586 479.033 610.585 478.192 610.238Z" fill="#9841C6"/>
<path d="M413.307 610.266C410.616 609.155 410.611 605.345 413.3 604.228L1749.49 48.8181C1751.13 48.1388 1752.97 48.1366 1754.6 48.8121C1760.11 51.0866 1760.1 58.8919 1754.59 61.1534L415.794 610.269C414.997 610.596 414.103 610.595 413.307 610.266Z" fill="#9841C6"/>
<path d="M348.424 610.099C345.883 609.05 345.878 605.452 348.417 604.396L1749.5 21.9982C1751.13 21.3188 1752.97 21.3167 1754.6 21.9922C1760.11 24.2667 1760.1 32.072 1754.59 34.3335L350.773 610.102C350.02 610.411 349.176 610.41 348.424 610.099Z" fill="#9841C6"/>
<path d="M283.535 610.127C281.143 609.14 281.139 605.753 283.528 604.76L1733.85 1.83437C1735.48 1.15492 1737.32 1.15271 1738.95 1.82823C1744.46 4.10261 1744.45 11.9078 1738.94 14.169L285.746 610.13C285.037 610.421 284.243 610.42 283.535 610.127Z" fill="#9841C6"/>
<path d="M218.651 609.96C216.409 609.034 216.405 605.859 218.645 604.928L1669.37 1.83441C1671 1.15566 1672.84 1.16241 1674.47 1.85314C1679.85 4.13752 1679.8 11.7831 1674.39 14.0013L220.724 609.963C220.06 610.235 219.315 610.234 218.651 609.96Z" fill="#9841C6"/>
<path d="M153.767 609.989C151.674 609.125 151.67 606.161 153.761 605.292L1605.03 1.97282C1606.57 1.3301 1608.31 1.328 1609.86 1.96701C1615.07 4.11845 1615.06 11.5017 1609.84 13.6407L155.701 609.991C155.081 610.245 154.386 610.245 153.767 609.989Z" fill="#9841C6"/>
<path d="M88.8782 609.822C86.9347 609.019 86.9314 606.267 88.873 605.46L1540.54 1.97286C1542.09 1.33082 1543.83 1.33771 1545.36 1.99196C1550.45 4.1534 1550.4 11.3772 1545.29 13.4732L90.6745 609.824C90.0989 610.06 89.4533 610.059 88.8782 609.822Z" fill="#9841C6"/>
<path d="M23.9955 609.85C22.2015 609.109 22.1985 606.569 23.9907 605.824L1476.2 2.11127C1477.66 1.50527 1479.3 1.50329 1480.76 2.10578C1485.67 4.13428 1485.66 11.0956 1480.75 13.1123L25.6538 609.852C25.1224 610.07 24.5264 610.069 23.9955 609.85Z" fill="#9841C6"/>
<path d="M-40.8948 609.683C-42.5393 609.004 -42.5421 606.676 -40.8992 605.993L1411.72 2.11131C1413.17 1.50599 1414.81 1.51302 1416.26 2.13079C1421.05 4.1693 1421.01 10.9711 1416.19 12.9449L-39.3749 609.685C-39.862 609.885 -40.4082 609.884 -40.8948 609.683Z" fill="#9841C6"/>
<path d="M-105.778 609.711C-107.272 609.094 -107.275 606.978 -105.782 606.357L1347.38 2.24972C1348.75 1.68045 1350.29 1.67857 1351.66 2.24455C1356.27 4.15011 1356.27 10.6896 1351.65 12.5841L-104.396 609.713C-104.838 609.895 -105.335 609.894 -105.778 609.711Z" fill="#9841C6"/>
<path d="M-170.256 609.711C-171.751 609.094 -171.754 606.978 -170.26 606.357L1282.9 2.25004C1284.27 1.68129 1285.81 1.68842 1287.17 2.26987C1291.66 4.18574 1291.62 10.5663 1287.1 12.4192L-168.874 609.713C-169.317 609.895 -169.814 609.894 -170.256 609.711Z" fill="#9841C6"/>
<path d="M-235.087 609.594C-236.406 609.11 -236.445 607.259 -235.148 606.72L1218.55 2.38824C1219.84 1.85563 1221.28 1.8539 1222.56 2.38343C1226.88 4.16619 1226.87 10.2841 1222.55 12.057L-233.969 609.573C-234.326 609.72 -234.725 609.727 -235.087 609.594Z" fill="#9841C6"/>
<path d="M-251.253 589.353C-252.471 588.787 -252.435 587.044 -251.195 586.529L1154.08 2.38793C1155.36 1.85551 1156.8 1.85382 1158.08 2.3832C1162.4 4.16574 1162.39 10.2831 1158.07 12.0549L-250.018 589.381C-250.415 589.544 -250.863 589.534 -251.253 589.353Z" fill="#9841C6"/>
<path d="M-251.194 562.589C-252.39 562.095 -252.392 560.402 -251.197 559.905L1089.73 2.52659C1090.93 2.03009 1092.27 2.02001 1093.47 2.49851C1097.61 4.14804 1097.64 10.0016 1093.52 11.6932L-250.089 562.59C-250.443 562.736 -250.84 562.735 -251.194 562.589Z" fill="#9841C6"/>
<path d="M-251.253 535.909C-252.471 535.343 -252.435 533.6 -251.195 533.085L1025.25 2.52633C1026.45 2.03066 1027.79 2.0291 1028.98 2.52197C1033 4.18159 1032.99 9.87711 1028.97 11.5268L-250.018 535.937C-250.415 536.1 -250.863 536.09 -251.253 535.909Z" fill="#9841C6"/>
<path d="M-251.194 509.145C-252.39 508.651 -252.392 506.958 -251.197 506.461L960.841 2.49804C961.99 2.02052 963.281 2.01889 964.431 2.49358C968.301 4.09171 968.294 9.5761 964.42 11.1647L-250.089 509.146C-250.443 509.291 -250.84 509.291 -251.194 509.145Z" fill="#9841C6"/>
<path d="M-251.253 482.464C-252.471 481.899 -252.435 480.155 -251.195 479.64L896.43 2.66425C897.534 2.20533 898.776 2.20389 899.881 2.66025C903.603 4.19696 903.596 9.47064 899.871 10.9982L-250.018 482.492C-250.415 482.656 -250.863 482.645 -251.253 482.464Z" fill="#9841C6"/>
<path d="M-251.194 455.7C-252.39 455.206 -252.392 453.513 -251.197 453.016L832.018 2.6359C833.079 2.19512 834.27 2.19369 835.332 2.63186C838.904 4.10707 838.898 9.16966 835.322 10.6361L-250.089 455.702C-250.443 455.847 -250.84 455.846 -251.194 455.7Z" fill="#9841C6"/>
<path d="M-251.253 429.02C-252.471 428.455 -252.435 426.711 -251.195 426.196L767.607 2.80266C768.623 2.3805 769.765 2.37918 770.782 2.79902C774.206 4.21281 774.2 9.06467 770.772 10.4701L-250.018 429.048C-250.415 429.212 -250.863 429.201 -251.253 429.02Z" fill="#9841C6"/>
<path d="M-251.194 402.256C-252.39 401.762 -252.392 400.069 -251.197 399.572L703.126 2.80313C704.141 2.38138 705.283 2.38911 706.291 2.82451C709.589 4.24829 709.546 8.94024 706.222 10.3027L-250.089 402.258C-250.443 402.403 -250.84 402.402 -251.194 402.256Z" fill="#9841C6"/>
<path d="M-251.253 375.577C-252.471 375.011 -252.435 373.268 -251.195 372.753L638.784 2.94152C639.711 2.55611 640.754 2.55495 641.682 2.93827C644.809 4.22916 644.803 8.65921 641.674 9.94254L-250.018 375.605C-250.416 375.768 -250.863 375.758 -251.253 375.577Z" fill="#9841C6"/>
<path d="M-251.194 348.813C-252.39 348.319 -252.392 346.626 -251.197 346.129L574.303 2.94206C575.229 2.55705 576.272 2.56493 577.192 2.96387C580.193 4.26474 580.15 8.53478 577.124 9.77504L-250.089 348.814C-250.443 348.959 -250.84 348.959 -251.194 348.813Z" fill="#9841C6"/>
<path d="M-251.253 322.133C-252.471 321.567 -252.435 319.824 -251.195 319.309L509.961 3.0799C510.8 2.73126 511.743 2.73023 512.583 3.07704C515.412 4.24502 515.407 8.25324 512.576 9.41446L-250.018 322.161C-250.415 322.324 -250.863 322.314 -251.253 322.133Z" fill="#9841C6"/>
<path d="M-251.194 295.369C-252.39 294.875 -252.392 293.182 -251.197 292.685L445.48 3.08049C446.318 2.73222 447.261 2.74027 448.093 3.10277C450.796 4.28072 450.753 8.12884 448.025 9.24693L-250.089 295.37C-250.443 295.515 -250.84 295.515 -251.194 295.369Z" fill="#9841C6"/>
<path d="M-251.253 268.688C-252.47 268.123 -252.435 266.38 -251.195 265.865L381.138 3.21776C381.889 2.9059 382.733 2.90502 383.484 3.21531C386.015 4.26039 386.011 7.84683 383.478 8.88596L-250.018 268.716C-250.415 268.879 -250.863 268.869 -251.253 268.688Z" fill="#9841C6"/>
<path d="M-251.194 241.924C-252.39 241.43 -252.392 239.737 -251.197 239.241L316.657 3.21841C317.406 2.90689 318.25 2.91513 318.994 3.24121C321.398 4.29625 321.357 7.72243 318.927 8.71834L-250.089 241.926C-250.443 242.071 -250.84 242.07 -251.194 241.924Z" fill="#9841C6"/>
<path d="M-251.253 215.244C-252.471 214.678 -252.435 212.935 -251.195 212.42L251.84 3.357C252.504 3.08071 253.25 3.07156 253.921 3.33145C256.278 4.24356 256.311 7.56559 253.973 8.52453L-250.018 215.272C-250.415 215.435 -250.863 215.425 -251.253 215.244Z" fill="#9841C6"/>
<path d="M-251.194 188.48C-252.39 187.986 -252.392 186.293 -251.197 185.797L187.833 3.35681C188.495 3.08205 189.24 3.0905 189.894 3.38018C192.001 4.31231 191.96 7.31651 189.828 8.19023L-250.089 188.482C-250.443 188.627 -250.84 188.626 -251.194 188.48Z" fill="#9841C6"/>
<path d="M-251.253 161.8C-252.471 161.235 -252.435 159.492 -251.195 158.976L123.016 3.49549C123.593 3.25595 124.239 3.247 124.822 3.47051C126.881 4.25976 126.915 7.15991 124.875 7.99682L-250.018 161.828C-250.415 161.991 -250.863 161.981 -251.253 161.8Z" fill="#9841C6"/>
<path d="M-251.194 135.036C-252.39 134.542 -252.393 132.849 -251.198 132.352L58.537 3.49545C59.1112 3.25658 59.7568 3.25573 60.3316 3.49307C62.2665 4.29199 62.2629 7.03385 60.3259 7.82765L-250.089 135.038C-250.443 135.183 -250.84 135.182 -251.194 135.036Z" fill="#9841C6"/>
</g>
</svg>
