<svg width="479" height="474" viewBox="0 0 479 474" fill="none" xmlns="http://www.w3.org/2000/svg">
<path d="M106.386 315.589H60.1052V336.488H106.386V315.589Z" fill="#037047"/>
<path d="M106.386 345.757H60.1052V366.656H106.386V345.757Z" fill="#037047"/>
<path d="M106.386 375.925H60.1052V433.654H106.386V375.925Z" fill="#037047"/>
<path d="M396.513 84.877C399.185 84.877 401.794 85.6689 404.016 87.1527C406.236 88.6367 407.966 90.7458 408.99 93.2134C410.012 95.681 410.278 98.3964 409.759 101.016C409.236 103.635 407.951 106.042 406.062 107.93C404.174 109.819 401.766 111.105 399.147 111.626C396.528 112.147 393.813 111.88 391.345 110.858C388.877 109.836 386.767 108.105 385.283 105.884C383.799 103.663 383.008 101.052 383.008 98.3814C383.008 94.8001 384.432 91.366 386.966 88.8339C389.497 86.3015 392.932 84.8782 396.513 84.877Z" fill="#037047"/>
<path d="M396.513 148.228C399.185 148.227 401.796 149.018 404.018 150.502C406.241 151.985 407.973 154.094 408.998 156.562C410.02 159.031 410.288 161.747 409.769 164.368C409.249 166.988 407.963 169.396 406.075 171.286C404.184 173.176 401.778 174.464 399.157 174.986C396.538 175.508 393.821 175.242 391.353 174.22C388.884 173.198 386.772 171.468 385.288 169.247C383.802 167.025 383.008 164.414 383.008 161.742C383.008 158.159 384.43 154.723 386.963 152.189C389.494 149.654 392.93 148.23 396.513 148.228Z" fill="#037047"/>
<path d="M44.5269 139.254C58.7098 139.254 70.2074 127.756 70.2074 113.573C70.2074 99.3902 58.7098 87.8926 44.5269 87.8926C30.344 87.8926 18.8464 99.3902 18.8464 113.573C18.8464 127.756 30.344 139.254 44.5269 139.254Z" fill="#037047"/>
<path d="M280.445 65.2175C282.998 65.2175 285.07 63.1466 285.07 60.5921C285.07 58.0374 282.998 55.9668 280.445 55.9668C277.891 55.9668 275.819 58.0374 275.819 60.5921C275.819 63.1466 277.891 65.2175 280.445 65.2175Z" fill="#037047"/>
<path d="M103.012 89.5017C105.566 89.5017 107.637 87.4308 107.637 84.8763C107.637 82.3216 105.566 80.251 103.012 80.251C100.457 80.251 98.3863 82.3216 98.3863 84.8763C98.3863 87.4308 100.457 89.5017 103.012 89.5017Z" fill="#037047"/>
<path d="M67.1788 262.551C68.9923 262.551 70.7648 263.091 72.2722 264.098C73.7796 265.105 74.9542 266.538 75.6475 268.213C76.3408 269.888 76.5219 271.731 76.1673 273.512C75.813 275.289 74.9392 276.922 73.6563 278.205C72.3736 279.485 70.7397 280.359 68.9609 280.711C67.1823 281.065 65.3389 280.881 63.6641 280.186C61.989 279.493 60.5577 278.315 59.551 276.809C58.5443 275.299 58.0077 273.527 58.0084 271.714C58.0082 270.511 58.2452 269.318 58.706 268.206C59.167 267.093 59.8425 266.081 60.6943 265.23C61.546 264.381 62.557 263.706 63.6699 263.246C64.7825 262.784 65.975 262.548 67.1788 262.551Z" fill="#FFE8BB"/>
<path d="M378.928 49.5809C383.993 49.5809 388.098 45.4754 388.098 40.4106C388.098 35.346 383.993 31.2402 378.928 31.2402C373.863 31.2402 369.758 35.346 369.758 40.4106C369.758 45.4754 373.863 49.5809 378.928 49.5809Z" fill="#FFE8BB"/>
<path d="M203.938 1.07032C205.752 1.06881 207.525 1.60512 209.034 2.61142C210.543 3.61772 211.719 5.04882 212.415 6.72376C213.111 8.39871 213.294 10.2423 212.942 12.0215C212.589 13.8006 211.718 15.4353 210.436 16.7189C209.155 18.0026 207.522 18.8774 205.744 19.233C203.965 19.5885 202.121 19.4087 200.445 18.7164C198.769 18.0242 197.336 16.8505 196.326 15.3436C195.317 13.8367 194.777 12.0642 194.775 10.2507C194.773 9.04593 195.008 7.85255 195.468 6.73883C195.927 5.62513 196.602 4.61295 197.453 3.76025C198.304 2.90752 199.315 2.23102 200.428 1.76947C201.541 1.30789 202.733 1.07029 203.938 1.07032Z" fill="#FFE8BB"/>
<path d="M26.942 49.5809C32.0068 49.5809 36.1124 45.4754 36.1124 40.4106C36.1124 35.346 32.0068 31.2402 26.942 31.2402C21.8775 31.2402 17.7717 35.346 17.7717 40.4106C17.7717 45.4754 21.8775 49.5809 26.942 49.5809Z" fill="#FFE8BB"/>
<path d="M351.472 282.036L340.102 283.723C337.599 283.728 335.186 282.789 333.342 281.094C331.499 279.402 330.362 277.077 330.156 274.581C330.156 274.543 330.156 274.495 330.156 274.465C329.727 272.04 330.189 269.539 331.454 267.427C332.72 265.312 334.706 263.725 337.049 262.96L348.348 261.282C347.66 261.496 341.554 263.542 343.028 273.335C343.216 275.537 344.158 277.607 345.697 279.194C347.236 280.778 349.278 281.782 351.472 282.036Z" fill="#E1FFD4"/>
<path d="M430.317 75.0766V213.686C430.317 214.54 429.975 215.358 429.372 215.961C428.77 216.565 427.951 216.904 427.097 216.906H365.936C365.082 216.904 364.266 216.565 363.663 215.961C363.058 215.357 362.719 214.539 362.719 213.686V75.0766C362.722 74.2236 363.061 73.406 363.663 72.8026C364.266 72.1992 365.082 71.8594 365.936 71.8574H427.097C427.951 71.8592 428.767 72.1992 429.372 72.8023C429.975 73.4057 430.314 74.2233 430.317 75.0766ZM410.025 98.3891C410.025 95.7169 409.234 93.1046 407.75 90.8824C406.268 88.6603 404.159 86.928 401.691 85.9047C399.222 84.8812 396.505 84.6128 393.884 85.1333C391.262 85.6539 388.857 86.9398 386.966 88.8288C385.075 90.7176 383.789 93.1245 383.267 95.745C382.745 98.3655 383.011 101.082 384.033 103.551C385.055 106.02 386.788 108.13 389.007 109.615C391.23 111.1 393.841 111.893 396.513 111.894C400.096 111.894 403.531 110.472 406.065 107.939C408.599 105.407 410.025 101.971 410.025 98.3891ZM410.025 161.75C410.025 159.078 409.234 156.466 407.75 154.244C406.268 152.022 404.159 150.289 401.691 149.266C399.222 148.242 396.505 147.974 393.884 148.495C391.262 149.015 388.857 150.301 386.966 152.19C385.075 154.079 383.789 156.486 383.267 159.106C382.745 161.727 383.011 164.443 384.033 166.912C385.055 169.381 386.788 171.491 389.007 172.976C391.23 174.461 393.841 175.254 396.513 175.255C400.096 175.255 403.534 173.831 406.067 171.297C408.601 168.763 410.025 165.326 410.025 161.743V161.75Z" fill="#E1FFD4"/>
<path d="M118.55 306.388V444.985C118.549 445.839 118.21 446.658 117.607 447.26C117.004 447.863 116.186 448.202 115.333 448.204H54.1716C53.3181 448.202 52.5002 447.863 51.8968 447.26C51.2934 446.658 50.9537 445.839 50.9524 444.985V306.388C50.9524 305.534 51.2916 304.716 51.8953 304.111C52.499 303.508 53.3178 303.169 54.1716 303.169H115.333C115.756 303.169 116.174 303.252 116.565 303.415C116.955 303.576 117.31 303.812 117.608 304.113C117.907 304.412 118.144 304.766 118.306 305.155C118.467 305.547 118.55 305.966 118.55 306.388ZM106.384 433.653V375.924H60.1052V433.653H106.384ZM106.384 366.658V345.756H60.1052V366.658H106.384ZM106.384 336.488V315.594H60.1052V336.493L106.384 336.488Z" fill="#E1FFD4"/>
<path d="M255.327 44.9028V183.513C255.327 184.368 254.99 185.188 254.385 185.793C253.782 186.399 252.964 186.74 252.108 186.742H190.946C190.092 186.739 189.273 186.398 188.67 185.792C188.067 185.187 187.729 184.367 187.73 183.513V44.9028C187.73 44.0498 188.069 43.2317 188.672 42.6282C189.275 42.0246 190.093 41.6851 190.946 41.6836H252.108C252.961 41.6843 253.78 42.0238 254.383 42.6272C254.988 43.2309 255.327 44.0492 255.327 44.9028Z" fill="#E1FFD4"/>
<path d="M78.3309 75.0766V213.686C78.3309 214.11 78.2472 214.53 78.085 214.921C77.9226 215.313 77.6848 215.668 77.3847 215.968C77.0849 216.267 76.7288 216.505 76.3371 216.666C75.9454 216.828 75.5255 216.911 75.1017 216.911H13.9451C13.5225 216.911 13.1039 216.827 12.7134 216.665C12.3231 216.504 11.9684 216.266 11.6697 215.967C11.371 215.669 11.1341 215.314 10.9726 214.923C10.8111 214.532 10.7281 214.114 10.7285 213.691V75.0816C10.7275 74.6585 10.8099 74.2394 10.9711 73.8482C11.1323 73.4572 11.3691 73.1017 11.6679 72.8021C11.9667 72.5025 12.3216 72.265 12.7124 72.103C13.1032 71.9408 13.522 71.8574 13.9451 71.8574H75.1017C75.9567 71.8567 76.7768 72.1952 77.3822 72.7988C77.9876 73.4025 78.3289 74.2216 78.3309 75.0766ZM70.2076 113.573C70.2081 108.494 68.7025 103.529 65.8808 99.3054C63.0594 95.0818 59.0488 91.7899 54.3564 89.8458C49.664 87.9018 44.5003 87.3928 39.5186 88.3834C34.537 89.374 29.9608 91.8197 26.3693 95.411C22.7775 99.0026 20.3315 103.578 19.3404 108.56C18.3492 113.542 18.8577 118.705 20.8013 123.398C22.7448 128.09 26.0363 132.101 30.2596 134.923C34.4827 137.745 39.4478 139.251 44.5272 139.251C51.3376 139.251 57.8691 136.546 62.685 131.731C67.501 126.915 70.2069 120.384 70.2076 113.573Z" fill="#E1FFD4"/>
<path d="M340.78 78.0918C341.697 78.0903 342.593 78.3607 343.357 78.869C344.117 79.3772 344.712 80.1001 345.064 80.9466C345.416 81.7931 345.509 82.7247 345.33 83.6236C345.152 84.5226 344.71 85.3482 344.062 85.9963C343.414 86.6442 342.588 87.0854 341.689 87.2639C340.79 87.4422 339.859 87.35 339.012 86.9985C338.166 86.6472 337.443 86.0526 336.933 85.29C336.426 84.5274 336.155 83.6309 336.157 82.7146C336.157 81.4888 336.645 80.3133 337.511 79.4465C338.38 78.5797 339.555 78.0923 340.78 78.0918Z" fill="#037047"/>
<path d="M340.78 127.572C343.334 127.572 345.406 125.501 345.406 122.947C345.406 120.392 343.334 118.321 340.78 118.321C338.226 118.321 336.155 120.392 336.155 122.947C336.155 125.501 338.226 127.572 340.78 127.572Z" fill="#037047"/>
<path d="M340.78 147.688C343.334 147.688 345.406 145.617 345.406 143.063C345.406 140.508 343.334 138.438 340.78 138.438C338.226 138.438 336.155 140.508 336.155 143.063C336.155 145.617 338.226 147.688 340.78 147.688Z" fill="#037047"/>
<path d="M340.78 158.543C341.697 158.541 342.593 158.812 343.354 159.32C344.117 159.827 344.712 160.55 345.064 161.396C345.416 162.241 345.508 163.173 345.33 164.071C345.152 164.97 344.712 165.796 344.065 166.444C343.419 167.092 342.593 167.534 341.694 167.714C340.798 167.894 339.866 167.803 339.02 167.453C338.174 167.103 337.448 166.51 336.938 165.748C336.431 164.987 336.157 164.092 336.157 163.176C336.157 162.568 336.275 161.966 336.506 161.404C336.74 160.842 337.079 160.332 337.508 159.901C337.938 159.471 338.447 159.13 339.01 158.897C339.57 158.664 340.173 158.543 340.78 158.543Z" fill="#037047"/>
<path d="M143.234 353.958C144.15 353.958 145.045 354.227 145.807 354.736C146.569 355.244 147.163 355.967 147.515 356.811C147.866 357.657 147.959 358.588 147.781 359.487C147.604 360.386 147.163 361.21 146.517 361.858C145.87 362.508 145.045 362.95 144.147 363.128C143.249 363.309 142.318 363.219 141.472 362.867C140.625 362.518 139.901 361.926 139.392 361.165C138.882 360.404 138.61 359.51 138.609 358.593C138.608 357.365 139.095 356.188 139.962 355.319C140.829 354.45 142.006 353.961 143.234 353.958Z" fill="#037047"/>
<path d="M143.234 394.189C144.149 394.189 145.043 394.461 145.804 394.97C146.565 395.478 147.157 396.201 147.507 397.045C147.857 397.891 147.949 398.82 147.77 399.719C147.592 400.615 147.151 401.439 146.504 402.087C145.856 402.732 145.032 403.174 144.135 403.352C143.237 403.531 142.307 403.438 141.462 403.089C140.617 402.737 139.895 402.144 139.387 401.384C138.879 400.623 138.608 399.726 138.609 398.812C138.611 397.587 139.098 396.412 139.965 395.545C140.833 394.679 142.008 394.192 143.234 394.189Z" fill="#037047"/>
<path d="M247.814 271.595C251.502 271.979 255.229 271.716 258.825 270.812C266.822 268.687 271.35 260.157 271.35 260.157C274.152 264.069 277.429 267.618 281.103 270.724L245.408 275.668C246.3 274.42 247.101 273.112 247.804 271.751L247.814 271.595Z" fill="#037047"/>
<path d="M233.106 243.492C242.239 230.726 265.592 210.931 281.211 209.342C285.427 208.907 305.568 217.728 321.294 224.767C321.294 224.767 357.956 223.456 363 229.149C383.92 252.695 402.251 317.103 405.829 324.257C409.407 331.411 460.969 360.203 478.059 369.044V473.217L377.336 412.279C370.945 413.063 364.484 413.063 358.094 412.279C303.991 401.773 231.489 347.02 217.45 340.513C207.137 335.742 204.684 325.761 203.388 319.062C203.11 317.168 202.682 315.303 202.108 313.477C201.223 311.684 200.047 310.049 198.627 308.641C196.93 306.777 194.896 304.849 193.083 303.056C191.651 301.693 190.326 300.221 189.118 298.654C187.698 296.676 186.893 294.325 186.804 291.892C186.714 289.459 187.345 287.053 188.616 284.977C189.572 283.244 190.774 281.657 192.184 280.266C197.176 275.264 209.159 279.538 209.643 279.703C210.112 276.055 211.493 272.585 213.661 269.611C221.252 257.832 222.967 251.416 225.586 247.944C226.433 246.774 227.587 245.862 228.921 245.307C229.895 244.888 231.351 244.257 233.106 243.492ZM247.814 271.595V271.761C247.111 273.122 246.31 274.43 245.418 275.678C241.973 280.831 237.049 284.818 231.294 287.116C230.568 287.367 229.802 287.591 229.034 287.786C232.116 290.975 234.771 294.549 236.933 298.421C237.496 299.433 237.988 300.482 238.407 301.562C238.407 301.562 266.212 318.748 270.689 321.231C270.689 321.231 299.247 306.079 307.953 301.851C307.953 301.851 298.627 292.294 296.611 289.763L340.12 283.724L351.49 282.036L356.57 281.283C359.314 280.869 361.783 279.382 363.435 277.152C365.087 274.92 365.788 272.128 365.383 269.38C364.979 266.633 363.503 264.16 361.28 262.5C359.056 260.838 356.263 260.127 353.516 260.519L348.426 261.272C348.406 261.27 348.389 261.27 348.369 261.272L337.069 262.95L281.133 270.714C277.459 267.608 274.182 264.06 271.38 260.147C271.38 260.147 266.86 268.685 258.855 270.802C255.249 271.713 251.512 271.979 247.814 271.595Z" fill="#FFE8BB"/>
<path d="M478.059 369.052C460.969 360.211 409.405 331.409 405.829 324.265C402.253 317.121 383.92 252.7 363 229.157C357.958 223.464 321.297 224.775 321.297 224.775" stroke="#037047" stroke-width="1.3125" stroke-linecap="round" stroke-linejoin="round"/>
<path d="M209.638 279.722C209.154 279.556 197.171 275.282 192.179 280.284C190.769 281.675 189.567 283.26 188.611 284.995C187.34 287.071 186.709 289.477 186.799 291.91C186.888 294.343 187.693 296.694 189.113 298.672C190.321 300.239 191.646 301.711 193.078 303.074C194.891 304.867 196.925 306.796 198.622 308.659C200.042 310.068 201.218 311.702 202.103 313.495C202.677 315.321 203.106 317.186 203.383 319.08C204.681 325.777 207.135 335.753 217.445 340.532C231.484 347.038 303.986 401.801 358.089 412.297C364.479 413.081 370.94 413.081 377.331 412.297L478.054 473.235" stroke="#037047" stroke-width="1.3125" stroke-linecap="round" stroke-linejoin="round"/>
<path d="M228.996 287.776H229.016C232.098 290.965 234.754 294.539 236.916 298.411C237.478 299.423 237.97 300.472 238.389 301.552C238.389 301.552 266.195 318.738 270.672 321.221C270.672 321.221 299.23 306.069 307.936 301.841C307.936 301.841 298.61 292.284 296.593 289.753L296.566 289.732" stroke="#037047" stroke-width="1.3125" stroke-linecap="round" stroke-linejoin="round"/>
<path d="M198.625 308.649C198.625 308.649 201.573 298.022 204.024 295.24C206.475 292.457 200.194 286.011 196.182 283.134" stroke="#037047" stroke-width="1.3125" stroke-linecap="round" stroke-linejoin="round"/>
<path d="M208.086 310.572C206.58 312.89 202.813 316.37 203.385 319.065" stroke="#037047" stroke-width="1.3125" stroke-linecap="round" stroke-linejoin="round"/>
<path d="M281.211 270.812C281.211 270.812 281.17 270.781 281.103 270.724C277.429 267.618 274.152 264.069 271.35 260.157C271.35 260.157 266.83 268.695 258.825 270.812C255.229 271.716 251.502 271.979 247.814 271.595C246.229 271.457 244.655 271.196 243.11 270.812" stroke="#037047" stroke-width="1.3125" stroke-linecap="round" stroke-linejoin="round"/>
<path d="M247.804 271.761C247.098 273.122 246.3 274.431 245.408 275.679C241.963 280.829 237.039 284.816 231.283 287.117C230.558 287.368 229.792 287.591 229.024 287.787C228.597 287.882 228.17 287.97 227.725 288.038C217.817 289.753 209.189 287.506 209.646 279.701C210.114 276.053 211.496 272.583 213.663 269.609C221.254 257.83 222.969 251.412 225.588 247.942C226.436 246.772 227.59 245.86 228.923 245.305C229.928 244.878 231.374 244.248 233.129 243.482C240.856 240.052 254.641 233.722 263.822 228.918C275.076 223.032 278.654 224.313 285.314 227.125C291.973 229.937 325.993 249.129 325.993 249.129" stroke="#037047" stroke-width="1.3125" stroke-linecap="round" stroke-linejoin="round"/>
<path d="M338.852 232.539C335.643 231.241 329.001 228.215 321.294 224.775C305.57 217.744 285.427 208.915 281.211 209.349C265.592 210.931 242.239 230.726 233.106 243.5" stroke="#037047" stroke-width="1.3125" stroke-linecap="round" stroke-linejoin="round"/>
<path d="M245.408 275.678L281.103 270.724L337.039 262.96" stroke="#037047" stroke-width="1.3125" stroke-linecap="round" stroke-linejoin="round"/>
<path d="M340.102 283.724L296.593 289.763L237.827 297.926" stroke="#037047" stroke-width="1.3125" stroke-linecap="round" stroke-linejoin="round"/>
<path d="M179.81 290.315L168.505 297.171L177.522 299.496L179.546 300.021L192.722 303.423" stroke="#037047" stroke-width="1.3125" stroke-linecap="round" stroke-linejoin="round"/>
<path d="M188.591 284.984L179.81 290.315" stroke="#037047" stroke-width="1.3125" stroke-linecap="round" stroke-linejoin="round"/>
<path d="M351.472 282.036L340.102 283.723C337.599 283.728 335.186 282.789 333.342 281.094C331.499 279.402 330.362 277.077 330.156 274.581C330.156 274.543 330.156 274.495 330.156 274.465C329.727 272.04 330.189 269.539 331.454 267.427C332.72 265.312 334.706 263.725 337.049 262.96L348.348 261.282" stroke="#037047" stroke-width="1.3125" stroke-linecap="round" stroke-linejoin="round"/>
<path d="M351.472 282.036L356.552 281.283C359.297 280.869 361.765 279.382 363.417 277.152C365.069 274.92 365.77 272.128 365.366 269.381C364.962 266.634 363.485 264.16 361.263 262.501C359.038 260.838 356.246 260.128 353.499 260.519L348.409 261.273C348.389 261.27 348.371 261.27 348.351 261.273C347.663 261.486 341.556 263.533 343.03 273.326C343.216 275.53 344.157 277.599 345.697 279.189C347.234 280.776 349.275 281.783 351.472 282.036Z" stroke="#037047" stroke-width="1.3125" stroke-linecap="round" stroke-linejoin="round"/>
<path d="M168.505 297.171L162.777 297.723" stroke="#037047" stroke-width="1.3125" stroke-linecap="round" stroke-linejoin="round"/>
<path d="M75.1491 224.444H13.9022C10.4699 224.443 7.1784 223.079 4.75147 220.652C2.32452 218.225 0.960797 214.934 0.960144 211.502V75.1343C0.961475 71.7022 2.3254 68.4112 4.7522 65.9843C7.179 63.5576 10.4701 62.1936 13.9022 62.1924H75.1491C78.5812 62.1929 81.8727 63.5566 84.2996 65.9836C86.7266 68.4105 88.0903 71.702 88.0911 75.1343V211.502C88.0903 214.934 86.7266 218.225 84.2996 220.652C81.8727 223.079 78.5812 224.443 75.1491 224.444Z" stroke="#037047" stroke-width="1.3125" stroke-linecap="round" stroke-linejoin="round"/>
<path d="M75.1017 216.911H13.9451C13.5225 216.911 13.1039 216.827 12.7134 216.665C12.3231 216.504 11.9684 216.266 11.6697 215.967C11.371 215.669 11.1341 215.314 10.9726 214.923C10.8111 214.532 10.7281 214.114 10.7285 213.691V75.0816C10.7275 74.6585 10.8099 74.2394 10.9711 73.8482C11.1323 73.4572 11.3691 73.1017 11.6679 72.8021C11.9667 72.5025 12.3216 72.265 12.7124 72.103C13.1032 71.9408 13.522 71.8574 13.9451 71.8574H75.1017C75.9567 71.8567 76.7768 72.1952 77.3822 72.7988C77.9876 73.4025 78.3289 74.2216 78.3309 75.0766V213.686C78.3309 214.11 78.2473 214.53 78.085 214.921C77.9226 215.313 77.6848 215.668 77.3847 215.968C77.0849 216.267 76.7288 216.505 76.3371 216.666C75.9454 216.828 75.5255 216.911 75.1017 216.911Z" stroke="#037047" stroke-width="1.3125" stroke-linecap="round" stroke-linejoin="round"/>
<path d="M26.8742 66.9326H59.1638" stroke="#037047" stroke-width="1.3125" stroke-linecap="round" stroke-linejoin="round"/>
<path d="M64.8739 41.3984H43.0153" stroke="#037047" stroke-width="1.3125" stroke-linecap="round" stroke-linejoin="round"/>
<path d="M26.942 49.5809C32.0068 49.5809 36.1124 45.4754 36.1124 40.4106C36.1124 35.346 32.0068 31.2402 26.942 31.2402C21.8775 31.2402 17.7717 35.346 17.7717 40.4106C17.7717 45.4754 21.8775 49.5809 26.942 49.5809Z" stroke="#037047" stroke-width="1.3125" stroke-linecap="round" stroke-linejoin="round"/>
<path d="M115.391 455.748H54.1339C52.4345 455.748 50.7513 455.414 49.1809 454.764C47.6107 454.114 46.1837 453.159 44.9819 451.959C43.7801 450.756 42.8269 449.33 42.1766 447.758C41.5262 446.189 41.1917 444.506 41.192 442.806V306.436C41.1917 304.737 41.5262 303.054 42.1766 301.485C42.8269 299.913 43.7801 298.487 44.9822 297.286C46.184 296.083 47.6107 295.132 49.1811 294.481C50.7515 293.831 52.4345 293.497 54.1339 293.497H115.391C118.823 293.497 122.114 294.861 124.541 297.286C126.968 299.714 128.332 303.004 128.333 306.436V442.806C128.332 446.239 126.968 449.528 124.541 451.957C122.114 454.382 118.823 455.746 115.391 455.748Z" stroke="#037047" stroke-width="1.3125" stroke-linecap="round" stroke-linejoin="round"/>
<path d="M115.333 448.204H54.1716C53.3181 448.202 52.5002 447.863 51.8968 447.26C51.2934 446.658 50.9537 445.839 50.9524 444.985V306.388C50.9524 305.534 51.2916 304.716 51.8953 304.111C52.499 303.508 53.3178 303.169 54.1716 303.169H115.333C115.756 303.169 116.174 303.252 116.565 303.415C116.955 303.576 117.31 303.812 117.608 304.113C117.907 304.412 118.144 304.766 118.306 305.155C118.467 305.547 118.55 305.966 118.55 306.388V444.985C118.549 445.839 118.21 446.658 117.607 447.26C117.004 447.863 116.186 448.202 115.333 448.204Z" stroke="#037047" stroke-width="1.3125" stroke-linecap="round" stroke-linejoin="round"/>
<path d="M67.0939 298.235H99.386" stroke="#037047" stroke-width="1.3125" stroke-linecap="round" stroke-linejoin="round"/>
<path d="M105.106 272.71H83.2447" stroke="#037047" stroke-width="1.3125" stroke-linecap="round" stroke-linejoin="round"/>
<path d="M76.3318 271.714C76.3323 273.527 75.7952 275.299 74.788 276.806C73.7811 278.315 72.3496 279.49 70.6744 280.183C68.9996 280.876 67.1565 281.06 65.3781 280.706C63.6001 280.352 61.9666 279.478 60.6847 278.197C59.4028 276.914 58.5303 275.279 58.1769 273.501C57.8236 271.724 58.0057 269.881 58.7 268.206C59.3946 266.531 60.57 265.099 62.0779 264.093C63.586 263.086 65.3585 262.551 67.1715 262.551C69.6012 262.551 71.9312 263.518 73.649 265.235C75.3668 266.953 76.3318 269.283 76.3318 271.714Z" stroke="#037047" stroke-width="1.3125" stroke-linecap="round" stroke-linejoin="round"/>
<path d="M252.145 194.265H190.898C189.199 194.265 187.516 193.93 185.947 193.28C184.377 192.63 182.951 191.676 181.75 190.474C180.549 189.272 179.596 187.845 178.947 186.275C178.298 184.705 177.965 183.022 177.966 181.323V44.9732C177.965 43.274 178.298 41.5913 178.948 40.0212C179.597 38.451 180.549 37.0242 181.75 35.8224C182.951 34.6204 184.377 33.667 185.947 33.0166C187.517 32.366 189.199 32.0313 190.898 32.0313H252.145C253.845 32.0297 255.528 32.3637 257.1 33.0136C258.669 33.6634 260.098 34.6169 261.301 35.8187C262.501 37.0207 263.455 38.448 264.105 40.0189C264.756 41.5896 265.087 43.2732 265.087 44.9732V181.323C265.09 183.023 264.756 184.707 264.105 186.278C263.455 187.848 262.503 189.276 261.301 190.478C260.098 191.68 258.671 192.633 257.1 193.283C255.528 193.933 253.845 194.266 252.145 194.265Z" stroke="#037047" stroke-width="1.3125" stroke-linecap="round" stroke-linejoin="round"/>
<path d="M252.108 186.734H190.946C190.093 186.732 189.276 186.391 188.673 185.788C188.07 185.184 187.731 184.366 187.73 183.513V44.9028C187.73 44.0498 188.069 43.2317 188.672 42.6282C189.275 42.0246 190.093 41.6851 190.946 41.6836H252.108C252.961 41.6843 253.78 42.0238 254.383 42.6272C254.988 43.2309 255.327 44.0492 255.327 44.9028V183.513C255.327 184.366 254.985 185.185 254.383 185.788C253.78 186.392 252.961 186.732 252.108 186.734Z" stroke="#037047" stroke-width="1.3125" stroke-linecap="round" stroke-linejoin="round"/>
<path d="M203.871 36.7646H236.16" stroke="#037047" stroke-width="1.3125" stroke-linecap="round" stroke-linejoin="round"/>
<path d="M241.88 11.2305H220.019" stroke="#037047" stroke-width="1.3125" stroke-linecap="round" stroke-linejoin="round"/>
<path d="M213.108 10.2504C213.108 12.0633 212.57 13.8356 211.562 15.3428C210.555 16.8502 209.123 18.0248 207.448 18.7184C205.773 19.4119 203.93 19.5932 202.152 19.2394C200.373 18.8856 198.74 18.0125 197.458 16.7306C196.176 15.4485 195.303 13.8153 194.949 12.037C194.595 10.2589 194.777 8.4158 195.47 6.74071C196.164 5.06559 197.339 3.63376 198.846 2.62618C200.353 1.61862 202.125 1.08058 203.938 1.08008C205.143 1.07975 206.335 1.31672 207.448 1.77747C208.561 2.2382 209.572 2.91367 210.423 3.76529C211.275 4.61689 211.95 5.62796 212.411 6.74071C212.872 7.85345 213.109 9.04607 213.108 10.2504Z" stroke="#037047" stroke-width="1.3125" stroke-linecap="round" stroke-linejoin="round"/>
<path d="M427.135 224.444H365.888C362.456 224.443 359.164 223.079 356.738 220.652C354.31 218.225 352.946 214.934 352.946 211.502V75.1343C352.949 71.7022 354.312 68.4112 356.738 65.9843C359.166 63.5576 362.456 62.1936 365.888 62.1924H427.135C428.835 62.1919 430.517 62.5264 432.089 63.1767C433.659 63.8271 435.085 64.7803 436.288 65.9821C437.488 67.1841 438.442 68.6109 439.093 70.1813C439.743 71.7514 440.077 73.4346 440.077 75.1343V211.502C440.077 213.201 439.743 214.885 439.093 216.455C438.442 218.026 437.491 219.452 436.288 220.654C435.085 221.856 433.659 222.81 432.089 223.46C430.517 224.11 428.835 224.444 427.135 224.444Z" stroke="#037047" stroke-width="1.3125" stroke-linecap="round" stroke-linejoin="round"/>
<path d="M427.097 216.909H365.936C365.082 216.908 364.266 216.568 363.663 215.965C363.058 215.361 362.719 214.544 362.719 213.69V75.0805C362.722 74.2275 363.061 73.4099 363.663 72.8065C364.266 72.2033 365.082 71.8633 365.936 71.8613H427.097C427.951 71.8633 428.767 72.2031 429.372 72.8065C429.975 73.4096 430.314 74.2272 430.317 75.0805V213.69C430.317 214.544 429.975 215.362 429.372 215.965C428.77 216.568 427.951 216.908 427.097 216.909Z" stroke="#037047" stroke-width="1.3125" stroke-linecap="round" stroke-linejoin="round"/>
<path d="M378.86 66.9326H411.15" stroke="#037047" stroke-width="1.3125" stroke-linecap="round" stroke-linejoin="round"/>
<path d="M416.86 41.3984H394.999" stroke="#037047" stroke-width="1.3125" stroke-linecap="round" stroke-linejoin="round"/>
<path d="M378.928 49.5809C383.993 49.5809 388.098 45.4754 388.098 40.4106C388.098 35.346 383.993 31.2402 378.928 31.2402C373.863 31.2402 369.758 35.346 369.758 40.4106C369.758 45.4754 373.863 49.5809 378.928 49.5809Z" stroke="#037047" stroke-width="1.3125" stroke-linecap="round" stroke-linejoin="round"/>
<path d="M147.867 358.593C147.866 359.51 147.594 360.404 147.084 361.165C146.575 361.926 145.852 362.518 145.005 362.867C144.159 363.216 143.229 363.309 142.331 363.128C141.433 362.95 140.609 362.508 139.961 361.863C139.314 361.215 138.873 360.389 138.695 359.492C138.516 358.593 138.608 357.662 138.958 356.818C139.309 355.972 139.902 355.249 140.663 354.739C141.424 354.229 142.318 353.958 143.234 353.958C143.843 353.958 144.445 354.079 145.008 354.31C145.57 354.543 146.081 354.885 146.512 355.314C146.942 355.746 147.283 356.256 147.515 356.818C147.748 357.381 147.868 357.986 147.867 358.593Z" stroke="#037047" stroke-width="1.3125" stroke-linecap="round" stroke-linejoin="round"/>
<path d="M147.867 398.812C147.868 399.729 147.598 400.625 147.09 401.386C146.583 402.15 145.86 402.745 145.014 403.096C144.168 403.448 143.237 403.541 142.339 403.362C141.44 403.184 140.614 402.745 139.966 402.097C139.317 401.451 138.875 400.625 138.696 399.729C138.516 398.83 138.607 397.898 138.957 397.052C139.307 396.206 139.9 395.48 140.661 394.973C141.423 394.463 142.318 394.189 143.234 394.189C143.842 394.189 144.444 394.307 145.006 394.539C145.568 394.772 146.078 395.111 146.509 395.54C146.939 395.97 147.28 396.48 147.513 397.042C147.746 397.602 147.867 398.205 147.867 398.812Z" stroke="#037047" stroke-width="1.3125" stroke-linecap="round" stroke-linejoin="round"/>
<path d="M148.351 398.813H272.447V375.684" stroke="#037047" stroke-width="1.3125" stroke-linecap="round" stroke-linejoin="round"/>
<path d="M103.012 89.5017C105.566 89.5017 107.637 87.4308 107.637 84.8763C107.637 82.3216 105.566 80.251 103.012 80.251C100.457 80.251 98.3863 82.3216 98.3863 84.8763C98.3863 87.4308 100.457 89.5017 103.012 89.5017Z" stroke="#037047" stroke-width="1.3125" stroke-linecap="round" stroke-linejoin="round"/>
<path d="M107.634 84.877H143.233V232.228H242.714" stroke="#037047" stroke-width="1.3125" stroke-linecap="round" stroke-linejoin="round"/>
<path d="M155.553 297.723H147.867V247.951H225.566H225.576" stroke="#037047" stroke-width="1.3125" stroke-linecap="round" stroke-linejoin="round"/>
<path d="M345.403 82.7146C345.403 83.6294 345.132 84.5241 344.625 85.2849C344.117 86.046 343.394 86.6392 342.55 86.9897C341.704 87.34 340.775 87.4321 339.876 87.2539C338.98 87.0756 338.156 86.6354 337.508 85.9885C336.86 85.3417 336.421 84.5176 336.24 83.6204C336.062 82.7232 336.155 81.7928 336.504 80.9476C336.855 80.1024 337.448 79.3797 338.209 78.8715C338.967 78.363 339.864 78.0918 340.778 78.0918C342.003 78.0923 343.181 78.5797 344.047 79.4463C344.913 80.3131 345.401 81.4885 345.403 82.7146Z" stroke="#037047" stroke-width="1.3125" stroke-linecap="round" stroke-linejoin="round"/>
<path d="M280.445 65.2175C282.998 65.2175 285.07 63.1466 285.07 60.5921C285.07 58.0374 282.998 55.9668 280.445 55.9668C277.891 55.9668 275.819 58.0374 275.819 60.5921C275.819 63.1466 277.891 65.2175 280.445 65.2175Z" stroke="#037047" stroke-width="1.3125" stroke-linecap="round" stroke-linejoin="round"/>
<path d="M340.78 127.572C343.334 127.572 345.406 125.501 345.406 122.947C345.406 120.392 343.334 118.321 340.78 118.321C338.226 118.321 336.155 120.392 336.155 122.947C336.155 125.501 338.226 127.572 340.78 127.572Z" stroke="#037047" stroke-width="1.3125" stroke-linecap="round" stroke-linejoin="round"/>
<path d="M340.78 147.688C343.334 147.688 345.406 145.617 345.406 143.063C345.406 140.508 343.334 138.438 340.78 138.438C338.226 138.438 336.155 140.508 336.155 143.063C336.155 145.617 338.226 147.688 340.78 147.688Z" stroke="#037047" stroke-width="1.3125" stroke-linecap="round" stroke-linejoin="round"/>
<path d="M345.403 163.174C345.401 164.088 345.129 164.982 344.62 165.741C344.11 166.501 343.387 167.093 342.543 167.442C341.697 167.791 340.768 167.881 339.871 167.702C338.975 167.523 338.151 167.081 337.503 166.434C336.858 165.787 336.419 164.963 336.24 164.066C336.062 163.169 336.155 162.239 336.506 161.395C336.855 160.55 337.448 159.828 338.209 159.32C338.97 158.812 339.864 158.541 340.778 158.541C341.385 158.541 341.988 158.661 342.551 158.894C343.11 159.127 343.62 159.468 344.052 159.898C344.482 160.329 344.821 160.839 345.054 161.401C345.285 161.964 345.403 162.566 345.403 163.174Z" stroke="#037047" stroke-width="1.3125" stroke-linecap="round" stroke-linejoin="round"/>
<path d="M280.445 65.2178V122.947H302.256H336.157" stroke="#037047" stroke-width="1.3125" stroke-linecap="round" stroke-linejoin="round"/>
<path d="M336.157 143.062H320.704V223.765" stroke="#037047" stroke-width="1.3125" stroke-linecap="round" stroke-linejoin="round"/>
<path d="M336.157 163.176H330.088V223.765" stroke="#037047" stroke-width="1.3125" stroke-linecap="round" stroke-linejoin="round"/>
<path d="M336.157 82.7148H302.256V122.947V215.893" stroke="#037047" stroke-width="1.3125" stroke-linecap="round" stroke-linejoin="round"/>
<path d="M44.5269 139.254C58.7098 139.254 70.2074 127.756 70.2074 113.573C70.2074 99.3902 58.7098 87.8926 44.5269 87.8926C30.344 87.8926 18.8464 99.3902 18.8464 113.573C18.8464 127.756 30.344 139.254 44.5269 139.254Z" stroke="#037047" stroke-width="1.3125" stroke-linecap="round" stroke-linejoin="round"/>
<path d="M19.5244 154.335H66.5136" stroke="#037047" stroke-width="1.3125" stroke-linecap="round" stroke-linejoin="round"/>
<path d="M19.5244 169.421H66.5136" stroke="#037047" stroke-width="1.3125" stroke-linecap="round" stroke-linejoin="round"/>
<path d="M19.5244 184.505H66.5136" stroke="#037047" stroke-width="1.3125" stroke-linecap="round" stroke-linejoin="round"/>
<path d="M106.386 315.589H60.1052V336.488H106.386V315.589Z" stroke="#037047" stroke-width="1.3125" stroke-linecap="round" stroke-linejoin="round"/>
<path d="M106.386 345.757H60.1052V366.656H106.386V345.757Z" stroke="#037047" stroke-width="1.3125" stroke-linecap="round" stroke-linejoin="round"/>
<path d="M106.386 375.925H60.1052V433.654H106.386V375.925Z" stroke="#037047" stroke-width="1.3125" stroke-linecap="round" stroke-linejoin="round"/>
<path d="M410.025 98.3882C410.025 101.06 409.234 103.673 407.75 105.895C406.266 108.117 404.157 109.849 401.688 110.873C399.22 111.896 396.505 112.165 393.884 111.644C391.262 111.123 388.854 109.838 386.966 107.949C385.075 106.06 383.787 103.653 383.267 101.032C382.745 98.4118 383.011 95.6953 384.033 93.2265C385.055 90.7576 386.785 88.6471 389.007 87.1623C391.23 85.6773 393.841 84.8843 396.513 84.8838C400.096 84.8833 403.531 86.3055 406.065 88.8379C408.599 91.3706 410.022 94.8059 410.025 98.3882Z" stroke="#037047" stroke-width="1.3125" stroke-linecap="round" stroke-linejoin="round"/>
<path d="M377.482 125.563H415.552" stroke="#037047" stroke-width="1.3125" stroke-linecap="round" stroke-linejoin="round"/>
<path d="M377.482 135.617H415.552" stroke="#037047" stroke-width="1.3125" stroke-linecap="round" stroke-linejoin="round"/>
<path d="M410.025 161.742C410.025 164.414 409.231 167.025 407.745 169.246C406.261 171.467 404.151 173.197 401.683 174.219C399.215 175.241 396.498 175.508 393.879 174.987C391.257 174.465 388.852 173.178 386.961 171.289C385.073 169.399 383.787 166.993 383.265 164.372C382.745 161.752 383.011 159.036 384.033 156.568C385.055 154.099 386.788 151.99 389.007 150.505C391.23 149.021 393.841 148.228 396.513 148.228C398.288 148.227 400.046 148.577 401.686 149.256C403.325 149.935 404.814 150.93 406.07 152.185C407.323 153.44 408.32 154.93 408.998 156.57C409.676 158.21 410.025 159.967 410.025 161.742Z" stroke="#037047" stroke-width="1.3125" stroke-linecap="round" stroke-linejoin="round"/>
<path d="M377.482 188.914H415.552" stroke="#037047" stroke-width="1.3125" stroke-linecap="round" stroke-linejoin="round"/>
<path d="M377.482 198.979H415.552" stroke="#037047" stroke-width="1.3125" stroke-linecap="round" stroke-linejoin="round"/>
<path d="M147.867 358.593H245.408" stroke="#037047" stroke-width="1.3125" stroke-linecap="round" stroke-linejoin="round"/>
</svg>
