<svg width="32" height="32" viewBox="0 0 32 32" fill="none" xmlns="http://www.w3.org/2000/svg">
<circle cx="16.0003" cy="16" r="13.3333" fill="white"/>
<path d="M16 9.44145C18.1361 9.44145 18.3891 9.44961 19.2327 9.4881C20.0127 9.52367 20.4363 9.65399 20.7182 9.76355C21.0916 9.90867 21.3581 10.082 21.638 10.362C21.918 10.6419 22.0913 10.9084 22.2365 11.2818C22.346 11.5637 22.4763 11.9873 22.5119 12.7673C22.5504 13.6109 22.5586 13.8639 22.5586 16C22.5586 18.1361 22.5504 18.3891 22.5119 19.2327C22.4763 20.0127 22.346 20.4362 22.2365 20.7181C22.0913 21.0916 21.918 21.3581 21.638 21.638C21.3581 21.9179 21.0916 22.0913 20.7182 22.2364C20.4363 22.346 20.0127 22.4763 19.2327 22.5119C18.3892 22.5504 18.1362 22.5585 16 22.5585C13.8638 22.5585 13.6108 22.5504 12.7673 22.5119C11.9873 22.4763 11.5637 22.346 11.2818 22.2364C10.9084 22.0913 10.6419 21.9179 10.362 21.638C10.0821 21.3581 9.90867 21.0916 9.76354 20.7181C9.65398 20.4362 9.52366 20.0127 9.48809 19.2327C9.4496 18.3891 9.44144 18.1361 9.44144 16C9.44144 13.8639 9.4496 13.6109 9.48809 12.7673C9.52366 11.9873 9.65398 11.5637 9.76354 11.2818C9.90867 10.9084 10.082 10.6419 10.362 10.362C10.6419 10.082 10.9084 9.90867 11.2818 9.76355C11.5637 9.65399 11.9873 9.52367 12.7673 9.4881C13.6109 9.44961 13.8639 9.44145 16 9.44145ZM16 8.00002C13.8273 8.00002 13.5549 8.00922 12.7016 8.04816C11.8501 8.08699 11.2686 8.22224 10.7597 8.41999C10.2336 8.62443 9.78748 8.89798 9.34271 9.34272C8.89797 9.78749 8.62442 10.2336 8.42001 10.7597C8.22223 11.2686 8.08698 11.8501 8.04814 12.7016C8.00921 13.5549 8 13.8273 8 16C8 18.1726 8.00921 18.4451 8.04814 19.2984C8.08698 20.1499 8.22223 20.7314 8.42001 21.2403C8.62442 21.7663 8.89797 22.2125 9.34271 22.6573C9.78748 23.102 10.2336 23.3755 10.7597 23.58C11.2686 23.7777 11.8501 23.913 12.7016 23.9518C13.5549 23.9908 13.8273 24 16 24C18.1727 24 18.4451 23.9908 19.2984 23.9518C20.1499 23.913 20.7314 23.7777 21.2403 23.58C21.7664 23.3755 22.2125 23.102 22.6573 22.6573C23.102 22.2125 23.3756 21.7663 23.58 21.2403C23.7778 20.7314 23.913 20.1499 23.9519 19.2984C23.9908 18.4451 24 18.1726 24 16C24 13.8273 23.9908 13.5549 23.9519 12.7016C23.913 11.8501 23.7778 11.2686 23.58 10.7597C23.3756 10.2336 23.102 9.78749 22.6573 9.34272C22.2125 8.89798 21.7664 8.62443 21.2403 8.41999C20.7314 8.22224 20.1499 8.08699 19.2984 8.04816C18.4451 8.00922 18.1727 8.00002 16 8.00002Z" fill="#8C3BBC"/>
<path d="M16.0036 11.8955C13.7348 11.8955 11.8955 13.7347 11.8955 16.0036C11.8955 18.2725 13.7348 20.1117 16.0036 20.1117C18.2725 20.1117 20.1117 18.2725 20.1117 16.0036C20.1117 13.7347 18.2725 11.8955 16.0036 11.8955ZM16.0036 18.6703C14.5308 18.6703 13.3369 17.4764 13.3369 16.0036C13.3369 14.5308 14.5308 13.3369 16.0036 13.3369C17.4764 13.3369 18.6703 14.5308 18.6703 16.0036C18.6703 17.4764 17.4764 18.6703 16.0036 18.6703Z" fill="#8C3BBC"/>
<path d="M21.2335 11.7309C21.2335 12.261 20.8037 12.6908 20.2735 12.6908C19.7433 12.6908 19.3135 12.261 19.3135 11.7309C19.3135 11.2007 19.7433 10.7708 20.2735 10.7708C20.8037 10.7708 21.2335 11.2007 21.2335 11.7309Z" fill="white"/>
</svg>
