<svg width="110" height="110" viewBox="0 0 110 110" fill="none" xmlns="http://www.w3.org/2000/svg">
<circle cx="55" cy="55" r="55" fill="#378C65"/>
<path d="M51.3518 29.04H58.6477V42.72H51.3518V29.04Z" fill="white"/>
<path d="M33.074 39.6334L38.2333 34.4741L47.9064 44.1472L42.747 49.3065L33.074 39.6334Z" fill="white"/>
<path d="M27.6399 52.752H41.3199V60.0478H27.6399V52.752Z" fill="white"/>
<path d="M38.2333 78.326L33.074 73.1667L42.747 63.4937L47.9064 68.653L38.2333 78.326Z" fill="white"/>
<path d="M51.3518 70.0801H58.6477V83.7601H51.3518V70.0801Z" fill="white"/>
<path d="M76.9259 73.1667L71.7666 78.326L62.0935 68.653L67.2528 63.4937L76.9259 73.1667Z" fill="white"/>
<path d="M68.6799 52.752H82.3599V60.0478H68.6799V52.752Z" fill="white"/>
<path d="M62.094 44.1467L71.7671 34.4736L76.9264 39.6329L67.2533 49.306L62.094 44.1467Z" fill="white"/>
</svg>
