<svg width="99" height="94" viewBox="0 0 99 94" fill="none" xmlns="http://www.w3.org/2000/svg">
<rect x="0.0660248" width="98.0305" height="93.3913" rx="20" fill="#6AA84F"/>
<g clip-path="url(#clip0_5304_19)">
<path d="M48.6969 30.2944C47.8812 30.2944 47.2192 29.6637 47.2192 28.8867V25.2134C47.2192 24.4363 47.8812 23.8057 48.6969 23.8057C49.5125 23.8057 50.1745 24.4363 50.1745 25.2134V28.8867C50.1745 29.6637 49.5125 30.2944 48.6969 30.2944Z" fill="white"/>
<path d="M61.6432 35.4036C61.2649 35.4036 60.8866 35.2666 60.599 34.9907C60.0217 34.4407 60.0217 33.5492 60.599 32.9992L63.3258 30.4015C63.903 29.8515 64.8389 29.8515 65.4162 30.4015C65.9934 30.9514 65.9934 31.843 65.4162 32.393L62.6894 34.9907C62.3998 35.2647 62.0215 35.4036 61.6432 35.4036Z" fill="white"/>
<path d="M70.8619 47.7371H67.0061C66.1905 47.7371 65.5285 47.1064 65.5285 46.3294C65.5285 45.5523 66.1905 44.9216 67.0061 44.9216H70.8619C71.6775 44.9216 72.3395 45.5523 72.3395 46.3294C72.3395 47.1064 71.6775 47.7371 70.8619 47.7371Z" fill="white"/>
<path d="M64.37 62.6685C63.9917 62.6685 63.6134 62.5315 63.3258 62.2556L60.599 59.6578C60.0217 59.1079 60.0217 58.2163 60.599 57.6664C61.1762 57.1164 62.1121 57.1164 62.6894 57.6664L65.4162 60.2641C65.9934 60.8141 65.9934 61.7056 65.4162 62.2556C65.1265 62.5315 64.7483 62.6685 64.37 62.6685Z" fill="white"/>
<path d="M33.0238 62.6685C32.6455 62.6685 32.2672 62.5315 31.9796 62.2556C31.4023 61.7056 31.4023 60.8141 31.9796 60.2641L34.7063 57.6664C35.2836 57.1164 36.2195 57.1164 36.7967 57.6664C37.374 58.2163 37.374 59.1079 36.7967 59.6578L34.07 62.2556C33.7803 62.5315 33.4021 62.6685 33.0238 62.6685Z" fill="white"/>
<path d="M30.3876 47.7371H26.5319C25.7163 47.7371 25.0543 47.1064 25.0543 46.3294C25.0543 45.5523 25.7163 44.9216 26.5319 44.9216H30.3876C31.2033 44.9216 31.8653 45.5523 31.8653 46.3294C31.8653 47.1064 31.2033 47.7371 30.3876 47.7371Z" fill="white"/>
<path d="M35.7506 35.4036C35.3723 35.4036 34.994 35.2666 34.7063 34.9907L31.9796 32.393C31.4023 31.843 31.4023 30.9514 31.9796 30.4015C32.5568 29.8515 33.4927 29.8515 34.07 30.4015L36.7967 32.9992C37.374 33.5492 37.374 34.4407 36.7967 34.9907C36.5051 35.2647 36.1288 35.4036 35.7506 35.4036Z" fill="white"/>
<path d="M54.6075 63.2222V65.5684C54.6075 67.3703 53.0511 68.8531 51.1597 68.8531H46.2341C44.5791 68.8531 42.7862 67.6518 42.7862 65.0241V63.2222H54.6075Z" fill="white"/>
<path d="M57.3856 36.1186C54.1544 33.6222 49.8987 32.6462 45.7416 33.4909C40.5205 34.5232 36.2845 38.5775 35.2009 43.5515C34.0976 48.6569 36.1072 53.7247 40.4023 56.8217C41.5647 57.6476 42.3725 58.924 42.6483 60.4068V60.4255C42.6877 60.4068 42.7468 60.4068 42.7862 60.4068H54.6076C54.647 60.4068 54.6667 60.4068 54.7061 60.4255V60.4068C54.9819 58.9803 55.8685 57.6664 57.2279 56.6528C60.5576 54.1377 62.4884 50.3837 62.4884 46.3294C62.4884 42.3502 60.6364 38.6338 57.3856 36.1186ZM47.9581 45.8602H49.4357C51.7448 45.8602 53.6224 47.6489 53.6224 49.8487C53.6224 51.8064 52.131 53.4319 50.1746 53.766V56.1836C50.1746 56.9606 49.5126 57.5913 48.6969 57.5913C47.8812 57.5913 47.2192 56.9606 47.2192 56.1836V53.8373H45.249C44.4333 53.8373 43.7713 53.2067 43.7713 52.4296C43.7713 51.6525 44.4333 51.0219 45.249 51.0219H49.4357C50.1155 51.0219 50.6671 50.4963 50.6671 49.8487C50.6671 49.2012 50.1155 48.6756 49.4357 48.6756H47.9581C45.649 48.6756 43.7713 46.8869 43.7713 44.6871C43.7713 42.7294 45.2628 41.1039 47.2192 40.7698V38.3522C47.2192 37.5752 47.8812 36.9445 48.6969 36.9445C49.5126 36.9445 50.1746 37.5752 50.1746 38.3522V40.6985H52.1448C52.9604 40.6985 53.6224 41.3291 53.6224 42.1062C53.6224 42.8833 52.9604 43.5139 52.1448 43.5139H47.9581C47.2783 43.5139 46.7267 44.0395 46.7267 44.6871C46.7267 45.3346 47.2783 45.8602 47.9581 45.8602Z" fill="white"/>
<path d="M42.6483 60.4067H42.7871C42.7475 60.4067 42.688 60.4067 42.6483 60.4257V60.4067Z" fill="white"/>
<path d="M54.7075 60.4067V60.4258C54.6675 60.4067 54.6475 60.4067 54.6075 60.4067H54.7075Z" fill="white"/>
</g>
<defs>
<clipPath id="clip0_5304_19">
<rect width="47.2853" height="45.0475" fill="white" transform="translate(25.0543 23.8057)"/>
</clipPath>
</defs>
</svg>
