<svg width="110" height="110" viewBox="0 0 110 110" fill="none" xmlns="http://www.w3.org/2000/svg">
<circle cx="55" cy="55" r="55" fill="#378C65"/>
<g clip-path="url(#clip0_5497_70)">
<path d="M56.756 83.443C55.8292 83.443 54.9817 83.0063 54.4396 82.2522L54.1341 81.8255C53.996 81.6172 53.7792 81.4881 53.5232 81.4582C53.2767 81.4283 53.0301 81.4981 52.843 81.6566C52.6949 81.7757 52.5667 81.8948 52.4291 81.994C51.7093 82.5797 50.783 82.788 49.886 82.5398C48.9889 82.3015 48.2888 81.6566 47.9537 80.7833C47.8948 80.6243 47.8354 80.4558 47.7665 80.2868C47.6878 80.0585 47.5101 79.8701 47.2735 79.7809C47.0467 79.6817 46.7903 79.6917 46.5635 79.7909L46.0803 80.0092C45.2328 80.3865 44.2862 80.3466 43.4777 79.8801C42.6792 79.4136 42.1569 78.6096 42.0683 77.677L42.0188 77.1411C41.999 76.8929 41.8806 76.6746 41.6737 76.5161C41.4766 76.3571 41.2301 76.2978 40.9836 76.3476L40.4613 76.4369C39.5345 76.5859 38.6373 76.2878 37.9869 75.6329C37.3364 74.9779 37.0408 74.0648 37.1884 73.1417L37.277 72.6159C37.3166 72.3677 37.2572 72.1294 37.1096 71.931C36.9616 71.7326 36.7349 71.6135 36.4888 71.5836L35.9665 71.5338C35.0397 71.4346 34.2417 70.9187 33.7782 70.1147C33.3149 69.3107 33.2658 68.3582 33.65 67.4945L33.8669 67.008C33.9753 66.7797 33.9753 66.5315 33.8768 66.2932C33.7782 66.055 33.6005 65.8865 33.3644 65.7968C33.1871 65.7375 33.0292 65.6677 32.8713 65.6084C32.0039 65.2709 31.3732 64.5661 31.1266 63.663C30.8899 62.7598 31.087 61.8267 31.6687 61.1026L32.0038 60.6859C32.1618 60.4975 32.2306 60.2492 32.2009 60.001C32.1712 59.7528 32.0335 59.5345 31.836 59.3859L31.4122 59.0784C30.6533 58.5326 30.2295 57.6793 30.2295 56.7463C30.2295 55.8132 30.6632 54.9599 31.4122 54.4141L31.836 54.1066C32.043 53.9675 32.1712 53.7492 32.2009 53.4915C32.2306 53.2433 32.1613 52.9951 32.0038 52.8066L31.6687 52.3899C31.087 51.6652 30.88 50.7327 31.1266 49.8295C31.3632 48.9264 32.0039 48.2215 32.8713 47.8841C33.0292 47.8248 33.1965 47.765 33.3644 47.6957C33.5911 47.6165 33.7782 47.4375 33.8669 47.1993C33.9555 46.961 33.9555 46.7128 33.857 46.4845L33.6401 45.998C33.2653 45.1447 33.305 44.1917 33.7683 43.3778C34.2317 42.5738 35.0303 42.0479 35.9566 41.9587L36.4888 41.9089C36.7354 41.889 36.9522 41.7698 37.1096 41.5615C37.2676 41.3531 37.3265 41.1149 37.277 40.8667L37.1884 40.3408C37.0403 39.4177 37.3364 38.5045 37.9869 37.8497C38.6374 37.1947 39.5444 36.8972 40.4612 37.0457C40.6286 37.0756 40.8063 37.105 40.9835 37.1349C41.2301 37.1748 41.4667 37.115 41.6638 36.9664C41.8608 36.8174 41.9791 36.5891 42.0088 36.3414L42.0584 35.8156C42.1569 34.8825 42.6693 34.079 43.4678 33.6124C44.2664 33.1458 45.2125 33.0965 46.0704 33.4833L46.5536 33.7016C46.7804 33.8108 47.0269 33.8108 47.2635 33.7116C47.4903 33.6124 47.6675 33.4335 47.7566 33.1957C47.8155 33.0173 47.8849 32.8583 47.9438 32.6993C48.2789 31.826 48.979 31.191 49.876 30.9427C50.7731 30.7045 51.6999 30.9029 52.4192 31.4885L52.8331 31.826C53.0202 31.985 53.2668 32.0542 53.5133 32.0243C53.7598 31.9944 53.9767 31.8559 54.1242 31.657L54.4297 31.2303C54.9718 30.4662 55.8194 30.0396 56.7461 30.0396C57.6728 30.0396 58.5205 30.4762 59.0625 31.2303L59.368 31.657C59.5061 31.8554 59.7229 31.9944 59.9695 32.0243C60.2259 32.0542 60.4626 31.9845 60.6497 31.826L61.0636 31.4885C61.7835 30.9029 62.7097 30.6945 63.6068 30.9427C64.5038 31.181 65.2039 31.826 65.539 32.6993C65.5979 32.8583 65.6573 33.0267 65.7262 33.1957C65.8049 33.424 65.9826 33.6124 66.2193 33.7016C66.4559 33.7908 66.7024 33.7908 66.9292 33.6917L67.4124 33.4733C68.26 33.096 69.2065 33.1359 70.015 33.6024C70.8135 34.069 71.3359 34.8729 71.4244 35.8056L71.4739 36.3414C71.4938 36.5896 71.6121 36.8079 71.819 36.9664C72.0161 37.1155 72.2626 37.1847 72.5092 37.1349C72.6864 37.105 72.8641 37.0756 73.0315 37.0457C73.9483 36.8966 74.8554 37.1947 75.5058 37.8497C76.1563 38.5046 76.4519 39.4177 76.3043 40.3408L76.2157 40.8666C76.1761 41.1149 76.2355 41.3531 76.3831 41.5515C76.5311 41.7499 76.7578 41.869 77.0039 41.8989L77.5262 41.9488C78.453 42.048 79.251 42.5638 79.7145 43.3678C80.1779 44.1718 80.2269 45.1243 79.8427 45.9881L79.6259 46.4745C79.5174 46.7028 79.5174 46.951 79.616 47.1893C79.7145 47.4276 79.8922 47.596 80.1284 47.6857C80.3056 47.7451 80.4635 47.8148 80.6214 47.8742C81.4888 48.2116 82.1195 48.9164 82.3661 49.8195C82.6028 50.7227 82.4057 51.6558 81.824 52.38L81.4889 52.7967C81.3309 52.9851 81.2621 53.2333 81.2918 53.4815C81.3215 53.7297 81.4592 53.948 81.6567 54.0966L82.0805 54.4041C82.8394 54.9499 83.2632 55.8033 83.2632 56.7363C83.2632 57.6693 82.8295 58.5227 82.0805 59.0684L81.6567 59.376C81.4498 59.515 81.3215 59.7333 81.2918 59.991C81.2621 60.2393 81.3314 60.4875 81.4889 60.6759L81.824 61.0926C82.4057 61.8173 82.6127 62.7498 82.3661 63.653C82.1295 64.5562 81.4889 65.261 80.6214 65.5984C80.4635 65.6577 80.2962 65.7175 80.1284 65.7868C79.9016 65.8661 79.7145 66.045 79.6259 66.2832C79.5372 66.5215 79.5372 66.7697 79.6358 66.998L79.8526 67.4845C80.2274 68.3378 80.1878 69.2908 79.7244 70.1048C79.261 70.9087 78.4624 71.4346 77.5361 71.5238L77.0039 71.5736C76.7574 71.5936 76.5405 71.7127 76.3831 71.9211C76.2251 72.1294 76.1662 72.3676 76.2157 72.6159L76.3044 73.1417C76.4524 74.0648 76.1563 74.978 75.5058 75.6329C74.8553 76.2878 73.9483 76.5854 73.0315 76.4368L72.5092 76.3476C72.2626 76.3077 72.026 76.3676 71.8289 76.5161C71.6319 76.6651 71.5136 76.8934 71.4839 77.1411L71.4344 77.667C71.3358 78.6 70.8234 79.4035 70.0249 79.8701C69.2263 80.3367 68.2802 80.386 67.4223 79.9992L66.9391 79.7809C66.7124 79.6717 66.4658 79.6717 66.2292 79.7709C66.0024 79.8701 65.8252 80.0491 65.7361 80.2868C65.6772 80.4653 65.6079 80.6243 65.5489 80.7833C65.2138 81.6565 64.5137 82.2915 63.6167 82.5398C62.7196 82.788 61.7928 82.5797 61.0735 81.994C60.9453 81.8849 60.8072 81.7757 60.6596 81.6566C60.4725 81.4976 60.2359 81.4283 59.9794 81.4582C59.7329 81.4881 59.516 81.6267 59.3685 81.8255L59.063 82.2522C58.5303 83.0058 57.6827 83.443 56.756 83.443H56.756ZM53.4148 79.463C53.543 79.463 53.6613 79.473 53.7896 79.4829C54.5782 79.5921 55.2975 80.0287 55.7511 80.6837L56.0368 81.0804C56.3818 81.557 57.1408 81.557 57.4759 81.0804L57.7615 80.6837C58.215 80.0287 58.9344 79.5921 59.7231 79.4829C60.5117 79.3738 61.3202 79.612 61.9311 80.1279L62.3158 80.4454C62.5426 80.6338 62.8282 80.6936 63.1045 80.6239C63.3807 80.5446 63.5976 80.3457 63.706 80.0781C63.7649 79.929 63.8243 79.7705 63.8733 79.6115C64.1496 78.8574 64.7209 78.2518 65.4605 77.9443C66.1996 77.6368 67.0377 77.6567 67.7571 77.9942L68.2106 78.2025C68.477 78.3216 68.7725 78.3117 69.0191 78.1626C69.2656 78.0136 69.423 77.7659 69.4527 77.4778L69.5022 76.9813C69.5711 76.1873 69.9755 75.4431 70.6063 74.9567C71.237 74.4703 72.0554 74.2619 72.8341 74.401L73.3272 74.4802C73.6128 74.5301 73.899 74.4403 74.096 74.232C74.303 74.0236 74.3916 73.7455 74.3426 73.4579L74.2639 72.9714C74.1257 72.1774 74.3228 71.3634 74.8159 70.7285C75.2991 70.0935 76.0382 69.6863 76.8268 69.617L77.3199 69.5671C77.6056 69.5372 77.862 69.3787 78.0002 69.1305C78.1482 68.8823 78.1581 68.5847 78.0398 68.3166L77.8328 67.86C77.4977 67.1353 77.4779 66.2919 77.7833 65.5477C78.0888 64.8036 78.6903 64.2179 79.4393 63.9498C79.5972 63.8905 79.7547 63.8307 79.9027 63.7813C80.1789 63.6722 80.376 63.4539 80.4448 63.1757C80.5235 62.8976 80.4547 62.61 80.2774 62.3817L79.9621 61.9944C79.4497 61.3794 79.213 60.5754 79.3214 59.7714C79.4299 58.9774 79.8636 58.2532 80.5141 57.7965L80.9082 57.5089C81.1448 57.3405 81.2829 57.0723 81.2829 56.7842C81.2829 56.4966 81.1448 56.2284 80.9082 56.0595L80.5141 55.7719C79.8636 55.3153 79.4299 54.5911 79.3214 53.797C79.213 53.0029 79.4497 52.189 79.9621 51.574L80.2774 51.1867C80.4646 50.9584 80.524 50.6708 80.4448 50.3926C80.3661 50.1145 80.1685 49.8962 79.9027 49.787C79.7546 49.7277 79.5972 49.6679 79.4393 49.6186C78.6902 49.3404 78.0888 48.7652 77.7833 48.0206C77.4778 47.2765 77.4977 46.4327 77.8328 45.7084L78.0398 45.2518C78.1581 44.9837 78.1482 44.6861 78.0002 44.4379C77.8521 44.1897 77.6061 44.0312 77.3199 44.0012L76.8268 43.9514C76.0382 43.8821 75.299 43.4749 74.8159 42.8399C74.3327 42.2049 74.1257 41.3809 74.2639 40.5969L74.3426 40.1005C74.3921 39.8129 74.2931 39.5248 74.096 39.3264C73.899 39.128 73.6128 39.0289 73.3272 39.0782C73.1692 39.0981 73.0118 39.128 72.844 39.1575C72.0553 39.2965 71.2468 39.0981 70.6162 38.6017C69.9854 38.1152 69.581 37.3711 69.5121 36.5771L69.4626 36.0806C69.4329 35.793 69.2755 35.5348 69.0289 35.3958C68.7824 35.2467 68.4869 35.2368 68.2205 35.3559L67.767 35.5642C67.0472 35.9017 66.2095 35.9216 65.4704 35.6141C64.7312 35.3065 64.1495 34.701 63.8832 33.9469C63.8243 33.7879 63.7649 33.6294 63.7159 33.4803C63.6075 33.2022 63.3906 33.0038 63.1144 32.9345C62.8381 32.8553 62.5525 32.9246 62.3257 33.103L61.941 33.4205C61.3301 33.9364 60.5316 34.1647 59.733 34.0655C58.9349 33.9399 58.215 33.5033 57.7616 32.8483L57.4759 32.4516C57.1308 31.975 56.3719 31.975 56.0368 32.4516L55.7511 32.8483C55.2976 33.5033 54.5783 33.9399 53.7797 34.0491C52.991 34.1482 52.1825 33.92 51.5716 33.4041L51.187 33.0866C50.9602 32.8982 50.6746 32.8384 50.3983 32.9181C50.122 32.9974 49.9052 33.1962 49.7968 33.4639C49.7379 33.6129 49.6785 33.7714 49.6294 33.9304C49.3532 34.6846 48.7819 35.2901 48.0423 35.5976C47.3032 35.9052 46.465 35.8852 45.7457 35.5478L45.2922 35.3394C45.0258 35.2203 44.7303 35.2303 44.4837 35.3793C44.2372 35.5284 44.0797 35.7761 44.05 36.0642L44.0005 36.5606C43.9317 37.3546 43.5272 38.0988 42.8965 38.5852C42.2658 39.0717 41.4474 39.2801 40.6687 39.141C40.5014 39.1111 40.3335 39.0817 40.1855 39.0618C39.8998 39.0219 39.6137 39.1016 39.4166 39.31C39.2196 39.5183 39.1211 39.7965 39.1701 40.0841L39.2488 40.5705C39.3869 41.3645 39.1899 42.1785 38.6968 42.8135C38.2136 43.4485 37.4745 43.8557 36.6858 43.925L36.1927 43.9748C35.9071 44.0047 35.6506 44.1632 35.5125 44.4115C35.3645 44.6597 35.3546 44.9573 35.4729 45.2254L35.6798 45.682C36.015 46.4067 36.0348 47.2501 35.7293 47.9942C35.4239 48.7384 34.8224 49.3241 34.0734 49.5922C33.9154 49.6515 33.758 49.7113 33.61 49.7606C33.3337 49.8698 33.1367 50.0881 33.0679 50.3662C32.9892 50.6444 33.058 50.932 33.2352 51.1602L33.5506 51.5475C34.063 52.1626 34.2996 52.9666 34.1912 53.7706C34.0828 54.5746 33.6491 55.2888 32.9986 55.7455L32.6045 56.033C32.3688 56.21 32.2312 56.4782 32.2312 56.7658C32.2312 57.0534 32.3693 57.3215 32.606 57.4905L33.0001 57.7781C33.6506 58.2346 34.0843 58.9589 34.1927 59.7629C34.3011 60.5569 34.0645 61.3709 33.5521 61.9859L33.2367 62.3732C33.0496 62.6015 32.9902 62.8891 33.0694 63.1673C33.1481 63.4454 33.3456 63.6637 33.6115 63.7729C33.7595 63.8322 33.9169 63.892 34.0749 63.9413C34.8239 64.2195 35.4254 64.7947 35.7308 65.5393C36.0363 66.2834 36.0165 67.1272 35.6813 67.8515L35.4744 68.3081C35.3561 68.5762 35.366 68.8738 35.514 69.122C35.662 69.3702 35.9081 69.5287 36.1942 69.5587L36.6873 69.6085C37.476 69.6778 38.2152 70.085 38.6983 70.72C39.1814 71.355 39.3884 72.179 39.2503 72.963L39.1716 73.4594C39.1221 73.747 39.2211 74.0351 39.4181 74.2335C39.6152 74.4318 39.9013 74.531 40.187 74.4817L40.6702 74.4024C41.4588 74.2634 42.2673 74.4618 42.898 74.9582C43.5287 75.4447 43.9332 76.1888 44.002 76.9828L44.0515 77.4793C44.0812 77.7669 44.2387 78.0251 44.4852 78.1641C44.7317 78.3132 45.0273 78.3231 45.2937 78.204L45.7471 77.9957C46.467 77.6582 47.3046 77.6383 48.0438 77.9458C48.7829 78.2534 49.3647 78.8589 49.6309 79.613C49.6898 79.772 49.7493 79.9305 49.7983 80.0796C49.9067 80.3577 50.1235 80.5561 50.3998 80.6254C50.676 80.7046 50.9617 80.6353 51.1884 80.4569L51.5731 80.1394C52.0934 79.6913 52.7445 79.463 53.4148 79.463L53.4148 79.463Z" fill="white"/>
<path d="M56.756 77.6076C45.3411 77.6076 36.0557 68.2589 36.0557 56.7667C36.0557 45.2743 45.3413 35.9258 56.756 35.9258C68.1706 35.9258 77.4563 45.2745 77.4563 56.7667C77.4568 68.2591 68.1711 77.6076 56.756 77.6076ZM56.756 37.91C46.4252 37.91 38.0265 46.3655 38.0265 56.7667C38.0265 67.1679 46.4249 75.6234 56.756 75.6234C67.087 75.6234 75.4855 67.1679 75.4855 56.7667C75.486 46.3663 67.087 37.91 56.756 37.91Z" fill="white"/>
<path d="M63.0259 67.9904C62.6021 67.9904 62.1783 67.8812 61.7837 67.6629L57.0325 65.0032C56.8553 64.904 56.6478 64.904 56.4706 65.0032L51.7194 67.6629C50.8124 68.1688 49.6986 68.0796 48.8807 67.4147C48.0723 66.7597 47.7371 65.6876 48.0331 64.6758L49.5709 59.505C49.6397 59.2767 49.561 59.0185 49.3639 58.88L45.5588 56.002C44.7113 55.367 44.3464 54.2849 44.6321 53.263C44.9177 52.2407 45.7757 51.5065 46.8302 51.3974L51.7983 50.9009C52.0052 50.881 52.183 50.7519 52.2716 50.5635L54.4207 45.7008C54.8346 44.7578 55.7317 44.1826 56.747 44.1826C57.7624 44.1826 58.6595 44.7683 59.0733 45.7008L61.2125 50.5541C61.3011 50.7425 61.4789 50.8815 61.6858 50.8915L67.2059 51.3974C68.3 51.4966 69.1774 52.2507 69.4436 53.3229C69.71 54.3945 69.2956 55.4767 68.3891 56.0917L64.1602 58.9303C63.9434 59.0693 63.8548 59.337 63.9236 59.5753L65.4415 64.6763C65.7371 65.6787 65.4118 66.7503 64.594 67.4153C64.1598 67.802 63.5979 67.9905 63.0261 67.9905L63.0259 67.9904ZM56.7562 62.9486C57.18 62.9486 57.6038 63.0578 57.9885 63.2761L62.7397 65.9358C63.0451 66.1043 63.2917 65.9558 63.3803 65.8765C63.4689 65.8072 63.6758 65.5984 63.5674 65.2614L62.0495 60.1604C61.7242 59.0688 62.1381 57.9174 63.0748 57.2923L67.3037 54.4537C67.6091 54.2454 67.57 53.9478 67.5403 53.8287C67.5106 53.7095 67.4022 53.4319 67.0378 53.392L61.5177 52.8861C60.6008 52.8069 59.7929 52.2212 59.4181 51.3779L57.2789 46.5246C57.1408 46.2171 56.865 46.1772 56.7566 46.1772C56.6482 46.1772 56.3719 46.2071 56.2343 46.5246L54.0852 51.3873C53.7104 52.2307 52.9218 52.8064 52.0153 52.8956L47.0472 53.392C46.6923 53.4319 46.5838 53.6996 46.5541 53.8087C46.5244 53.9179 46.4754 54.2154 46.7611 54.4238L50.5662 57.3018C51.4137 57.9468 51.7786 59.0683 51.4731 60.0905L49.9354 65.2612C49.8369 65.5987 50.0339 65.807 50.1226 65.8763C50.2112 65.9456 50.4577 66.1046 50.7632 65.9356L55.5144 63.2759C55.9085 63.0476 56.3322 62.9484 56.756 62.9484L56.7562 62.9486Z" fill="white"/>
</g>
<defs>
<clipPath id="clip0_5497_70">
<rect width="53" height="58" fill="white" transform="translate(30 26)"/>
</clipPath>
</defs>
</svg>
