<svg width="99" height="94" viewBox="0 0 99 94" fill="none" xmlns="http://www.w3.org/2000/svg">
<rect x="0.463623" width="98.0305" height="93.3913" rx="20" fill="#DAC436"/>
<path d="M64.2576 25.8401H41.8832V28.2465H63.5408V58.6593H61.6465C60.469 54.1536 56.3219 50.7747 51.4577 50.7747C46.5938 50.7747 42.4466 54.1025 41.2689 58.6593H38.1457L38.146 46.0129C37.4803 46.4736 36.7124 46.7297 35.8931 46.7297H35.7396V59.3761C35.7396 60.2975 36.5074 61.0657 37.4292 61.0657H40.9106V61.3728C40.9106 67.2096 45.672 71.92 51.4578 71.92C57.2436 71.92 62.005 67.1586 62.005 61.3728V61.0657H64.3089C65.2303 61.0657 65.9985 60.2978 65.9985 59.3761L65.9988 27.5297C65.9474 26.6079 65.1796 25.8401 64.2578 25.8401L64.2576 25.8401ZM51.4064 69.5137C46.9007 69.5137 43.2142 65.8273 43.2142 61.3215C43.2142 56.8157 46.9006 53.1293 51.4064 53.1293C55.9122 53.1293 59.5986 56.8157 59.5986 61.3215C59.5986 65.8273 55.9122 69.5137 51.4064 69.5137Z" fill="white"/>
<path d="M43.8288 35.1072H57.8064C58.4721 35.1072 58.9839 34.5951 58.9839 33.9297C58.9839 33.264 58.4718 32.7522 57.8064 32.7522H43.8288C43.1631 32.7522 42.6513 33.2643 42.6513 33.9297C42.6509 34.544 43.1631 35.1072 43.8288 35.1072Z" fill="white"/>
<path d="M43.8288 41.456H57.8064C58.4721 41.456 58.9839 40.9438 58.9839 40.2785C58.9839 39.6127 58.4718 39.1009 57.8064 39.1009L43.8288 39.1006C43.1631 39.1006 42.6513 39.6127 42.6513 40.2781C42.6509 40.9438 43.1631 41.456 43.8288 41.456V41.456Z" fill="white"/>
<path d="M43.8288 47.8047H57.8064C58.4721 47.8047 58.9839 47.2926 58.9839 46.6272C58.9839 45.9615 58.4718 45.4497 57.8064 45.4497H43.8288C43.1631 45.4497 42.6513 45.9619 42.6513 46.6272C42.6509 47.2929 43.1631 47.8047 43.8288 47.8047Z" fill="white"/>
<path d="M37.1216 43.9136L39.2209 41.5582C39.477 41.2511 39.6305 40.8415 39.6305 40.4318V24.9694C39.6305 24.5087 39.477 24.0991 39.1184 23.7919C38.8113 23.4848 38.3505 23.2798 37.9409 23.2798H33.7938C33.3331 23.2798 32.9234 23.4334 32.6163 23.7919C32.3091 24.0991 32.1041 24.5598 32.1041 24.9694V40.4318C32.1041 40.8415 32.2577 41.2511 32.5138 41.5582L34.6131 43.9136C34.6131 43.9647 34.6641 43.9647 34.6641 44.0161C34.9713 44.3233 35.432 44.5283 35.8416 44.5283C36.3538 44.4768 36.8145 44.2722 37.1216 43.9136H37.1216ZM37.5313 37.309H34.2034V29.1679H37.5313V37.309ZM37.5313 25.4306V27.4784H34.2034V25.4306H37.5313ZM34.2034 40.2786V39.0497H37.5313V40.2786L35.8927 42.1729L34.2034 40.2786Z" fill="white"/>
<path d="M52.0208 58.0448C52.6865 58.0448 53.3008 58.3009 53.813 58.8127C53.9155 58.9152 54.0691 58.9152 54.1716 58.8127L55.093 57.9423C55.1441 57.8912 55.1955 57.8398 55.1955 57.7377C55.1955 57.6352 55.1444 57.5841 55.093 57.533C54.2226 56.6627 53.1473 56.2019 51.9698 56.2019C50.0755 56.2019 48.3859 57.533 47.6691 59.4787H46.6452C46.4916 59.4787 46.3891 59.5812 46.3891 59.7348V60.5541C46.3891 60.7076 46.4916 60.8101 46.6452 60.8101H47.362V61.2708V61.7316H46.6452C46.4916 61.7316 46.3891 61.8341 46.3891 61.9876V62.8069C46.3891 62.9605 46.4916 63.063 46.6452 63.063H47.6691C48.3348 65.0087 50.0755 66.3398 51.9698 66.3398C53.0962 66.3398 54.2227 65.8791 55.042 65.0087C55.093 64.9576 55.1445 64.9062 55.1445 64.804C55.1445 64.753 55.0934 64.6505 55.042 64.5994L54.1206 63.729C54.0181 63.6265 53.8645 63.6265 53.762 63.729C53.2498 64.2412 52.6356 64.4969 51.9698 64.4969C51.0484 64.4969 50.1776 63.9337 49.6659 63.0123L52.0723 63.0112C52.2259 63.0112 52.3284 62.9087 52.3284 62.7551V61.9359C52.3284 61.7823 52.2259 61.6798 52.0723 61.6798H49.2562C49.2562 61.5262 49.2051 61.3726 49.2051 61.2191C49.2051 61.0655 49.2051 60.9119 49.2562 60.7583L52.0723 60.7587C52.2259 60.7587 52.3284 60.6562 52.3284 60.5026V59.6833C52.3284 59.5298 52.2259 59.4273 52.0723 59.4273H49.6659C50.2291 58.608 51.0995 58.0448 52.0209 58.0448L52.0208 58.0448Z" fill="white"/>
</svg>
