<svg width="99" height="94" viewBox="0 0 99 94" fill="none" xmlns="http://www.w3.org/2000/svg">
<rect x="0.27919" width="98.0305" height="93.3913" rx="26" fill="#378C65"/>
<path d="M31.327 55.8563C31.5987 55.8567 31.8678 55.8059 32.1188 55.7068C32.3699 55.6077 32.5979 55.4624 32.7898 55.2791L44.4289 44.1908L49.1722 48.7097C49.3643 48.8927 49.5924 49.0379 49.8434 49.137C50.0944 49.236 50.3634 49.287 50.6351 49.287C50.9068 49.287 51.1758 49.236 51.4268 49.137C51.6778 49.0379 51.9058 48.8927 52.0979 48.7097L65.1154 36.3083L65.1147 40.7467C65.1147 41.2693 65.3326 41.7706 65.7206 42.1402C66.1085 42.5098 66.6347 42.7175 67.1834 42.7175C67.732 42.7175 68.2582 42.5098 68.6462 42.1402C69.0342 41.7706 69.2521 41.2693 69.2521 40.7467L69.2537 31.5494C69.2537 31.0267 69.0357 30.5255 68.6477 30.1559C68.2598 29.7863 67.7336 29.5786 67.1849 29.5786H57.5309C56.9822 29.5786 56.456 29.7863 56.0681 30.1559C55.6801 30.5255 55.4621 31.0267 55.4621 31.5494C55.4621 32.0721 55.6801 32.5734 56.0681 32.943C56.456 33.3126 56.9822 33.5203 57.5309 33.5203H62.1906L50.6351 44.5289L45.8918 40.01C45.6997 39.827 45.4716 39.6818 45.2206 39.5827C44.9696 39.4837 44.7006 39.4327 44.4289 39.4327C44.1572 39.4327 43.8882 39.4837 43.6372 39.5827C43.3862 39.6818 43.1582 39.827 42.9661 40.01L29.8641 52.4919C29.5748 52.7675 29.3777 53.1187 29.2979 53.501C29.2181 53.8833 29.259 54.2796 29.4156 54.6397C29.5722 54.9999 29.8374 55.3077 30.1776 55.5242C30.5178 55.7408 30.9178 55.8564 31.327 55.8563Z" fill="white"/>
<path d="M67.1849 59.7981H31.327C30.7783 59.7981 30.2521 60.0057 29.8641 60.3753C29.4762 60.7449 29.2582 61.2462 29.2582 61.7689C29.2582 62.2916 29.4762 62.7929 29.8641 63.1625C30.2521 63.5321 30.7783 63.7398 31.327 63.7398H67.1849C67.7336 63.7398 68.2598 63.5321 68.6478 63.1625C69.0357 62.7929 69.2537 62.2916 69.2537 61.7689C69.2537 61.2462 69.0357 60.7449 68.6478 60.3753C68.2598 60.0057 67.7336 59.7981 67.1849 59.7981Z" fill="white"/>
</svg>
