<svg width="110" height="113" viewBox="0 0 110 113" fill="none" xmlns="http://www.w3.org/2000/svg">
<circle cx="55" cy="55" r="55" fill="#378C65"/>
<path d="M63.8529 30.8245L65.7712 30.9089C66.5664 30.9457 67.0276 31.1606 67.2939 31.6722L67.9948 33.0378L65.3409 32.9258L63.8529 30.8245ZM58.5227 27.6401C59.2183 27.6401 59.7753 28.071 60.2966 28.8034L63.1574 32.8316L58.0735 32.6119L58.369 32.3824C59.3174 31.6716 58.2072 30.2675 57.2962 31.0259L55.3968 32.5263L52.8186 32.692C51.4578 32.7764 50.5766 32.148 50.2318 31.5514C49.9947 31.1341 49.9979 30.9322 50.5766 30.7649C53.0925 30.038 54.6281 29.6434 57.1019 28.1213C57.6373 27.7916 58.1044 27.6401 58.5228 27.6401L58.5227 27.6401ZM58.7381 25.9156C57.9468 25.8122 57.0671 26.1045 56.187 26.6561C53.703 28.215 52.541 28.5696 49.7608 29.1753C49.042 29.3366 48.4622 29.9515 48.3415 30.6124C48.2198 31.268 48.4141 31.9056 48.7692 32.4755C49.4831 33.6112 50.9738 34.5405 52.9269 34.4155L55.734 34.2407L69.1744 34.8156C70.3105 34.8648 70.8903 35.628 71.1058 36.5618C71.2844 37.357 71.2487 38.1293 70.683 38.4526L60.2365 39.7977C59.0424 39.8968 59.272 41.7113 60.4574 41.5083L71.0738 40.1469C72.106 40.0132 72.4887 40.6774 72.7117 41.4774C72.9542 42.3256 72.5471 43.3362 71.72 43.7894L62.8103 45.6351C61.581 45.797 61.9664 47.6612 63.1605 47.3202L72.2321 45.4424C72.8297 45.3162 73.5339 45.7211 73.6383 46.5022C73.8359 48.0157 73.4635 48.5949 72.389 48.9542L63.1166 52.0661C62.007 52.4294 62.5672 54.0959 63.6693 53.7085L72.9385 50.5917C73.5447 50.3866 73.9171 50.4667 74.2084 50.641C74.505 50.8126 74.7388 51.1357 74.8601 51.5444C75.1075 52.365 74.8817 53.3095 74.0195 53.682L61.4858 59.1112L50.3666 63.6062C50.2724 63.6457 50.1863 63.7004 50.1105 63.7719L46.985 66.6148C46.172 67.397 47.3033 68.636 48.1526 67.8944L51.1617 65.1474L62.1413 60.7103C62.1499 60.706 62.1548 60.7006 62.1629 60.6968L73.6649 55.7164C69.99 59.2239 67.5655 62.8523 65.6488 68.0839L58.4632 65.673C57.4477 65.3358 57.0802 67.0338 57.916 67.3109L65.0859 69.7138C64.6653 71.0156 64.2642 72.404 63.8832 73.9311C63.789 74.3175 63.9676 74.7219 64.3227 74.9065L66.9637 76.2981C68.0095 76.9179 68.8685 75.2783 67.7676 74.7711L65.8011 73.7323C68.1151 64.7869 71.0116 60.4544 76.6562 55.4465L79.93 57.171C73.6282 63.3775 70.9385 70.3114 68.5411 79.2745C68.4279 79.6832 68.6271 80.1092 69.0077 80.2883L76.1884 83.5766C77.2575 84.1071 78.0066 82.467 76.9073 82.0091L70.4491 79.0412C72.8168 70.3691 75.4036 63.8801 81.5332 58.0199L88.3129 61.5958C89.3641 62.1517 90.1685 60.6247 89.1184 60.0687L76.4629 53.3458C76.7276 52.6009 76.7812 51.7652 76.5122 51.0556C76.1484 50.0899 75.6412 49.4967 74.8922 49.0659C75.4984 48.0737 75.5931 46.9148 75.2721 45.9582C75.021 45.2037 74.5003 44.5303 73.8268 44.1173C74.4012 43.2415 74.5847 42.1552 74.4147 41.1755C74.275 40.4074 73.9216 39.6631 73.305 39.1283C73.1031 38.9513 72.8601 38.8128 72.6095 38.6975C72.9646 37.8931 72.9413 36.8955 72.7897 36.1642C72.5234 34.8711 71.5231 33.599 70.0226 33.2131L68.8231 30.8823C68.553 30.3583 68.1627 29.895 67.6425 29.607C67.1175 29.3201 66.5275 29.2162 65.8454 29.1837L62.5852 29.0397L61.7013 27.7964C60.8618 26.6174 59.9947 26.0734 58.7382 25.9165L58.7381 25.9156Z" fill="white"/>
<path fill-rule="evenodd" clip-rule="evenodd" d="M35.4583 49.0659C35.9065 49.0702 36.405 49.2462 36.8489 49.6272L37.8643 50.4971C38.7531 51.2603 38.8663 52.3576 38.3412 52.9724C37.8161 53.583 36.7108 53.6458 35.822 52.8825L34.8065 52.0121C33.9177 51.2489 33.81 50.1491 34.335 49.533C34.5992 49.2277 35.0035 49.0604 35.4582 49.0658L35.4583 49.0659ZM38.4625 44.2923C38.9611 44.2528 39.4731 44.4097 39.8937 44.7681L41.556 46.1916C42.3966 46.9142 42.4854 48.137 41.7665 48.9755C41.0439 49.8161 39.8265 49.906 38.9875 49.1823L37.33 47.7587C36.4894 47.0361 36.3952 45.8219 37.1179 44.983C37.4795 44.5657 37.9639 44.328 38.4624 44.2923L38.4625 44.2923ZM41.5068 39.4374C42.0053 39.3968 42.5174 39.5549 42.938 39.9132L45.2417 41.8938C46.0823 42.6164 46.1814 43.8306 45.4571 44.6695C44.7399 45.5102 43.5171 45.6076 42.6781 44.885L40.3743 42.9044C39.5337 42.1861 39.4395 40.9644 40.1622 40.1248C40.5238 39.7031 41.0082 39.4741 41.5067 39.4373L41.5068 39.4374ZM45.1935 35.1314C45.6969 35.0952 46.209 35.2532 46.6301 35.6116L48.9338 37.5879C49.7744 38.3111 49.8686 39.5311 49.146 40.3718C48.4271 41.2113 47.2092 41.3006 46.3703 40.5769L44.0665 38.6023C43.2259 37.8791 43.1268 36.6612 43.8457 35.8227C44.2099 35.4037 44.6955 35.171 45.1935 35.1314ZM45.0636 33.4254C44.1201 33.4963 43.1994 33.9271 42.5389 34.7006C41.8336 35.5223 41.3481 36.7451 41.5018 37.727C40.456 37.8889 39.4275 38.3425 38.8533 39.0023C37.991 39.9956 37.5418 41.5443 37.9862 42.6398C37.1645 42.7806 36.3834 43.1795 35.8037 43.8572C34.9468 44.8591 34.7308 46.1973 35.1027 47.3783C34.3162 47.4498 33.5724 47.7778 33.0284 48.4106C31.797 49.8434 32.1878 52.0389 33.6839 53.319L34.0531 53.6379L21.8642 60.069C20.8303 60.5994 21.6433 62.1475 22.668 61.596L29.4444 58.0202C35.574 63.8808 38.1659 70.3741 40.5318 79.0415L34.0737 82.0094C33.0009 82.4808 33.7365 84.0837 34.7925 83.5769L41.9647 80.2886C42.3501 80.1143 42.5526 79.6834 42.4448 79.2748C40.042 70.3114 37.3523 63.3778 31.0559 57.1712L34.3297 55.4467C39.9711 60.4543 42.8675 64.7917 45.18 73.7326L43.2135 74.7713C42.1141 75.2785 42.971 76.9175 44.0173 76.2984L46.6584 74.9067C47.0134 74.7221 47.1937 74.3178 47.0946 73.9313C44.8401 64.8279 41.8999 60.0243 36.6049 55.1022C37.7265 55.3041 38.8854 54.9902 39.6492 54.096C40.3134 53.3235 40.4882 52.3308 40.2906 51.3793C41.3277 51.3749 42.3567 50.9441 43.0788 50.0996C43.7711 49.2958 44.0402 48.2673 43.9324 47.2794C44.9024 47.3693 46.0559 46.6277 46.77 45.7974C47.4574 44.9876 47.7313 43.9695 47.6236 42.9859C48.6152 42.9995 49.7525 42.3169 50.4561 41.4941C51.7812 39.9508 51.601 37.6065 50.0567 36.2809L47.7529 34.3046C46.9805 33.6399 46.0105 33.353 45.0638 33.4255L45.0636 33.4254Z" fill="white"/>
<path fill-rule="evenodd" clip-rule="evenodd" d="M32.996 71.9994C33.9221 71.9994 34.6447 72.7356 34.6447 73.6558C34.6447 74.5765 33.9221 75.3045 32.996 75.3045C32.0768 75.3045 31.3439 74.577 31.3439 73.6558C31.3439 72.7356 32.0768 71.9994 32.996 71.9994ZM32.996 70.2749C31.142 70.2749 29.6194 71.802 29.6194 73.6558C29.6194 75.5103 31.142 77.0286 32.996 77.0286C34.8516 77.0286 36.3774 75.5103 36.3774 73.6558C36.3774 71.8018 34.852 70.2749 32.996 70.2749Z" fill="white"/>
</svg>
