<svg width="99" height="94" viewBox="0 0 99 94" fill="none" xmlns="http://www.w3.org/2000/svg">
<rect x="0.456909" width="98.0305" height="93.3913" rx="20" fill="#FE7F2D"/>
<path d="M64.4075 24.6851C64.2494 24.4742 64.0011 24.3501 63.7375 24.3501H36.1C35.8476 24.3501 35.6091 24.4641 35.4502 24.66L24.5627 38.06C24.4416 38.2092 24.375 38.3954 24.375 38.5876C24.387 44.3402 25.897 49.991 28.7569 54.9825C31.6167 59.9738 35.7276 64.1344 40.6848 67.054L49.0767 71.9735C49.338 72.1272 49.6625 72.1272 49.9239 71.9735L58.3157 67.054C63.2727 64.1347 67.3835 59.9741 70.2436 54.9825C73.1035 49.9912 74.6136 44.341 74.6255 38.5876C74.6255 38.4063 74.5668 38.2302 74.458 38.0851L64.4075 24.6851ZM57.469 65.6077L49.5 70.2795L41.531 65.6077C36.8691 62.8619 32.9945 58.9593 30.2827 54.2771C27.5705 49.5953 26.1128 44.2931 26.0499 38.8824L36.4981 26.0241H63.3182L72.9489 38.8652C72.8895 44.2783 71.4332 49.5842 68.7207 54.2694C66.0085 58.9545 62.1325 62.8598 57.4675 65.6068L57.469 65.6077Z" fill="white"/>
<path d="M61.2834 28.5376H38.4115C38.1666 28.5387 37.934 28.6472 37.7759 28.8341L28.7611 39.4909C28.6333 39.642 28.5634 39.8334 28.5634 40.0312C28.5734 44.8165 29.83 49.517 32.2091 53.6695C34.5881 57.8223 38.0077 61.2833 42.1309 63.7128L49.0761 67.7848C49.3378 67.9381 49.662 67.9381 49.9237 67.7848L56.8708 63.7128C60.994 61.2837 64.4136 57.8227 66.7926 53.6695C69.1715 49.5172 70.4282 44.8167 70.4383 40.0312C70.4383 39.8443 70.3759 39.6633 70.2607 39.516L61.9436 28.8592C61.7847 28.6558 61.5413 28.5369 61.2837 28.5369L61.2834 28.5376ZM56.0221 62.2683L49.5004 66.0916L42.9787 62.2683C39.1513 60.0133 35.9684 56.8114 33.737 52.9701C31.5057 49.1288 30.3007 44.7779 30.2378 40.3358L38.7997 30.2121H60.8743L68.7629 40.3176C68.7034 44.7627 67.4999 49.1174 65.2682 52.9625C63.0365 56.8075 59.8521 60.0124 56.022 62.2688L56.0221 62.2683Z" fill="white"/>
<path d="M59.5501 38.5415V35.2375C59.5501 34.5712 59.2854 33.9318 58.8143 33.4608C58.3432 32.9898 57.7038 32.725 57.0376 32.725H55.2086C55.0359 32.2367 54.7166 31.8139 54.2945 31.514C53.8723 31.2142 53.368 31.0523 52.8501 31.05H47.8251C47.2744 31.0523 46.7397 31.2355 46.3035 31.5716C45.8668 31.9074 45.5531 32.3773 45.4099 32.9094C45.113 32.7887 44.7956 32.7258 44.4752 32.7251H43.3168C42.7426 32.7273 42.1863 32.9255 41.7398 33.2867C41.293 33.6478 40.983 34.1507 40.8604 34.7116L39.1738 42.5841C38.7805 44.4266 39.179 46.3498 40.2726 47.8839L41.8638 50.1126C42.4729 50.9628 42.8004 51.9827 42.8001 53.0285V54.5001H41.1251C40.6626 54.5001 40.2875 54.8751 40.2875 55.3376V58.6876C40.2875 58.9097 40.3758 59.1228 40.5328 59.2798C40.6898 59.4369 40.903 59.5251 41.1251 59.5251H57.8751C58.0971 59.5251 58.3103 59.4369 58.4673 59.2798C58.6243 59.1228 58.7126 58.9097 58.7126 58.6876V55.3376C58.7126 55.1155 58.6243 54.9024 58.4673 54.7454C58.3103 54.5883 58.0971 54.5001 57.8751 54.5001H56.2001V51.8201C56.2001 51.1026 56.507 50.4191 57.0435 49.9425L60.696 46.6957L60.6956 46.6953C61.9343 45.5968 62.5407 43.9506 62.31 42.3111C62.0797 40.6716 61.0437 39.2561 59.55 38.5416L59.5501 38.5415ZM57.8751 35.2375V38.0734C57.014 37.9952 56.1477 38.1448 55.3626 38.5063V34.4H57.0376C57.2596 34.4 57.4728 34.4882 57.6298 34.6453C57.7868 34.8023 57.8751 35.0154 57.8751 35.2375V35.2375ZM53.6876 33.5625V39.3263L53.4898 39.425H51.3425C51.2857 39.425 51.233 39.4385 51.175 39.4418V32.725H52.85C53.0721 32.725 53.2852 32.8132 53.4423 32.9702C53.5993 33.1273 53.6875 33.3404 53.6875 33.5625L53.6876 33.5625ZM46.9876 33.5625C46.9876 33.1 47.3626 32.725 47.8251 32.725H49.5001V39.425H46.9876V33.5625ZM57.0376 57.85H41.9626V56.175H57.0376V57.85ZM59.5837 45.4397L55.9313 48.6865C55.0362 49.4817 54.5244 50.6221 54.5252 51.8196V54.4996H44.4752V53.028C44.4774 51.6315 44.0411 50.2695 43.2271 49.1347L41.6359 46.906C40.8163 45.7555 40.5176 44.3135 40.8118 42.9319L42.4984 35.0594H42.4988C42.5814 34.6736 42.9228 34.3977 43.3176 34.398H44.4752C44.6973 34.398 44.9104 34.4863 45.0674 34.6433C45.2244 34.8003 45.3127 35.0131 45.3127 35.2355V39.423H44.2415L43.594 37.4833L42.0027 38.0127L42.8402 40.5252L42.8406 40.5248C42.9543 40.8688 43.2758 41.1002 43.6377 41.0995H48.862C48.7308 41.4184 48.6631 41.7598 48.6627 42.1045C48.6646 43.0437 49.1574 43.9137 49.9616 44.3983C49.1327 45.1427 48.5782 46.1443 48.3872 47.2417L50.0378 47.5232C50.2338 46.3847 51.0107 45.4317 52.0863 45.0107L52.1375 44.9913L53.5235 45.2676C53.7059 45.3049 53.8955 45.2799 54.0619 45.1965L55.7369 44.359L54.988 42.8598L53.5691 43.569L51.1404 43.0841L51.1407 43.0845C50.6457 42.9719 50.3118 42.5079 50.3634 42.0028C50.4147 41.4973 50.8349 41.11 51.3426 41.0995H53.6876C53.8173 41.0995 53.9456 41.0696 54.0619 41.0116L55.9489 40.0694C56.903 39.5924 58.0295 39.6103 58.968 40.1177C59.9064 40.625 60.5383 41.5583 60.6613 42.6178C60.7843 43.6774 60.3831 44.7302 59.586 45.4395L59.5837 45.4397Z" fill="white"/>
<path d="M72.95 23.5125H71.275V25.1875H69.6V26.8625H71.275V28.5375H72.95V26.8625H74.625V25.1875H72.95V23.5125Z" fill="white"/>
<path d="M71.275 31.05H72.95V32.725H71.275V31.05Z" fill="white"/>
<path d="M72.95 67.9001H71.275V69.5751H69.6V71.2501H71.275V72.9251H72.95V71.2501H74.625V69.5751H72.95V67.9001Z" fill="white"/>
<path d="M26.05 63.7125H27.725V62.0375H29.4V60.3625H27.725V58.6875H26.05V60.3625H24.375V62.0375H26.05V63.7125Z" fill="white"/>
<path d="M29.4 67.0625H31.075V68.7375H29.4V67.0625Z" fill="white"/>
<path d="M37.775 69.575H39.45V71.25H37.775V69.575Z" fill="white"/>
<path d="M57.875 69.575H59.55V71.25H57.875V69.575Z" fill="white"/>
<path d="M71.275 59.5251H72.95V61.2001H71.275V59.5251Z" fill="white"/>
<path d="M26.05 32.725H27.725V31.05H29.4V29.375H27.725V27.7H26.05V29.375H24.375V31.05H26.05V32.725Z" fill="white"/>
<path d="M27.725 22.675H29.4V24.35H27.725V22.675Z" fill="white"/>
</svg>
