<svg width="25" height="31" viewBox="0 0 25 31" fill="none" xmlns="http://www.w3.org/2000/svg">
<g clip-path="url(#clip0_1699_7387)">
<path d="M13.7938 2.69905C15.8087 0.0145523 18.6099 0.00146484 18.6099 0.00146484C18.6099 0.00146484 19.0266 2.52535 17.0249 4.95666C14.8876 7.55275 12.4582 7.12795 12.4582 7.12795C12.4582 7.12795 12.002 5.08621 13.7938 2.69905ZM12.7145 8.89592C13.751 8.89592 15.6749 7.45559 18.179 7.45559C22.4893 7.45559 24.185 10.556 24.185 10.556C24.185 10.556 20.8686 12.27 20.8686 16.4291C20.8686 21.1208 25 22.7378 25 22.7378C25 22.7378 22.112 30.9547 18.2111 30.9547C16.4194 30.9547 15.0264 29.7342 13.1387 29.7342C11.2148 29.7342 9.30575 31.0002 8.06234 31.0002C4.50021 31.0003 0 23.2057 0 16.9402C0 10.7757 3.80913 7.54196 7.38194 7.54196C9.70459 7.54196 11.507 8.89592 12.7145 8.89592Z" fill="white"/>
</g>
<defs>
<clipPath id="clip0_1699_7387">
<rect width="25" height="31" fill="white"/>
</clipPath>
</defs>
</svg>
