<svg width="124" height="57" viewBox="0 0 124 57" fill="none" xmlns="http://www.w3.org/2000/svg">
<g clip-path="url(#clip0_1523_6352)">
<path d="M66.4339 17.4668C68.7852 17.4668 70.4558 17.976 71.4457 18.9944C72.1882 19.7683 72.5594 20.746 72.5594 21.9273C72.5594 22.3347 72.5182 22.7624 72.4357 23.2105L72.1572 24.677C71.9304 25.8379 71.4869 26.7443 70.8269 27.3961C70.1876 28.0478 69.6205 28.3737 69.1255 28.3737L69.0945 28.6181C69.672 28.6181 70.2598 28.9338 70.8579 29.5652C71.456 30.1966 71.755 30.9401 71.755 31.7955C71.755 32.1418 71.7138 32.5084 71.6313 32.8954L71.4457 33.8425C71.1157 35.5941 70.3217 36.9689 69.0636 37.967C67.8261 38.965 66.0936 39.464 63.8662 39.464H53.5332L57.4622 17.4668H66.4339ZM63.6496 30.4818H60.7106L59.9681 34.6979H62.9071C62.9484 34.6979 62.9896 34.6979 63.0309 34.6979C63.9796 34.6979 64.7324 34.4841 65.2893 34.0563C65.8461 33.6082 66.1246 33.0685 66.1246 32.4371C66.1246 31.1336 65.2996 30.4818 63.6496 30.4818ZM64.4849 22.2328H62.1646L61.3603 26.785H63.6496C65.6296 26.785 66.6196 25.9296 66.6196 24.2187C66.6196 23.628 66.4339 23.1494 66.0627 22.7828C65.7121 22.4162 65.1861 22.2328 64.4849 22.2328ZM82.59 24.3409C84.8175 24.3409 86.4984 24.8196 87.6328 25.7768C88.5196 26.5304 88.9631 27.5794 88.9631 28.9237C88.9631 29.3718 88.9115 29.8606 88.8084 30.3901L88.1587 33.9647C87.7668 36.1237 86.849 37.6513 85.4053 38.5474C83.9822 39.4436 82.0744 39.8917 79.682 39.8917C77.2895 39.8917 75.5364 39.4436 74.4227 38.5474C73.5977 37.8753 73.1852 36.8671 73.1852 35.5228C73.1852 35.0544 73.2368 34.535 73.3399 33.9647L73.9896 30.3901C74.7114 26.3573 77.5782 24.3409 82.59 24.3409ZM83.4253 31.0012C83.4666 30.7975 83.4872 30.5429 83.4872 30.2374C83.4872 29.9115 83.3532 29.5551 83.085 29.1681C82.8169 28.7811 82.3426 28.5876 81.6619 28.5876C81.0019 28.5876 80.4451 28.8116 79.9913 29.2597C79.5376 29.6875 79.2489 30.2679 79.1251 31.0012L78.7229 33.2925C78.6817 33.4962 78.661 33.761 78.661 34.0869C78.661 34.3924 78.7951 34.7285 79.0632 35.0951C79.3314 35.4617 79.7954 35.645 80.4554 35.645C81.136 35.645 81.7032 35.421 82.1569 34.9729C82.6107 34.5044 82.8994 33.9443 83.0232 33.2925L83.4253 31.0012ZM99.4339 24.3409C101.661 24.3409 103.342 24.8196 104.477 25.7768C105.363 26.5304 105.807 27.5794 105.807 28.9237C105.807 29.3718 105.755 29.8606 105.652 30.3901L105.003 33.9647C104.611 36.1237 103.693 37.6513 102.249 38.5474C100.826 39.4436 98.9183 39.8917 96.5258 39.8917C94.1333 39.8917 92.3802 39.4436 91.2665 38.5474C90.4415 37.8753 90.029 36.8671 90.029 35.5228C90.029 35.0544 90.0806 34.535 90.1837 33.9647L90.8334 30.3901C91.5553 26.3573 94.4221 24.3409 99.4339 24.3409ZM100.269 31.0012C100.31 30.7975 100.331 30.5429 100.331 30.2374C100.331 29.9115 100.197 29.5551 99.9289 29.1681C99.6608 28.7811 99.1864 28.5876 98.5058 28.5876C97.8458 28.5876 97.2889 28.8116 96.8352 29.2597C96.3814 29.6875 96.0927 30.2679 95.9689 31.0012L95.5668 33.2925C95.5255 33.4962 95.5049 33.761 95.5049 34.0869C95.5049 34.3924 95.639 34.7285 95.9071 35.0951C96.1752 35.4617 96.6392 35.645 97.2992 35.645C97.9799 35.645 98.547 35.421 99.0008 34.9729C99.4545 34.5044 99.7433 33.9443 99.867 33.2925L100.269 31.0012ZM116.989 30.0846C116.989 29.2088 116.556 28.7709 115.69 28.7709C114.844 28.7709 114.143 29.0866 113.586 29.718L111.854 39.464H106.594L109.224 24.7686H114.112L113.772 26.5712C114.989 25.0843 116.525 24.3409 118.381 24.3409C120.238 24.3409 121.444 24.789 122.001 25.6852C122.352 26.2555 122.527 26.9073 122.527 27.6405C122.527 28.3737 122.475 29.0561 122.372 29.6875L121.537 34.3924C121.516 34.5146 121.506 34.6266 121.506 34.7285C121.506 35.2784 121.815 35.5534 122.434 35.5534C122.908 35.5534 123.331 35.4515 123.702 35.2479L123.548 38.7002C122.578 39.4945 121.475 39.8917 120.237 39.8917C117.433 39.8917 116.03 38.7307 116.03 36.4088C116.03 36.0015 116.071 35.5636 116.154 35.0951L116.896 31.0317C116.958 30.6651 116.989 30.3494 116.989 30.0846Z" fill="white"/>
</g>
<path fill-rule="evenodd" clip-rule="evenodd" d="M38.8759 37.2132C43.7019 37.3161 47.6976 33.4871 47.8005 28.661C47.9033 23.835 44.0743 19.8393 39.2483 19.7365L35.3002 19.6523C32.3108 19.5886 29.64 21.0335 28.0157 23.2896C27.7639 23.6392 28.0541 24.1017 28.4848 24.1109C31.9755 24.1853 34.7638 26.19 34.7127 28.5886C34.6615 30.9872 31.7904 32.8713 28.2998 32.797C27.981 32.7902 27.7643 33.1333 27.947 33.3946C29.4904 35.6013 32.0293 37.0673 34.9278 37.1291L38.8759 37.2132Z" fill="white"/>
<path fill-rule="evenodd" clip-rule="evenodd" d="M26.9126 33.9051C27.4954 33.2446 26.8193 32.3114 25.9386 32.2926C22.6135 32.2218 19.958 30.2823 20.0075 27.9608C20.057 25.6392 22.7926 23.8146 26.1177 23.8855C26.9107 23.9024 27.5289 23.0667 27.0148 22.4627C25.4525 20.6267 23.1422 19.4417 20.5424 19.3863L17.6627 19.325C12.8366 19.2222 8.84097 23.0511 8.73813 27.8772C8.6353 32.7033 12.4642 36.6989 17.2903 36.8018L20.1701 36.8631C22.8474 36.9202 25.2692 35.7671 26.9126 33.9051Z" fill="white"/>
<defs>
<clipPath id="clip0_1523_6352">
<rect width="70.4676" height="23.7624" fill="white" transform="translate(53.5332 16.3877)"/>
</clipPath>
</defs>
</svg>
