<svg width="178" height="81" viewBox="0 0 178 81" fill="none" xmlns="http://www.w3.org/2000/svg">
<g clip-path="url(#clip0_1523_7011)">
<path d="M95.1757 25.0249C98.5442 25.0249 100.938 25.7544 102.356 27.2134C103.42 28.3222 103.951 29.7229 103.951 31.4153C103.951 31.9989 103.892 32.6117 103.774 33.2537L103.375 35.3546C103.05 37.0179 102.415 38.3164 101.469 39.2502C100.553 40.1839 99.7409 40.6508 99.0318 40.6508L98.9874 41.001C99.8148 41.001 100.657 41.4533 101.514 42.3579C102.371 43.2624 102.799 44.3275 102.799 45.5531C102.799 46.0491 102.74 46.5744 102.622 47.1288L102.356 48.4857C101.883 50.9952 100.746 52.9648 98.9431 54.3946C97.1702 55.8245 94.6882 56.5394 91.497 56.5394H76.6934L82.3223 25.0249H95.1757ZM91.1867 43.671H86.9761L85.9124 49.7112H90.123C90.1821 49.7112 90.2412 49.7112 90.3003 49.7112C91.6595 49.7112 92.738 49.4049 93.5358 48.7921C94.3336 48.1501 94.7325 47.3768 94.7325 46.4723C94.7325 44.6047 93.5506 43.671 91.1867 43.671ZM92.3834 31.853H89.0593L87.9069 38.3748H91.1867C94.0233 38.3748 95.4417 37.1492 95.4417 34.6981C95.4417 33.8519 95.1757 33.1661 94.6439 32.6409C94.1415 32.1157 93.3881 31.853 92.3834 31.853ZM118.322 34.8732C121.513 34.8732 123.921 35.5589 125.546 36.9304C126.817 38.01 127.452 39.5128 127.452 41.4387C127.452 42.0807 127.378 42.781 127.231 43.5397L126.3 48.6608C125.739 51.7538 124.424 53.9424 122.355 55.2263C120.316 56.5102 117.583 57.1522 114.156 57.1522C110.728 57.1522 108.216 56.5102 106.621 55.2263C105.439 54.2633 104.848 52.8189 104.848 50.893C104.848 50.2219 104.922 49.4778 105.07 48.6608L106 43.5397C107.035 37.762 111.142 34.8732 118.322 34.8732ZM119.519 44.4151C119.578 44.1233 119.607 43.7585 119.607 43.3208C119.607 42.8539 119.415 42.3433 119.031 41.7889C118.647 41.2344 117.967 40.9572 116.992 40.9572C116.047 40.9572 115.249 41.2782 114.599 41.9202C113.949 42.5329 113.535 43.3646 113.358 44.4151L112.782 47.6978C112.723 47.9896 112.693 48.369 112.693 48.8358C112.693 49.2735 112.885 49.755 113.269 50.2803C113.653 50.8055 114.318 51.0681 115.264 51.0681C116.239 51.0681 117.051 50.7471 117.701 50.1052C118.351 49.434 118.765 48.6316 118.942 47.6978L119.519 44.4151ZM142.453 34.8732C145.645 34.8732 148.053 35.5589 149.678 36.9304C150.949 38.01 151.584 39.5128 151.584 41.4387C151.584 42.0807 151.51 42.781 151.362 43.5397L150.431 48.6608C149.87 51.7538 148.555 53.9424 146.487 55.2263C144.448 56.5102 141.715 57.1522 138.287 57.1522C134.86 57.1522 132.348 56.5102 130.752 55.2263C129.57 54.2633 128.979 52.8189 128.979 50.893C128.979 50.2219 129.053 49.4778 129.201 48.6608L130.132 43.5397C131.166 37.762 135.273 34.8732 142.453 34.8732ZM143.65 44.4151C143.709 44.1233 143.739 43.7585 143.739 43.3208C143.739 42.8539 143.547 42.3433 143.163 41.7889C142.778 41.2344 142.099 40.9572 141.124 40.9572C140.178 40.9572 139.38 41.2782 138.73 41.9202C138.08 42.5329 137.667 43.3646 137.489 44.4151L136.913 47.6978C136.854 47.9896 136.824 48.369 136.824 48.8358C136.824 49.2735 137.017 49.755 137.401 50.2803C137.785 50.8055 138.45 51.0681 139.395 51.0681C140.37 51.0681 141.183 50.7471 141.833 50.1052C142.483 49.434 142.897 48.6316 143.074 47.6978L143.65 44.4151ZM167.604 43.102C167.604 41.8472 166.984 41.2198 165.743 41.2198C164.531 41.2198 163.526 41.6721 162.729 42.5767L160.247 56.5394H152.712L156.479 35.486H163.482L162.995 38.0684C164.738 35.9382 166.939 34.8732 169.599 34.8732C172.258 34.8732 173.986 35.5151 174.784 36.7991C175.287 37.6161 175.538 38.5499 175.538 39.6003C175.538 40.6508 175.464 41.6284 175.316 42.5329L174.119 49.2735C174.09 49.4486 174.075 49.6091 174.075 49.755C174.075 50.5429 174.518 50.9368 175.405 50.9368C176.084 50.9368 176.69 50.7909 177.222 50.4991L177 55.4451C175.612 56.5832 174.031 57.1522 172.258 57.1522C168.239 57.1522 166.23 55.4889 166.23 52.1624C166.23 51.5788 166.289 50.9514 166.407 50.2803L167.471 44.4588C167.56 43.9336 167.604 43.4813 167.604 43.102Z" fill="white"/>
</g>
<path fill-rule="evenodd" clip-rule="evenodd" d="M55.6967 53.3138C62.6108 53.4612 68.3352 47.9756 68.4826 41.0615C68.6299 34.1473 63.1443 28.4229 56.2302 28.2756L50.574 28.1551C46.2908 28.0638 42.4642 30.1342 40.1372 33.3667C39.7768 33.8673 40.1922 34.5295 40.8089 34.5426C45.8098 34.6492 49.8044 37.5213 49.7312 40.9576C49.658 44.394 45.5446 47.0933 40.5437 46.9868C40.0875 46.9771 39.7773 47.4682 40.0388 47.8422C42.2499 51.0042 45.8875 53.1048 50.0405 53.1933L55.6967 53.3138Z" fill="white"/>
<path fill-rule="evenodd" clip-rule="evenodd" d="M38.557 48.5743C39.392 47.6281 38.4234 46.2913 37.1618 46.2645C32.3981 46.163 28.5937 43.3844 28.6646 40.0584C28.7355 36.7324 32.6547 34.1184 37.4185 34.2199C38.5545 34.2441 39.4399 33.047 38.7036 32.1817C36.4654 29.5513 33.1553 27.8535 29.4307 27.7741L25.305 27.6862C18.3909 27.5389 12.6664 33.0244 12.5191 39.9386C12.3718 46.8527 17.8574 52.5771 24.7715 52.7244L28.8972 52.8124C32.733 52.8941 36.2027 51.2421 38.557 48.5743Z" fill="white"/>
<defs>
<clipPath id="clip0_1523_7011">
<rect width="100.956" height="34.0434" fill="white" transform="translate(76.6934 23.479)"/>
</clipPath>
</defs>
</svg>
