<svg width="1245" height="582" viewBox="0 0 1245 582" fill="none" xmlns="http://www.w3.org/2000/svg">
<mask id="mask0_1699_6873" style="mask-type:alpha" maskUnits="userSpaceOnUse" x="0" y="0" width="1245" height="582">
<rect width="1245" height="581.245" rx="30" fill="#C4C4C4"/>
</mask>
<g mask="url(#mask0_1699_6873)">
<path d="M1191.85 582.432C1187.47 580.762 1187.43 574.574 1191.79 572.845L1749.26 351.827C1750.77 351.227 1752.46 351.225 1753.97 351.822C1759.39 353.959 1759.38 361.632 1753.96 363.756L1195.56 582.415C1194.37 582.882 1193.05 582.888 1191.85 582.432Z" fill="#F58A4C"/>
<path d="M1126.98 582.457C1122.74 580.844 1122.7 574.863 1126.91 573.191L1749.26 326.23C1750.77 325.629 1752.46 325.627 1753.98 326.225C1759.4 328.361 1759.39 336.035 1753.96 338.161L1130.56 582.439C1129.41 582.89 1128.13 582.896 1126.98 582.457Z" fill="#F58A4C"/>
<path d="M1062.11 582.296C1058.02 580.741 1057.98 574.969 1062.05 573.356L1749.27 300.819C1750.78 300.219 1752.47 300.217 1753.98 300.814C1759.4 302.95 1759.39 310.623 1753.97 312.747L1065.56 582.279C1064.46 582.713 1063.23 582.719 1062.11 582.296Z" fill="#F58A4C"/>
<path d="M997.236 582.32C993.292 580.823 993.25 575.259 997.171 573.703L1749.27 275.222C1750.78 274.621 1752.47 274.619 1753.98 275.217C1759.4 277.353 1759.39 285.026 1753.97 287.151L1000.56 582.302C999.494 582.721 998.309 582.727 997.236 582.32Z" fill="#F58A4C"/>
<path d="M932.35 582.159C928.554 580.72 928.513 575.364 932.287 573.867L1749.25 249.811C1750.77 249.21 1752.45 249.208 1753.97 249.805C1759.39 251.942 1759.38 259.614 1753.95 261.738L935.547 582.141C934.521 582.543 933.381 582.55 932.35 582.159Z" fill="#F58A4C"/>
<path d="M867.48 582.184C863.83 580.802 863.789 575.654 867.416 574.215L1749.26 224.214C1750.77 223.613 1752.46 223.611 1753.98 224.208C1759.39 226.345 1759.39 234.017 1753.96 236.142L870.551 582.166C869.565 582.552 868.471 582.558 867.48 582.184Z" fill="#F58A4C"/>
<path d="M802.555 582.163C799.025 580.772 799.02 575.778 802.547 574.379L1749.26 198.803C1750.78 198.202 1752.46 198.2 1753.98 198.797C1759.4 200.934 1759.39 208.607 1753.97 210.731L805.616 582.166C804.632 582.552 803.539 582.551 802.555 582.163Z" fill="#F58A4C"/>
<path d="M737.734 582.047C734.378 580.782 734.337 576.05 737.671 574.727L1749.26 173.206C1750.78 172.605 1752.46 172.603 1753.98 173.2C1759.4 175.336 1759.39 183.009 1753.97 185.133L740.55 582.029C739.646 582.383 738.642 582.39 737.734 582.047Z" fill="#F58A4C"/>
<path d="M672.806 582.026C669.57 580.751 669.565 576.173 672.798 574.891L1749.26 147.794C1750.78 147.193 1752.46 147.192 1753.98 147.789C1759.4 149.925 1759.39 157.598 1753.97 159.722L675.612 582.029C674.71 582.383 673.707 582.382 672.806 582.026Z" fill="#F58A4C"/>
<path d="M607.926 581.865C604.837 580.647 604.832 576.278 607.918 575.053L1749.26 122.197C1750.77 121.596 1752.46 121.594 1753.97 122.191C1759.39 124.328 1759.39 132 1753.96 134.125L610.605 581.868C609.743 582.205 608.786 582.204 607.926 581.865Z" fill="#F58A4C"/>
<path d="M543.052 581.89C540.11 580.73 540.106 576.569 543.045 575.403L1749.26 96.7861C1750.77 96.1854 1752.46 96.1835 1753.98 96.7808C1759.39 98.917 1759.39 106.59 1753.96 108.714L545.603 581.893C544.783 582.214 543.871 582.213 543.052 581.89Z" fill="#F58A4C"/>
<path d="M478.177 581.728C475.382 580.627 475.378 576.673 478.17 575.565L1749.26 71.1885C1750.77 70.5878 1752.46 70.5858 1753.98 71.1831C1759.39 73.3193 1759.39 80.9919 1753.96 83.1158L480.6 581.731C479.821 582.036 478.955 582.035 478.177 581.728Z" fill="#F58A4C"/>
<path d="M413.303 581.753C410.655 580.709 410.651 576.964 413.296 575.914L1749.26 45.7774C1750.78 45.1766 1752.46 45.1747 1753.98 45.772C1759.4 47.9082 1759.39 55.5806 1753.96 57.7045L415.599 581.756C414.86 582.045 414.04 582.044 413.303 581.753Z" fill="#F58A4C"/>
<path d="M348.43 581.592C345.93 580.606 345.926 577.069 348.424 576.077L1749.26 20.1802C1750.78 19.5795 1752.46 19.5775 1753.98 20.1748C1759.4 22.311 1759.39 29.9835 1753.97 32.1072L350.599 581.594C349.902 581.867 349.127 581.866 348.43 581.592Z" fill="#F58A4C"/>
<path d="M283.552 581.617C281.199 580.689 281.195 577.36 283.546 576.426L1733.62 0.935229C1735.13 0.334406 1736.82 0.332417 1738.33 0.929716C1743.75 3.06578 1743.74 10.7381 1738.32 12.8616L285.593 581.619C284.937 581.876 284.208 581.875 283.552 581.617Z" fill="#F58A4C"/>
<path d="M218.679 581.455C216.473 580.585 216.469 577.464 218.674 576.589L1669.16 0.935229C1670.67 0.334977 1672.35 0.340968 1673.86 0.951966C1679.16 3.09852 1679.12 10.6159 1673.79 12.6995L220.592 581.457C219.977 581.698 219.294 581.697 218.679 581.455Z" fill="#F58A4C"/>
<path d="M153.804 581.48C151.745 580.668 151.742 577.755 153.799 576.939L1604.82 1.0714C1606.25 0.503055 1607.85 0.501217 1609.28 1.06623C1614.4 3.08683 1614.4 10.3444 1609.27 12.3531L155.59 581.482C155.016 581.707 154.378 581.706 153.804 581.48Z" fill="#F58A4C"/>
<path d="M88.9282 581.318C87.016 580.565 87.0128 577.859 88.9233 577.101L1540.35 1.07147C1541.78 0.503686 1543.38 0.509784 1544.8 1.08852C1549.81 3.11962 1549.77 10.2223 1544.73 12.1911L90.5861 581.32C90.053 581.529 89.4608 581.528 88.9282 581.318Z" fill="#F58A4C"/>
<path d="M24.0559 581.343C22.2908 580.648 22.2879 578.151 24.0514 577.451L1476.02 1.20761C1477.37 0.671738 1478.87 0.670017 1480.22 1.20275C1485.06 3.10789 1485.05 9.95072 1480.21 11.8447L25.5865 581.345C25.0944 581.538 24.5476 581.537 24.0559 581.343Z" fill="#F58A4C"/>
<path d="M-40.8249 581.182C-42.443 580.544 -42.4456 578.255 -40.8291 577.613L1411.55 1.20771C1412.9 0.672393 1414.4 0.678603 1415.74 1.22508C1420.46 3.14074 1420.41 9.82873 1415.68 11.6828L-39.422 581.183C-39.8731 581.36 -40.3743 581.359 -40.8249 581.182Z" fill="#F58A4C"/>
<path d="M-105.696 581.207C-107.167 580.627 -107.17 578.546 -105.7 577.963L1347.21 1.34409C1348.48 0.840699 1349.89 0.839059 1351.16 1.3395C1355.7 3.12917 1355.7 9.55731 1351.15 11.3365L-104.421 581.208C-104.831 581.369 -105.287 581.368 -105.696 581.207Z" fill="#F58A4C"/>
<path d="M-170.159 581.207C-171.63 580.627 -171.633 578.546 -170.163 577.963L1282.75 1.34437C1284.02 0.841379 1285.43 0.847749 1286.69 1.36212C1291.11 3.1626 1291.07 9.43659 1286.63 11.1771L-168.884 581.208C-169.294 581.369 -169.749 581.368 -170.159 581.207Z" fill="#F58A4C"/>
<path d="M-234.983 581.09C-236.278 580.636 -236.315 578.818 -235.04 578.312L1218.41 1.48065C1219.6 1.00966 1220.92 1.00814 1222.11 1.47636C1226.35 3.15071 1226.35 9.16448 1222.1 10.8295L-233.952 581.071C-234.283 581.2 -234.649 581.207 -234.983 581.09Z" fill="#F58A4C"/>
<path d="M-251.143 561.776C-252.344 561.243 -252.31 559.527 -251.089 559.043L1153.95 1.48015C1155.13 1.00934 1156.46 1.00782 1157.64 1.47591C1161.89 3.15004 1161.88 9.16321 1157.63 10.8272L-250.002 561.801C-250.371 561.945 -250.782 561.936 -251.143 561.776Z" fill="#F58A4C"/>
<path d="M-251.088 536.228C-252.265 535.764 -252.267 534.099 -251.091 533.633L1089.61 1.61652C1090.72 1.17753 1091.95 1.16861 1093.06 1.59149C1097.13 3.13966 1097.16 8.89155 1093.1 10.4798L-250.068 536.229C-250.396 536.357 -250.76 536.357 -251.088 536.228Z" fill="#F58A4C"/>
<path d="M-251.143 510.767C-252.344 510.235 -252.31 508.519 -251.089 508.034L1025.15 1.61633C1026.25 1.17802 1027.48 1.17662 1028.59 1.61241C1032.54 3.1711 1032.53 8.76966 1028.58 10.3189L-250.002 510.792C-250.371 510.937 -250.782 510.928 -251.143 510.767Z" fill="#F58A4C"/>
<path d="M-251.088 485.219C-252.265 484.755 -252.267 483.091 -251.091 482.624L960.744 1.59135C961.808 1.16909 962.993 1.16768 964.058 1.5874C967.865 3.08833 967.859 8.47937 964.048 9.97123L-250.068 485.22C-250.396 485.349 -250.76 485.348 -251.088 485.219Z" fill="#F58A4C"/>
<path d="M-251.143 459.759C-252.344 459.226 -252.31 457.511 -251.089 457.026L896.344 1.75273C897.367 1.34692 898.506 1.34566 899.529 1.74917C903.191 3.19242 903.185 8.37631 899.52 9.81087L-250.002 459.784C-250.371 459.928 -250.782 459.919 -251.143 459.759Z" fill="#F58A4C"/>
<path d="M-251.088 434.211C-252.265 433.747 -252.267 432.082 -251.091 431.616L831.942 1.72782C832.924 1.33805 834.018 1.33672 835.001 1.72416C838.516 3.10965 838.51 8.08607 834.992 9.46324L-250.068 434.212C-250.396 434.341 -250.76 434.34 -251.088 434.211Z" fill="#F58A4C"/>
<path d="M-251.143 408.751C-252.344 408.218 -252.31 406.502 -251.089 406.018L767.542 1.88893C768.483 1.51563 769.53 1.51445 770.472 1.88568C773.841 3.21349 773.835 7.98275 770.463 9.30262L-250.002 408.776C-250.371 408.92 -250.782 408.911 -251.143 408.751Z" fill="#F58A4C"/>
<path d="M-251.088 383.203C-252.265 382.739 -252.267 381.074 -251.091 380.607L703.076 1.88938C704.016 1.51638 705.064 1.52322 705.999 1.90845C709.247 3.24677 709.205 7.86079 705.934 9.14068L-250.068 383.204C-250.396 383.332 -250.76 383.332 -251.088 383.203Z" fill="#F58A4C"/>
<path d="M-251.143 357.742C-252.344 357.21 -252.31 355.494 -251.089 355.01L638.74 2.02532C639.599 1.68453 640.556 1.68349 641.415 2.02243C644.491 3.23481 644.486 7.58944 641.407 8.79463L-250.002 357.768C-250.371 357.912 -250.782 357.903 -251.143 357.742Z" fill="#F58A4C"/>
<path d="M-251.088 332.194C-252.265 331.731 -252.267 330.066 -251.091 329.599L574.275 2.02584C575.133 1.68533 576.089 1.6923 576.942 2.0453C579.897 3.26819 579.856 7.46748 576.878 8.63264L-250.068 332.196C-250.396 332.324 -250.76 332.324 -251.088 332.194Z" fill="#F58A4C"/>
<path d="M-251.143 306.734C-252.344 306.201 -252.31 304.486 -251.089 304.002L509.938 2.16149C510.715 1.8532 511.581 1.85229 512.359 2.15894C515.141 3.25589 515.137 7.19587 512.352 8.28639L-250.002 306.759C-250.371 306.903 -250.782 306.894 -251.143 306.734Z" fill="#F58A4C"/>
<path d="M-251.088 281.186C-252.265 280.722 -252.267 279.057 -251.091 278.591L445.473 2.16201C446.249 1.85399 447.114 1.86115 447.885 2.18193C450.547 3.28939 450.507 7.07394 447.822 8.12437L-250.068 281.187C-250.396 281.316 -250.76 281.315 -251.088 281.186Z" fill="#F58A4C"/>
<path d="M-251.143 255.725C-252.344 255.193 -252.31 253.477 -251.089 252.993L381.136 2.29765C381.831 2.02188 382.606 2.02108 383.302 2.29544C385.792 3.27696 385.788 6.80234 383.296 7.7782L-250.002 255.751C-250.371 255.895 -250.782 255.886 -251.143 255.725Z" fill="#F58A4C"/>
<path d="M-251.088 230.178C-252.265 229.714 -252.266 228.049 -251.091 227.583L316.67 2.29821C317.365 2.02269 318.139 2.03 318.829 2.31859C321.197 3.31061 321.157 6.68041 318.766 7.61609L-250.068 230.179C-250.396 230.307 -250.76 230.307 -251.088 230.178Z" fill="#F58A4C"/>
<path d="M-251.143 204.717C-252.344 204.185 -252.31 202.469 -251.089 201.985L251.859 2.43481C252.474 2.19054 253.159 2.18242 253.78 2.41201C256.095 3.26766 256.127 6.53119 253.828 7.43132L-250.002 204.742C-250.371 204.887 -250.782 204.878 -251.143 204.717Z" fill="#F58A4C"/>
<path d="M-251.088 179.169C-252.264 178.706 -252.266 177.041 -251.091 176.575L187.869 2.43464C188.481 2.19162 189.165 2.19912 189.772 2.45553C191.847 3.33213 191.808 6.28713 189.71 7.10806L-250.068 179.171C-250.396 179.299 -250.76 179.298 -251.088 179.169Z" fill="#F58A4C"/>
<path d="M-251.143 153.708C-252.344 153.176 -252.31 151.46 -251.089 150.976L123.057 2.57076C123.591 2.35898 124.184 2.35106 124.723 2.54849C126.746 3.28875 126.778 6.13759 124.772 6.92312L-250.002 153.734C-250.371 153.878 -250.782 153.869 -251.143 153.708Z" fill="#F58A4C"/>
<path d="M-251.088 128.161C-252.265 127.697 -252.267 126.032 -251.091 125.565L58.5932 2.57073C59.1251 2.3595 59.7174 2.35874 60.2498 2.5686C62.1533 3.31894 62.1499 6.01411 60.2444 6.75957L-250.068 128.162C-250.396 128.29 -250.76 128.29 -251.088 128.161Z" fill="#F58A4C"/>
</g>
</svg>
