<svg width="1246" height="609" viewBox="0 0 1246 609" fill="none" xmlns="http://www.w3.org/2000/svg">
<mask id="mask0_1699_7082" style="mask-type:alpha" maskUnits="userSpaceOnUse" x="0" y="0" width="1246" height="609">
<rect width="1245.31" height="609" rx="30" fill="#C4C4C4"/>
</mask>
<g mask="url(#mask0_1699_7082)">
<path d="M1191.99 610.182C1187.53 608.402 1187.49 602.106 1191.92 600.265L1749.49 368.708C1751.13 368.03 1752.96 368.028 1754.6 368.703C1760.11 370.978 1760.1 378.784 1754.58 381.045L1196.01 610.163C1194.72 610.69 1193.28 610.697 1191.99 610.182Z" fill="#FFF060"/>
<path d="M1127.11 610.21C1122.8 608.491 1122.75 602.406 1127.04 600.625L1749.49 341.89C1751.13 341.21 1752.97 341.208 1754.6 341.884C1760.11 344.158 1760.1 351.965 1754.59 354.228L1130.99 610.19C1129.74 610.7 1128.35 610.707 1127.11 610.21Z" fill="#FFF060"/>
<path d="M1062.23 610.043C1058.07 608.387 1058.02 602.514 1062.16 600.796L1749.5 315.264C1751.13 314.585 1752.97 314.583 1754.61 315.259C1760.11 317.533 1760.11 325.339 1754.59 327.6L1065.97 610.024C1064.77 610.515 1063.43 610.522 1062.23 610.043Z" fill="#FFF060"/>
<path d="M997.339 610.071C993.328 608.476 993.284 602.815 997.27 601.158L1749.5 288.446C1751.13 287.766 1752.97 287.764 1754.61 288.44C1760.11 290.714 1760.11 298.52 1754.59 300.783L1000.94 610.052C999.79 610.525 998.497 610.532 997.339 610.071Z" fill="#FFF060"/>
<path d="M932.444 609.904C928.583 608.371 928.54 602.921 932.376 601.327L1749.49 261.82C1751.12 261.141 1752.96 261.139 1754.59 261.815C1760.1 264.089 1760.09 271.894 1754.58 274.156L935.909 609.885C934.8 610.339 933.558 610.346 932.444 609.904Z" fill="#FFF060"/>
<path d="M867.563 609.933C863.851 608.461 863.807 603.222 867.495 601.689L1749.49 235.002C1751.13 234.322 1752.96 234.32 1754.6 234.996C1760.11 237.27 1760.1 245.076 1754.59 247.338L870.891 609.913C869.826 610.35 868.633 610.357 867.563 609.933Z" fill="#FFF060"/>
<path d="M802.624 609.909C799.036 608.428 799.031 603.349 802.615 601.859L1749.5 208.377C1751.13 207.698 1752.97 207.696 1754.61 208.371C1760.11 210.646 1760.11 218.452 1754.59 220.714L805.94 609.913C804.877 610.349 803.686 610.348 802.624 609.909Z" fill="#FFF060"/>
<path d="M737.795 609.794C734.382 608.446 734.339 603.63 737.727 602.221L1749.49 181.558C1751.13 180.878 1752.97 180.876 1754.6 181.551C1760.11 183.826 1760.1 191.631 1754.59 193.893L740.846 609.774C739.87 610.174 738.777 610.181 737.795 609.794Z" fill="#FFF060"/>
<path d="M672.853 609.77C669.564 608.413 669.559 603.756 672.844 602.391L1749.5 154.933C1751.13 154.254 1752.97 154.251 1754.61 154.927C1760.11 157.202 1760.11 165.007 1754.59 167.269L675.893 609.774C674.919 610.174 673.826 610.172 672.853 609.77Z" fill="#FFF060"/>
<path d="M607.962 609.603C604.823 608.307 604.818 603.862 607.954 602.559L1749.49 128.113C1751.13 127.434 1752.96 127.432 1754.6 128.107C1760.11 130.382 1760.1 138.187 1754.59 140.449L610.864 609.607C609.934 609.988 608.891 609.987 607.962 609.603Z" fill="#FFF060"/>
<path d="M543.078 609.632C540.088 608.397 540.083 604.164 543.07 602.923L1749.49 101.489C1751.13 100.81 1752.97 100.807 1754.6 101.483C1760.11 103.757 1760.1 111.563 1754.59 113.825L545.841 609.635C544.956 609.998 543.963 609.997 543.078 609.632Z" fill="#FFF060"/>
<path d="M478.192 609.464C475.352 608.292 475.347 604.27 478.185 603.091L1749.49 74.6688C1751.13 73.9895 1752.97 73.9873 1754.6 74.6629C1760.11 76.9374 1760.1 84.7428 1754.59 87.0044L480.818 609.467C479.976 609.813 479.033 609.811 478.192 609.464Z" fill="#FFF060"/>
<path d="M413.307 609.493C410.616 608.382 410.611 604.572 413.3 603.455L1749.49 48.0449C1751.13 47.3656 1752.97 47.3634 1754.6 48.0389C1760.11 50.3134 1760.1 58.1187 1754.59 60.3802L415.794 609.496C414.997 609.823 414.103 609.822 413.307 609.493Z" fill="#FFF060"/>
<path d="M348.424 609.326C345.883 608.277 345.878 604.678 348.417 603.623L1749.5 21.225C1751.13 20.5456 1752.97 20.5435 1754.6 21.219C1760.11 23.4935 1760.1 31.2988 1754.59 33.5603L350.773 609.329C350.02 609.637 349.176 609.636 348.424 609.326Z" fill="#FFF060"/>
<path d="M283.535 609.354C281.143 608.367 281.139 604.98 283.528 603.987L1733.85 1.06118C1735.48 0.381725 1737.32 0.37952 1738.95 1.05504C1744.46 3.32942 1744.45 11.1346 1738.94 13.3958L285.746 609.357C285.037 609.647 284.243 609.647 283.535 609.354Z" fill="#FFF060"/>
<path d="M218.651 609.187C216.409 608.261 216.405 605.086 218.645 604.155L1669.37 1.06121C1671 0.382465 1672.84 0.389213 1674.47 1.07995C1679.85 3.36432 1679.8 11.0099 1674.39 13.2281L220.724 609.19C220.06 609.462 219.315 609.461 218.651 609.187Z" fill="#FFF060"/>
<path d="M153.767 609.216C151.674 608.351 151.67 605.388 153.761 604.519L1605.03 1.19963C1606.57 0.556902 1608.31 0.554807 1609.86 1.19381C1615.07 3.34525 1615.06 10.7285 1609.84 12.8675L155.701 609.218C155.081 609.472 154.386 609.471 153.767 609.216Z" fill="#FFF060"/>
<path d="M88.8782 609.048C86.9347 608.246 86.9314 605.494 88.873 604.687L1540.54 1.19966C1542.09 0.557631 1543.83 0.564517 1545.36 1.21876C1550.45 3.38021 1550.4 10.604 1545.29 12.7L90.6745 609.051C90.0989 609.287 89.4533 609.286 88.8782 609.048Z" fill="#FFF060"/>
<path d="M23.9955 609.077C22.2015 608.336 22.1985 605.796 23.9907 605.051L1476.2 1.33808C1477.66 0.732079 1479.3 0.730095 1480.76 1.33259C1485.67 3.36109 1485.66 10.3224 1480.75 12.3391L25.6538 609.079C25.1224 609.297 24.5264 609.296 23.9955 609.077Z" fill="#FFF060"/>
<path d="M-40.8948 608.91C-42.5393 608.231 -42.5421 605.902 -40.8992 605.219L1411.72 1.33811C1413.17 0.732797 1414.81 0.739827 1416.26 1.35759C1421.05 3.39611 1421.01 10.1979 1416.19 12.1717L-39.3749 608.912C-39.862 609.111 -40.4082 609.111 -40.8948 608.91Z" fill="#FFF060"/>
<path d="M-105.778 608.938C-107.272 608.321 -107.275 606.204 -105.782 605.583L1347.38 1.47653C1348.75 0.907256 1350.29 0.905379 1351.66 1.47135C1356.27 3.37692 1356.27 9.91636 1351.65 11.8109L-104.396 608.94C-104.838 609.121 -105.335 609.121 -105.778 608.938Z" fill="#FFF060"/>
<path d="M-170.256 608.938C-171.751 608.321 -171.754 606.204 -170.26 605.583L1282.9 1.47685C1284.27 0.908097 1285.81 0.915228 1287.17 1.49668C1291.66 3.41255 1291.62 9.79314 1287.1 11.646L-168.874 608.94C-169.317 609.121 -169.814 609.121 -170.256 608.938Z" fill="#FFF060"/>
<path d="M-235.087 608.821C-236.406 608.337 -236.445 606.486 -235.148 605.947L1218.55 1.61505C1219.84 1.08243 1221.28 1.08071 1222.56 1.61024C1226.88 3.393 1226.87 9.51087 1222.55 11.2838L-233.969 608.8C-234.326 608.946 -234.725 608.954 -235.087 608.821Z" fill="#FFF060"/>
<path d="M-251.253 588.58C-252.471 588.014 -252.435 586.271 -251.195 585.755L1154.08 1.61474C1155.36 1.08232 1156.8 1.08062 1158.08 1.61001C1162.4 3.39255 1162.39 9.50987 1158.07 11.2817L-250.018 588.608C-250.415 588.771 -250.863 588.761 -251.253 588.58Z" fill="#FFF060"/>
<path d="M-251.194 561.816C-252.39 561.322 -252.392 559.629 -251.197 559.132L1089.73 1.75339C1090.93 1.2569 1092.27 1.24682 1093.47 1.72532C1097.61 3.37485 1097.64 9.22836 1093.52 10.92L-250.089 561.817C-250.443 561.962 -250.84 561.962 -251.194 561.816Z" fill="#FFF060"/>
<path d="M-251.253 535.136C-252.471 534.57 -252.435 532.827 -251.195 532.311L1025.25 1.75314C1026.45 1.25746 1027.79 1.2559 1028.98 1.74877C1033 3.4084 1032.99 9.10392 1028.97 10.7536L-250.018 535.164C-250.415 535.327 -250.863 535.317 -251.253 535.136Z" fill="#FFF060"/>
<path d="M-251.194 508.372C-252.39 507.878 -252.392 506.184 -251.197 505.688L960.841 1.72485C961.99 1.24732 963.281 1.2457 964.431 1.72039C968.301 3.31851 968.294 8.80291 964.42 10.3915L-250.089 508.373C-250.443 508.518 -250.84 508.518 -251.194 508.372Z" fill="#FFF060"/>
<path d="M-251.253 481.691C-252.471 481.125 -252.435 479.382 -251.195 478.867L896.43 1.89105C897.534 1.43213 898.776 1.4307 899.881 1.88706C903.603 3.42377 903.596 8.69744 899.871 10.225L-250.018 481.719C-250.415 481.882 -250.863 481.872 -251.253 481.691Z" fill="#FFF060"/>
<path d="M-251.194 454.927C-252.39 454.433 -252.392 452.74 -251.197 452.243L832.018 1.8627C833.079 1.42193 834.27 1.4205 835.332 1.85867C838.904 3.33388 838.898 8.39647 835.322 9.86294L-250.089 454.928C-250.443 455.074 -250.84 455.073 -251.194 454.927Z" fill="#FFF060"/>
<path d="M-251.253 428.247C-252.471 427.681 -252.435 425.938 -251.195 425.423L767.607 2.02947C768.623 1.60731 769.765 1.60598 770.782 2.02582C774.206 3.43962 774.2 8.29148 770.772 9.69693L-250.018 428.275C-250.415 428.438 -250.863 428.428 -251.253 428.247Z" fill="#FFF060"/>
<path d="M-251.194 401.483C-252.39 400.989 -252.392 399.296 -251.197 398.799L703.126 2.02994C704.141 1.60819 705.283 1.61592 706.291 2.05131C709.589 3.4751 709.546 8.16705 706.222 9.52947L-250.089 401.485C-250.443 401.63 -250.84 401.629 -251.194 401.483Z" fill="#FFF060"/>
<path d="M-251.253 374.803C-252.471 374.238 -252.435 372.495 -251.195 371.98L638.784 2.16832C639.711 1.78292 640.754 1.78175 641.682 2.16508C644.809 3.45596 644.803 7.88601 641.674 9.16935L-250.018 374.832C-250.416 374.995 -250.863 374.985 -251.253 374.803Z" fill="#FFF060"/>
<path d="M-251.194 348.04C-252.39 347.546 -252.392 345.852 -251.197 345.356L574.303 2.16887C575.229 1.78386 576.272 1.79173 577.192 2.19068C580.193 3.49155 580.15 7.76159 577.124 9.00185L-250.089 348.041C-250.443 348.186 -250.84 348.186 -251.194 348.04Z" fill="#FFF060"/>
<path d="M-251.253 321.359C-252.471 320.794 -252.435 319.051 -251.195 318.536L509.961 2.3067C510.8 1.95807 511.743 1.95704 512.583 2.30384C515.412 3.47183 515.407 7.48005 512.576 8.64127L-250.018 321.388C-250.415 321.551 -250.863 321.541 -251.253 321.359Z" fill="#FFF060"/>
<path d="M-251.194 294.596C-252.39 294.102 -252.392 292.408 -251.197 291.912L445.48 2.3073C446.318 1.95903 447.261 1.96707 448.093 2.32958C450.796 3.50753 450.753 7.35565 448.025 8.47374L-250.089 294.597C-250.443 294.742 -250.84 294.742 -251.194 294.596Z" fill="#FFF060"/>
<path d="M-251.253 267.915C-252.47 267.349 -252.435 265.606 -251.195 265.092L381.138 2.44457C381.889 2.13271 382.733 2.13183 383.484 2.44211C386.015 3.4872 386.011 7.07364 383.478 8.11276L-250.018 267.943C-250.415 268.106 -250.863 268.096 -251.253 267.915Z" fill="#FFF060"/>
<path d="M-251.194 241.151C-252.39 240.657 -252.392 238.964 -251.197 238.467L316.657 2.44522C317.406 2.1337 318.25 2.14193 318.994 2.46802C321.398 3.52306 321.357 6.94924 318.927 7.94514L-250.089 241.153C-250.443 241.298 -250.84 241.297 -251.194 241.151Z" fill="#FFF060"/>
<path d="M-251.253 214.471C-252.471 213.905 -252.435 212.162 -251.195 211.647L251.84 2.5838C252.504 2.30752 253.25 2.29837 253.921 2.55826C256.278 3.47036 256.311 6.7924 253.973 7.75134L-250.018 214.499C-250.415 214.662 -250.863 214.652 -251.253 214.471Z" fill="#FFF060"/>
<path d="M-251.194 187.707C-252.39 187.213 -252.392 185.52 -251.197 185.024L187.833 2.58362C188.495 2.30885 189.24 2.3173 189.894 2.60699C192.001 3.53912 191.96 6.54332 189.828 7.41704L-250.089 187.709C-250.443 187.854 -250.84 187.853 -251.194 187.707Z" fill="#FFF060"/>
<path d="M-251.253 161.027C-252.471 160.461 -252.435 158.718 -251.195 158.203L123.016 2.7223C123.593 2.48275 124.239 2.47381 124.822 2.69731C126.881 3.48656 126.915 6.38671 124.875 7.22362L-250.018 161.055C-250.415 161.218 -250.863 161.208 -251.253 161.027Z" fill="#FFF060"/>
<path d="M-251.194 134.263C-252.39 133.769 -252.393 132.075 -251.198 131.578L58.537 2.72226C59.1112 2.48339 59.7568 2.48253 60.3316 2.71987C62.2665 3.5188 62.2629 6.26066 60.3259 7.05446L-250.089 134.264C-250.443 134.41 -250.84 134.409 -251.194 134.263Z" fill="#FFF060"/>
</g>
</svg>
