<svg width="1440" height="1427" viewBox="0 0 1440 1427" fill="none" xmlns="http://www.w3.org/2000/svg">
<mask id="mask0_1523_6315" style="mask-type:alpha" maskUnits="userSpaceOnUse" x="0" y="0" width="1440" height="1427">
<rect width="1440" height="1427" fill="#C4C4C4"/>
</mask>
<g mask="url(#mask0_1523_6315)">
<path d="M-960 452.955C-960 452.955 -744.562 339.716 -529.125 339.716C-313.687 339.716 -98.25 452.955 -98.25 452.955C-98.25 452.955 117.188 566.194 332.625 566.194C548.063 566.194 763.5 452.955 763.5 452.955C763.5 452.955 978.938 339.716 1194.38 339.716C1409.81 339.716 1625.25 452.955 1625.25 452.955C1625.25 452.955 1840.69 566.194 2056.13 566.194C2271.56 566.194 2487 452.955 2487 452.955" stroke="#F1AAEE" stroke-opacity="0.04" stroke-width="2.80833"/>
<path d="M-960 339.718C-960 339.718 -744.562 226.479 -529.125 226.479C-313.687 226.479 -98.25 339.718 -98.25 339.718C-98.25 339.718 117.188 452.957 332.625 452.957C548.063 452.957 763.5 339.718 763.5 339.718C763.5 339.718 978.938 226.479 1194.38 226.479C1409.81 226.479 1625.25 339.718 1625.25 339.718C1625.25 339.718 1840.69 452.957 2056.13 452.957C2271.56 452.957 2487 339.718 2487 339.718" stroke="#F1AAEE" stroke-opacity="0.04" stroke-width="2.80833"/>
<path d="M-960 566.197C-960 566.197 -744.562 452.958 -529.125 452.958C-313.687 452.958 -98.25 566.197 -98.25 566.197C-98.25 566.197 117.188 679.436 332.625 679.436C548.063 679.436 763.5 566.197 763.5 566.197C763.5 566.197 978.938 452.958 1194.38 452.958C1409.81 452.958 1625.25 566.197 1625.25 566.197C1625.25 566.197 1840.69 679.436 2056.13 679.436C2271.56 679.436 2487 566.197 2487 566.197" stroke="#F1AAEE" stroke-opacity="0.04" stroke-width="2.80833"/>
<path d="M-960 226.476C-960 226.476 -744.562 113.237 -529.125 113.237C-313.687 113.237 -98.25 226.476 -98.25 226.476C-98.25 226.476 117.188 339.715 332.625 339.715C548.063 339.715 763.5 226.476 763.5 226.476C763.5 226.476 978.938 113.237 1194.38 113.237C1409.81 113.237 1625.25 226.476 1625.25 226.476C1625.25 226.476 1840.69 339.715 2056.13 339.715C2271.56 339.715 2487 226.476 2487 226.476" stroke="#F1AAEE" stroke-opacity="0.04" stroke-width="2.80833"/>
<path d="M-960 113.239C-960 113.239 -744.562 0 -529.125 0C-313.687 0 -98.25 113.239 -98.25 113.239C-98.25 113.239 117.188 226.478 332.625 226.478C548.063 226.478 763.5 113.239 763.5 113.239C763.5 113.239 978.938 0 1194.38 0C1409.81 0 1625.25 113.239 1625.25 113.239C1625.25 113.239 1840.69 226.478 2056.13 226.478C2271.56 226.478 2487 113.239 2487 113.239" stroke="#F1AAEE" stroke-opacity="0.04" stroke-width="2.80833"/>
<path d="M-960 679.434C-960 679.434 -744.562 566.195 -529.125 566.195C-313.687 566.195 -98.25 679.434 -98.25 679.434C-98.25 679.434 117.188 792.673 332.625 792.673C548.063 792.673 763.5 679.434 763.5 679.434C763.5 679.434 978.938 566.195 1194.38 566.195C1409.81 566.195 1625.25 679.434 1625.25 679.434C1625.25 679.434 1840.69 792.673 2056.13 792.673C2271.56 792.673 2487 679.434 2487 679.434" stroke="#F1AAEE" stroke-opacity="0.04" stroke-width="2.80833"/>
<path d="M-960 1180.57C-960 1180.57 -744.562 1060.43 -529.125 1060.43C-313.687 1060.43 -98.25 1180.57 -98.25 1180.57C-98.25 1180.57 117.188 1300.71 332.625 1300.71C548.063 1300.71 763.5 1180.57 763.5 1180.57C763.5 1180.57 978.938 1060.43 1194.38 1060.43C1409.81 1060.43 1625.25 1180.57 1625.25 1180.57C1625.25 1180.57 1840.69 1300.71 2056.13 1300.71C2271.56 1300.71 2487 1180.57 2487 1180.57" stroke="#F1AAEE" stroke-opacity="0.04" stroke-width="2.80833"/>
<path d="M-960 1060.43C-960 1060.43 -744.562 940.287 -529.125 940.287C-313.687 940.287 -98.25 1060.43 -98.25 1060.43C-98.25 1060.43 117.188 1180.57 332.625 1180.57C548.063 1180.57 763.5 1060.43 763.5 1060.43C763.5 1060.43 978.938 940.287 1194.38 940.287C1409.81 940.287 1625.25 1060.43 1625.25 1060.43C1625.25 1060.43 1840.69 1180.57 2056.13 1180.57C2271.56 1180.57 2487 1060.43 2487 1060.43" stroke="#F1AAEE" stroke-opacity="0.04" stroke-width="2.80833"/>
<path d="M-960 1300.72C-960 1300.72 -744.562 1180.57 -529.125 1180.57C-313.687 1180.57 -98.25 1300.72 -98.25 1300.72C-98.25 1300.72 117.188 1420.86 332.625 1420.86C548.063 1420.86 763.5 1300.72 763.5 1300.72C763.5 1300.72 978.938 1180.57 1194.38 1180.57C1409.81 1180.57 1625.25 1300.72 1625.25 1300.72C1625.25 1300.72 1840.69 1420.86 2056.13 1420.86C2271.56 1420.86 2487 1300.72 2487 1300.72" stroke="#F1AAEE" stroke-opacity="0.04" stroke-width="2.80833"/>
<path d="M-960 940.284C-960 940.284 -744.562 820.141 -529.125 820.141C-313.687 820.141 -98.25 940.284 -98.25 940.284C-98.25 940.284 117.188 1060.43 332.625 1060.43C548.063 1060.43 763.5 940.284 763.5 940.284C763.5 940.284 978.938 820.141 1194.38 820.141C1409.81 820.141 1625.25 940.284 1625.25 940.284C1625.25 940.284 1840.69 1060.43 2056.13 1060.43C2271.56 1060.43 2487 940.284 2487 940.284" stroke="#F1AAEE" stroke-opacity="0.04" stroke-width="2.80833"/>
<path d="M-960 820.143C-960 820.143 -744.562 700 -529.125 700C-313.687 700 -98.25 820.143 -98.25 820.143C-98.25 820.143 117.188 940.286 332.625 940.286C548.063 940.286 763.5 820.143 763.5 820.143C763.5 820.143 978.938 700 1194.38 700C1409.81 700 1625.25 820.143 1625.25 820.143C1625.25 820.143 1840.69 940.286 2056.13 940.286C2271.56 940.286 2487 820.143 2487 820.143" stroke="#F1AAEE" stroke-opacity="0.04" stroke-width="2.80833"/>
<path d="M-960 1420.86C-960 1420.86 -744.562 1300.71 -529.125 1300.71C-313.687 1300.71 -98.25 1420.86 -98.25 1420.86C-98.25 1420.86 117.188 1541 332.625 1541C548.063 1541 763.5 1420.86 763.5 1420.86C763.5 1420.86 978.938 1300.71 1194.38 1300.71C1409.81 1300.71 1625.25 1420.86 1625.25 1420.86C1625.25 1420.86 1840.69 1541 2056.13 1541C2271.56 1541 2487 1420.86 2487 1420.86" stroke="#F1AAEE" stroke-opacity="0.04" stroke-width="2.80833"/>
</g>
</svg>
