<svg width="629" height="876" viewBox="0 0 629 876" fill="none" xmlns="http://www.w3.org/2000/svg">
<circle cx="328" cy="361" r="288.5" stroke="#DDDDED" stroke-width="3" stroke-dasharray="8 8"/>
<circle cx="519" cy="110" r="110" fill="#3ADAD9"/>
<circle cx="459" cy="133" r="15" fill="white" fill-opacity="0.29"/>
<circle cx="569" cy="77" r="10" fill="white" fill-opacity="0.29"/>
<g clip-path="url(#clip0_5530_137)">
<path d="M520 81.5776C517.809 81.5776 515.701 82.2367 513.902 83.4836C513.371 83.8522 513.236 84.5851 513.602 85.1208C513.968 85.6564 514.696 85.7917 515.227 85.4233C516.634 84.4478 518.284 83.9322 520 83.9322C524.649 83.9322 528.431 87.7428 528.431 92.4267C528.431 97.1106 524.649 100.921 520 100.921C515.351 100.921 511.569 97.1106 511.569 92.4267C511.569 91.045 511.887 89.7278 512.515 88.5119C512.813 87.935 512.591 87.2242 512.018 86.9242C511.445 86.6244 510.74 86.8483 510.442 87.4251C509.651 88.9583 509.232 90.6878 509.232 92.4267C509.232 98.409 514.063 103.276 520 103.276C525.938 103.276 530.768 98.409 530.768 92.4267C530.768 86.4445 525.938 81.5776 520 81.5776Z" fill="white"/>
<path d="M559.911 145.37L548.379 117.454C548.198 117.015 547.772 116.729 547.3 116.729H535.809C538.044 113.683 539.904 110.648 541.357 107.669C543.932 102.388 545.238 97.2603 545.238 92.4269C545.237 78.4064 533.916 67 520 67C506.085 67 494.763 78.4064 494.763 92.4267C494.763 97.2602 496.069 102.388 498.644 107.668C500.097 110.648 501.957 113.683 504.192 116.729H492.701C492.229 116.729 491.803 117.015 491.622 117.454L483.764 136.477C483.516 137.077 483.798 137.766 484.394 138.016C484.541 138.077 484.692 138.107 484.842 138.107C485.3 138.107 485.734 137.834 485.921 137.381L487.042 134.667H494.997L490.875 144.645H482.921L484.116 141.753C484.364 141.152 484.082 140.463 483.486 140.214C482.89 139.964 482.206 140.248 481.958 140.848L480.09 145.37C479.94 145.734 479.98 146.149 480.197 146.476C480.414 146.803 480.778 147 481.169 147H558.832C559.222 147 559.587 146.803 559.804 146.476C560.021 146.149 560.061 145.734 559.911 145.37ZM497.1 92.4267C497.1 79.7045 507.373 69.3544 520 69.3544C532.628 69.3544 542.901 79.7047 542.901 92.4267C542.901 97.7616 541.061 106.287 532.55 117.15C532.541 117.16 532.534 117.171 532.525 117.182C532.091 117.736 531.639 118.296 531.169 118.863C526.492 124.497 521.759 128.612 520 130.074C518.246 128.617 513.536 124.523 508.862 118.899C508.38 118.319 507.918 117.746 507.473 117.179C507.466 117.17 507.459 117.16 507.452 117.151C498.941 106.288 497.1 97.7636 497.1 92.4267ZM493.48 119.084H501.434L498.533 126.107H490.579L493.48 119.084ZM500.312 144.646L507.616 126.966L528.399 144.646H500.312ZM532.022 144.646L507.904 124.13C507.619 123.888 507.237 123.797 506.875 123.885C506.513 123.974 506.215 124.231 506.072 124.577L497.782 144.645H493.406L497.827 133.942C497.977 133.579 497.937 133.164 497.72 132.837C497.504 132.509 497.139 132.312 496.748 132.312H488.015L489.606 128.461H499.312C499.784 128.461 500.21 128.175 500.391 127.736L503.965 119.083H505.993C506.345 119.526 506.703 119.968 507.07 120.41C513.099 127.665 519.036 132.323 519.285 132.517C519.496 132.682 519.748 132.763 520 132.763C520.253 132.763 520.505 132.681 520.715 132.517C520.853 132.41 522.709 130.953 525.352 128.461H538.583C539.229 128.461 539.752 127.934 539.752 127.284C539.752 126.634 539.229 126.107 538.583 126.107H527.76C529.38 124.466 531.151 122.552 532.931 120.41C533.298 119.968 533.656 119.526 534.008 119.084H546.521L549.422 126.107H543.257C542.612 126.107 542.088 126.634 542.088 127.284C542.088 127.934 542.611 128.461 543.257 128.461H550.394L551.985 132.313H527.912C527.424 132.313 526.988 132.618 526.817 133.078C526.647 133.538 526.778 134.057 527.146 134.379L538.886 144.646H532.022V144.646ZM542.451 144.646L531.041 134.667H552.958L557.08 144.646H542.451Z" fill="white"/>
</g>
<circle cx="90" cy="243" r="90" fill="#F3C758"/>
<circle cx="114" cy="210" r="21" fill="white" fill-opacity="0.25"/>
<circle cx="33.5" cy="260.5" r="7.5" fill="white" fill-opacity="0.25"/>
<path d="M74.25 212C73.0468 212 72.0714 212.975 72.0714 214.179V218.536H76.4285V214.179C76.4285 212.975 75.4531 212 74.25 212Z" fill="white"/>
<path d="M104.75 212C103.547 212 102.571 212.975 102.571 214.179V218.536H106.928V214.179C106.929 212.975 105.953 212 104.75 212Z" fill="white"/>
<path d="M113.464 218.536H106.929V227.25C106.929 228.453 105.953 229.429 104.75 229.429C103.547 229.429 102.571 228.453 102.571 227.25V218.536H76.4285V227.25C76.4285 228.453 75.4531 229.429 74.2499 229.429C73.0467 229.429 72.0713 228.453 72.0713 227.25V218.536H65.5357C61.9261 218.536 59 221.462 59 225.071V266.464C59 270.074 61.9261 273 65.5357 273H113.464C117.074 273 120 270.074 120 266.464V225.071C120 221.462 117.074 218.536 113.464 218.536ZM115.643 266.464C115.643 267.667 114.667 268.643 113.464 268.643H65.5357C64.3325 268.643 63.3571 267.667 63.3571 266.464V238.143H115.643V266.464Z" fill="white"/>
<path d="M76.4285 242.5H72.0714C70.8682 242.5 69.8928 243.475 69.8928 244.679C69.8928 245.882 70.8682 246.857 72.0714 246.857H76.4285C77.6318 246.857 78.6071 245.882 78.6071 244.679C78.6071 243.475 77.6318 242.5 76.4285 242.5Z" fill="white"/>
<path d="M91.6785 242.5H87.3214C86.1182 242.5 85.1428 243.475 85.1428 244.679C85.1428 245.882 86.1182 246.857 87.3214 246.857H91.6785C92.8818 246.857 93.8571 245.882 93.8571 244.679C93.8571 243.475 92.8818 242.5 91.6785 242.5Z" fill="white"/>
<path d="M106.929 242.5H102.572C101.368 242.5 100.393 243.475 100.393 244.679C100.393 245.882 101.368 246.857 102.572 246.857H106.929C108.132 246.857 109.107 245.882 109.107 244.679C109.107 243.475 108.132 242.5 106.929 242.5Z" fill="white"/>
<path d="M76.4285 251.214H72.0714C70.8682 251.214 69.8928 252.19 69.8928 253.393C69.8928 254.596 70.8682 255.572 72.0714 255.572H76.4285C77.6318 255.572 78.6071 254.596 78.6071 253.393C78.6071 252.19 77.6318 251.214 76.4285 251.214Z" fill="white"/>
<path d="M91.6785 251.214H87.3214C86.1182 251.214 85.1428 252.19 85.1428 253.393C85.1428 254.596 86.1182 255.572 87.3214 255.572H91.6785C92.8818 255.572 93.8571 254.596 93.8571 253.393C93.8571 252.19 92.8818 251.214 91.6785 251.214Z" fill="white"/>
<path d="M106.929 251.214H102.572C101.368 251.214 100.393 252.19 100.393 253.393C100.393 254.596 101.368 255.572 102.572 255.572H106.929C108.132 255.572 109.107 254.596 109.107 253.393C109.107 252.19 108.132 251.214 106.929 251.214Z" fill="white"/>
<path d="M76.4285 259.929H72.0714C70.8682 259.929 69.8928 260.904 69.8928 262.107C69.8928 263.311 70.8682 264.286 72.0714 264.286H76.4285C77.6318 264.286 78.6071 263.31 78.6071 262.107C78.6071 260.904 77.6318 259.929 76.4285 259.929Z" fill="white"/>
<path d="M91.6785 259.929H87.3214C86.1182 259.929 85.1428 260.904 85.1428 262.107C85.1428 263.311 86.1182 264.286 87.3214 264.286H91.6785C92.8818 264.286 93.8571 263.311 93.8571 262.107C93.8571 260.904 92.8818 259.929 91.6785 259.929Z" fill="white"/>
<path d="M106.929 259.929H102.572C101.368 259.929 100.393 260.904 100.393 262.107C100.393 263.311 101.368 264.286 102.572 264.286H106.929C108.132 264.286 109.107 263.311 109.107 262.107C109.107 260.904 108.132 259.929 106.929 259.929Z" fill="white"/>
<path d="M491 801.801C471.7 801.801 456 818.299 456 838.58C456 858.86 471.7 875.358 491 875.358C510.3 875.358 526 858.86 526 838.58C526 818.299 510.3 801.801 491 801.801ZM507.646 857.603C507.077 858.2 506.33 858.501 505.584 858.501C504.837 858.501 504.09 858.2 503.522 857.603L488.938 842.279C488.39 841.706 488.084 840.927 488.084 840.112V820.19C488.084 818.496 489.39 817.126 491 817.126C492.61 817.126 493.916 818.496 493.916 820.19V838.843L507.646 853.269C508.786 854.468 508.786 856.405 507.646 857.603V857.603Z" fill="white"/>
<circle cx="480" cy="572" r="100" fill="#FD9B79"/>
<circle cx="419" cy="546" r="9" fill="#F49159"/>
<circle cx="523" cy="608" r="26" fill="#F49159"/>
<path d="M481 537C461.7 537 446 552.7 446 572C446 591.3 461.7 607 481 607C500.3 607 516 591.3 516 572C516 552.7 500.3 537 481 537ZM497.646 590.103C497.077 590.672 496.33 590.959 495.584 590.959C494.837 590.959 494.09 590.672 493.522 590.103L478.938 575.521C478.39 574.975 478.084 574.234 478.084 573.459V554.5C478.084 552.887 479.39 551.584 481 551.584C482.61 551.584 483.916 552.887 483.916 554.5V572.251L497.646 585.979C498.786 587.12 498.786 588.963 497.646 590.103V590.103Z" fill="white"/>
<defs>
<clipPath id="clip0_5530_137">
<rect width="80" height="80" fill="white" transform="translate(480 67)"/>
</clipPath>
</defs>
</svg>
