<svg width="689" height="680" viewBox="0 0 689 680" fill="none" xmlns="http://www.w3.org/2000/svg">
<circle cx="340" cy="340" r="338.5" stroke="#D7D7EB" stroke-width="3" stroke-dasharray="8 8"/>
<path d="M532.61 494.63C493.23 543.683 436.618 575.862 374.324 584.603C312.03 593.345 248.748 577.99 197.388 541.67C146.029 505.351 110.461 450.805 97.9413 389.159C85.4219 327.513 96.8942 263.413 130.018 209.937C163.142 156.46 215.42 117.636 276.189 101.385C336.958 85.134 401.638 92.6809 457.032 122.486C512.427 152.291 554.364 202.108 574.286 261.774C594.208 321.44 590.614 386.459 564.238 443.567" stroke="#EAF0FC" stroke-width="6" stroke-linecap="round"/>
<circle cx="85" cy="120" r="20" fill="#64B7F3"/>
<circle cx="677" cy="371" r="12" fill="#F3648F"/>
<circle cx="161" cy="630" r="12" fill="#EC7B4A"/>
</svg>
