<svg width="24" height="16" viewBox="0 0 24 16" fill="none" xmlns="http://www.w3.org/2000/svg">
<path d="M24 1.37317C24 1.53814 23.8744 1.67181 23.7197 1.67181H0.280317C0.125371 1.67181 0 1.53814 0 1.37317V0.298639C0 0.133674 0.125556 0 0.280317 0H23.7192C23.8742 0 23.9995 0.133674 23.9995 0.298639V1.37317H24ZM21.1961 5.0749C21.1961 4.90994 21.0705 4.77646 20.9157 4.77646H3.08444C2.92949 4.77646 2.80412 4.91014 2.80412 5.0749V6.14944C2.80412 6.3144 2.92968 6.44788 3.08444 6.44788H20.9157C21.0707 6.44788 21.1961 6.31421 21.1961 6.14944V5.0749ZM18.3925 9.85076C18.3925 9.6858 18.267 9.55232 18.112 9.55232H5.88781C5.73286 9.55232 5.60731 9.686 5.60731 9.85076V10.9253C5.60731 11.0903 5.73286 11.2237 5.88781 11.2237H18.112C18.267 11.2237 18.3925 11.0901 18.3925 10.9253V9.85076ZM15.589 14.6268C15.589 14.4619 15.4634 14.3282 15.3086 14.3282H8.69155C8.5366 14.3282 8.41123 14.4619 8.41123 14.6268V15.7014C8.41123 15.8663 8.53679 16 8.69155 16H15.3082C15.4631 16 15.5885 15.8663 15.5885 15.7014V14.6268H15.589Z" fill="#7614AC"/>
</svg>
