<svg width="133" height="121" viewBox="0 0 133 121" fill="none" xmlns="http://www.w3.org/2000/svg">
<g clip-path="url(#clip0_1699_7390)">
<path d="M40.9598 19.299C38.2071 20.5137 35.5645 22.17 33.032 23.8264C30.4995 25.5932 28.0771 27.4704 25.7648 29.5685C21.2503 33.6542 17.3965 38.5129 14.6438 44.0341C11.891 49.445 10.5697 55.5183 10.4596 61.5917C10.4596 62.3647 10.4596 63.1376 10.5697 63.9106C10.5697 64.2419 10.5697 64.6836 10.5697 65.0149L10.6798 66.1191C10.7899 66.8921 10.7899 67.6651 10.9001 68.438L11.3405 70.6465C11.4506 71.4195 11.6708 72.082 11.891 72.855C12.1113 73.628 12.2214 74.2905 12.4416 75.0635C12.882 76.499 13.3225 77.9346 13.9831 79.3701C14.5337 80.8056 15.1943 82.1307 15.9651 83.4558C16.7358 84.7809 17.5066 86.106 18.3875 87.2102C20.1492 89.6396 22.2413 91.8481 24.5536 93.8357C29.1782 97.7006 34.6836 100.682 40.2992 102.891C46.0248 105.209 51.9707 106.976 57.9166 108.964C60.8896 109.958 63.8625 111.062 66.8355 112.498C69.6983 113.933 72.5611 115.81 74.7633 118.46C75.3139 119.123 75.2038 120.006 74.5431 120.559C73.8824 121.111 73.0016 121 72.451 120.338C70.6893 118.129 68.2669 116.473 65.5142 115.148C62.7614 113.823 59.8986 112.718 57.0358 111.725C51.2 109.737 45.144 107.86 39.3082 105.541C33.4724 103.111 27.7467 100.13 22.7918 95.9338C20.3694 93.8357 18.1673 91.4064 16.2954 88.8666C15.3044 87.5415 14.5337 86.2164 13.6528 84.7809C12.882 83.3454 12.1113 81.9099 11.5607 80.3639C10.9001 78.9284 10.4596 77.3824 10.0192 75.8365C9.79896 75.0635 9.57875 74.2905 9.46864 73.5176C9.13831 72.6342 8.91809 71.8612 8.80798 71.0882L8.36755 68.7693C8.25744 67.9963 8.14733 67.2234 8.14733 66.34L8.03722 65.1253C8.03722 64.6836 8.03722 64.3523 8.03722 63.9106C8.03722 63.1376 7.92711 62.2542 8.03722 61.4813C8.14733 55.0766 9.68885 48.5616 12.5517 42.8195C15.4145 37.0774 19.4886 31.9978 24.2233 27.6913C26.5355 25.5932 29.0681 23.6056 31.7107 21.8388C34.3533 20.072 37.106 18.4156 39.9688 17.0905C40.5194 16.8696 41.18 17.0905 41.4003 17.6426C41.7306 18.3052 41.5104 18.9677 40.9598 19.299Z" fill="url(#paint0_radial_1699_7390)"/>
<path d="M40.9598 19.299C38.2071 20.5137 35.5645 22.17 33.032 23.8264C30.4995 25.5932 28.0771 27.4704 25.7648 29.5685C21.2503 33.6542 17.3965 38.5129 14.6438 44.0341C11.891 49.445 10.5697 55.5183 10.4596 61.5917C10.4596 62.3647 10.4596 63.1376 10.5697 63.9106C10.5697 64.2419 10.5697 64.6836 10.5697 65.0149L10.6798 66.1191C10.7899 66.8921 10.7899 67.6651 10.9001 68.438L11.3405 70.6465C11.4506 71.4195 11.6708 72.082 11.891 72.855C12.1113 73.628 12.2214 74.2905 12.4416 75.0635C12.882 76.499 13.3225 77.9346 13.9831 79.3701C14.5337 80.8056 15.1943 82.1307 15.9651 83.4558C16.7358 84.7809 17.5066 86.106 18.3875 87.2102C20.1492 89.6396 22.2413 91.8481 24.5536 93.8357C29.1782 97.7006 34.6836 100.682 40.2992 102.891C46.0248 105.209 51.9707 106.976 57.9166 108.964C60.8896 109.958 63.8625 111.062 66.8355 112.498C69.6983 113.933 72.5611 115.81 74.7633 118.46C75.3139 119.123 75.2038 120.006 74.5431 120.559C73.8824 121.111 73.0016 121 72.451 120.338C70.6893 118.129 68.2669 116.473 65.5142 115.148C62.7614 113.823 59.8986 112.718 57.0358 111.725C51.2 109.737 45.144 107.86 39.3082 105.541C33.4724 103.111 27.7467 100.13 22.7918 95.9338C20.3694 93.8357 18.1673 91.4064 16.2954 88.8666C15.3044 87.5415 14.5337 86.2164 13.6528 84.7809C12.882 83.3454 12.1113 81.9099 11.5607 80.3639C10.9001 78.9284 10.4596 77.3824 10.0192 75.8365C9.79896 75.0635 9.57875 74.2905 9.46864 73.5176C9.13831 72.6342 8.91809 71.8612 8.80798 71.0882L8.36755 68.7693C8.25744 67.9963 8.14733 67.2234 8.14733 66.34L8.03722 65.1253C8.03722 64.6836 8.03722 64.3523 8.03722 63.9106C8.03722 63.1376 7.92711 62.2542 8.03722 61.4813C8.14733 55.0766 9.68885 48.5616 12.5517 42.8195C15.4145 37.0774 19.4886 31.9978 24.2233 27.6913C26.5355 25.5932 29.0681 23.6056 31.7107 21.8388C34.3533 20.072 37.106 18.4156 39.9688 17.0905C40.5194 16.8696 41.18 17.0905 41.4003 17.6426C41.7306 18.3052 41.5104 18.9677 40.9598 19.299Z" fill="url(#paint1_radial_1699_7390)"/>
<path d="M74.4329 118.681C72.6711 116.473 70.1386 114.927 67.496 113.602C64.7433 112.277 61.8804 111.283 59.0176 110.289C53.1818 108.301 47.1258 106.645 41.1799 104.326C35.234 102.007 29.5084 99.0258 24.5535 94.8297C22.0209 92.842 19.9289 90.4127 17.9469 87.8729C16.9559 86.6582 16.1852 85.2227 15.3043 83.8976C14.5335 82.4621 13.7628 81.0266 13.2122 79.591C12.5516 78.1555 12.1111 76.6096 11.6707 75.0636C11.4505 74.2906 11.2303 73.5177 11.1202 72.7447C10.8999 71.9717 10.6797 71.1988 10.5696 70.4258L10.1292 68.1069C10.0191 67.3339 9.90895 66.5609 9.90895 65.7879V64.5733C9.90895 64.1316 9.90895 63.8003 9.90895 63.3586C9.90895 62.5856 9.90895 61.8126 9.90895 60.9292C10.0191 54.635 11.5606 48.2304 14.5335 42.5987C17.5065 36.9671 21.5805 31.9979 26.3152 27.8018C28.7376 25.7037 31.16 23.8265 33.8026 22.0597C36.225 20.5138 38.7575 18.9678 41.5103 17.7531V17.6427C41.5103 17.5323 41.4001 17.5323 41.4001 17.4219C41.29 17.4219 41.1799 17.4219 41.0698 17.5323C38.0969 18.8574 35.4543 20.4033 32.8116 22.1701C30.169 23.9369 27.6365 25.8142 25.3242 27.9122C20.5895 32.1084 16.5155 37.0775 13.5425 42.7092C10.5696 48.3408 9.02808 54.7455 8.91797 61.0397C8.91797 61.8126 8.91797 62.5856 8.91797 63.469C8.91797 63.9107 8.91797 64.242 8.91797 64.6837L9.02808 65.8984C9.13819 66.6713 9.13819 67.4443 9.2483 68.2173L9.57862 70.5362C9.68873 71.3092 9.90895 72.0821 10.1292 72.8551C10.3494 73.6281 10.4595 74.4011 10.6797 75.174C11.1201 76.72 11.5606 78.2659 12.2212 79.7015C12.7718 81.2474 13.5425 82.5725 14.2032 84.008C14.974 85.3331 15.8548 86.7687 16.7357 88.0938C18.6076 90.6335 20.8097 93.0629 23.2321 95.1609C28.0769 99.3571 33.8026 102.339 39.6384 104.657C45.4742 107.087 51.4201 108.854 57.2559 110.841C60.1187 111.835 63.0916 112.939 65.7342 114.264C68.3769 115.59 70.9094 117.246 72.561 119.344C72.8913 119.675 73.4419 120.227 73.9924 120.669C74.1025 120.669 74.1025 120.559 74.2126 120.559C74.543 120.338 74.7632 119.896 74.7632 119.565C74.8733 119.234 74.543 118.792 74.4329 118.681Z" fill="url(#paint2_linear_1699_7390)"/>
<path d="M37.3262 19.7407C37.3262 19.7407 38.9778 11.3484 49.6584 14.882C49.6584 14.882 45.0338 24.1577 37.3262 19.7407Z" fill="url(#paint3_linear_1699_7390)"/>
<path d="M55.164 110.62C55.164 110.62 56.7056 108.632 56.9258 105.982C57.146 103.332 55.8247 100.019 50.8698 97.4795C50.8698 97.4795 49.5485 100.13 49.4384 103.222C49.2182 106.093 50.3192 109.516 55.164 110.62Z" fill="url(#paint4_linear_1699_7390)"/>
<path d="M56.2653 111.504C56.2653 111.504 54.0632 109.958 51.3104 109.737C48.5577 109.516 45.1443 110.51 42.3916 115.589C42.3916 115.589 45.4747 117.025 48.6678 117.135C51.9711 117.246 55.3845 116.141 56.2653 111.504Z" fill="url(#paint5_linear_1699_7390)"/>
<path d="M41.951 105.651C41.951 105.651 42.3914 105.209 42.8318 104.326C43.2723 103.553 43.8228 102.338 44.043 101.124C44.4835 98.4734 43.6026 95.2711 39.3083 92.1792C39.3083 92.1792 38.8679 92.8417 38.4275 93.8356C37.987 94.8294 37.3264 96.1545 37.1062 97.7004C36.7758 99.136 36.8859 100.792 37.5466 102.228C38.2072 103.553 39.5286 104.878 41.951 105.651Z" fill="url(#paint6_linear_1699_7390)"/>
<path d="M43.052 106.645C43.052 106.645 42.5014 106.203 41.7307 105.761C40.8498 105.32 39.6386 104.767 38.3173 104.436C35.5646 103.884 32.0411 104.436 28.5176 109.074C28.5176 109.074 28.7378 109.184 29.0681 109.405C29.3985 109.626 29.8389 109.847 30.4995 110.178C31.7107 110.73 33.2523 111.393 35.014 111.614C38.2072 112.055 41.8408 111.172 43.052 106.645Z" fill="url(#paint7_linear_1699_7390)"/>
<path d="M29.3986 99.0256C29.3986 99.0256 29.9491 98.5839 30.4997 97.9214C31.0502 97.2588 31.821 96.1546 32.2614 94.9399C32.7019 93.7252 32.812 92.1793 32.4817 90.6333C32.1513 89.0874 31.2705 87.3206 29.7289 85.4434C29.7289 85.4434 29.1784 85.9955 28.5177 86.7685C27.8571 87.6519 26.9762 88.7561 26.3155 90.1916C25.6549 91.5167 25.3246 93.0627 25.765 94.719C25.9852 96.265 27.1964 97.9214 29.3986 99.0256Z" fill="url(#paint8_linear_1699_7390)"/>
<path d="M30.28 100.13C30.28 100.13 29.8396 99.6885 29.0688 99.0259C28.298 98.3634 27.197 97.5904 25.8756 97.1487C24.5543 96.5966 23.0128 96.2653 21.2511 96.4862C19.4893 96.707 17.3973 97.48 15.085 99.2468C15.085 99.2468 15.3052 99.4676 15.5254 99.6885C15.8557 100.02 16.2962 100.351 16.8467 100.793C17.9478 101.676 19.4893 102.67 21.141 103.333C22.7926 103.995 24.6644 104.326 26.206 103.885C27.9677 103.443 29.289 102.339 30.28 100.13Z" fill="url(#paint9_linear_1699_7390)"/>
<path d="M18.4968 89.7501C18.4968 89.7501 19.0474 89.5292 19.8181 88.9771C20.5889 88.425 21.5799 87.652 22.2405 86.5477C23.0113 85.4435 23.5618 84.1184 23.7821 82.5724C24.0023 81.0265 23.7821 79.2597 23.0113 77.1616C23.0113 77.1616 22.3506 77.4929 21.3597 78.045C20.3687 78.5971 19.1575 79.3701 18.1665 80.4744C17.0654 81.5786 16.2946 82.9037 16.1845 84.5601C16.0744 86.106 16.7351 87.9833 18.4968 89.7501Z" fill="url(#paint10_linear_1699_7390)"/>
<path d="M19.1579 91.0753C19.1579 91.0753 18.8276 90.5232 18.2771 89.6398C17.7265 88.8668 16.8456 87.7625 15.8547 86.8791C15.3041 86.4374 14.7536 85.9957 13.9828 85.554C13.3221 85.2228 12.5514 84.8915 11.6705 84.6706C9.79866 84.3394 7.59648 84.3394 4.84375 85.2228C4.84375 85.2228 5.17408 86.1062 5.94484 87.4313C6.7156 88.6459 7.9268 90.1919 9.35822 91.4066C10.7896 92.6212 12.5514 93.5046 14.203 93.615C15.9648 93.7255 17.6164 92.9525 19.1579 91.0753Z" fill="url(#paint11_linear_1699_7390)"/>
<path d="M11.2297 77.3827C11.2297 77.3827 11.8903 77.3827 12.7712 77.1619C13.6521 76.941 14.8633 76.4993 15.9643 75.8368C17.0654 75.0638 18.0564 74.07 18.8272 72.6345C19.4878 71.1989 19.9283 69.5426 20.0384 67.2236C20.0384 67.2236 19.2676 67.2236 18.1665 67.4445C17.0654 67.6653 15.634 67.9966 14.3127 68.6592C12.9914 69.3217 11.6701 70.3155 11.0094 71.7511C10.2387 73.1866 10.1286 75.1742 11.2297 77.3827Z" fill="url(#paint12_linear_1699_7390)"/>
<path d="M11.3405 78.9288C11.3405 78.9288 11.2304 78.2663 11.0102 77.2725C10.9001 76.8308 10.6798 76.2786 10.5697 75.6161C10.3495 75.064 10.1293 74.4014 9.79897 73.7389C9.13832 72.5242 8.14734 71.1991 6.60581 70.2053C5.06428 69.2115 2.97221 68.4385 0.109375 68.4385C0.109375 68.4385 0.109375 68.6593 0.109375 69.101C0.109375 69.5427 0.219484 70.0949 0.329593 70.7574C0.439702 71.4199 0.65992 72.3033 0.990248 73.0763C1.21047 73.9597 1.6509 74.8431 2.09134 75.6161C2.53177 76.4995 3.08232 77.2725 3.74297 77.935C4.40363 78.5976 5.06428 79.1497 5.83505 79.481C7.48668 80.1435 9.24843 80.1435 11.3405 78.9288Z" fill="url(#paint13_linear_1699_7390)"/>
<path d="M8.69776 63.3586C8.69776 63.3586 9.2483 63.5795 10.2393 63.6899C11.1202 63.8003 12.4415 63.8003 13.6527 63.469C14.974 63.1378 16.1852 62.4752 17.3964 61.371C18.4975 60.2667 19.4884 58.7208 20.1491 56.5123C20.1491 56.5123 19.3783 56.2914 18.2772 56.181C17.1762 56.0706 15.7447 55.8497 14.2032 56.0706C13.4324 56.181 12.6617 56.2914 12.001 56.6227C11.3404 56.954 10.6797 57.3957 10.1292 57.9478C9.79885 58.2791 9.57863 58.6103 9.35841 58.9416C9.13819 59.2729 9.02808 59.7146 8.80787 60.1563C8.69776 60.598 8.58765 61.1501 8.47754 61.7022C8.58765 62.1439 8.58765 62.6961 8.69776 63.3586Z" fill="url(#paint14_linear_1699_7390)"/>
<path d="M8.25671 64.794C8.25671 64.794 8.25671 64.5732 8.36682 64.3523C8.47693 64.021 8.47693 63.6898 8.47693 63.1376C8.47693 62.6959 8.47693 62.0334 8.47693 61.4813C8.47693 60.8187 8.47693 60.1562 8.25671 59.4936C8.1466 58.8311 7.92639 58.0581 7.59606 57.3956C7.26573 56.6226 6.82529 55.96 6.27475 55.1871C5.17366 53.7515 3.41191 52.4264 0.659186 51.4326C0.659186 51.4326 0.549077 51.6535 0.549077 52.0952C0.438968 52.5369 0.328859 53.089 0.328859 53.862C0.328859 54.1932 0.21875 54.6349 0.21875 54.9662C0.21875 55.4079 0.21875 55.8496 0.21875 56.2913C0.21875 57.1747 0.21875 58.1685 0.438968 59.0519C0.659186 59.9353 0.879404 60.8187 1.31984 61.7021C1.76028 62.4751 2.20071 63.2481 2.86137 63.8002C4.18268 64.6836 5.94442 65.2357 8.25671 64.794Z" fill="url(#paint15_linear_1699_7390)"/>
<path d="M10.6797 49.114C10.6797 49.114 11.2302 49.4453 12.001 49.887C12.8819 50.3287 13.983 50.66 15.3043 50.7704C15.9649 50.7704 16.6256 50.7704 17.3963 50.66C18.057 50.5496 18.8278 50.3287 19.4884 49.9974C20.9198 49.3349 22.3512 48.2306 23.7827 46.3534C23.7827 46.3534 23.122 45.9117 22.131 45.47C21.14 44.9179 19.8187 44.3658 18.3873 44.0345C16.8458 43.7032 15.3043 43.7032 13.8729 44.4762C13.2122 44.8075 12.5515 45.3596 11.8909 46.1326C11.5606 46.4638 11.3403 47.016 11.1201 47.4577C11.01 48.0098 10.7898 48.5619 10.6797 49.114Z" fill="url(#paint16_linear_1699_7390)"/>
<path d="M9.79935 50.3285C9.79935 50.3285 10.1297 49.7763 10.5701 48.7825C10.7903 48.3408 11.0106 47.7887 11.2308 47.2366C11.451 46.6844 11.5611 46.0219 11.6712 45.2489C11.8914 43.8134 11.8914 42.2675 11.2308 40.5007C10.6802 38.8443 9.46902 36.9671 7.15673 35.0898C7.15673 35.0898 7.04662 35.3107 6.82641 35.642C6.60619 35.9732 6.27586 36.5254 6.05564 37.1879C5.39499 38.513 4.73433 40.2798 4.51412 42.157C4.40401 43.0404 4.2939 44.0343 4.40401 44.9177C4.51412 45.801 4.73433 46.6844 5.17477 47.4574C5.94553 49.0034 7.48706 49.9972 9.79935 50.3285Z" fill="url(#paint17_linear_1699_7390)"/>
<path d="M17.1758 36.4146C17.1758 36.4146 17.5061 36.9668 18.1668 37.6293C18.8274 38.2919 19.8184 39.0648 21.0296 39.5065C22.2408 39.9482 23.6722 40.2795 25.2137 40.0587C26.8654 39.8378 28.517 39.0648 30.499 37.6293C30.499 37.6293 30.0585 37.0772 29.1777 36.3042C28.4069 35.5312 27.1957 34.5374 25.9845 33.8749C24.6632 33.2123 23.1217 32.6602 21.5801 32.9915C20.1487 33.2123 18.4971 34.3166 17.1758 36.4146Z" fill="url(#paint18_linear_1699_7390)"/>
<path d="M15.9645 37.2979C15.9645 37.2979 16.5151 36.8562 17.1757 36.0833C17.8364 35.3103 18.7173 34.3165 19.2678 33.1018C19.9285 31.8871 20.3689 30.3412 20.2588 28.5744C20.1487 26.8076 19.488 24.7095 17.8364 22.2802C17.8364 22.2802 17.1757 22.8323 16.1848 23.8261C15.3039 24.8199 14.2028 26.2554 13.3219 27.9118C12.5512 29.5682 12.1107 31.4454 12.441 33.1018C12.7714 34.7582 13.8725 36.1937 15.9645 37.2979Z" fill="url(#paint19_linear_1699_7390)"/>
<path d="M27.0859 26.1448C27.0859 26.1448 27.3062 26.697 27.7466 27.5804C28.187 28.3533 28.9578 29.3472 30.0589 30.1201C31.16 30.8931 32.4813 31.5557 34.0228 31.6661C35.6744 31.7765 37.5463 31.4452 39.8586 30.5618C39.8586 30.5618 39.5283 29.8993 38.9777 28.9055C38.3171 28.0221 37.5463 26.8074 36.3351 25.8136C35.234 24.8197 33.8026 24.0468 32.2611 23.9364C30.7195 23.8259 28.8477 24.378 27.0859 26.1448Z" fill="url(#paint20_linear_1699_7390)"/>
<path d="M25.654 26.6974C25.654 26.6974 26.3147 26.3661 27.0855 25.9244C27.9663 25.3723 28.9573 24.5993 29.8382 23.495C30.8292 22.3908 31.5999 20.9553 31.9303 19.1885C32.2606 17.4217 32.1505 15.2132 31.0494 12.563C31.0494 12.563 30.1685 13.0047 29.0674 13.7777C27.9663 14.5506 26.5349 15.6549 25.4338 17.0904C24.3327 18.4155 23.4519 20.0719 23.3418 21.7282C23.2316 23.3846 23.8923 25.041 25.654 26.6974Z" fill="url(#paint21_linear_1699_7390)"/>
<path d="M48.6674 14.9922C48.6674 14.9922 37.5464 18.4154 38.207 19.4092C38.6475 20.0717 48.6674 14.9922 48.6674 14.9922Z" fill="url(#paint22_linear_1699_7390)"/>
<path d="M30.4998 13.5566C30.4998 13.5566 25.1044 19.4092 25.8752 25.3721C25.8752 25.3721 26.0954 25.8138 26.2055 25.3721C26.3156 24.9304 26.5358 21.8385 27.3066 19.5196C28.1875 17.4215 30.4998 13.5566 30.4998 13.5566Z" fill="url(#paint23_linear_1699_7390)"/>
<path d="M38.9776 30.1202C38.9776 30.1202 32.0407 30.8932 27.7465 26.5866C27.7465 26.5866 27.5262 26.2554 27.9667 26.3658C28.297 26.4762 30.8295 28.1326 32.9216 28.9056C35.0137 29.5681 38.9776 30.1202 38.9776 30.1202Z" fill="url(#paint24_linear_1699_7390)"/>
<path d="M18.0577 23.6055C18.0577 23.6055 13.9837 30.3414 15.6353 35.973C15.6353 35.973 15.8555 36.3043 15.9656 35.8626C16.0757 35.4209 15.6353 32.329 16.0757 29.8997C16.5162 27.6912 18.0577 23.6055 18.0577 23.6055Z" fill="url(#paint25_linear_1699_7390)"/>
<path d="M29.0683 37.1879C29.0683 37.1879 23.2325 39.3964 18.0574 36.7462C18.0574 36.7462 17.7271 36.5254 18.1675 36.5254C18.4978 36.5254 21.3607 37.4088 23.3426 37.5192C25.4347 37.5192 29.0683 37.1879 29.0683 37.1879Z" fill="url(#paint26_linear_1699_7390)"/>
<path d="M7.70659 36.7461C7.70659 36.7461 5.72463 44.3654 8.91779 49.3345C8.91779 49.3345 9.24812 49.5554 9.24812 49.2241C9.24812 48.7824 7.92681 45.9114 7.70659 43.482C7.37626 41.0527 7.70659 36.7461 7.70659 36.7461Z" fill="url(#paint27_linear_1699_7390)"/>
<path d="M22.1311 46.4634C22.1311 46.4634 17.1762 50.3283 11.4505 49.224C11.4505 49.224 11.1202 49.1136 11.4505 49.0032C11.7809 48.8927 14.7538 48.8927 16.7358 48.451C18.7177 48.0093 22.1311 46.4634 22.1311 46.4634Z" fill="url(#paint28_linear_1699_7390)"/>
<path d="M1.21094 53.3096C1.21094 53.3096 2.53225 61.0393 7.59726 64.2416C7.59726 64.2416 8.0377 64.352 7.81748 64.0208C7.59726 63.6895 5.28497 61.481 3.96366 59.4934C2.75246 57.2849 1.21094 53.3096 1.21094 53.3096Z" fill="url(#paint29_linear_1699_7390)"/>
<path d="M18.9377 57.1748C18.9377 57.1748 15.194 62.2543 9.46831 62.8065C9.46831 62.8065 9.02787 62.8065 9.3582 62.5856C9.68853 62.3648 12.4413 61.5918 14.3131 60.598C16.0749 59.6042 18.9377 57.1748 18.9377 57.1748Z" fill="url(#paint30_linear_1699_7390)"/>
<path d="M1.21094 69.9839C1.21094 69.9839 4.62432 77.0511 10.2399 78.8179C10.2399 78.8179 10.6803 78.8179 10.35 78.4866C10.0197 78.1553 7.15683 76.8302 5.50519 75.1738C3.85356 73.5175 1.21094 69.9839 1.21094 69.9839Z" fill="url(#paint31_linear_1699_7390)"/>
<path d="M19.268 68.6587C19.268 68.6587 17.0658 74.5112 11.6705 76.6093C11.6705 76.6093 11.23 76.6093 11.5603 76.3884C11.7806 76.1676 14.3131 74.6216 15.7445 73.0757C17.1759 71.7506 19.268 68.6587 19.268 68.6587Z" fill="url(#paint32_linear_1699_7390)"/>
<path d="M5.94531 86.106C5.94531 86.106 11.671 91.5168 17.5068 91.0751C17.5068 91.0751 17.9472 90.8542 17.5068 90.7438C17.1764 90.6334 13.9833 90.3021 11.7811 89.4187C9.57891 88.4249 5.94531 86.106 5.94531 86.106Z" fill="url(#paint33_linear_1699_7390)"/>
<path d="M22.6817 78.376C22.6817 78.376 23.012 84.6702 18.938 88.7559C18.938 88.7559 18.6077 88.9768 18.7178 88.6455C18.8279 88.3142 20.4795 85.8849 21.2503 83.8972C21.9109 82.02 22.6817 78.376 22.6817 78.376Z" fill="url(#paint34_linear_1699_7390)"/>
<path d="M16.4053 99.6885C16.4053 99.6885 23.5624 102.78 28.9577 100.351C28.9577 100.351 29.288 100.02 28.8476 100.02C28.4072 100.02 25.3241 100.793 23.0118 100.682C20.6995 100.682 16.4053 99.6885 16.4053 99.6885Z" fill="url(#paint35_linear_1699_7390)"/>
<path d="M29.8384 86.7686C29.8384 86.7686 32.3709 92.5106 29.8384 97.811C29.8384 97.811 29.6182 98.1423 29.6182 97.7006C29.6182 97.3693 30.3889 94.4983 30.3889 92.4002C30.3889 90.4126 29.8384 86.7686 29.8384 86.7686Z" fill="url(#paint36_linear_1699_7390)"/>
<path d="M29.6182 108.853C29.6182 108.853 37.2157 110.73 42.1706 107.418C42.1706 107.418 42.3908 107.086 42.0605 107.086C41.6201 107.086 38.7572 108.412 36.4449 108.743C33.9124 109.074 29.6182 108.853 29.6182 108.853Z" fill="url(#paint37_linear_1699_7390)"/>
<path d="M39.9688 93.8354C39.9688 93.8354 43.3821 99.1358 41.8406 104.768C41.8406 104.768 41.6204 105.099 41.6204 104.768C41.5103 104.436 41.8406 101.455 41.5103 99.4671C41.18 97.369 39.9688 93.8354 39.9688 93.8354Z" fill="url(#paint38_linear_1699_7390)"/>
<path d="M43.1621 115.038C43.1621 115.038 50.9799 115.921 55.3842 111.946C55.3842 111.946 55.6044 111.504 55.164 111.614C54.7236 111.725 52.0809 113.381 49.7687 114.044C47.5665 114.706 43.1621 115.038 43.1621 115.038Z" fill="url(#paint39_linear_1699_7390)"/>
<path d="M51.5303 98.915C51.5303 98.915 55.6043 103.663 54.8335 109.516C54.8335 109.516 54.7234 109.847 54.6133 109.516C54.5032 109.185 54.3931 106.203 53.8426 104.215C53.1819 102.228 51.5303 98.915 51.5303 98.915Z" fill="url(#paint40_linear_1699_7390)"/>
<path d="M92.0505 19.2989C94.8032 20.5136 97.4459 22.17 99.9784 23.8263C102.511 25.5931 104.933 27.4703 107.246 29.5684C111.76 33.6541 115.614 38.5128 118.367 44.0341C121.119 49.4449 122.441 55.5182 122.551 61.5916C122.551 62.3646 122.551 63.1376 122.441 63.9105C122.441 64.2418 122.441 64.6835 122.441 65.0148L122.331 66.119C122.22 66.892 122.22 67.665 122.11 68.4379L121.67 70.6464C121.56 71.4194 121.34 72.082 121.119 72.8549C120.899 73.6279 120.789 74.2905 120.569 75.0634C120.128 76.499 119.688 77.9345 119.027 79.37C118.477 80.8055 117.816 82.1306 117.045 83.4557C116.275 84.7808 115.504 86.1059 114.623 87.2102C112.861 89.6395 110.769 91.848 108.457 93.8356C103.832 97.7005 98.3267 100.682 92.7112 102.89C86.9855 105.209 81.0396 106.976 75.0937 108.964C72.1208 109.958 69.1478 111.062 66.1749 112.497C63.312 113.933 60.4492 115.81 58.247 118.46C57.6965 119.123 57.8066 120.006 58.4672 120.558C59.1279 121.111 60.0088 121 60.5593 120.338C62.3211 118.129 64.7435 116.473 67.4962 115.148C70.2489 113.823 73.1118 112.718 75.9746 111.724C81.8104 109.737 87.8664 107.86 93.7022 105.541C99.5379 103.111 105.264 100.13 110.219 95.9337C112.641 93.8356 114.843 91.4063 116.715 88.8665C117.706 87.5414 118.477 86.2163 119.358 84.7808C120.128 83.3453 120.899 81.9098 121.45 80.3638C122.11 78.9283 122.551 77.3824 122.991 75.8364C123.211 75.0634 123.432 74.2905 123.542 73.5175C123.762 72.7445 123.982 71.9715 124.092 71.1986L124.533 68.8796C124.643 68.1067 124.753 67.3337 124.753 66.4503L124.863 65.2356C124.863 64.7939 124.863 64.4627 124.863 64.021C124.863 63.248 124.973 62.3646 124.863 61.5916C124.753 55.187 123.211 48.6719 120.349 42.9298C117.486 37.1877 113.412 32.1082 108.677 27.8016C106.365 25.7036 103.832 23.7159 101.19 21.9491C98.547 20.1823 95.7942 18.5259 92.9314 17.2008C92.3808 16.98 91.7202 17.2008 91.5 17.753C91.1696 18.3051 91.3899 18.9676 92.0505 19.2989Z" fill="url(#paint41_radial_1699_7390)"/>
<path d="M92.0505 19.2989C94.8032 20.5136 97.4459 22.17 99.9784 23.8263C102.511 25.5931 104.933 27.4703 107.246 29.5684C111.76 33.6541 115.614 38.5128 118.367 44.0341C121.119 49.4449 122.441 55.5182 122.551 61.5916C122.551 62.3646 122.551 63.1376 122.441 63.9105C122.441 64.2418 122.441 64.6835 122.441 65.0148L122.331 66.119C122.22 66.892 122.22 67.665 122.11 68.4379L121.67 70.6464C121.56 71.4194 121.34 72.082 121.119 72.8549C120.899 73.6279 120.789 74.2905 120.569 75.0634C120.128 76.499 119.688 77.9345 119.027 79.37C118.477 80.8055 117.816 82.1306 117.045 83.4557C116.275 84.7808 115.504 86.1059 114.623 87.2102C112.861 89.6395 110.769 91.848 108.457 93.8356C103.832 97.7005 98.3267 100.682 92.7112 102.89C86.9855 105.209 81.0396 106.976 75.0937 108.964C72.1208 109.958 69.1478 111.062 66.1749 112.497C63.312 113.933 60.4492 115.81 58.247 118.46C57.6965 119.123 57.8066 120.006 58.4672 120.558C59.1279 121.111 60.0088 121 60.5593 120.338C62.3211 118.129 64.7435 116.473 67.4962 115.148C70.2489 113.823 73.1118 112.718 75.9746 111.724C81.8104 109.737 87.8664 107.86 93.7022 105.541C99.5379 103.111 105.264 100.13 110.219 95.9337C112.641 93.8356 114.843 91.4063 116.715 88.8665C117.706 87.5414 118.477 86.2163 119.358 84.7808C120.128 83.3453 120.899 81.9098 121.45 80.3638C122.11 78.9283 122.551 77.3824 122.991 75.8364C123.211 75.0634 123.432 74.2905 123.542 73.5175C123.762 72.7445 123.982 71.9715 124.092 71.1986L124.533 68.8796C124.643 68.1067 124.753 67.3337 124.753 66.4503L124.863 65.2356C124.863 64.7939 124.863 64.4627 124.863 64.021C124.863 63.248 124.973 62.3646 124.863 61.5916C124.753 55.187 123.211 48.6719 120.349 42.9298C117.486 37.1877 113.412 32.1082 108.677 27.8016C106.365 25.7036 103.832 23.7159 101.19 21.9491C98.547 20.1823 95.7942 18.5259 92.9314 17.2008C92.3808 16.98 91.7202 17.2008 91.5 17.753C91.1696 18.3051 91.3899 18.9676 92.0505 19.2989Z" fill="url(#paint42_radial_1699_7390)"/>
<path d="M58.468 118.681C60.2297 116.473 62.7623 114.927 65.4049 113.602C68.1576 112.277 71.0204 111.283 73.8833 110.289C79.719 108.301 85.7751 106.645 91.7209 104.326C97.5567 102.007 103.393 99.0257 108.347 94.94C110.88 92.9524 112.972 90.523 114.954 87.9832C115.945 86.7686 116.716 85.333 117.597 84.0079C118.367 82.5724 119.138 81.1369 119.689 79.7014C120.349 78.2659 120.79 76.7199 121.23 75.174C121.45 74.401 121.671 73.628 121.781 72.855C122.001 72.0821 122.221 71.3091 122.331 70.5361L122.772 68.2172C122.882 67.4442 122.992 66.6713 122.992 65.8983L123.102 64.6836C123.102 64.2419 123.102 63.9106 123.102 63.4689C123.102 62.696 123.102 61.923 123.102 61.0396C122.992 54.7454 121.45 48.3407 118.477 42.7091C115.505 37.0774 111.43 32.1083 106.696 27.9122C104.273 25.8141 101.851 23.9369 99.2084 22.1701C96.786 20.6241 94.2534 19.0782 91.5007 17.8635V17.7531C91.5007 17.6427 91.6108 17.6427 91.6108 17.5322C91.7209 17.5322 91.8311 17.5322 91.9412 17.6427C94.9141 18.9677 97.5567 20.5137 100.199 22.2805C102.842 24.0473 105.374 25.9245 107.687 28.0226C112.421 32.2187 116.495 37.1878 119.468 42.8195C122.441 48.4512 123.983 54.8558 124.093 61.15C124.093 61.923 124.093 62.696 124.093 63.5794C124.093 64.0211 124.093 64.3523 124.093 64.794L123.983 66.0087C123.873 66.7817 123.873 67.5547 123.763 68.3276L123.432 70.6465C123.322 71.4195 123.102 72.1925 122.882 72.9655C122.662 73.7384 122.551 74.5114 122.331 75.2844C121.891 76.8303 121.45 78.3763 120.79 79.8118C120.239 81.3578 119.468 82.6829 118.808 84.1184C118.037 85.4435 117.156 86.879 116.275 88.2041C114.403 90.7439 112.201 93.1732 109.779 95.2713C104.934 99.4674 99.2084 102.449 93.3726 104.768C87.5368 107.197 81.5909 108.964 75.7551 110.952C72.8923 111.945 69.9193 113.05 67.2767 114.375C64.6341 115.7 62.1016 117.356 60.45 119.454C60.1196 119.786 59.5691 120.338 59.0185 120.779C58.9084 120.779 58.9084 120.669 58.7983 120.669C58.468 120.448 58.2478 120.006 58.2478 119.675C58.1377 119.233 58.3579 118.792 58.468 118.681Z" fill="url(#paint43_linear_1699_7390)"/>
<path d="M95.5744 19.7407C95.5744 19.7407 93.9228 11.3484 83.2422 14.882C83.3523 14.882 87.8668 24.1577 95.5744 19.7407Z" fill="url(#paint44_linear_1699_7390)"/>
<path d="M77.7368 110.62C77.7368 110.62 76.1952 108.632 75.975 105.982C75.7548 103.332 77.0761 100.019 82.031 97.4795C82.031 97.4795 83.3524 100.13 83.4625 103.222C83.7928 106.093 82.5816 109.516 77.7368 110.62Z" fill="url(#paint45_linear_1699_7390)"/>
<path d="M76.6348 111.503C76.6348 111.503 78.8369 109.957 81.5897 109.736C84.3424 109.515 87.7558 110.509 90.5085 115.589C90.5085 115.589 87.4255 117.024 84.2323 117.135C80.929 117.245 77.6257 116.141 76.6348 111.503Z" fill="url(#paint46_linear_1699_7390)"/>
<path d="M90.9499 105.651C90.9499 105.651 90.5095 105.209 90.069 104.326C89.6286 103.553 89.078 102.338 88.8578 101.124C88.4174 98.4734 89.2982 95.2711 93.5925 92.1792C93.5925 92.1792 94.0329 92.8417 94.4734 93.8356C94.9138 94.8294 95.5745 96.1545 95.7947 97.7004C96.125 99.136 96.0149 100.792 95.3542 102.228C94.8037 103.553 93.3723 104.878 90.9499 105.651Z" fill="url(#paint47_linear_1699_7390)"/>
<path d="M89.959 106.645C89.959 106.645 90.5095 106.203 91.2803 105.761C92.1612 105.32 93.3724 104.767 94.6937 104.436C97.4464 103.884 100.97 104.436 104.493 109.074C104.493 109.074 104.273 109.184 103.943 109.405C103.613 109.626 103.172 109.847 102.511 110.178C101.3 110.73 99.7587 111.393 97.9969 111.614C94.6937 112.055 91.1702 111.172 89.959 106.645Z" fill="url(#paint48_linear_1699_7390)"/>
<path d="M103.502 99.0256C103.502 99.0256 102.951 98.5839 102.401 97.9214C101.85 97.2588 101.079 96.1546 100.639 94.9399C100.198 93.7252 100.088 92.1793 100.419 90.6333C100.749 89.0874 101.63 87.3206 103.171 85.4434C103.171 85.4434 103.722 85.9955 104.383 86.7685C105.043 87.6519 105.924 88.7561 106.585 90.1916C107.245 91.5167 107.576 93.0627 107.135 94.719C106.915 96.265 105.814 97.9214 103.502 99.0256Z" fill="url(#paint49_linear_1699_7390)"/>
<path d="M102.621 100.13C102.621 100.13 103.062 99.6885 103.832 99.0259C104.603 98.3634 105.704 97.5904 107.025 97.1487C108.347 96.5966 109.888 96.2653 111.65 96.4862C113.412 96.707 115.504 97.48 117.816 99.2468C117.816 99.2468 117.596 99.4676 117.376 99.6885C117.045 100.02 116.605 100.351 116.054 100.793C114.953 101.676 113.412 102.67 111.76 103.333C110.109 103.995 108.237 104.326 106.695 103.885C105.043 103.443 103.612 102.339 102.621 100.13Z" fill="url(#paint50_linear_1699_7390)"/>
<path d="M114.403 89.7496C114.403 89.7496 113.853 89.5287 113.082 88.9766C112.311 88.4245 111.32 87.6515 110.66 86.5472C109.889 85.443 109.338 84.1179 109.118 82.572C108.898 81.026 109.118 79.2592 109.889 77.1611C109.889 77.1611 110.549 77.4924 111.54 78.0445C112.531 78.5967 113.743 79.3696 114.734 80.4739C115.835 81.5781 116.605 82.9032 116.716 84.5596C116.826 86.1055 116.165 87.9828 114.403 89.7496Z" fill="url(#paint51_linear_1699_7390)"/>
<path d="M113.854 91.075C113.854 91.075 114.184 90.5229 114.734 89.6395C115.285 88.8665 116.166 87.7623 117.157 86.8789C117.707 86.4372 118.258 85.9955 119.029 85.5538C119.689 85.2225 120.46 84.8912 121.341 84.6704C123.103 84.2287 125.305 84.2287 128.058 85.2225C128.058 85.2225 127.727 86.1059 126.957 87.431C126.186 88.6457 124.975 90.1916 123.543 91.4063C122.112 92.621 120.35 93.5044 118.698 93.6148C116.937 93.7252 115.285 92.9522 113.854 91.075Z" fill="url(#paint52_linear_1699_7390)"/>
<path d="M121.67 77.3822C121.67 77.3822 121.009 77.3822 120.129 77.1614C119.248 76.9405 118.036 76.4988 116.935 75.8363C115.834 75.0633 114.843 74.0695 114.073 72.634C113.412 71.1984 112.971 69.5421 112.861 67.2231C112.861 67.2231 113.632 67.2231 114.733 67.444C115.834 67.6648 117.266 67.9961 118.587 68.6587C119.908 69.3212 121.23 70.315 121.89 71.7506C122.661 73.1861 122.771 75.1737 121.67 77.3822Z" fill="url(#paint53_linear_1699_7390)"/>
<path d="M121.67 78.9279C121.67 78.9279 121.78 78.2653 122 77.2715C122.11 76.8298 122.331 76.2777 122.441 75.6151C122.661 75.063 122.881 74.4004 123.211 73.7379C123.872 72.5232 124.863 71.1981 126.405 70.2043C127.946 69.2105 130.038 68.4375 132.901 68.4375C132.901 68.4375 132.901 68.6584 132.901 69.1001C132.901 69.5418 132.791 70.0939 132.681 70.7564C132.571 71.419 132.35 72.3024 132.02 73.0753C131.8 73.9587 131.36 74.8421 130.919 75.6151C130.479 76.4985 129.928 77.2715 129.267 77.934C128.607 78.5966 127.946 79.1487 127.175 79.48C125.524 80.1425 123.652 80.1425 121.67 78.9279Z" fill="url(#paint54_linear_1699_7390)"/>
<path d="M124.201 63.3586C124.201 63.3586 123.651 63.5795 122.66 63.6899C121.779 63.8003 120.458 63.8003 119.246 63.469C117.925 63.1378 116.714 62.4752 115.503 61.371C114.402 60.2667 113.411 58.7208 112.75 56.5123C112.75 56.5123 113.521 56.2914 114.622 56.181C115.723 56.0706 117.154 55.8497 118.696 56.0706C119.467 56.181 120.237 56.2914 120.898 56.6227C121.559 56.954 122.219 57.3957 122.77 57.9478C123.1 58.2791 123.32 58.6103 123.541 58.9416C123.761 59.2729 123.871 59.7146 124.091 60.1563C124.201 60.598 124.311 61.1501 124.422 61.7022C124.311 62.1439 124.311 62.6961 124.201 63.3586Z" fill="url(#paint55_linear_1699_7390)"/>
<path d="M124.751 64.794C124.751 64.794 124.751 64.5732 124.641 64.3523C124.531 64.021 124.531 63.6898 124.531 63.1376C124.531 62.6959 124.531 62.0334 124.531 61.4813C124.531 60.8187 124.531 60.1562 124.751 59.4936C124.862 58.8311 125.082 58.0581 125.412 57.3956C125.742 56.6226 126.183 55.96 126.733 55.1871C127.835 53.7515 129.596 52.4264 132.349 51.4326C132.349 51.4326 132.459 51.6535 132.459 52.0952C132.569 52.5369 132.679 53.089 132.679 53.862C132.679 54.1932 132.789 54.6349 132.789 54.9662C132.789 55.4079 132.789 55.8496 132.789 56.2913C132.789 57.1747 132.789 58.1685 132.569 59.0519C132.349 59.9353 132.129 60.8187 131.688 61.7021C131.248 62.4751 130.807 63.2481 130.147 63.8002C128.715 64.6836 127.064 65.2357 124.751 64.794Z" fill="url(#paint56_linear_1699_7390)"/>
<path d="M122.22 49.114C122.22 49.114 121.67 49.4453 120.899 49.887C120.018 50.3287 118.917 50.66 117.596 50.7704C116.935 50.7704 116.274 50.7704 115.504 50.66C114.843 50.5496 114.072 50.3287 113.411 49.9974C111.98 49.3349 110.549 48.2306 109.117 46.3534C109.117 46.3534 109.778 45.9117 110.769 45.47C111.76 44.9179 113.081 44.3658 114.513 44.0345C116.054 43.7032 117.596 43.7032 119.027 44.4762C119.688 44.8075 120.348 45.3596 121.009 46.1326C121.339 46.4638 121.56 47.016 121.78 47.4577C121.89 48.0098 122.11 48.5619 122.22 49.114Z" fill="url(#paint57_linear_1699_7390)"/>
<path d="M123.101 50.3285C123.101 50.3285 122.771 49.7763 122.33 48.7825C122.11 48.3408 121.89 47.7887 121.67 47.2366C121.45 46.6845 121.339 46.0219 121.229 45.2489C121.009 43.8134 121.009 42.2675 121.67 40.5007C122.22 38.8443 123.432 36.9671 125.744 35.0898C125.744 35.0898 125.854 35.3107 126.074 35.642C126.294 35.9732 126.625 36.5254 126.845 37.1879C127.506 38.513 128.166 40.2798 128.386 42.157C128.497 43.0404 128.607 44.0343 128.497 44.9177C128.386 45.8011 128.166 46.6845 127.726 47.4574C126.955 49.0034 125.414 49.9972 123.101 50.3285Z" fill="url(#paint58_linear_1699_7390)"/>
<path d="M115.726 36.4148C115.726 36.4148 115.395 36.9669 114.735 37.6294C114.074 38.292 113.083 39.065 111.872 39.5067C110.661 39.9484 109.229 40.2796 107.688 40.0588C106.036 39.8379 104.384 39.065 102.402 37.6294C102.402 37.6294 102.843 37.0773 103.724 36.3043C104.494 35.5314 105.706 34.5375 106.917 33.875C108.238 33.2124 109.78 32.6603 111.321 32.9916C112.863 33.2124 114.404 34.3167 115.726 36.4148Z" fill="url(#paint59_linear_1699_7390)"/>
<path d="M116.936 37.298C116.936 37.298 116.386 36.8563 115.725 36.0834C115.064 35.3104 114.183 34.3166 113.633 33.1019C112.972 31.8872 112.532 30.3413 112.642 28.5745C112.752 26.8077 113.413 24.7096 115.064 22.2803C115.064 22.2803 115.725 22.8324 116.716 23.8262C117.597 24.82 118.698 26.2556 119.579 27.9119C120.349 29.5683 120.79 31.4455 120.46 33.1019C120.129 34.7583 119.028 36.1938 116.936 37.298Z" fill="url(#paint60_linear_1699_7390)"/>
<path d="M105.925 26.1452C105.925 26.1452 105.705 26.6973 105.264 27.5807C104.824 28.3537 104.053 29.3475 102.952 30.1205C101.851 30.8935 100.53 31.556 98.9881 31.6664C97.3365 31.7769 95.4646 31.4456 93.1523 30.5622C93.1523 30.5622 93.4827 29.8997 94.0332 28.9058C94.5838 28.0224 95.4646 26.8078 96.5657 25.8139C97.6668 24.8201 99.0982 24.0471 100.64 23.9367C102.291 23.8263 104.053 24.3784 105.925 26.1452Z" fill="url(#paint61_linear_1699_7390)"/>
<path d="M107.246 26.6973C107.246 26.6973 106.585 26.366 105.815 25.9243C104.934 25.3722 103.943 24.5992 103.062 23.495C102.181 22.3907 101.3 21.0656 101.08 19.2988C100.75 17.532 100.86 15.3235 101.961 12.6733C101.961 12.6733 102.842 13.115 103.943 13.888C105.044 14.661 106.475 15.7652 107.576 17.2008C108.677 18.5259 109.558 20.1822 109.668 21.8386C109.668 23.3845 109.008 25.0409 107.246 26.6973Z" fill="url(#paint62_linear_1699_7390)"/>
<path d="M84.3418 14.9922C84.3418 14.9922 95.4628 18.4154 94.8022 19.4092C94.3617 20.0717 84.3418 14.9922 84.3418 14.9922Z" fill="url(#paint63_linear_1699_7390)"/>
<path d="M102.51 13.5566C102.51 13.5566 107.905 19.4092 107.134 25.3721C107.134 25.3721 106.914 25.8138 106.804 25.3721C106.694 24.9304 106.474 21.8385 105.703 19.5196C104.712 17.4215 102.51 13.5566 102.51 13.5566Z" fill="url(#paint64_linear_1699_7390)"/>
<path d="M93.9219 30.1207C93.9219 30.1207 100.859 30.8937 105.153 26.5871C105.153 26.5871 105.373 26.2559 104.933 26.3663C104.602 26.4767 102.07 28.1331 99.9779 28.9061C97.8858 29.5686 93.9219 30.1207 93.9219 30.1207Z" fill="url(#paint65_linear_1699_7390)"/>
<path d="M114.844 23.6055C114.844 23.6055 118.918 30.3414 117.266 35.973C117.266 35.973 117.046 36.3043 116.936 35.8626C116.826 35.4209 117.266 32.329 116.826 29.8997C116.385 27.6912 114.844 23.6055 114.844 23.6055Z" fill="url(#paint66_linear_1699_7390)"/>
<path d="M103.832 37.1879C103.832 37.1879 109.668 39.3964 114.843 36.7462C114.843 36.7462 115.173 36.5254 114.733 36.5254C114.402 36.5254 111.54 37.4088 109.558 37.5192C107.466 37.5192 103.832 37.1879 103.832 37.1879Z" fill="url(#paint67_linear_1699_7390)"/>
<path d="M125.303 36.7461C125.303 36.7461 127.285 44.3654 124.092 49.3345C124.092 49.3345 123.762 49.5554 123.762 49.2241C123.762 48.7824 125.083 45.9114 125.303 43.482C125.634 41.0527 125.303 36.7461 125.303 36.7461Z" fill="url(#paint68_linear_1699_7390)"/>
<path d="M110.77 46.4634C110.77 46.4634 115.724 50.3283 121.45 49.224C121.45 49.224 121.78 49.1136 121.45 49.0032C121.12 48.8927 118.147 48.8927 116.165 48.451C114.183 48.0093 110.77 46.4634 110.77 46.4634Z" fill="url(#paint69_linear_1699_7390)"/>
<path d="M131.69 53.3096C131.69 53.3096 130.368 61.0393 125.303 64.2416C125.303 64.2416 124.863 64.3521 125.083 64.0208C125.303 63.6895 127.616 61.481 128.937 59.4934C130.148 57.2849 131.69 53.3096 131.69 53.3096Z" fill="url(#paint70_linear_1699_7390)"/>
<path d="M114.072 57.1743C114.072 57.1743 117.816 62.2539 123.542 62.806C123.542 62.806 123.982 62.806 123.652 62.5851C123.321 62.3643 120.569 61.5913 118.697 60.5975C116.935 59.6037 114.072 57.1743 114.072 57.1743Z" fill="url(#paint71_linear_1699_7390)"/>
<path d="M131.69 69.9834C131.69 69.9834 128.276 77.0506 122.661 78.8174C122.661 78.8174 122.22 78.8174 122.551 78.4861C122.881 78.1548 125.744 76.8297 127.395 75.1734C129.157 73.517 131.69 69.9834 131.69 69.9834Z" fill="url(#paint72_linear_1699_7390)"/>
<path d="M113.631 68.6592C113.631 68.6592 115.833 74.5117 121.228 76.6098C121.228 76.6098 121.669 76.6098 121.338 76.3889C121.118 76.1681 118.586 74.6221 117.154 73.0762C115.723 71.7511 113.631 68.6592 113.631 68.6592Z" fill="url(#paint73_linear_1699_7390)"/>
<path d="M126.956 86.106C126.956 86.106 121.231 91.5168 115.395 91.0751C115.395 91.0751 114.955 90.8542 115.395 90.7438C115.725 90.6334 118.918 90.3021 121.121 89.4187C123.323 88.4249 126.956 86.106 126.956 86.106Z" fill="url(#paint74_linear_1699_7390)"/>
<path d="M110.329 78.376C110.329 78.376 109.998 84.6702 114.072 88.7559C114.072 88.7559 114.403 88.9767 114.293 88.6455C114.183 88.3142 112.531 85.8849 111.76 83.8972C110.989 82.02 110.329 78.376 110.329 78.376Z" fill="url(#paint75_linear_1699_7390)"/>
<path d="M116.496 99.688C116.496 99.688 109.338 102.78 103.943 100.351C103.943 100.351 103.613 100.019 104.053 100.019C104.494 100.019 107.577 100.792 109.889 100.682C112.311 100.682 116.496 99.688 116.496 99.688Z" fill="url(#paint76_linear_1699_7390)"/>
<path d="M103.061 86.7686C103.061 86.7686 100.529 92.5106 103.061 97.811C103.061 97.811 103.281 98.1423 103.281 97.7006C103.281 97.3693 102.511 94.4983 102.511 92.4002C102.511 90.4126 103.061 86.7686 103.061 86.7686Z" fill="url(#paint77_linear_1699_7390)"/>
<path d="M103.283 108.854C103.283 108.854 95.685 110.731 90.7301 107.418C90.7301 107.418 90.5099 107.087 90.8402 107.087C91.2807 107.087 94.1435 108.412 96.4558 108.743C98.9883 109.075 103.283 108.854 103.283 108.854Z" fill="url(#paint78_linear_1699_7390)"/>
<path d="M92.9318 93.8359C92.9318 93.8359 89.5184 99.1363 91.0599 104.768C91.0599 104.768 91.2802 105.099 91.2802 104.768C91.3903 104.437 91.06 101.455 91.3903 99.4676C91.8307 97.3695 92.9318 93.8359 92.9318 93.8359Z" fill="url(#paint79_linear_1699_7390)"/>
<path d="M89.7381 115.037C89.7381 115.037 81.9204 115.92 77.516 111.945C77.516 111.945 77.2958 111.503 77.7362 111.614C78.1766 111.724 80.8193 113.381 83.1316 114.043C85.3337 114.706 89.7381 115.037 89.7381 115.037Z" fill="url(#paint80_linear_1699_7390)"/>
<path d="M81.369 98.915C81.369 98.915 77.295 103.663 78.0658 109.516C78.0658 109.516 78.1759 109.847 78.286 109.516C78.3961 109.185 78.5062 106.203 79.0568 104.215C79.8275 102.228 81.369 98.915 81.369 98.915Z" fill="url(#paint81_linear_1699_7390)"/>
<g opacity="0.32">
<path opacity="0.32" d="M126.405 70.3152C125.194 71.0881 124.313 72.1924 123.652 73.1862C123.763 72.5237 123.983 71.8611 124.093 71.1986L124.533 68.8796C124.643 68.1067 124.754 67.3337 124.754 66.4503L124.864 65.2356C124.864 65.1252 124.864 65.0148 124.864 64.9044C127.066 65.2356 128.828 64.7939 130.039 63.6897C130.699 63.1376 131.14 62.3646 131.58 61.5916C131.911 60.8186 132.241 59.8248 132.461 58.9414C132.681 58.058 132.681 57.0642 132.681 56.1808C132.681 55.7391 132.681 55.2974 132.681 54.8557C132.681 54.414 132.571 54.0827 132.571 53.7514C132.461 53.0889 132.351 52.4263 132.351 51.9846C132.241 51.5429 132.241 51.3221 132.241 51.3221C129.488 52.3159 127.727 53.641 126.625 55.0765C126.075 55.7391 125.634 56.5121 125.304 57.285C125.084 57.7267 124.974 58.1684 124.864 58.6101C124.643 55.8495 124.093 53.0889 123.322 50.3283C125.524 49.997 126.956 49.0032 127.837 47.4572C128.277 46.6843 128.497 45.8009 128.607 44.9175C128.717 44.0341 128.717 43.0402 128.497 42.1568C128.277 40.2796 127.506 38.5128 126.956 37.1877C126.625 36.5252 126.295 36.0835 126.185 35.6418C125.965 35.3105 125.855 35.0896 125.855 35.0896C123.542 36.9669 122.331 38.7337 121.781 40.5005C121.23 41.936 121.23 43.2611 121.34 44.4758C121.12 43.9236 120.79 43.3715 120.569 42.8194C119.578 40.8317 118.477 38.9545 117.156 37.1877C119.248 36.0835 120.239 34.648 120.569 32.9916C120.9 31.3352 120.459 29.458 119.689 27.8016C118.918 26.1452 117.817 24.7097 116.826 23.7159C115.945 22.7221 115.174 22.1699 115.174 22.1699C113.522 24.5993 112.862 26.5869 112.752 28.4642C112.642 30.0101 112.972 31.4456 113.522 32.5499C112.091 30.8935 110.439 29.2371 108.788 27.8016C108.347 27.3599 107.797 27.0286 107.356 26.5869C109.008 25.041 109.669 23.3846 109.669 21.7282C109.559 20.0719 108.678 18.4155 107.577 17.0904C106.475 15.6549 105.044 14.5506 103.943 13.7777C102.842 13.0047 101.961 12.563 101.961 12.563C100.86 15.3236 100.75 17.4217 101.08 19.1885C101.3 20.7344 101.961 21.8387 102.732 22.8325C102.291 22.5012 101.851 22.1699 101.3 21.8387C99.3184 20.5136 97.3364 19.2989 95.2443 18.1947C94.2534 15.9862 91.2804 12.1213 83.4627 14.7715C83.4627 14.7715 87.5367 22.9429 94.3635 20.2927C96.3454 21.2865 98.2173 22.5012 100.089 23.7159C100.199 23.7159 100.199 23.8263 100.309 23.8263C98.8779 24.0472 97.6667 24.8201 96.6758 25.7035C95.5747 26.6974 94.6938 27.912 94.1432 28.7954C93.5927 29.6788 93.2624 30.4518 93.2624 30.4518C95.5747 31.4456 97.4465 31.7769 99.0982 31.5561C100.75 31.4456 102.071 30.7831 103.062 30.0101C104.053 29.2371 104.714 28.3537 105.264 27.5808C105.925 28.1329 106.696 28.7954 107.356 29.458C108.568 30.5622 109.669 31.6665 110.77 32.7707C109.448 32.6603 108.127 33.102 107.026 33.7646C105.705 34.4271 104.604 35.4209 103.833 36.1939C103.062 36.9669 102.512 37.519 102.512 37.519C104.493 38.9545 106.255 39.7275 107.797 39.9483C109.338 40.1692 110.88 39.9483 111.981 39.3962C113.082 38.9545 113.963 38.292 114.624 37.7398C116.055 39.7275 117.266 41.8256 118.367 43.9236C118.367 44.0341 118.477 44.0341 118.477 44.1445C117.266 43.7028 115.945 43.7028 114.624 44.0341C113.192 44.3653 111.761 44.9175 110.88 45.4696C109.889 46.0217 109.228 46.353 109.228 46.353C110.66 48.2302 112.091 49.3345 113.522 49.997C114.183 50.3283 114.954 50.5491 115.615 50.6595C116.275 50.77 117.046 50.77 117.707 50.77C118.918 50.6595 120.019 50.3283 120.79 49.997C121.56 52.4263 122.001 54.8557 122.331 57.285C121.891 56.9538 121.45 56.7329 121.01 56.5121C120.349 56.1808 119.578 56.0704 118.808 55.9599C117.376 55.7391 115.835 55.8495 114.734 56.0704C113.633 56.1808 112.862 56.4016 112.862 56.4016C113.633 58.6101 114.513 60.1561 115.615 61.2603C116.716 62.3646 118.037 63.0271 119.358 63.3584C120.459 63.6897 121.56 63.6897 122.441 63.6897C122.441 63.8001 122.441 63.8001 122.441 63.9105C122.441 64.2418 122.441 64.6835 122.441 65.0148L122.331 66.119C122.221 66.892 122.221 67.665 122.111 68.4379L121.671 70.6464C121.671 70.7569 121.671 70.8673 121.56 70.9777C120.79 69.9839 119.799 69.2109 118.698 68.7692C117.376 68.1067 115.945 67.7754 114.844 67.5545C113.743 67.3337 112.972 67.3337 112.972 67.3337C112.972 69.6526 113.412 71.4194 114.183 72.7445C114.954 74.0696 115.945 75.1739 117.046 75.9468C118.037 76.6094 119.028 77.0511 119.909 77.2719C119.689 78.0449 119.358 78.8179 119.028 79.4804C118.477 80.9159 117.817 82.2411 117.046 83.5661C116.936 83.787 116.826 84.0078 116.605 84.2287C116.385 82.7932 115.615 81.5785 114.624 80.5847C113.633 79.4804 112.311 78.7075 111.43 78.1553C110.439 77.6032 109.779 77.2719 109.779 77.2719C109.008 79.37 108.788 81.1368 109.008 82.6827C109.228 84.2287 109.779 85.5538 110.55 86.658C111.32 87.7623 112.311 88.5353 112.972 89.0874L113.082 89.1978C111.651 90.9646 110.109 92.5106 108.347 93.9461C107.907 94.2774 107.577 94.6086 107.136 94.9399C107.136 94.9399 107.136 94.9399 107.136 94.8295C107.466 93.2835 107.136 91.7376 106.586 90.3021C105.925 88.977 105.044 87.7623 104.383 86.8789C103.723 85.9955 103.172 85.5538 103.172 85.5538C101.631 87.431 100.75 89.0874 100.419 90.7438C100.089 92.2897 100.199 93.8356 100.64 95.0503C101.08 96.265 101.741 97.3692 102.401 98.0318L102.512 98.1422C100.309 99.4673 97.9971 100.682 95.5747 101.786C96.1252 100.461 96.1252 99.0256 95.7949 97.7005C95.4646 96.265 94.914 94.8295 94.4736 93.8356C94.0331 92.8418 93.5927 92.1793 93.5927 92.1793C89.2985 95.2712 88.4176 98.4735 88.858 101.124C89.0782 102.228 89.4086 103.222 89.849 103.995C87.6468 104.878 85.3345 105.651 83.1323 106.314C83.5728 105.209 83.6829 104.105 83.5728 103.001C83.4627 100.019 82.1414 97.2588 82.1414 97.2588C77.0763 99.909 75.8651 103.111 76.0854 105.762C76.1955 106.755 76.4157 107.639 76.6359 108.301C76.0854 108.522 75.5348 108.633 74.9843 108.853C72.1214 109.847 69.2586 110.841 66.3958 112.166C63.5329 110.841 60.6701 109.737 57.8073 108.853C57.2567 108.633 56.7062 108.522 56.1556 108.301C56.486 107.528 56.7062 106.645 56.7062 105.762C56.9264 103.111 55.6051 99.7986 50.6502 97.2588C50.6502 97.2588 49.3289 99.909 49.2188 103.001C49.2188 104.105 49.3289 105.209 49.6592 106.314C47.3469 105.541 45.1447 104.768 42.9425 103.995C43.383 103.222 43.8234 102.228 43.9335 101.124C44.374 98.4735 43.4931 95.2712 39.1988 92.1793C39.1988 92.1793 38.7584 92.8418 38.318 93.8356C37.8775 94.8295 37.2169 96.1546 36.9966 97.7005C36.7764 99.0256 36.7764 100.461 37.2169 101.786C34.7945 100.682 32.4822 99.5777 30.28 98.1422L30.3901 98.0318C30.9406 97.3692 31.7114 96.265 32.1518 95.0503C32.5923 93.8356 32.7024 92.2897 32.3721 90.7438C32.0417 89.1978 31.1609 87.431 29.6193 85.5538C29.6193 85.5538 29.0688 86.1059 28.4081 86.8789C27.7475 87.7623 26.8666 88.8665 26.206 90.3021C25.5453 91.6272 25.215 93.1731 25.6554 94.8295C25.6554 94.8295 25.6554 94.8295 25.6554 94.9399C25.215 94.6086 24.8846 94.2774 24.4442 93.9461C22.6825 92.5106 21.1409 90.8542 19.7095 89.1978L19.8196 89.0874C20.5904 88.5353 21.5814 87.7623 22.242 86.658C23.0128 85.5538 23.5633 84.2287 23.7836 82.6827C24.0038 81.1368 23.7836 79.37 23.0128 77.2719C23.0128 77.2719 22.3521 77.6032 21.3612 78.1553C20.3702 78.7075 19.159 79.4804 18.168 80.5847C17.177 81.5785 16.4062 82.7932 16.186 84.2287C16.0759 84.0078 15.9658 83.787 15.7456 83.5661C15.0849 82.2411 14.3142 80.9159 13.7636 79.4804C13.4333 78.7075 13.2131 78.0449 12.8828 77.2719C13.7636 77.0511 14.7546 76.6094 15.7456 75.9468C16.8467 75.1739 17.8377 74.18 18.6084 72.7445C19.2691 71.309 19.7095 69.6526 19.8196 67.3337C19.8196 67.3337 19.0489 67.3337 17.9478 67.5545C16.8467 67.7754 15.4153 68.1067 14.094 68.7692C12.9929 69.3213 12.0019 69.9839 11.2311 70.9777C11.2311 70.8673 11.2311 70.7569 11.121 70.6464L10.6806 68.4379C10.5705 67.665 10.4604 66.892 10.4604 66.119L10.3503 65.0148C10.3503 64.6835 10.3503 64.2418 10.3503 63.9105C10.3503 63.8001 10.3503 63.8001 10.3503 63.6897C11.2311 63.8001 12.3322 63.6897 13.4333 63.3584C14.7546 63.0271 15.9658 62.3646 17.177 61.2603C18.2781 60.1561 19.2691 58.6101 19.9297 56.4016C19.9297 56.4016 19.159 56.1808 18.0579 56.0704C16.9568 55.9599 15.5254 55.7391 13.9839 55.9599C13.2131 56.0704 12.4423 56.1808 11.7817 56.5121C11.3412 56.7329 10.9008 56.9538 10.4604 57.285C10.7907 54.8557 11.2311 52.3159 12.0019 49.997C12.7727 50.3283 13.8737 50.6595 15.0849 50.77C15.7456 50.77 16.4063 50.77 17.177 50.6595C17.8377 50.5491 18.6084 50.3283 19.2691 49.997C20.7005 49.3345 22.1319 48.2302 23.5633 46.353C23.5633 46.353 22.9027 45.9113 21.9117 45.4696C20.9207 44.9175 19.5994 44.3653 18.168 44.0341C16.9568 43.8132 15.6355 43.7028 14.3142 44.1445C14.3142 44.0341 14.4243 44.0341 14.4243 43.9236C15.5254 41.7151 16.7366 39.7275 18.168 37.7398C18.8286 38.292 19.7095 38.9545 20.8106 39.3962C22.0218 39.8379 23.4532 40.1692 24.9948 39.9483C26.6464 39.7275 28.298 38.9545 30.28 37.519C30.28 37.519 29.8396 36.9669 28.9587 36.1939C28.1879 35.4209 26.9767 34.4271 25.7655 33.7646C24.6644 33.2124 23.3431 32.7707 22.0218 32.7707C23.1229 31.5561 24.224 30.4518 25.4352 29.458C26.0958 28.7954 26.8666 28.2433 27.5273 27.5808C27.9677 28.3537 28.7385 29.2371 29.7294 30.0101C30.8305 30.7831 32.1518 31.4456 33.6934 31.5561C35.345 31.6665 37.2169 31.3352 39.5292 30.4518C39.5292 30.4518 39.1988 29.7893 38.6483 28.7954C38.318 28.0225 37.5472 26.8078 36.336 25.814C35.345 24.9306 34.1338 24.1576 32.7024 23.9367C32.8125 23.9367 32.8125 23.8263 32.9226 23.8263C34.7945 22.6116 36.6663 21.397 38.6483 20.4031C45.5852 23.0533 49.5491 14.8819 49.5491 14.8819C41.8414 12.2317 38.8685 16.0966 37.8775 18.3051C35.7854 19.4093 33.8035 20.624 31.8215 21.9491C31.3811 22.2804 30.8305 22.6116 30.3901 22.9429C31.1609 21.9491 31.7114 20.7344 32.0417 19.2989C32.3721 17.5321 32.262 15.3236 31.1609 12.6734C31.1609 12.6734 30.28 13.1151 29.1789 13.8881C28.0778 14.6611 26.6464 15.7653 25.5453 17.2008C24.4442 18.5259 23.5633 20.1823 23.4532 21.8387C23.3431 23.495 24.0038 25.1514 25.7655 26.6974C25.3251 27.1391 24.7745 27.4703 24.3341 27.912C22.6825 29.458 21.1409 31.0039 19.5994 32.6603C20.15 31.4456 20.4803 30.1205 20.3702 28.5746C20.2601 26.8078 19.5994 24.7097 17.9478 22.2804C17.9478 22.2804 17.2871 22.8325 16.2961 23.8263C15.4153 24.8201 14.3142 26.2557 13.4333 27.912C12.6625 29.5684 12.2221 31.4456 12.5524 33.102C12.8828 34.7584 13.9839 36.1939 15.9658 37.2981C14.7546 39.0649 13.5434 40.9422 12.5524 42.9298C12.2221 43.4819 12.0019 44.0341 11.7817 44.5862C11.8918 43.3715 11.7817 42.0464 11.3412 40.6109C10.7907 38.9545 9.57949 37.0773 7.2672 35.2001C7.2672 35.2001 7.15709 35.4209 6.93687 35.7522C6.71665 36.0835 6.38633 36.6356 6.16611 37.2981C5.50545 38.6232 4.8448 40.39 4.62458 42.2673C4.51447 43.1507 4.40436 44.1445 4.51447 45.0279C4.62458 45.9113 4.8448 46.7947 5.28524 47.5677C6.056 49.0032 7.48742 49.997 9.79971 50.4387C9.02894 53.0889 8.58851 55.8495 8.25818 58.7206C8.14807 58.2789 8.03796 57.8372 7.81774 57.3955C7.48742 56.6225 7.04698 55.9599 6.49644 55.187C5.39534 53.7514 3.6336 52.4263 0.880872 51.4325C0.880872 51.4325 0.770763 51.6534 0.770763 52.0951C0.660654 52.5368 0.550545 53.0889 0.550545 53.8619C0.550545 54.1931 0.440436 54.6348 0.440436 54.9661C0.440436 55.4078 0.440436 55.8495 0.440436 56.2912C0.440436 57.1746 0.440436 58.1684 0.660654 59.0518C0.880873 59.9352 1.10109 60.8186 1.54153 61.702C1.98196 62.475 2.4224 63.248 3.08305 63.8001C4.29425 64.9044 5.94589 65.3461 8.25818 65.0148C8.25818 65.1252 8.25818 65.2356 8.25818 65.3461L8.36829 66.5607C8.4784 67.3337 8.4784 68.2171 8.58851 68.9901L8.80873 71.0881C8.91883 71.7507 9.02894 72.4132 9.24916 73.0758C8.58851 72.082 7.70763 71.0881 6.49644 70.3152C4.95491 69.3213 2.86284 68.5484 0 68.5484C0 68.5484 0 68.7692 0 69.2109C0 69.6526 0.110109 70.2047 0.220218 70.8673C0.330327 71.5298 0.550545 72.4132 0.880872 73.1862C1.10109 74.0696 1.54153 74.953 1.98196 75.726C2.4224 76.6094 2.97294 77.3824 3.6336 78.0449C4.29425 78.7075 4.95491 79.2596 5.72567 79.5909C7.2672 80.2534 8.91883 80.143 10.9008 79.1491C11.0109 79.5909 11.2311 80.0325 11.4513 80.4743C12.0019 82.0202 12.7727 83.4557 13.5434 84.8912C13.7636 85.2225 13.9839 85.5538 14.2041 85.9955C14.094 85.8851 13.9839 85.8851 13.8737 85.7746C13.2131 85.4434 12.4423 85.1121 11.5615 84.8912C9.79971 84.3391 7.59753 84.3391 4.8448 85.2225C4.8448 85.2225 5.17513 86.1059 5.94589 87.431C6.71665 88.6457 7.92785 90.1916 9.35927 91.4063C10.7907 92.621 12.5524 93.5044 14.2041 93.6148C15.6355 93.7252 17.177 93.0627 18.4983 91.7376C19.8196 93.2835 21.1409 94.6086 22.6825 95.9337C22.9027 96.1546 23.1229 96.265 23.3431 96.4858C22.6825 96.3754 22.0218 96.3754 21.251 96.4858C19.4893 96.7067 17.3972 97.4797 15.0849 99.2465C15.0849 99.2465 15.3052 99.4673 15.5254 99.6882C15.8557 100.019 16.2961 100.351 16.8467 100.792C17.9478 101.676 19.4893 102.67 21.1409 103.332C22.7926 103.995 24.6644 104.326 26.206 103.884C27.6374 103.553 28.8486 102.559 29.7294 100.903C31.8215 102.118 33.9136 103.222 36.0057 104.216C33.6934 104.326 30.9406 105.43 28.298 108.964C28.298 108.964 28.5182 109.074 28.8486 109.295C29.1789 109.516 29.6193 109.737 30.28 110.068C31.4912 110.62 33.0327 111.283 34.7945 111.504C38.0977 112.056 41.5111 111.283 42.8324 106.976C45.475 107.97 48.0076 108.853 50.6502 109.626C48.0076 109.626 44.9245 110.841 42.392 115.479C42.392 115.479 45.475 116.914 48.6682 117.025C51.8614 117.135 55.2748 116.031 56.1556 111.504C56.3758 111.614 56.5961 111.614 56.9264 111.724C59.0185 112.497 61.1105 113.27 63.2026 114.154C61.3307 115.368 59.569 116.694 58.1376 118.46C57.9174 118.792 57.8073 119.123 57.8073 119.565C57.8073 119.785 57.9174 119.896 57.9174 120.117C57.9174 120.227 58.0275 120.227 58.0275 120.338C58.1376 120.448 58.1376 120.448 58.2477 120.558C58.9083 121.111 59.7892 121 60.3398 120.338C61.8813 118.46 63.9734 116.914 66.2857 115.7C68.5979 116.914 70.69 118.46 72.2315 120.338C72.7821 121 73.663 121.111 74.3236 120.558C74.4337 120.448 74.4337 120.448 74.5438 120.338C74.5438 120.227 74.654 120.227 74.654 120.117C74.8742 119.565 74.8742 118.902 74.4337 118.46C73.0023 116.694 71.2406 115.258 69.3687 114.154C71.3507 113.27 73.5528 112.497 75.6449 111.724C75.8651 111.614 76.0854 111.614 76.4157 111.504C77.4067 116.031 80.7099 117.246 83.9031 117.025C87.0963 116.914 90.1793 115.479 90.1793 115.479C87.6468 110.731 84.5638 109.516 81.9212 109.626C84.5638 108.743 87.0963 107.86 89.7389 106.976C91.0602 111.172 94.4736 112.056 97.7768 111.504C99.4285 111.172 101.08 110.62 102.291 110.068C102.842 109.847 103.392 109.516 103.723 109.295C104.053 109.074 104.273 108.964 104.273 108.964C101.631 105.43 98.8779 104.326 96.5656 104.216C98.7678 103.222 100.86 102.118 102.842 100.903C103.833 102.559 105.044 103.443 106.365 103.884C108.017 104.326 109.779 103.995 111.43 103.332C113.082 102.67 114.624 101.676 115.725 100.792C116.275 100.351 116.716 99.909 117.046 99.6882C117.376 99.3569 117.486 99.2465 117.486 99.2465C115.174 97.3692 113.192 96.7067 111.32 96.4858C110.549 96.3754 109.889 96.3754 109.228 96.4858C109.448 96.265 109.669 96.1546 109.889 95.9337C111.43 94.6086 112.752 93.2835 114.073 91.7376C115.394 93.0627 116.826 93.6148 118.367 93.6148C120.019 93.5044 121.781 92.621 123.212 91.4063C124.643 90.1916 125.855 88.6457 126.625 87.431C127.396 86.2163 127.727 85.2225 127.727 85.2225C124.974 84.3391 122.772 84.3391 121.01 84.6704C120.129 84.8912 119.358 85.2225 118.698 85.5538C118.587 85.6642 118.477 85.6642 118.367 85.7746C118.587 85.4434 118.808 85.1121 119.028 84.6704C119.799 83.2349 120.569 81.7993 121.12 80.2534C121.34 79.8117 121.45 79.37 121.671 78.9283C123.652 79.9221 125.304 80.0325 126.846 79.37C127.616 79.0387 128.387 78.4866 128.938 77.8241C129.598 77.1615 130.149 76.3885 130.589 75.5051C131.03 74.6217 131.47 73.8488 131.69 72.9654C132.021 72.082 132.241 71.309 132.351 70.6464C132.461 69.9839 132.571 69.3213 132.571 68.9901C132.571 68.5484 132.571 68.3275 132.571 68.3275C130.039 68.5484 127.947 69.3213 126.405 70.3152Z" fill="url(#paint82_radial_1699_7390)"/>
</g>
<path d="M41.5341 69.9091V66.0341L51.25 50.7273H54.5909V56.0909H52.6136L46.4886 65.7841V65.9659H60.2955V69.9091H41.5341ZM52.7045 74V68.7273L52.7955 67.0114V50.7273H57.4091V74H52.7045ZM66.0114 74.2955C65.2614 74.2955 64.6174 74.0303 64.0795 73.5C63.5492 72.9621 63.2841 72.3182 63.2841 71.5682C63.2841 70.8258 63.5492 70.1894 64.0795 69.6591C64.6174 69.1288 65.2614 68.8636 66.0114 68.8636C66.7386 68.8636 67.375 69.1288 67.9205 69.6591C68.4659 70.1894 68.7386 70.8258 68.7386 71.5682C68.7386 72.0682 68.6098 72.5265 68.3523 72.9432C68.1023 73.3523 67.7727 73.6818 67.3636 73.9318C66.9545 74.1742 66.5038 74.2955 66.0114 74.2955ZM80.9801 74.3182C79.3741 74.3182 77.9422 74.0227 76.6847 73.4318C75.4347 72.8409 74.4422 72.0265 73.7074 70.9886C72.9725 69.9508 72.59 68.7614 72.5597 67.4205H77.3324C77.3854 68.322 77.7642 69.053 78.4688 69.6136C79.1733 70.1742 80.0104 70.4545 80.9801 70.4545C81.7528 70.4545 82.4347 70.2841 83.0256 69.9432C83.6241 69.5947 84.09 69.1136 84.4233 68.5C84.7642 67.8788 84.9347 67.1667 84.9347 66.3636C84.9347 65.5455 84.7604 64.8258 84.4119 64.2045C84.071 63.5833 83.5975 63.0985 82.9915 62.75C82.3854 62.4015 81.6922 62.2235 80.9119 62.2159C80.2301 62.2159 79.5672 62.3561 78.9233 62.6364C78.2869 62.9167 77.7907 63.2992 77.4347 63.7841L73.0597 63L74.1619 50.7273H88.3892V54.75H78.2188L77.6165 60.5795H77.7528C78.1619 60.0038 78.7794 59.5265 79.6051 59.1477C80.4309 58.7689 81.3551 58.5795 82.3778 58.5795C83.7794 58.5795 85.0294 58.9091 86.1278 59.5682C87.2263 60.2273 88.0938 61.1326 88.7301 62.2841C89.3665 63.428 89.6809 64.7462 89.6733 66.2386C89.6809 67.8068 89.3172 69.2008 88.5824 70.4205C87.8551 71.6326 86.8362 72.5871 85.5256 73.2841C84.2225 73.9735 82.7074 74.3182 80.9801 74.3182Z" fill="#FFF9E9"/>
</g>
<defs>
<radialGradient id="paint0_radial_1699_7390" cx="0" cy="0" r="1" gradientUnits="userSpaceOnUse" gradientTransform="translate(61.8182 58.334) scale(63.4344 63.6163)">
<stop offset="0.083784" stop-color="#D18D2F"/>
<stop offset="0.4141" stop-color="#FDD35C"/>
<stop offset="0.5426" stop-color="#FDD056"/>
<stop offset="0.709" stop-color="#FEC746"/>
<stop offset="0.7423" stop-color="#FEC542"/>
<stop offset="1" stop-color="#CD994D"/>
</radialGradient>
<radialGradient id="paint1_radial_1699_7390" cx="0" cy="0" r="1" gradientUnits="userSpaceOnUse" gradientTransform="translate(61.8182 58.334) scale(63.4344 63.6163)">
<stop offset="0.083784" stop-color="#D18D2F"/>
<stop offset="0.4141" stop-color="#FDD35C"/>
<stop offset="0.5426" stop-color="#FDD056"/>
<stop offset="0.709" stop-color="#FEC746"/>
<stop offset="0.7423" stop-color="#FEC542"/>
<stop offset="1" stop-color="#CD994D"/>
</radialGradient>
<linearGradient id="paint2_linear_1699_7390" x1="8.90145" y1="69.1654" x2="75.0929" y2="69.1654" gradientUnits="userSpaceOnUse">
<stop stop-color="#BC7610"/>
<stop offset="0.1405" stop-color="#EBAC2A"/>
<stop offset="0.2446" stop-color="#CD994D"/>
<stop offset="0.7081" stop-color="#BC7610"/>
</linearGradient>
<linearGradient id="paint3_linear_1699_7390" x1="37.6994" y1="19.9758" x2="49.9997" y2="14.0263" gradientUnits="userSpaceOnUse">
<stop offset="0.083784" stop-color="#D18D2F"/>
<stop offset="0.4141" stop-color="#FDD35C"/>
<stop offset="0.5426" stop-color="#FDD056"/>
<stop offset="0.709" stop-color="#FEC746"/>
<stop offset="0.7423" stop-color="#FEC542"/>
<stop offset="1" stop-color="#CD994D"/>
</linearGradient>
<linearGradient id="paint4_linear_1699_7390" x1="55.0744" y1="110.286" x2="50.5278" y2="97.298" gradientUnits="userSpaceOnUse">
<stop offset="0.083784" stop-color="#D18D2F"/>
<stop offset="0.4141" stop-color="#FDD35C"/>
<stop offset="0.5426" stop-color="#FDD056"/>
<stop offset="0.709" stop-color="#FEC746"/>
<stop offset="0.7423" stop-color="#FEC542"/>
<stop offset="1" stop-color="#CD994D"/>
</linearGradient>
<linearGradient id="paint5_linear_1699_7390" x1="56.1102" y1="111.481" x2="42.4102" y2="115.811" gradientUnits="userSpaceOnUse">
<stop offset="0.083784" stop-color="#D18D2F"/>
<stop offset="0.4141" stop-color="#FDD35C"/>
<stop offset="0.5426" stop-color="#FDD056"/>
<stop offset="0.709" stop-color="#FEC746"/>
<stop offset="0.7423" stop-color="#FEC542"/>
<stop offset="1" stop-color="#CD994D"/>
</linearGradient>
<linearGradient id="paint6_linear_1699_7390" x1="41.8849" y1="105.704" x2="38.8118" y2="92.4049" gradientUnits="userSpaceOnUse">
<stop offset="0.083784" stop-color="#D18D2F"/>
<stop offset="0.4141" stop-color="#FDD35C"/>
<stop offset="0.5426" stop-color="#FDD056"/>
<stop offset="0.709" stop-color="#FEC746"/>
<stop offset="0.7423" stop-color="#FEC542"/>
<stop offset="1" stop-color="#CD994D"/>
</linearGradient>
<linearGradient id="paint7_linear_1699_7390" x1="43.112" y1="106.438" x2="28.9261" y2="109.669" gradientUnits="userSpaceOnUse">
<stop offset="0.083784" stop-color="#D18D2F"/>
<stop offset="0.4141" stop-color="#FDD35C"/>
<stop offset="0.5426" stop-color="#FDD056"/>
<stop offset="0.709" stop-color="#FEC746"/>
<stop offset="0.7423" stop-color="#FEC542"/>
<stop offset="1" stop-color="#CD994D"/>
</linearGradient>
<linearGradient id="paint8_linear_1699_7390" x1="28.844" y1="99.3302" x2="29.3359" y2="85.3531" gradientUnits="userSpaceOnUse">
<stop offset="0.083784" stop-color="#D18D2F"/>
<stop offset="0.4141" stop-color="#FDD35C"/>
<stop offset="0.5426" stop-color="#FDD056"/>
<stop offset="0.709" stop-color="#FEC746"/>
<stop offset="0.7423" stop-color="#FEC542"/>
<stop offset="1" stop-color="#CD994D"/>
</linearGradient>
<linearGradient id="paint9_linear_1699_7390" x1="30.6249" y1="100.657" x2="14.4867" y2="99.7423" gradientUnits="userSpaceOnUse">
<stop offset="0.083784" stop-color="#D18D2F"/>
<stop offset="0.4141" stop-color="#FDD35C"/>
<stop offset="0.5426" stop-color="#FDD056"/>
<stop offset="0.709" stop-color="#FEC746"/>
<stop offset="0.7423" stop-color="#FEC542"/>
<stop offset="1" stop-color="#CD994D"/>
</linearGradient>
<linearGradient id="paint10_linear_1699_7390" x1="17.5341" y1="90.209" x2="22.756" y2="76.7936" gradientUnits="userSpaceOnUse">
<stop offset="0.083784" stop-color="#D18D2F"/>
<stop offset="0.4141" stop-color="#FDD35C"/>
<stop offset="0.5426" stop-color="#FDD056"/>
<stop offset="0.709" stop-color="#FEC746"/>
<stop offset="0.7423" stop-color="#FEC542"/>
<stop offset="1" stop-color="#CD994D"/>
</linearGradient>
<linearGradient id="paint11_linear_1699_7390" x1="18.6046" y1="91.6075" x2="4.83975" y2="86.0563" gradientUnits="userSpaceOnUse">
<stop offset="0.083784" stop-color="#D18D2F"/>
<stop offset="0.4141" stop-color="#FDD35C"/>
<stop offset="0.5426" stop-color="#FDD056"/>
<stop offset="0.709" stop-color="#FEC746"/>
<stop offset="0.7423" stop-color="#FEC542"/>
<stop offset="1" stop-color="#CD994D"/>
</linearGradient>
<linearGradient id="paint12_linear_1699_7390" x1="10.7753" y1="77.08" x2="19.3619" y2="66.9279" gradientUnits="userSpaceOnUse">
<stop offset="0.083784" stop-color="#D18D2F"/>
<stop offset="0.4141" stop-color="#FDD35C"/>
<stop offset="0.5426" stop-color="#FDD056"/>
<stop offset="0.709" stop-color="#FEC746"/>
<stop offset="0.7423" stop-color="#FEC542"/>
<stop offset="1" stop-color="#CD994D"/>
</linearGradient>
<linearGradient id="paint13_linear_1699_7390" x1="10.9425" y1="79.2057" x2="-0.884598" y2="68.879" gradientUnits="userSpaceOnUse">
<stop offset="0.083784" stop-color="#D18D2F"/>
<stop offset="0.4141" stop-color="#FDD35C"/>
<stop offset="0.5426" stop-color="#FDD056"/>
<stop offset="0.709" stop-color="#FEC746"/>
<stop offset="0.7423" stop-color="#FEC542"/>
<stop offset="1" stop-color="#CD994D"/>
</linearGradient>
<linearGradient id="paint14_linear_1699_7390" x1="8.73464" y1="62.5576" x2="19.6929" y2="56.0868" gradientUnits="userSpaceOnUse">
<stop offset="0.083784" stop-color="#D18D2F"/>
<stop offset="0.4141" stop-color="#FDD35C"/>
<stop offset="0.5426" stop-color="#FDD056"/>
<stop offset="0.709" stop-color="#FEC746"/>
<stop offset="0.7423" stop-color="#FEC542"/>
<stop offset="1" stop-color="#CD994D"/>
</linearGradient>
<linearGradient id="paint15_linear_1699_7390" x1="7.25527" y1="64.8182" x2="0.991458" y2="52.2652" gradientUnits="userSpaceOnUse">
<stop offset="0.083784" stop-color="#D18D2F"/>
<stop offset="0.4141" stop-color="#FDD35C"/>
<stop offset="0.5426" stop-color="#FDD056"/>
<stop offset="0.709" stop-color="#FEC746"/>
<stop offset="0.7423" stop-color="#FEC542"/>
<stop offset="1" stop-color="#CD994D"/>
</linearGradient>
<linearGradient id="paint16_linear_1699_7390" x1="11.2127" y1="48.3376" x2="24.1439" y2="45.8685" gradientUnits="userSpaceOnUse">
<stop offset="0.083784" stop-color="#D18D2F"/>
<stop offset="0.4141" stop-color="#FDD35C"/>
<stop offset="0.5426" stop-color="#FDD056"/>
<stop offset="0.709" stop-color="#FEC746"/>
<stop offset="0.7423" stop-color="#FEC542"/>
<stop offset="1" stop-color="#CD994D"/>
</linearGradient>
<linearGradient id="paint17_linear_1699_7390" x1="9.19023" y1="49.4506" x2="6.33207" y2="35.2008" gradientUnits="userSpaceOnUse">
<stop offset="0.083784" stop-color="#D18D2F"/>
<stop offset="0.4141" stop-color="#FDD35C"/>
<stop offset="0.5426" stop-color="#FDD056"/>
<stop offset="0.709" stop-color="#FEC746"/>
<stop offset="0.7423" stop-color="#FEC542"/>
<stop offset="1" stop-color="#CD994D"/>
</linearGradient>
<linearGradient id="paint18_linear_1699_7390" x1="16.8637" y1="36.2232" x2="30.3642" y2="36.7714" gradientUnits="userSpaceOnUse">
<stop offset="0.0619214" stop-color="#D18D2F"/>
<stop offset="0.083784" stop-color="#D18D2F"/>
<stop offset="0.4141" stop-color="#FDD35C"/>
<stop offset="0.5426" stop-color="#FDD056"/>
<stop offset="0.709" stop-color="#FEC746"/>
<stop offset="0.7423" stop-color="#FEC542"/>
<stop offset="1" stop-color="#CD994D"/>
</linearGradient>
<linearGradient id="paint19_linear_1699_7390" x1="15.4496" y1="36.8476" x2="17.5703" y2="21.7687" gradientUnits="userSpaceOnUse">
<stop offset="0.083784" stop-color="#D18D2F"/>
<stop offset="0.4141" stop-color="#FDD35C"/>
<stop offset="0.5426" stop-color="#FDD056"/>
<stop offset="0.709" stop-color="#FEC746"/>
<stop offset="0.7423" stop-color="#FEC542"/>
<stop offset="1" stop-color="#CD994D"/>
</linearGradient>
<linearGradient id="paint20_linear_1699_7390" x1="27.8253" y1="25.6352" x2="40.6729" y2="30.8511" gradientUnits="userSpaceOnUse">
<stop offset="0.083784" stop-color="#D18D2F"/>
<stop offset="0.4141" stop-color="#FDD35C"/>
<stop offset="0.5426" stop-color="#FDD056"/>
<stop offset="0.709" stop-color="#FEC746"/>
<stop offset="0.7423" stop-color="#FEC542"/>
<stop offset="1" stop-color="#CD994D"/>
</linearGradient>
<linearGradient id="paint21_linear_1699_7390" x1="26.2613" y1="25.2541" x2="29.7641" y2="12.9374" gradientUnits="userSpaceOnUse">
<stop offset="0.083784" stop-color="#D18D2F"/>
<stop offset="0.4141" stop-color="#FDD35C"/>
<stop offset="0.5426" stop-color="#FDD056"/>
<stop offset="0.709" stop-color="#FEC746"/>
<stop offset="0.7423" stop-color="#FEC542"/>
<stop offset="1" stop-color="#CD994D"/>
</linearGradient>
<linearGradient id="paint22_linear_1699_7390" x1="46.5491" y1="18.095" x2="40.5254" y2="16.3571" gradientUnits="userSpaceOnUse">
<stop stop-color="#BC7610"/>
<stop offset="0.1405" stop-color="#EBAC2A"/>
<stop offset="0.2446" stop-color="#CD994D"/>
<stop offset="0.7081" stop-color="#BC7610"/>
</linearGradient>
<linearGradient id="paint23_linear_1699_7390" x1="29.2466" y1="15.3372" x2="25.4692" y2="25.1436" gradientUnits="userSpaceOnUse">
<stop stop-color="#BC7610"/>
<stop offset="0.1405" stop-color="#EBAC2A"/>
<stop offset="0.2446" stop-color="#CD994D"/>
<stop offset="0.7081" stop-color="#BC7610"/>
</linearGradient>
<linearGradient id="paint24_linear_1699_7390" x1="37.0735" y1="30.0956" x2="27.5391" y2="28.294" gradientUnits="userSpaceOnUse">
<stop stop-color="#BC7610"/>
<stop offset="0.1405" stop-color="#EBAC2A"/>
<stop offset="0.2446" stop-color="#CD994D"/>
<stop offset="0.7081" stop-color="#BC7610"/>
</linearGradient>
<linearGradient id="paint25_linear_1699_7390" x1="17.3271" y1="25.5388" x2="15.1991" y2="35.805" gradientUnits="userSpaceOnUse">
<stop stop-color="#BC7610"/>
<stop offset="0.1405" stop-color="#EBAC2A"/>
<stop offset="0.2446" stop-color="#CD994D"/>
<stop offset="0.7081" stop-color="#BC7610"/>
</linearGradient>
<linearGradient id="paint26_linear_1699_7390" x1="27.4114" y1="37.4697" x2="18.6661" y2="39.1544" gradientUnits="userSpaceOnUse">
<stop stop-color="#BC7610"/>
<stop offset="0.1405" stop-color="#EBAC2A"/>
<stop offset="0.2446" stop-color="#CD994D"/>
<stop offset="0.7081" stop-color="#BC7610"/>
</linearGradient>
<linearGradient id="paint27_linear_1699_7390" x1="7.47852" y1="38.7705" x2="8.41413" y2="49.2141" gradientUnits="userSpaceOnUse">
<stop stop-color="#BC7610"/>
<stop offset="0.1405" stop-color="#EBAC2A"/>
<stop offset="0.2446" stop-color="#CD994D"/>
<stop offset="0.7081" stop-color="#BC7610"/>
</linearGradient>
<linearGradient id="paint28_linear_1699_7390" x1="20.5687" y1="47.2725" x2="12.6756" y2="51.4076" gradientUnits="userSpaceOnUse">
<stop stop-color="#BC7610"/>
<stop offset="0.1405" stop-color="#EBAC2A"/>
<stop offset="0.2446" stop-color="#CD994D"/>
<stop offset="0.7081" stop-color="#BC7610"/>
</linearGradient>
<linearGradient id="paint29_linear_1699_7390" x1="1.93443" y1="55.2111" x2="7.17747" y2="64.2832" gradientUnits="userSpaceOnUse">
<stop stop-color="#BC7610"/>
<stop offset="0.1405" stop-color="#EBAC2A"/>
<stop offset="0.2446" stop-color="#CD994D"/>
<stop offset="0.7081" stop-color="#BC7610"/>
</linearGradient>
<linearGradient id="paint30_linear_1699_7390" x1="17.6338" y1="58.4213" x2="11.2105" y2="64.6069" gradientUnits="userSpaceOnUse">
<stop stop-color="#BC7610"/>
<stop offset="0.1405" stop-color="#EBAC2A"/>
<stop offset="0.2446" stop-color="#CD994D"/>
<stop offset="0.7081" stop-color="#BC7610"/>
</linearGradient>
<linearGradient id="paint31_linear_1699_7390" x1="2.42913" y1="71.6584" x2="9.9009" y2="78.9933" gradientUnits="userSpaceOnUse">
<stop stop-color="#BC7610"/>
<stop offset="0.1405" stop-color="#EBAC2A"/>
<stop offset="0.2446" stop-color="#CD994D"/>
<stop offset="0.7081" stop-color="#BC7610"/>
</linearGradient>
<linearGradient id="paint32_linear_1699_7390" x1="18.4129" y1="70.1773" x2="13.8731" y2="77.8605" gradientUnits="userSpaceOnUse">
<stop stop-color="#BC7610"/>
<stop offset="0.1405" stop-color="#EBAC2A"/>
<stop offset="0.2446" stop-color="#CD994D"/>
<stop offset="0.7081" stop-color="#BC7610"/>
</linearGradient>
<linearGradient id="paint33_linear_1699_7390" x1="7.67235" y1="87.2464" x2="17.2725" y2="91.4007" gradientUnits="userSpaceOnUse">
<stop stop-color="#BC7610"/>
<stop offset="0.1405" stop-color="#EBAC2A"/>
<stop offset="0.2446" stop-color="#CD994D"/>
<stop offset="0.7081" stop-color="#BC7610"/>
</linearGradient>
<linearGradient id="paint34_linear_1699_7390" x1="22.4211" y1="80.1598" x2="21.4108" y2="89.0329" gradientUnits="userSpaceOnUse">
<stop stop-color="#BC7610"/>
<stop offset="0.1405" stop-color="#EBAC2A"/>
<stop offset="0.2446" stop-color="#CD994D"/>
<stop offset="0.7081" stop-color="#BC7610"/>
</linearGradient>
<linearGradient id="paint35_linear_1699_7390" x1="18.419" y1="100.217" x2="28.8565" y2="100.835" gradientUnits="userSpaceOnUse">
<stop stop-color="#BC7610"/>
<stop offset="0.1405" stop-color="#EBAC2A"/>
<stop offset="0.2446" stop-color="#CD994D"/>
<stop offset="0.7081" stop-color="#BC7610"/>
</linearGradient>
<linearGradient id="paint36_linear_1699_7390" x1="30.2184" y1="88.4864" x2="32.3206" y2="97.1649" gradientUnits="userSpaceOnUse">
<stop stop-color="#BC7610"/>
<stop offset="0.1405" stop-color="#EBAC2A"/>
<stop offset="0.2446" stop-color="#CD994D"/>
<stop offset="0.7081" stop-color="#BC7610"/>
</linearGradient>
<linearGradient id="paint37_linear_1699_7390" x1="31.6809" y1="108.966" x2="42.0809" y2="107.883" gradientUnits="userSpaceOnUse">
<stop stop-color="#BC7610"/>
<stop offset="0.1405" stop-color="#EBAC2A"/>
<stop offset="0.2446" stop-color="#CD994D"/>
<stop offset="0.7081" stop-color="#BC7610"/>
</linearGradient>
<linearGradient id="paint38_linear_1699_7390" x1="40.6394" y1="95.4674" x2="44.1272" y2="103.685" gradientUnits="userSpaceOnUse">
<stop stop-color="#BC7610"/>
<stop offset="0.1405" stop-color="#EBAC2A"/>
<stop offset="0.2446" stop-color="#CD994D"/>
<stop offset="0.7081" stop-color="#BC7610"/>
</linearGradient>
<linearGradient id="paint39_linear_1699_7390" x1="45.2762" y1="114.931" x2="55.4468" y2="112.5" gradientUnits="userSpaceOnUse">
<stop stop-color="#BC7610"/>
<stop offset="0.1405" stop-color="#EBAC2A"/>
<stop offset="0.2446" stop-color="#CD994D"/>
<stop offset="0.7081" stop-color="#BC7610"/>
</linearGradient>
<linearGradient id="paint40_linear_1699_7390" x1="52.3954" y1="100.372" x2="56.9289" y2="108.059" gradientUnits="userSpaceOnUse">
<stop stop-color="#BC7610"/>
<stop offset="0.1405" stop-color="#EBAC2A"/>
<stop offset="0.2446" stop-color="#CD994D"/>
<stop offset="0.7081" stop-color="#BC7610"/>
</linearGradient>
<radialGradient id="paint41_radial_1699_7390" cx="0" cy="0" r="1" gradientUnits="userSpaceOnUse" gradientTransform="translate(71.1106 58.334) rotate(180) scale(63.4344 63.6163)">
<stop offset="0.083784" stop-color="#D18D2F"/>
<stop offset="0.4141" stop-color="#FDD35C"/>
<stop offset="0.5426" stop-color="#FDD056"/>
<stop offset="0.709" stop-color="#FEC746"/>
<stop offset="0.7423" stop-color="#FEC542"/>
<stop offset="1" stop-color="#CD994D"/>
</radialGradient>
<radialGradient id="paint42_radial_1699_7390" cx="0" cy="0" r="1" gradientUnits="userSpaceOnUse" gradientTransform="translate(71.1106 58.334) rotate(180) scale(63.4344 63.6163)">
<stop offset="0.083784" stop-color="#D18D2F"/>
<stop offset="0.4141" stop-color="#FDD35C"/>
<stop offset="0.5426" stop-color="#FDD056"/>
<stop offset="0.709" stop-color="#FEC746"/>
<stop offset="0.7423" stop-color="#FEC542"/>
<stop offset="1" stop-color="#CD994D"/>
</radialGradient>
<linearGradient id="paint43_linear_1699_7390" x1="124.028" y1="69.1653" x2="57.8366" y2="69.1653" gradientUnits="userSpaceOnUse">
<stop stop-color="#BC7610"/>
<stop offset="0.1405" stop-color="#EBAC2A"/>
<stop offset="0.2446" stop-color="#CD994D"/>
<stop offset="0.7081" stop-color="#BC7610"/>
</linearGradient>
<linearGradient id="paint44_linear_1699_7390" x1="95.2298" y1="19.9758" x2="82.9294" y2="14.0263" gradientUnits="userSpaceOnUse">
<stop offset="0.083784" stop-color="#D18D2F"/>
<stop offset="0.4141" stop-color="#FDD35C"/>
<stop offset="0.5426" stop-color="#FDD056"/>
<stop offset="0.709" stop-color="#FEC746"/>
<stop offset="0.7423" stop-color="#FEC542"/>
<stop offset="1" stop-color="#CD994D"/>
</linearGradient>
<linearGradient id="paint45_linear_1699_7390" x1="77.8551" y1="110.286" x2="82.4017" y2="97.298" gradientUnits="userSpaceOnUse">
<stop offset="0.083784" stop-color="#D18D2F"/>
<stop offset="0.4141" stop-color="#FDD35C"/>
<stop offset="0.5426" stop-color="#FDD056"/>
<stop offset="0.709" stop-color="#FEC746"/>
<stop offset="0.7423" stop-color="#FEC542"/>
<stop offset="1" stop-color="#CD994D"/>
</linearGradient>
<linearGradient id="paint46_linear_1699_7390" x1="76.8185" y1="111.48" x2="90.5185" y2="115.81" gradientUnits="userSpaceOnUse">
<stop offset="0.083784" stop-color="#D18D2F"/>
<stop offset="0.4141" stop-color="#FDD35C"/>
<stop offset="0.5426" stop-color="#FDD056"/>
<stop offset="0.709" stop-color="#FEC746"/>
<stop offset="0.7423" stop-color="#FEC542"/>
<stop offset="1" stop-color="#CD994D"/>
</linearGradient>
<linearGradient id="paint47_linear_1699_7390" x1="91.0446" y1="105.704" x2="94.1177" y2="92.4049" gradientUnits="userSpaceOnUse">
<stop offset="0.083784" stop-color="#D18D2F"/>
<stop offset="0.4141" stop-color="#FDD35C"/>
<stop offset="0.5426" stop-color="#FDD056"/>
<stop offset="0.709" stop-color="#FEC746"/>
<stop offset="0.7423" stop-color="#FEC542"/>
<stop offset="1" stop-color="#CD994D"/>
</linearGradient>
<linearGradient id="paint48_linear_1699_7390" x1="89.8175" y1="106.438" x2="104.003" y2="109.669" gradientUnits="userSpaceOnUse">
<stop offset="0.083784" stop-color="#D18D2F"/>
<stop offset="0.4141" stop-color="#FDD35C"/>
<stop offset="0.5426" stop-color="#FDD056"/>
<stop offset="0.709" stop-color="#FEC746"/>
<stop offset="0.7423" stop-color="#FEC542"/>
<stop offset="1" stop-color="#CD994D"/>
</linearGradient>
<linearGradient id="paint49_linear_1699_7390" x1="104.085" y1="99.3302" x2="103.593" y2="85.3531" gradientUnits="userSpaceOnUse">
<stop offset="0.083784" stop-color="#D18D2F"/>
<stop offset="0.4141" stop-color="#FDD35C"/>
<stop offset="0.5426" stop-color="#FDD056"/>
<stop offset="0.709" stop-color="#FEC746"/>
<stop offset="0.7423" stop-color="#FEC542"/>
<stop offset="1" stop-color="#CD994D"/>
</linearGradient>
<linearGradient id="paint50_linear_1699_7390" x1="102.305" y1="100.657" x2="118.443" y2="99.7423" gradientUnits="userSpaceOnUse">
<stop offset="0.083784" stop-color="#D18D2F"/>
<stop offset="0.4141" stop-color="#FDD35C"/>
<stop offset="0.5426" stop-color="#FDD056"/>
<stop offset="0.709" stop-color="#FEC746"/>
<stop offset="0.7423" stop-color="#FEC542"/>
<stop offset="1" stop-color="#CD994D"/>
</linearGradient>
<linearGradient id="paint51_linear_1699_7390" x1="115.394" y1="90.2085" x2="110.173" y2="76.7931" gradientUnits="userSpaceOnUse">
<stop offset="0.083784" stop-color="#D18D2F"/>
<stop offset="0.4141" stop-color="#FDD35C"/>
<stop offset="0.5426" stop-color="#FDD056"/>
<stop offset="0.709" stop-color="#FEC746"/>
<stop offset="0.7423" stop-color="#FEC542"/>
<stop offset="1" stop-color="#CD994D"/>
</linearGradient>
<linearGradient id="paint52_linear_1699_7390" x1="114.325" y1="91.6073" x2="128.09" y2="86.056" gradientUnits="userSpaceOnUse">
<stop offset="0.083784" stop-color="#D18D2F"/>
<stop offset="0.4141" stop-color="#FDD35C"/>
<stop offset="0.5426" stop-color="#FDD056"/>
<stop offset="0.709" stop-color="#FEC746"/>
<stop offset="0.7423" stop-color="#FEC542"/>
<stop offset="1" stop-color="#CD994D"/>
</linearGradient>
<linearGradient id="paint53_linear_1699_7390" x1="122.153" y1="77.0796" x2="113.566" y2="66.9274" gradientUnits="userSpaceOnUse">
<stop offset="0.083784" stop-color="#D18D2F"/>
<stop offset="0.4141" stop-color="#FDD35C"/>
<stop offset="0.5426" stop-color="#FDD056"/>
<stop offset="0.709" stop-color="#FEC746"/>
<stop offset="0.7423" stop-color="#FEC542"/>
<stop offset="1" stop-color="#CD994D"/>
</linearGradient>
<linearGradient id="paint54_linear_1699_7390" x1="121.986" y1="79.2047" x2="133.814" y2="68.878" gradientUnits="userSpaceOnUse">
<stop offset="0.083784" stop-color="#D18D2F"/>
<stop offset="0.4141" stop-color="#FDD35C"/>
<stop offset="0.5426" stop-color="#FDD056"/>
<stop offset="0.709" stop-color="#FEC746"/>
<stop offset="0.7423" stop-color="#FEC542"/>
<stop offset="1" stop-color="#CD994D"/>
</linearGradient>
<linearGradient id="paint55_linear_1699_7390" x1="124.193" y1="62.5576" x2="113.235" y2="56.0868" gradientUnits="userSpaceOnUse">
<stop offset="0.083784" stop-color="#D18D2F"/>
<stop offset="0.4141" stop-color="#FDD35C"/>
<stop offset="0.5426" stop-color="#FDD056"/>
<stop offset="0.709" stop-color="#FEC746"/>
<stop offset="0.7423" stop-color="#FEC542"/>
<stop offset="1" stop-color="#CD994D"/>
</linearGradient>
<linearGradient id="paint56_linear_1699_7390" x1="125.672" y1="64.8182" x2="131.935" y2="52.2652" gradientUnits="userSpaceOnUse">
<stop offset="0.083784" stop-color="#D18D2F"/>
<stop offset="0.4141" stop-color="#FDD35C"/>
<stop offset="0.5426" stop-color="#FDD056"/>
<stop offset="0.709" stop-color="#FEC746"/>
<stop offset="0.7423" stop-color="#FEC542"/>
<stop offset="1" stop-color="#CD994D"/>
</linearGradient>
<linearGradient id="paint57_linear_1699_7390" x1="121.716" y1="48.3376" x2="108.785" y2="45.8685" gradientUnits="userSpaceOnUse">
<stop offset="0.083784" stop-color="#D18D2F"/>
<stop offset="0.4141" stop-color="#FDD35C"/>
<stop offset="0.5426" stop-color="#FDD056"/>
<stop offset="0.709" stop-color="#FEC746"/>
<stop offset="0.7423" stop-color="#FEC542"/>
<stop offset="1" stop-color="#CD994D"/>
</linearGradient>
<linearGradient id="paint58_linear_1699_7390" x1="123.739" y1="49.4506" x2="126.597" y2="35.2008" gradientUnits="userSpaceOnUse">
<stop offset="0.083784" stop-color="#D18D2F"/>
<stop offset="0.4141" stop-color="#FDD35C"/>
<stop offset="0.5426" stop-color="#FDD056"/>
<stop offset="0.709" stop-color="#FEC746"/>
<stop offset="0.7423" stop-color="#FEC542"/>
<stop offset="1" stop-color="#CD994D"/>
</linearGradient>
<linearGradient id="paint59_linear_1699_7390" x1="116.066" y1="36.2233" x2="102.566" y2="36.7715" gradientUnits="userSpaceOnUse">
<stop offset="0.0619214" stop-color="#D18D2F"/>
<stop offset="0.083784" stop-color="#D18D2F"/>
<stop offset="0.4141" stop-color="#FDD35C"/>
<stop offset="0.5426" stop-color="#FDD056"/>
<stop offset="0.709" stop-color="#FEC746"/>
<stop offset="0.7423" stop-color="#FEC542"/>
<stop offset="1" stop-color="#CD994D"/>
</linearGradient>
<linearGradient id="paint60_linear_1699_7390" x1="117.48" y1="36.8477" x2="115.359" y2="21.7688" gradientUnits="userSpaceOnUse">
<stop offset="0.083784" stop-color="#D18D2F"/>
<stop offset="0.4141" stop-color="#FDD35C"/>
<stop offset="0.5426" stop-color="#FDD056"/>
<stop offset="0.709" stop-color="#FEC746"/>
<stop offset="0.7423" stop-color="#FEC542"/>
<stop offset="1" stop-color="#CD994D"/>
</linearGradient>
<linearGradient id="paint61_linear_1699_7390" x1="105.104" y1="25.6356" x2="92.2565" y2="30.8514" gradientUnits="userSpaceOnUse">
<stop offset="0.083784" stop-color="#D18D2F"/>
<stop offset="0.4141" stop-color="#FDD35C"/>
<stop offset="0.5426" stop-color="#FDD056"/>
<stop offset="0.709" stop-color="#FEC746"/>
<stop offset="0.7423" stop-color="#FEC542"/>
<stop offset="1" stop-color="#CD994D"/>
</linearGradient>
<linearGradient id="paint62_linear_1699_7390" x1="106.667" y1="25.254" x2="103.165" y2="12.9373" gradientUnits="userSpaceOnUse">
<stop offset="0.083784" stop-color="#D18D2F"/>
<stop offset="0.4141" stop-color="#FDD35C"/>
<stop offset="0.5426" stop-color="#FDD056"/>
<stop offset="0.709" stop-color="#FEC746"/>
<stop offset="0.7423" stop-color="#FEC542"/>
<stop offset="1" stop-color="#CD994D"/>
</linearGradient>
<linearGradient id="paint63_linear_1699_7390" x1="86.3786" y1="18.095" x2="92.4023" y2="16.3571" gradientUnits="userSpaceOnUse">
<stop stop-color="#BC7610"/>
<stop offset="0.1405" stop-color="#EBAC2A"/>
<stop offset="0.2446" stop-color="#CD994D"/>
<stop offset="0.7081" stop-color="#BC7610"/>
</linearGradient>
<linearGradient id="paint64_linear_1699_7390" x1="103.681" y1="15.3372" x2="107.459" y2="25.1436" gradientUnits="userSpaceOnUse">
<stop stop-color="#BC7610"/>
<stop offset="0.1405" stop-color="#EBAC2A"/>
<stop offset="0.2446" stop-color="#CD994D"/>
<stop offset="0.7081" stop-color="#BC7610"/>
</linearGradient>
<linearGradient id="paint65_linear_1699_7390" x1="95.8543" y1="30.0961" x2="105.389" y2="28.2945" gradientUnits="userSpaceOnUse">
<stop stop-color="#BC7610"/>
<stop offset="0.1405" stop-color="#EBAC2A"/>
<stop offset="0.2446" stop-color="#CD994D"/>
<stop offset="0.7081" stop-color="#BC7610"/>
</linearGradient>
<linearGradient id="paint66_linear_1699_7390" x1="115.603" y1="25.5388" x2="117.731" y2="35.805" gradientUnits="userSpaceOnUse">
<stop stop-color="#BC7610"/>
<stop offset="0.1405" stop-color="#EBAC2A"/>
<stop offset="0.2446" stop-color="#CD994D"/>
<stop offset="0.7081" stop-color="#BC7610"/>
</linearGradient>
<linearGradient id="paint67_linear_1699_7390" x1="105.518" y1="37.4697" x2="114.263" y2="39.1544" gradientUnits="userSpaceOnUse">
<stop stop-color="#BC7610"/>
<stop offset="0.1405" stop-color="#EBAC2A"/>
<stop offset="0.2446" stop-color="#CD994D"/>
<stop offset="0.7081" stop-color="#BC7610"/>
</linearGradient>
<linearGradient id="paint68_linear_1699_7390" x1="125.45" y1="38.7705" x2="124.514" y2="49.2141" gradientUnits="userSpaceOnUse">
<stop stop-color="#BC7610"/>
<stop offset="0.1405" stop-color="#EBAC2A"/>
<stop offset="0.2446" stop-color="#CD994D"/>
<stop offset="0.7081" stop-color="#BC7610"/>
</linearGradient>
<linearGradient id="paint69_linear_1699_7390" x1="112.36" y1="47.2723" x2="120.254" y2="51.4077" gradientUnits="userSpaceOnUse">
<stop stop-color="#BC7610"/>
<stop offset="0.1405" stop-color="#EBAC2A"/>
<stop offset="0.2446" stop-color="#CD994D"/>
<stop offset="0.7081" stop-color="#BC7610"/>
</linearGradient>
<linearGradient id="paint70_linear_1699_7390" x1="130.995" y1="55.2111" x2="125.752" y2="64.2832" gradientUnits="userSpaceOnUse">
<stop stop-color="#BC7610"/>
<stop offset="0.1405" stop-color="#EBAC2A"/>
<stop offset="0.2446" stop-color="#CD994D"/>
<stop offset="0.7081" stop-color="#BC7610"/>
</linearGradient>
<linearGradient id="paint71_linear_1699_7390" x1="115.295" y1="58.4208" x2="121.718" y2="64.6065" gradientUnits="userSpaceOnUse">
<stop stop-color="#BC7610"/>
<stop offset="0.1405" stop-color="#EBAC2A"/>
<stop offset="0.2446" stop-color="#CD994D"/>
<stop offset="0.7081" stop-color="#BC7610"/>
</linearGradient>
<linearGradient id="paint72_linear_1699_7390" x1="130.5" y1="71.6578" x2="123.028" y2="78.9927" gradientUnits="userSpaceOnUse">
<stop stop-color="#BC7610"/>
<stop offset="0.1405" stop-color="#EBAC2A"/>
<stop offset="0.2446" stop-color="#CD994D"/>
<stop offset="0.7081" stop-color="#BC7610"/>
</linearGradient>
<linearGradient id="paint73_linear_1699_7390" x1="114.515" y1="70.1779" x2="119.054" y2="77.8611" gradientUnits="userSpaceOnUse">
<stop stop-color="#BC7610"/>
<stop offset="0.1405" stop-color="#EBAC2A"/>
<stop offset="0.2446" stop-color="#CD994D"/>
<stop offset="0.7081" stop-color="#BC7610"/>
</linearGradient>
<linearGradient id="paint74_linear_1699_7390" x1="125.258" y1="87.2464" x2="115.658" y2="91.4007" gradientUnits="userSpaceOnUse">
<stop stop-color="#BC7610"/>
<stop offset="0.1405" stop-color="#EBAC2A"/>
<stop offset="0.2446" stop-color="#CD994D"/>
<stop offset="0.7081" stop-color="#BC7610"/>
</linearGradient>
<linearGradient id="paint75_linear_1699_7390" x1="110.508" y1="80.1598" x2="111.518" y2="89.0329" gradientUnits="userSpaceOnUse">
<stop stop-color="#BC7610"/>
<stop offset="0.1405" stop-color="#EBAC2A"/>
<stop offset="0.2446" stop-color="#CD994D"/>
<stop offset="0.7081" stop-color="#BC7610"/>
</linearGradient>
<linearGradient id="paint76_linear_1699_7390" x1="114.511" y1="100.216" x2="104.073" y2="100.834" gradientUnits="userSpaceOnUse">
<stop stop-color="#BC7610"/>
<stop offset="0.1405" stop-color="#EBAC2A"/>
<stop offset="0.2446" stop-color="#CD994D"/>
<stop offset="0.7081" stop-color="#BC7610"/>
</linearGradient>
<linearGradient id="paint77_linear_1699_7390" x1="102.71" y1="88.4864" x2="100.608" y2="97.165" gradientUnits="userSpaceOnUse">
<stop stop-color="#BC7610"/>
<stop offset="0.1405" stop-color="#EBAC2A"/>
<stop offset="0.2446" stop-color="#CD994D"/>
<stop offset="0.7081" stop-color="#BC7610"/>
</linearGradient>
<linearGradient id="paint78_linear_1699_7390" x1="101.248" y1="108.966" x2="90.8484" y2="107.883" gradientUnits="userSpaceOnUse">
<stop stop-color="#BC7610"/>
<stop offset="0.1405" stop-color="#EBAC2A"/>
<stop offset="0.2446" stop-color="#CD994D"/>
<stop offset="0.7081" stop-color="#BC7610"/>
</linearGradient>
<linearGradient id="paint79_linear_1699_7390" x1="92.2897" y1="95.468" x2="88.802" y2="103.685" gradientUnits="userSpaceOnUse">
<stop stop-color="#BC7610"/>
<stop offset="0.1405" stop-color="#EBAC2A"/>
<stop offset="0.2446" stop-color="#CD994D"/>
<stop offset="0.7081" stop-color="#BC7610"/>
</linearGradient>
<linearGradient id="paint80_linear_1699_7390" x1="87.6529" y1="114.93" x2="77.482" y2="112.499" gradientUnits="userSpaceOnUse">
<stop stop-color="#BC7610"/>
<stop offset="0.1405" stop-color="#EBAC2A"/>
<stop offset="0.2446" stop-color="#CD994D"/>
<stop offset="0.7081" stop-color="#BC7610"/>
</linearGradient>
<linearGradient id="paint81_linear_1699_7390" x1="80.5324" y1="100.372" x2="75.999" y2="108.059" gradientUnits="userSpaceOnUse">
<stop stop-color="#BC7610"/>
<stop offset="0.1405" stop-color="#EBAC2A"/>
<stop offset="0.2446" stop-color="#CD994D"/>
<stop offset="0.7081" stop-color="#BC7610"/>
</linearGradient>
<radialGradient id="paint82_radial_1699_7390" cx="0" cy="0" r="1" gradientUnits="userSpaceOnUse" gradientTransform="translate(66.4651 66.7723) scale(60.5784 60.7521)">
<stop stop-color="#D3CB00"/>
<stop offset="0.4324" stop-color="#DBD778"/>
<stop offset="1" stop-color="#F5FF7E"/>
</radialGradient>
<clipPath id="clip0_1699_7390">
<rect width="132.902" height="121" fill="white"/>
</clipPath>
</defs>
</svg>
