<svg width="110" height="49" viewBox="0 0 110 49" fill="none" xmlns="http://www.w3.org/2000/svg">
<g clip-path="url(#clip0_1939_1356)">
<path d="M60.1411 15.1279C62.1775 15.1279 63.6244 15.5689 64.4818 16.451C65.1249 17.1213 65.4464 17.9681 65.4464 18.9912C65.4464 19.344 65.4107 19.7145 65.3392 20.1026L65.0981 21.3727C64.9016 22.3782 64.5175 23.1632 63.9459 23.7277C63.3922 24.2922 62.901 24.5744 62.4723 24.5744L62.4455 24.7861C62.9457 24.7861 63.4548 25.0596 63.9727 25.6064C64.4908 26.1533 64.7498 26.7972 64.7498 27.5381C64.7498 27.8379 64.714 28.1555 64.6426 28.4907L64.4818 29.3109C64.196 30.828 63.5083 32.0188 62.4187 32.8832C61.3469 33.7475 59.8464 34.1797 57.9172 34.1797H48.9678L52.3707 15.1279H60.1411ZM57.7296 26.4002H55.1841L54.5411 30.0518H57.0866C57.1223 30.0518 57.158 30.0518 57.1937 30.0518C58.0154 30.0518 58.6674 29.8666 59.1497 29.4962C59.632 29.1081 59.8732 28.6406 59.8732 28.0937C59.8732 26.9647 59.1587 26.4002 57.7296 26.4002ZM58.4531 19.2558H56.4435L55.7468 23.1985H57.7296C59.4445 23.1985 60.3019 22.4576 60.3019 20.9758C60.3019 20.4642 60.1411 20.0496 59.8196 19.7321C59.5159 19.4146 59.0604 19.2558 58.4531 19.2558ZM74.134 21.0816C76.0632 21.0816 77.5191 21.4962 78.5015 22.3253C79.2696 22.978 79.6537 23.8865 79.6537 25.0507C79.6537 25.4388 79.609 25.8622 79.5197 26.3209L78.957 29.4168C78.6176 31.2867 77.8227 32.6097 76.5723 33.3859C75.3398 34.1621 73.6874 34.5502 71.6153 34.5502C69.5432 34.5502 68.0248 34.1621 67.0602 33.3859C66.3457 32.8038 65.9884 31.9306 65.9884 30.7663C65.9884 30.3605 66.0331 29.9107 66.1224 29.4168L66.6851 26.3209C67.3103 22.828 69.7933 21.0816 74.134 21.0816ZM74.8575 26.8501C74.8932 26.6737 74.911 26.4532 74.911 26.1886C74.911 25.9063 74.7949 25.5976 74.5627 25.2624C74.3305 24.9273 73.9196 24.7597 73.3302 24.7597C72.7585 24.7597 72.2762 24.9537 71.8832 25.3418C71.4903 25.7123 71.2402 26.215 71.133 26.8501L70.7847 28.8346C70.7489 29.011 70.7311 29.2404 70.7311 29.5226C70.7311 29.7872 70.8472 30.0783 71.0794 30.3958C71.3116 30.7134 71.7135 30.8721 72.2852 30.8721C72.8747 30.8721 73.3659 30.6781 73.7589 30.29C74.1519 29.8843 74.4019 29.3991 74.5091 28.8346L74.8575 26.8501ZM88.7225 21.0816C90.6517 21.0816 92.1076 21.4962 93.09 22.3253C93.8581 22.978 94.2422 23.8865 94.2422 25.0507C94.2422 25.4388 94.1975 25.8622 94.1082 26.3209L93.5455 29.4168C93.2061 31.2867 92.4112 32.6097 91.1608 33.3859C89.9283 34.1621 88.2759 34.5502 86.2038 34.5502C84.1317 34.5502 82.6133 34.1621 81.6487 33.3859C80.9342 32.8038 80.5769 31.9306 80.5769 30.7663C80.5769 30.3605 80.6216 29.9107 80.7109 29.4168L81.2736 26.3209C81.8988 22.828 84.3818 21.0816 88.7225 21.0816ZM89.446 26.8501C89.4817 26.6737 89.4995 26.4532 89.4995 26.1886C89.4995 25.9063 89.3834 25.5976 89.1512 25.2624C88.919 24.9273 88.5081 24.7597 87.9187 24.7597C87.347 24.7597 86.8647 24.9537 86.4718 25.3418C86.0788 25.7123 85.8287 26.215 85.7215 26.8501L85.3732 28.8346C85.3374 29.011 85.3196 29.2404 85.3196 29.5226C85.3196 29.7872 85.4357 30.0783 85.6679 30.3958C85.9001 30.7134 86.3021 30.8721 86.8737 30.8721C87.4632 30.8721 87.9544 30.6781 88.3474 30.29C88.7404 29.8843 88.9904 29.3991 89.0976 28.8346L89.446 26.8501ZM103.927 26.0563C103.927 25.2977 103.552 24.9184 102.802 24.9184C102.069 24.9184 101.462 25.1919 100.98 25.7387L99.4792 34.1797H94.9241L97.2017 21.4521H101.435L101.14 23.0133C102.194 21.7255 103.525 21.0816 105.133 21.0816C106.741 21.0816 107.786 21.4697 108.268 22.2459C108.572 22.7398 108.723 23.3043 108.723 23.9394C108.723 24.5744 108.679 25.1654 108.589 25.7123L107.866 29.7872C107.848 29.8931 107.839 29.9901 107.839 30.0783C107.839 30.5546 108.107 30.7927 108.643 30.7927C109.054 30.7927 109.42 30.7045 109.742 30.5281L109.608 33.5182C108.768 34.2062 107.812 34.5502 106.741 34.5502C104.311 34.5502 103.097 33.5447 103.097 31.5336C103.097 31.1808 103.132 30.8016 103.204 30.3958L103.847 26.8765C103.9 26.559 103.927 26.2856 103.927 26.0563Z" fill="#32004E"/>
</g>
<path fill-rule="evenodd" clip-rule="evenodd" d="M33.669 32.2303C37.8488 32.3194 41.3095 29.0031 41.3986 24.8233C41.4876 20.6434 38.1714 17.1827 33.9915 17.0937L30.5721 17.0208C27.9829 16.9656 25.6698 18.2171 24.2629 20.171C24.045 20.4737 24.2962 20.8741 24.6691 20.882V20.882C27.6923 20.9464 30.1073 22.6827 30.063 24.7601C30.0187 26.8376 27.532 28.4694 24.5088 28.405V28.405C24.2327 28.3991 24.0449 28.6963 24.2032 28.9226C25.5399 30.8341 27.7389 32.104 30.2495 32.1575L33.669 32.2303Z" fill="#FDD12C"/>
<path fill-rule="evenodd" clip-rule="evenodd" d="M23.3093 29.3648C23.8139 28.7929 23.2285 27.9849 22.4659 27.9686V27.9686C19.5861 27.9073 17.2862 26.2275 17.329 24.2168C17.3719 22.2061 19.7412 20.6258 22.6211 20.6872V20.6872C23.3077 20.7018 23.8429 19.9783 23.3979 19.4552C22.0447 17.8649 20.0436 16.8384 17.7918 16.7904L15.2977 16.7373C11.1178 16.6482 7.65712 19.9645 7.56806 24.1444C7.47899 28.3242 10.7952 31.7849 14.9751 31.874L17.4693 31.9271C19.7883 31.9765 21.886 30.9777 23.3093 29.3648Z" fill="#5A0789"/>
<defs>
<clipPath id="clip0_1939_1356">
<rect width="61.0323" height="20.5807" fill="white" transform="translate(48.9678 14.1934)"/>
</clipPath>
</defs>
</svg>
