<svg width="133" height="109" viewBox="0 0 133 109" fill="none" xmlns="http://www.w3.org/2000/svg">
<path d="M40.9598 7.29899C38.2071 8.51366 35.5645 10.17 33.032 11.8264C30.4995 13.5932 28.0771 15.4704 25.7648 17.5685C21.2503 21.6542 17.3965 26.5129 14.6438 32.0341C11.891 37.445 10.5697 43.5183 10.4596 49.5917C10.4596 50.3647 10.4596 51.1376 10.5697 51.9106C10.5697 52.2419 10.5697 52.6836 10.5697 53.0149L10.6798 54.1191C10.7899 54.8921 10.7899 55.6651 10.9001 56.438L11.3405 58.6465C11.4506 59.4195 11.6708 60.082 11.891 60.855C12.1113 61.628 12.2214 62.2905 12.4416 63.0635C12.882 64.499 13.3225 65.9346 13.9831 67.3701C14.5337 68.8056 15.1943 70.1307 15.9651 71.4558C16.7358 72.7809 17.5066 74.106 18.3875 75.2102C20.1492 77.6396 22.2413 79.8481 24.5536 81.8357C29.1782 85.7006 34.6836 88.6821 40.2992 90.8906C46.0248 93.2095 51.9707 94.9763 57.9166 96.9639C60.8896 97.9577 63.8625 99.062 66.8355 100.498C69.6983 101.933 72.5611 103.81 74.7633 106.46C75.3139 107.123 75.2038 108.006 74.5431 108.559C73.8824 109.111 73.0016 109 72.451 108.338C70.6893 106.129 68.2669 104.473 65.5142 103.148C62.7614 101.823 59.8986 100.718 57.0358 99.7245C51.2 97.7369 45.144 95.8597 39.3082 93.5408C33.4724 91.1114 27.7467 88.1299 22.7918 83.9338C20.3694 81.8357 18.1673 79.4064 16.2954 76.8666C15.3044 75.5415 14.5337 74.2164 13.6528 72.7809C12.882 71.3454 12.1113 69.9099 11.5607 68.3639C10.9001 66.9284 10.4596 65.3824 10.0192 63.8365C9.79896 63.0635 9.57875 62.2905 9.46864 61.5176C9.13831 60.6342 8.91809 59.8612 8.80798 59.0882L8.36755 56.7693C8.25744 55.9963 8.14733 55.2234 8.14733 54.34L8.03722 53.1253C8.03722 52.6836 8.03722 52.3523 8.03722 51.9106C8.03722 51.1376 7.92711 50.2542 8.03722 49.4813C8.14733 43.0766 9.68885 36.5616 12.5517 30.8195C15.4145 25.0774 19.4886 19.9978 24.2233 15.6913C26.5355 13.5932 29.0681 11.6056 31.7107 9.83876C34.3533 8.07196 37.106 6.41559 39.9688 5.09049C40.5194 4.86964 41.18 5.09049 41.4003 5.64261C41.7306 6.30516 41.5104 6.96771 40.9598 7.29899Z" fill="url(#paint0_radial_1699_7269)"/>
<path d="M40.9598 7.29899C38.2071 8.51366 35.5645 10.17 33.032 11.8264C30.4995 13.5932 28.0771 15.4704 25.7648 17.5685C21.2503 21.6542 17.3965 26.5129 14.6438 32.0341C11.891 37.445 10.5697 43.5183 10.4596 49.5917C10.4596 50.3647 10.4596 51.1376 10.5697 51.9106C10.5697 52.2419 10.5697 52.6836 10.5697 53.0149L10.6798 54.1191C10.7899 54.8921 10.7899 55.6651 10.9001 56.438L11.3405 58.6465C11.4506 59.4195 11.6708 60.082 11.891 60.855C12.1113 61.628 12.2214 62.2905 12.4416 63.0635C12.882 64.499 13.3225 65.9346 13.9831 67.3701C14.5337 68.8056 15.1943 70.1307 15.9651 71.4558C16.7358 72.7809 17.5066 74.106 18.3875 75.2102C20.1492 77.6396 22.2413 79.8481 24.5536 81.8357C29.1782 85.7006 34.6836 88.6821 40.2992 90.8906C46.0248 93.2095 51.9707 94.9763 57.9166 96.9639C60.8896 97.9577 63.8625 99.062 66.8355 100.498C69.6983 101.933 72.5611 103.81 74.7633 106.46C75.3139 107.123 75.2038 108.006 74.5431 108.559C73.8824 109.111 73.0016 109 72.451 108.338C70.6893 106.129 68.2669 104.473 65.5142 103.148C62.7614 101.823 59.8986 100.718 57.0358 99.7245C51.2 97.7369 45.144 95.8597 39.3082 93.5408C33.4724 91.1114 27.7467 88.1299 22.7918 83.9338C20.3694 81.8357 18.1673 79.4064 16.2954 76.8666C15.3044 75.5415 14.5337 74.2164 13.6528 72.7809C12.882 71.3454 12.1113 69.9099 11.5607 68.3639C10.9001 66.9284 10.4596 65.3824 10.0192 63.8365C9.79896 63.0635 9.57875 62.2905 9.46864 61.5176C9.13831 60.6342 8.91809 59.8612 8.80798 59.0882L8.36755 56.7693C8.25744 55.9963 8.14733 55.2234 8.14733 54.34L8.03722 53.1253C8.03722 52.6836 8.03722 52.3523 8.03722 51.9106C8.03722 51.1376 7.92711 50.2542 8.03722 49.4813C8.14733 43.0766 9.68885 36.5616 12.5517 30.8195C15.4145 25.0774 19.4886 19.9978 24.2233 15.6913C26.5355 13.5932 29.0681 11.6056 31.7107 9.83876C34.3533 8.07196 37.106 6.41559 39.9688 5.09049C40.5194 4.86964 41.18 5.09049 41.4003 5.64261C41.7306 6.30516 41.5104 6.96771 40.9598 7.29899Z" fill="url(#paint1_radial_1699_7269)"/>
<path d="M74.4329 106.681C72.6711 104.473 70.1386 102.927 67.496 101.602C64.7433 100.277 61.8804 99.283 59.0176 98.2891C53.1818 96.3015 47.1258 94.6451 41.1799 92.3262C35.234 90.0073 29.5084 87.0258 24.5535 82.8297C22.0209 80.842 19.9289 78.4127 17.9469 75.8729C16.9559 74.6582 16.1852 73.2227 15.3043 71.8976C14.5335 70.4621 13.7628 69.0266 13.2122 67.591C12.5516 66.1555 12.1111 64.6096 11.6707 63.0636C11.4505 62.2906 11.2303 61.5177 11.1202 60.7447C10.8999 59.9717 10.6797 59.1988 10.5696 58.4258L10.1292 56.1069C10.0191 55.3339 9.90895 54.5609 9.90895 53.7879V52.5733C9.90895 52.1316 9.90895 51.8003 9.90895 51.3586C9.90895 50.5856 9.90895 49.8126 9.90895 48.9292C10.0191 42.635 11.5606 36.2304 14.5335 30.5987C17.5065 24.9671 21.5805 19.9979 26.3152 15.8018C28.7376 13.7037 31.16 11.8265 33.8026 10.0597C36.225 8.51377 38.7575 6.96782 41.5103 5.75315V5.64272C41.5103 5.5323 41.4001 5.5323 41.4001 5.42188C41.29 5.42188 41.1799 5.42187 41.0698 5.5323C38.0969 6.8574 35.4543 8.40334 32.8116 10.1701C30.169 11.9369 27.6365 13.8142 25.3242 15.9122C20.5895 20.1084 16.5155 25.0775 13.5425 30.7092C10.5696 36.3408 9.02808 42.7455 8.91797 49.0397C8.91797 49.8126 8.91797 50.5856 8.91797 51.469C8.91797 51.9107 8.91797 52.242 8.91797 52.6837L9.02808 53.8984C9.13819 54.6713 9.13819 55.4443 9.2483 56.2173L9.57862 58.5362C9.68873 59.3092 9.90895 60.0821 10.1292 60.8551C10.3494 61.6281 10.4595 62.4011 10.6797 63.174C11.1201 64.72 11.5606 66.2659 12.2212 67.7015C12.7718 69.2474 13.5425 70.5725 14.2032 72.008C14.974 73.3331 15.8548 74.7687 16.7357 76.0938C18.6076 78.6335 20.8097 81.0629 23.2321 83.1609C28.0769 87.3571 33.8026 90.3385 39.6384 92.6575C45.4742 95.0868 51.4201 96.8536 57.2559 98.8413C60.1187 99.8351 63.0916 100.939 65.7342 102.264C68.3769 103.59 70.9094 105.246 72.561 107.344C72.8913 107.675 73.4419 108.227 73.9924 108.669C74.1025 108.669 74.1025 108.559 74.2126 108.559C74.543 108.338 74.7632 107.896 74.7632 107.565C74.8733 107.234 74.543 106.792 74.4329 106.681Z" fill="url(#paint2_linear_1699_7269)"/>
<path d="M37.3262 7.74073C37.3262 7.74073 38.9778 -0.651553 49.6584 2.88204C49.6584 2.88204 45.0338 12.1577 37.3262 7.74073Z" fill="url(#paint3_linear_1699_7269)"/>
<path d="M55.164 98.62C55.164 98.62 56.7056 96.6324 56.9258 93.9822C57.146 91.332 55.8247 88.0193 50.8698 85.4795C50.8698 85.4795 49.5485 88.1297 49.4384 91.2216C49.2182 94.0926 50.3192 97.5158 55.164 98.62Z" fill="url(#paint4_linear_1699_7269)"/>
<path d="M56.2653 99.5035C56.2653 99.5035 54.0632 97.9576 51.3104 97.7367C48.5577 97.5159 45.1443 98.5097 42.3916 103.589C42.3916 103.589 45.4747 105.025 48.6678 105.135C51.9711 105.246 55.3845 104.141 56.2653 99.5035Z" fill="url(#paint5_linear_1699_7269)"/>
<path d="M41.951 93.651C41.951 93.651 42.3914 93.2093 42.8318 92.3259C43.2723 91.553 43.8228 90.3383 44.043 89.1236C44.4835 86.4734 43.6026 83.2711 39.3083 80.1792C39.3083 80.1792 38.8679 80.8417 38.4275 81.8356C37.987 82.8294 37.3264 84.1545 37.1062 85.7004C36.7758 87.136 36.8859 88.7923 37.5466 90.2279C38.2072 91.553 39.5286 92.8781 41.951 93.651Z" fill="url(#paint6_linear_1699_7269)"/>
<path d="M43.052 94.6447C43.052 94.6447 42.5014 94.203 41.7307 93.7613C40.8498 93.3196 39.6386 92.7675 38.3173 92.4362C35.5646 91.8841 32.0411 92.4362 28.5176 97.074C28.5176 97.074 28.7378 97.1844 29.0681 97.4053C29.3985 97.6261 29.8389 97.847 30.4995 98.1783C31.7107 98.7304 33.2523 99.3929 35.014 99.6138C38.2072 100.055 41.8408 99.1721 43.052 94.6447Z" fill="url(#paint7_linear_1699_7269)"/>
<path d="M29.3986 87.0256C29.3986 87.0256 29.9491 86.5839 30.4997 85.9214C31.0502 85.2588 31.821 84.1546 32.2614 82.9399C32.7019 81.7252 32.812 80.1793 32.4817 78.6333C32.1513 77.0874 31.2705 75.3206 29.7289 73.4434C29.7289 73.4434 29.1784 73.9955 28.5177 74.7685C27.8571 75.6519 26.9762 76.7561 26.3155 78.1916C25.6549 79.5167 25.3246 81.0627 25.765 82.719C25.9852 84.265 27.1964 85.9214 29.3986 87.0256Z" fill="url(#paint8_linear_1699_7269)"/>
<path d="M30.28 88.1302C30.28 88.1302 29.8396 87.6885 29.0688 87.0259C28.298 86.3634 27.197 85.5904 25.8756 85.1487C24.5543 84.5966 23.0128 84.2653 21.2511 84.4862C19.4893 84.707 17.3973 85.48 15.085 87.2468C15.085 87.2468 15.3052 87.4676 15.5254 87.6885C15.8557 88.0198 16.2962 88.351 16.8467 88.7927C17.9478 89.6761 19.4893 90.67 21.141 91.3325C22.7926 91.9951 24.6644 92.3263 26.206 91.8846C27.9677 91.4429 29.289 90.3387 30.28 88.1302Z" fill="url(#paint9_linear_1699_7269)"/>
<path d="M18.4968 77.7501C18.4968 77.7501 19.0474 77.5292 19.8181 76.9771C20.5889 76.425 21.5799 75.652 22.2405 74.5477C23.0113 73.4435 23.5618 72.1184 23.7821 70.5724C24.0023 69.0265 23.7821 67.2597 23.0113 65.1616C23.0113 65.1616 22.3506 65.4929 21.3597 66.045C20.3687 66.5971 19.1575 67.3701 18.1665 68.4744C17.0654 69.5786 16.2946 70.9037 16.1845 72.5601C16.0744 74.106 16.7351 75.9833 18.4968 77.7501Z" fill="url(#paint10_linear_1699_7269)"/>
<path d="M19.1579 79.0753C19.1579 79.0753 18.8276 78.5232 18.2771 77.6398C17.7265 76.8668 16.8456 75.7625 15.8547 74.8791C15.3041 74.4374 14.7536 73.9957 13.9828 73.554C13.3221 73.2228 12.5514 72.8915 11.6705 72.6706C9.79866 72.3394 7.59648 72.3394 4.84375 73.2228C4.84375 73.2228 5.17408 74.1062 5.94484 75.4313C6.7156 76.6459 7.9268 78.1919 9.35822 79.4066C10.7896 80.6212 12.5514 81.5046 14.203 81.615C15.9648 81.7255 17.6164 80.9525 19.1579 79.0753Z" fill="url(#paint11_linear_1699_7269)"/>
<path d="M11.2297 65.3827C11.2297 65.3827 11.8903 65.3827 12.7712 65.1619C13.6521 64.941 14.8633 64.4993 15.9643 63.8368C17.0654 63.0638 18.0564 62.07 18.8272 60.6345C19.4878 59.1989 19.9283 57.5426 20.0384 55.2236C20.0384 55.2236 19.2676 55.2236 18.1665 55.4445C17.0654 55.6653 15.634 55.9966 14.3127 56.6592C12.9914 57.3217 11.6701 58.3155 11.0094 59.7511C10.2387 61.1866 10.1286 63.1742 11.2297 65.3827Z" fill="url(#paint12_linear_1699_7269)"/>
<path d="M11.3405 66.9288C11.3405 66.9288 11.2304 66.2663 11.0102 65.2725C10.9001 64.8308 10.6798 64.2786 10.5697 63.6161C10.3495 63.064 10.1293 62.4014 9.79897 61.7389C9.13832 60.5242 8.14734 59.1991 6.60581 58.2053C5.06428 57.2115 2.97221 56.4385 0.109375 56.4385C0.109375 56.4385 0.109375 56.6593 0.109375 57.101C0.109375 57.5427 0.219484 58.0949 0.329593 58.7574C0.439702 59.4199 0.65992 60.3033 0.990248 61.0763C1.21047 61.9597 1.6509 62.8431 2.09134 63.6161C2.53177 64.4995 3.08232 65.2725 3.74297 65.935C4.40363 66.5976 5.06428 67.1497 5.83505 67.481C7.48668 68.1435 9.24843 68.1435 11.3405 66.9288Z" fill="url(#paint13_linear_1699_7269)"/>
<path d="M8.69776 51.3586C8.69776 51.3586 9.2483 51.5795 10.2393 51.6899C11.1202 51.8003 12.4415 51.8003 13.6527 51.469C14.974 51.1378 16.1852 50.4752 17.3964 49.371C18.4975 48.2667 19.4884 46.7208 20.1491 44.5123C20.1491 44.5123 19.3783 44.2914 18.2772 44.181C17.1762 44.0706 15.7447 43.8497 14.2032 44.0706C13.4324 44.181 12.6617 44.2914 12.001 44.6227C11.3404 44.954 10.6797 45.3957 10.1292 45.9478C9.79885 46.2791 9.57863 46.6103 9.35841 46.9416C9.13819 47.2729 9.02808 47.7146 8.80787 48.1563C8.69776 48.598 8.58765 49.1501 8.47754 49.7022C8.58765 50.1439 8.58765 50.6961 8.69776 51.3586Z" fill="url(#paint14_linear_1699_7269)"/>
<path d="M8.25671 52.794C8.25671 52.794 8.25671 52.5732 8.36682 52.3523C8.47693 52.021 8.47693 51.6898 8.47693 51.1376C8.47693 50.6959 8.47693 50.0334 8.47693 49.4813C8.47693 48.8187 8.47693 48.1562 8.25671 47.4936C8.1466 46.8311 7.92639 46.0581 7.59606 45.3956C7.26573 44.6226 6.82529 43.96 6.27475 43.1871C5.17366 41.7515 3.41191 40.4264 0.659186 39.4326C0.659186 39.4326 0.549077 39.6535 0.549077 40.0952C0.438968 40.5369 0.328859 41.089 0.328859 41.862C0.328859 42.1932 0.21875 42.6349 0.21875 42.9662C0.21875 43.4079 0.21875 43.8496 0.21875 44.2913C0.21875 45.1747 0.21875 46.1685 0.438968 47.0519C0.659186 47.9353 0.879404 48.8187 1.31984 49.7021C1.76028 50.4751 2.20071 51.2481 2.86137 51.8002C4.18268 52.6836 5.94442 53.2357 8.25671 52.794Z" fill="url(#paint15_linear_1699_7269)"/>
<path d="M10.6797 37.114C10.6797 37.114 11.2302 37.4453 12.001 37.887C12.8819 38.3287 13.983 38.66 15.3043 38.7704C15.9649 38.7704 16.6256 38.7704 17.3963 38.66C18.057 38.5496 18.8278 38.3287 19.4884 37.9974C20.9198 37.3349 22.3512 36.2306 23.7827 34.3534C23.7827 34.3534 23.122 33.9117 22.131 33.47C21.14 32.9179 19.8187 32.3658 18.3873 32.0345C16.8458 31.7032 15.3043 31.7032 13.8729 32.4762C13.2122 32.8075 12.5515 33.3596 11.8909 34.1326C11.5606 34.4638 11.3403 35.016 11.1201 35.4577C11.01 36.0098 10.7898 36.5619 10.6797 37.114Z" fill="url(#paint16_linear_1699_7269)"/>
<path d="M9.79935 38.3285C9.79935 38.3285 10.1297 37.7763 10.5701 36.7825C10.7903 36.3408 11.0106 35.7887 11.2308 35.2366C11.451 34.6844 11.5611 34.0219 11.6712 33.2489C11.8914 31.8134 11.8914 30.2675 11.2308 28.5007C10.6802 26.8443 9.46902 24.9671 7.15673 23.0898C7.15673 23.0898 7.04662 23.3107 6.82641 23.642C6.60619 23.9732 6.27586 24.5254 6.05564 25.1879C5.39499 26.513 4.73433 28.2798 4.51412 30.157C4.40401 31.0404 4.2939 32.0343 4.40401 32.9177C4.51412 33.801 4.73433 34.6844 5.17477 35.4574C5.94553 37.0034 7.48706 37.9972 9.79935 38.3285Z" fill="url(#paint17_linear_1699_7269)"/>
<path d="M17.1758 24.4146C17.1758 24.4146 17.5061 24.9668 18.1668 25.6293C18.8274 26.2919 19.8184 27.0648 21.0296 27.5065C22.2408 27.9482 23.6722 28.2795 25.2137 28.0587C26.8654 27.8378 28.517 27.0648 30.499 25.6293C30.499 25.6293 30.0585 25.0772 29.1777 24.3042C28.4069 23.5312 27.1957 22.5374 25.9845 21.8749C24.6632 21.2123 23.1217 20.6602 21.5801 20.9915C20.1487 21.2123 18.4971 22.3166 17.1758 24.4146Z" fill="url(#paint18_linear_1699_7269)"/>
<path d="M15.9645 25.2979C15.9645 25.2979 16.5151 24.8562 17.1757 24.0833C17.8364 23.3103 18.7173 22.3165 19.2678 21.1018C19.9285 19.8871 20.3689 18.3412 20.2588 16.5744C20.1487 14.8076 19.488 12.7095 17.8364 10.2802C17.8364 10.2802 17.1757 10.8323 16.1848 11.8261C15.3039 12.8199 14.2028 14.2554 13.3219 15.9118C12.5512 17.5682 12.1107 19.4454 12.441 21.1018C12.7714 22.7582 13.8725 24.1937 15.9645 25.2979Z" fill="url(#paint19_linear_1699_7269)"/>
<path d="M27.0859 14.1448C27.0859 14.1448 27.3062 14.697 27.7466 15.5804C28.187 16.3533 28.9578 17.3472 30.0589 18.1201C31.16 18.8931 32.4813 19.5557 34.0228 19.6661C35.6744 19.7765 37.5463 19.4452 39.8586 18.5618C39.8586 18.5618 39.5283 17.8993 38.9777 16.9055C38.3171 16.0221 37.5463 14.8074 36.3351 13.8136C35.234 12.8197 33.8026 12.0468 32.2611 11.9364C30.7195 11.8259 28.8477 12.378 27.0859 14.1448Z" fill="url(#paint20_linear_1699_7269)"/>
<path d="M25.654 14.6974C25.654 14.6974 26.3147 14.3661 27.0855 13.9244C27.9663 13.3723 28.9573 12.5993 29.8382 11.495C30.8292 10.3908 31.5999 8.95527 31.9303 7.18848C32.2606 5.42168 32.1505 3.21318 31.0494 0.562988C31.0494 0.562988 30.1685 1.00469 29.0674 1.77766C27.9663 2.55063 26.5349 3.65488 25.4338 5.09041C24.3327 6.4155 23.4519 8.07188 23.3418 9.72825C23.2316 11.3846 23.8923 13.041 25.654 14.6974Z" fill="url(#paint21_linear_1699_7269)"/>
<path d="M48.6674 2.99219C48.6674 2.99219 37.5464 6.41535 38.207 7.40918C38.6475 8.07173 48.6674 2.99219 48.6674 2.99219Z" fill="url(#paint22_linear_1699_7269)"/>
<path d="M30.4998 1.55664C30.4998 1.55664 25.1044 7.40916 25.8752 13.3721C25.8752 13.3721 26.0954 13.8138 26.2055 13.3721C26.3156 12.9304 26.5358 9.8385 27.3066 7.51958C28.1875 5.42151 30.4998 1.55664 30.4998 1.55664Z" fill="url(#paint23_linear_1699_7269)"/>
<path d="M38.9776 18.1202C38.9776 18.1202 32.0407 18.8932 27.7465 14.5866C27.7465 14.5866 27.5262 14.2554 27.9667 14.3658C28.297 14.4762 30.8295 16.1326 32.9216 16.9056C35.0137 17.5681 38.9776 18.1202 38.9776 18.1202Z" fill="url(#paint24_linear_1699_7269)"/>
<path d="M18.0577 11.6055C18.0577 11.6055 13.9837 18.3414 15.6353 23.973C15.6353 23.973 15.8555 24.3043 15.9656 23.8626C16.0757 23.4209 15.6353 20.329 16.0757 17.8997C16.5162 15.6912 18.0577 11.6055 18.0577 11.6055Z" fill="url(#paint25_linear_1699_7269)"/>
<path d="M29.0683 25.1879C29.0683 25.1879 23.2325 27.3964 18.0574 24.7462C18.0574 24.7462 17.7271 24.5254 18.1675 24.5254C18.4978 24.5254 21.3607 25.4088 23.3426 25.5192C25.4347 25.5192 29.0683 25.1879 29.0683 25.1879Z" fill="url(#paint26_linear_1699_7269)"/>
<path d="M7.70659 24.7461C7.70659 24.7461 5.72463 32.3654 8.91779 37.3345C8.91779 37.3345 9.24812 37.5554 9.24812 37.2241C9.24812 36.7824 7.92681 33.9114 7.70659 31.482C7.37626 29.0527 7.70659 24.7461 7.70659 24.7461Z" fill="url(#paint27_linear_1699_7269)"/>
<path d="M22.1311 34.4634C22.1311 34.4634 17.1762 38.3283 11.4505 37.224C11.4505 37.224 11.1202 37.1136 11.4505 37.0032C11.7809 36.8927 14.7538 36.8927 16.7358 36.451C18.7177 36.0093 22.1311 34.4634 22.1311 34.4634Z" fill="url(#paint28_linear_1699_7269)"/>
<path d="M1.21094 41.3096C1.21094 41.3096 2.53225 49.0393 7.59726 52.2416C7.59726 52.2416 8.0377 52.352 7.81748 52.0208C7.59726 51.6895 5.28497 49.481 3.96366 47.4934C2.75246 45.2849 1.21094 41.3096 1.21094 41.3096Z" fill="url(#paint29_linear_1699_7269)"/>
<path d="M18.9377 45.1748C18.9377 45.1748 15.194 50.2543 9.46831 50.8065C9.46831 50.8065 9.02787 50.8065 9.3582 50.5856C9.68853 50.3648 12.4413 49.5918 14.3131 48.598C16.0749 47.6042 18.9377 45.1748 18.9377 45.1748Z" fill="url(#paint30_linear_1699_7269)"/>
<path d="M1.21094 57.9839C1.21094 57.9839 4.62432 65.0511 10.2399 66.8179C10.2399 66.8179 10.6803 66.8179 10.35 66.4866C10.0197 66.1553 7.15683 64.8302 5.50519 63.1738C3.85356 61.5175 1.21094 57.9839 1.21094 57.9839Z" fill="url(#paint31_linear_1699_7269)"/>
<path d="M19.268 56.6587C19.268 56.6587 17.0658 62.5112 11.6705 64.6093C11.6705 64.6093 11.23 64.6093 11.5603 64.3884C11.7806 64.1676 14.3131 62.6216 15.7445 61.0757C17.1759 59.7506 19.268 56.6587 19.268 56.6587Z" fill="url(#paint32_linear_1699_7269)"/>
<path d="M5.94531 74.106C5.94531 74.106 11.671 79.5168 17.5068 79.0751C17.5068 79.0751 17.9472 78.8542 17.5068 78.7438C17.1764 78.6334 13.9833 78.3021 11.7811 77.4187C9.57891 76.4249 5.94531 74.106 5.94531 74.106Z" fill="url(#paint33_linear_1699_7269)"/>
<path d="M22.6817 66.376C22.6817 66.376 23.012 72.6702 18.938 76.7559C18.938 76.7559 18.6077 76.9768 18.7178 76.6455C18.8279 76.3142 20.4795 73.8849 21.2503 71.8972C21.9109 70.02 22.6817 66.376 22.6817 66.376Z" fill="url(#paint34_linear_1699_7269)"/>
<path d="M16.4053 87.6885C16.4053 87.6885 23.5624 90.7804 28.9577 88.351C28.9577 88.351 29.288 88.0197 28.8476 88.0197C28.4072 88.0197 25.3241 88.7927 23.0118 88.6823C20.6995 88.6823 16.4053 87.6885 16.4053 87.6885Z" fill="url(#paint35_linear_1699_7269)"/>
<path d="M29.8384 74.7686C29.8384 74.7686 32.3709 80.5106 29.8384 85.811C29.8384 85.811 29.6182 86.1423 29.6182 85.7006C29.6182 85.3693 30.3889 82.4983 30.3889 80.4002C30.3889 78.4126 29.8384 74.7686 29.8384 74.7686Z" fill="url(#paint36_linear_1699_7269)"/>
<path d="M29.6182 96.8532C29.6182 96.8532 37.2157 98.7304 42.1706 95.4177C42.1706 95.4177 42.3908 95.0864 42.0605 95.0864C41.6201 95.0864 38.7572 96.4115 36.4449 96.7428C33.9124 97.0741 29.6182 96.8532 29.6182 96.8532Z" fill="url(#paint37_linear_1699_7269)"/>
<path d="M39.9688 81.8354C39.9688 81.8354 43.3821 87.1358 41.8406 92.7675C41.8406 92.7675 41.6204 93.0988 41.6204 92.7675C41.5103 92.4362 41.8406 89.4548 41.5103 87.4671C41.18 85.369 39.9688 81.8354 39.9688 81.8354Z" fill="url(#paint38_linear_1699_7269)"/>
<path d="M43.1621 103.038C43.1621 103.038 50.9799 103.921 55.3842 99.9457C55.3842 99.9457 55.6044 99.504 55.164 99.6144C54.7236 99.7248 52.0809 101.381 49.7687 102.044C47.5665 102.706 43.1621 103.038 43.1621 103.038Z" fill="url(#paint39_linear_1699_7269)"/>
<path d="M51.5303 86.915C51.5303 86.915 55.6043 91.6633 54.8335 97.5158C54.8335 97.5158 54.7234 97.8471 54.6133 97.5158C54.5032 97.1845 54.3931 94.2031 53.8426 92.2154C53.1819 90.2278 51.5303 86.915 51.5303 86.915Z" fill="url(#paint40_linear_1699_7269)"/>
<path d="M92.0505 7.29891C94.8032 8.51359 97.4459 10.17 99.9784 11.8263C102.511 13.5931 104.933 15.4703 107.246 17.5684C111.76 21.6541 115.614 26.5128 118.367 32.0341C121.119 37.4449 122.441 43.5182 122.551 49.5916C122.551 50.3646 122.551 51.1376 122.441 51.9105C122.441 52.2418 122.441 52.6835 122.441 53.0148L122.331 54.119C122.22 54.892 122.22 55.665 122.11 56.4379L121.67 58.6464C121.56 59.4194 121.34 60.082 121.119 60.8549C120.899 61.6279 120.789 62.2905 120.569 63.0634C120.128 64.499 119.688 65.9345 119.027 67.37C118.477 68.8055 117.816 70.1306 117.045 71.4557C116.275 72.7808 115.504 74.1059 114.623 75.2102C112.861 77.6395 110.769 79.848 108.457 81.8356C103.832 85.7005 98.3267 88.682 92.7112 90.8905C86.9855 93.2094 81.0396 94.9762 75.0937 96.9638C72.1208 97.9577 69.1478 99.0619 66.1749 100.497C63.312 101.933 60.4492 103.81 58.247 106.46C57.6965 107.123 57.8066 108.006 58.4672 108.558C59.1279 109.111 60.0088 109 60.5593 108.338C62.3211 106.129 64.7435 104.473 67.4962 103.148C70.2489 101.823 73.1118 100.718 75.9746 99.7245C81.8104 97.7368 87.8664 95.8596 93.7022 93.5407C99.5379 91.1113 105.264 88.1299 110.219 83.9337C112.641 81.8356 114.843 79.4063 116.715 76.8665C117.706 75.5414 118.477 74.2163 119.358 72.7808C120.128 71.3453 120.899 69.9098 121.45 68.3638C122.11 66.9283 122.551 65.3824 122.991 63.8364C123.211 63.0634 123.432 62.2905 123.542 61.5175C123.762 60.7445 123.982 59.9715 124.092 59.1986L124.533 56.8796C124.643 56.1067 124.753 55.3337 124.753 54.4503L124.863 53.2356C124.863 52.7939 124.863 52.4627 124.863 52.021C124.863 51.248 124.973 50.3646 124.863 49.5916C124.753 43.187 123.211 36.6719 120.349 30.9298C117.486 25.1877 113.412 20.1082 108.677 15.8016C106.365 13.7036 103.832 11.7159 101.19 9.94911C98.547 8.18231 95.7942 6.52594 92.9314 5.20084C92.3808 4.97999 91.7202 5.20084 91.5 5.75297C91.1696 6.30509 91.3899 6.96764 92.0505 7.29891Z" fill="url(#paint41_radial_1699_7269)"/>
<path d="M92.0505 7.29891C94.8032 8.51359 97.4459 10.17 99.9784 11.8263C102.511 13.5931 104.933 15.4703 107.246 17.5684C111.76 21.6541 115.614 26.5128 118.367 32.0341C121.119 37.4449 122.441 43.5182 122.551 49.5916C122.551 50.3646 122.551 51.1376 122.441 51.9105C122.441 52.2418 122.441 52.6835 122.441 53.0148L122.331 54.119C122.22 54.892 122.22 55.665 122.11 56.4379L121.67 58.6464C121.56 59.4194 121.34 60.082 121.119 60.8549C120.899 61.6279 120.789 62.2905 120.569 63.0634C120.128 64.499 119.688 65.9345 119.027 67.37C118.477 68.8055 117.816 70.1306 117.045 71.4557C116.275 72.7808 115.504 74.1059 114.623 75.2102C112.861 77.6395 110.769 79.848 108.457 81.8356C103.832 85.7005 98.3267 88.682 92.7112 90.8905C86.9855 93.2094 81.0396 94.9762 75.0937 96.9638C72.1208 97.9577 69.1478 99.0619 66.1749 100.497C63.312 101.933 60.4492 103.81 58.247 106.46C57.6965 107.123 57.8066 108.006 58.4672 108.558C59.1279 109.111 60.0088 109 60.5593 108.338C62.3211 106.129 64.7435 104.473 67.4962 103.148C70.2489 101.823 73.1118 100.718 75.9746 99.7245C81.8104 97.7368 87.8664 95.8596 93.7022 93.5407C99.5379 91.1113 105.264 88.1299 110.219 83.9337C112.641 81.8356 114.843 79.4063 116.715 76.8665C117.706 75.5414 118.477 74.2163 119.358 72.7808C120.128 71.3453 120.899 69.9098 121.45 68.3638C122.11 66.9283 122.551 65.3824 122.991 63.8364C123.211 63.0634 123.432 62.2905 123.542 61.5175C123.762 60.7445 123.982 59.9715 124.092 59.1986L124.533 56.8796C124.643 56.1067 124.753 55.3337 124.753 54.4503L124.863 53.2356C124.863 52.7939 124.863 52.4627 124.863 52.021C124.863 51.248 124.973 50.3646 124.863 49.5916C124.753 43.187 123.211 36.6719 120.349 30.9298C117.486 25.1877 113.412 20.1082 108.677 15.8016C106.365 13.7036 103.832 11.7159 101.19 9.94911C98.547 8.18231 95.7942 6.52594 92.9314 5.20084C92.3808 4.97999 91.7202 5.20084 91.5 5.75297C91.1696 6.30509 91.3899 6.96764 92.0505 7.29891Z" fill="url(#paint42_radial_1699_7269)"/>
<path d="M58.468 106.681C60.2297 104.473 62.7623 102.927 65.4049 101.602C68.1576 100.277 71.0204 99.2829 73.8833 98.2891C79.719 96.3014 85.7751 94.645 91.7209 92.3261C97.5567 90.0072 103.393 87.0257 108.347 82.94C110.88 80.9524 112.972 78.523 114.954 75.9832C115.945 74.7686 116.716 73.333 117.597 72.0079C118.367 70.5724 119.138 69.1369 119.689 67.7014C120.349 66.2659 120.79 64.7199 121.23 63.174C121.45 62.401 121.671 61.628 121.781 60.855C122.001 60.0821 122.221 59.3091 122.331 58.5361L122.772 56.2172C122.882 55.4442 122.992 54.6713 122.992 53.8983L123.102 52.6836C123.102 52.2419 123.102 51.9106 123.102 51.4689C123.102 50.696 123.102 49.923 123.102 49.0396C122.992 42.7454 121.45 36.3407 118.477 30.7091C115.505 25.0774 111.43 20.1083 106.696 15.9122C104.273 13.8141 101.851 11.9369 99.2084 10.1701C96.786 8.62412 94.2534 7.07817 91.5007 5.8635V5.75308C91.5007 5.64265 91.6108 5.64265 91.6108 5.53223C91.7209 5.53223 91.8311 5.53223 91.9412 5.64265C94.9141 6.96775 97.5567 8.5137 100.199 10.2805C102.842 12.0473 105.374 13.9245 107.687 16.0226C112.421 20.2187 116.495 25.1878 119.468 30.8195C122.441 36.4512 123.983 42.8558 124.093 49.15C124.093 49.923 124.093 50.696 124.093 51.5794C124.093 52.0211 124.093 52.3523 124.093 52.794L123.983 54.0087C123.873 54.7817 123.873 55.5547 123.763 56.3276L123.432 58.6465C123.322 59.4195 123.102 60.1925 122.882 60.9655C122.662 61.7384 122.551 62.5114 122.331 63.2844C121.891 64.8303 121.45 66.3763 120.79 67.8118C120.239 69.3578 119.468 70.6829 118.808 72.1184C118.037 73.4435 117.156 74.879 116.275 76.2041C114.403 78.7439 112.201 81.1732 109.779 83.2713C104.934 87.4674 99.2084 90.4489 93.3726 92.7678C87.5368 95.1972 81.5909 96.964 75.7551 98.9516C72.8923 99.9454 69.9193 101.05 67.2767 102.375C64.6341 103.7 62.1016 105.356 60.45 107.454C60.1196 107.786 59.5691 108.338 59.0185 108.779C58.9084 108.779 58.9084 108.669 58.7983 108.669C58.468 108.448 58.2478 108.006 58.2478 107.675C58.1377 107.233 58.3579 106.792 58.468 106.681Z" fill="url(#paint43_linear_1699_7269)"/>
<path d="M95.5744 7.74073C95.5744 7.74073 93.9228 -0.651553 83.2422 2.88204C83.3523 2.88204 87.8668 12.1577 95.5744 7.74073Z" fill="url(#paint44_linear_1699_7269)"/>
<path d="M77.7368 98.62C77.7368 98.62 76.1952 96.6324 75.975 93.9822C75.7548 91.332 77.0761 88.0193 82.031 85.4795C82.031 85.4795 83.3524 88.1297 83.4625 91.2216C83.7928 94.0926 82.5816 97.5158 77.7368 98.62Z" fill="url(#paint45_linear_1699_7269)"/>
<path d="M76.6357 99.503C76.6357 99.503 78.8379 97.9571 81.5907 97.7363C84.3434 97.5154 87.7568 98.5092 90.5095 103.589C90.5095 103.589 87.4264 105.024 84.2333 105.135C80.93 105.245 77.6267 104.141 76.6357 99.503Z" fill="url(#paint46_linear_1699_7269)"/>
<path d="M90.9489 93.651C90.9489 93.651 90.5085 93.2093 90.068 92.3259C89.6276 91.553 89.0771 90.3383 88.8568 89.1236C88.4164 86.4734 89.2973 83.2711 93.5915 80.1792C93.5915 80.1792 94.032 80.8417 94.4724 81.8356C94.9128 82.8294 95.5735 84.1545 95.7937 85.7004C96.124 87.136 96.0139 88.7923 95.3533 90.2279C94.8027 91.553 93.3713 92.8781 90.9489 93.651Z" fill="url(#paint47_linear_1699_7269)"/>
<path d="M89.958 94.6447C89.958 94.6447 90.5086 94.203 91.2793 93.7613C92.1602 93.3196 93.3714 92.7675 94.6927 92.4362C97.4454 91.8841 100.969 92.4362 104.492 97.074C104.492 97.074 104.272 97.1844 103.942 97.4053C103.612 97.6261 103.171 97.847 102.51 98.1783C101.299 98.7304 99.7577 99.3929 97.996 99.6138C94.6927 100.055 91.1692 99.1721 89.958 94.6447Z" fill="url(#paint48_linear_1699_7269)"/>
<path d="M103.502 87.0256C103.502 87.0256 102.951 86.5839 102.401 85.9214C101.85 85.2588 101.079 84.1546 100.639 82.9399C100.198 81.7252 100.088 80.1793 100.419 78.6333C100.749 77.0874 101.63 75.3206 103.171 73.4434C103.171 73.4434 103.722 73.9955 104.383 74.7685C105.043 75.6519 105.924 76.7561 106.585 78.1916C107.245 79.5167 107.576 81.0627 107.135 82.719C106.915 84.265 105.814 85.9214 103.502 87.0256Z" fill="url(#paint49_linear_1699_7269)"/>
<path d="M102.621 88.1302C102.621 88.1302 103.062 87.6885 103.832 87.0259C104.603 86.3634 105.704 85.5904 107.025 85.1487C108.347 84.5966 109.888 84.2653 111.65 84.4862C113.412 84.707 115.504 85.48 117.816 87.2468C117.816 87.2468 117.596 87.4676 117.376 87.6885C117.045 88.0198 116.605 88.351 116.054 88.7927C114.953 89.6761 113.412 90.67 111.76 91.3325C110.109 91.9951 108.237 92.3263 106.695 91.8846C105.043 91.4429 103.612 90.3387 102.621 88.1302Z" fill="url(#paint50_linear_1699_7269)"/>
<path d="M114.403 77.7496C114.403 77.7496 113.853 77.5287 113.082 76.9766C112.311 76.4245 111.32 75.6515 110.66 74.5472C109.889 73.443 109.338 72.1179 109.118 70.572C108.898 69.026 109.118 67.2592 109.889 65.1611C109.889 65.1611 110.549 65.4924 111.54 66.0445C112.531 66.5967 113.743 67.3696 114.734 68.4739C115.835 69.5781 116.605 70.9032 116.716 72.5596C116.826 74.1055 116.165 75.9828 114.403 77.7496Z" fill="url(#paint51_linear_1699_7269)"/>
<path d="M113.853 79.075C113.853 79.075 114.183 78.5229 114.733 77.6395C115.284 76.8665 116.165 75.7623 117.156 74.8789C117.706 74.4372 118.257 73.9955 119.028 73.5538C119.688 73.2225 120.459 72.8912 121.34 72.6704C123.102 72.2287 125.304 72.2287 128.057 73.2225C128.057 73.2225 127.726 74.1059 126.956 75.431C126.185 76.6457 124.974 78.1916 123.542 79.4063C122.111 80.621 120.349 81.5044 118.697 81.6148C116.936 81.7252 115.284 80.9522 113.853 79.075Z" fill="url(#paint52_linear_1699_7269)"/>
<path d="M121.671 65.3822C121.671 65.3822 121.01 65.3822 120.129 65.1614C119.249 64.9405 118.037 64.4988 116.936 63.8363C115.835 63.0633 114.844 62.0695 114.074 60.634C113.413 59.1984 112.972 57.5421 112.862 55.2231C112.862 55.2231 113.633 55.2231 114.734 55.444C115.835 55.6648 117.267 55.9961 118.588 56.6587C119.909 57.3212 121.231 58.315 121.891 59.7506C122.662 61.1861 122.772 63.1737 121.671 65.3822Z" fill="url(#paint53_linear_1699_7269)"/>
<path d="M121.671 66.9279C121.671 66.9279 121.781 66.2653 122.001 65.2715C122.111 64.8298 122.332 64.2777 122.442 63.6151C122.662 63.063 122.882 62.4004 123.212 61.7379C123.873 60.5232 124.864 59.1981 126.406 58.2043C127.947 57.2105 130.039 56.4375 132.902 56.4375C132.902 56.4375 132.902 56.6584 132.902 57.1001C132.902 57.5418 132.792 58.0939 132.682 58.7564C132.572 59.419 132.351 60.3024 132.021 61.0753C131.801 61.9587 131.36 62.8421 130.92 63.6151C130.48 64.4985 129.929 65.2715 129.268 65.934C128.608 66.5966 127.947 67.1487 127.176 67.48C125.525 68.1425 123.653 68.1425 121.671 66.9279Z" fill="url(#paint54_linear_1699_7269)"/>
<path d="M124.202 51.3586C124.202 51.3586 123.652 51.5795 122.661 51.6899C121.78 51.8003 120.459 51.8003 119.247 51.469C117.926 51.1378 116.715 50.4752 115.504 49.371C114.403 48.2667 113.412 46.7208 112.751 44.5123C112.751 44.5123 113.522 44.2914 114.623 44.181C115.724 44.0706 117.155 43.8497 118.697 44.0706C119.468 44.181 120.238 44.2914 120.899 44.6227C121.56 44.954 122.22 45.3957 122.771 45.9478C123.101 46.2791 123.321 46.6103 123.542 46.9416C123.762 47.2729 123.872 47.7146 124.092 48.1563C124.202 48.598 124.312 49.1501 124.423 49.7022C124.312 50.1439 124.312 50.6961 124.202 51.3586Z" fill="url(#paint55_linear_1699_7269)"/>
<path d="M124.752 52.794C124.752 52.794 124.752 52.5732 124.642 52.3523C124.532 52.021 124.532 51.6898 124.532 51.1376C124.532 50.6959 124.532 50.0334 124.532 49.4813C124.532 48.8187 124.532 48.1562 124.752 47.4936C124.863 46.8311 125.083 46.0581 125.413 45.3956C125.743 44.6226 126.184 43.96 126.734 43.1871C127.835 41.7515 129.597 40.4264 132.35 39.4326C132.35 39.4326 132.46 39.6535 132.46 40.0952C132.57 40.5369 132.68 41.089 132.68 41.862C132.68 42.1932 132.79 42.6349 132.79 42.9662C132.79 43.4079 132.79 43.8496 132.79 44.2913C132.79 45.1747 132.79 46.1685 132.57 47.0519C132.35 47.9353 132.13 48.8187 131.689 49.7021C131.249 50.4751 130.808 51.2481 130.148 51.8002C128.716 52.6836 127.065 53.2357 124.752 52.794Z" fill="url(#paint56_linear_1699_7269)"/>
<path d="M122.221 37.114C122.221 37.114 121.671 37.4453 120.9 37.887C120.019 38.3287 118.918 38.66 117.597 38.7704C116.936 38.7704 116.275 38.7704 115.504 38.66C114.844 38.5496 114.073 38.3287 113.412 37.9974C111.981 37.3349 110.55 36.2306 109.118 34.3534C109.118 34.3534 109.779 33.9117 110.77 33.47C111.761 32.9179 113.082 32.3658 114.514 32.0345C116.055 31.7032 117.597 31.7032 119.028 32.4762C119.689 32.8075 120.349 33.3596 121.01 34.1326C121.34 34.4638 121.56 35.016 121.781 35.4577C121.891 36.0098 122.111 36.5619 122.221 37.114Z" fill="url(#paint57_linear_1699_7269)"/>
<path d="M123.102 38.3285C123.102 38.3285 122.772 37.7763 122.331 36.7825C122.111 36.3408 121.891 35.7887 121.671 35.2366C121.451 34.6845 121.34 34.0219 121.23 33.2489C121.01 31.8134 121.01 30.2675 121.671 28.5007C122.221 26.8443 123.433 24.9671 125.745 23.0898C125.745 23.0898 125.855 23.3107 126.075 23.642C126.295 23.9732 126.626 24.5254 126.846 25.1879C127.507 26.513 128.167 28.2798 128.387 30.157C128.498 31.0404 128.608 32.0343 128.498 32.9177C128.387 33.8011 128.167 34.6845 127.727 35.4574C126.956 37.0034 125.414 37.9972 123.102 38.3285Z" fill="url(#paint58_linear_1699_7269)"/>
<path d="M115.725 24.4148C115.725 24.4148 115.394 24.9669 114.734 25.6294C114.073 26.292 113.082 27.065 111.871 27.5067C110.66 27.9484 109.228 28.2796 107.687 28.0588C106.035 27.8379 104.383 27.065 102.401 25.6294C102.401 25.6294 102.842 25.0773 103.723 24.3043C104.493 23.5314 105.705 22.5375 106.916 21.875C108.237 21.2124 109.779 20.6603 111.32 20.9916C112.862 21.2124 114.403 22.3167 115.725 24.4148Z" fill="url(#paint59_linear_1699_7269)"/>
<path d="M116.935 25.298C116.935 25.298 116.385 24.8563 115.724 24.0834C115.063 23.3104 114.182 22.3166 113.632 21.1019C112.971 19.8872 112.531 18.3413 112.641 16.5745C112.751 14.8077 113.412 12.7096 115.063 10.2803C115.063 10.2803 115.724 10.8324 116.715 11.8262C117.596 12.82 118.697 14.2556 119.578 15.9119C120.349 17.5683 120.789 19.4455 120.459 21.1019C120.128 22.7583 119.027 24.1938 116.935 25.298Z" fill="url(#paint60_linear_1699_7269)"/>
<path d="M105.925 14.1452C105.925 14.1452 105.705 14.6973 105.264 15.5807C104.824 16.3537 104.053 17.3475 102.952 18.1205C101.851 18.8935 100.53 19.556 98.9881 19.6664C97.3365 19.7769 95.4646 19.4456 93.1523 18.5622C93.1523 18.5622 93.4827 17.8997 94.0332 16.9058C94.5838 16.0224 95.4646 14.8078 96.5657 13.8139C97.6668 12.8201 99.0982 12.0471 100.64 11.9367C102.291 11.8263 104.053 12.3784 105.925 14.1452Z" fill="url(#paint61_linear_1699_7269)"/>
<path d="M107.246 14.6973C107.246 14.6973 106.585 14.366 105.815 13.9243C104.934 13.3722 103.943 12.5992 103.062 11.495C102.181 10.3907 101.3 9.06563 101.08 7.29883C100.75 5.53203 100.86 3.32354 101.961 0.67334C101.961 0.67334 102.842 1.11504 103.943 1.88801C105.044 2.66099 106.475 3.76523 107.576 5.20076C108.677 6.52585 109.558 8.18223 109.668 9.8386C109.668 11.3845 109.008 13.0409 107.246 14.6973Z" fill="url(#paint62_linear_1699_7269)"/>
<path d="M84.3428 2.99219C84.3428 2.99219 95.4638 6.41536 94.8031 7.40918C94.3627 8.07173 84.3428 2.99219 84.3428 2.99219Z" fill="url(#paint63_linear_1699_7269)"/>
<path d="M102.51 1.55664C102.51 1.55664 107.905 7.40916 107.134 13.3721C107.134 13.3721 106.914 13.8138 106.804 13.3721C106.694 12.9304 106.474 9.8385 105.703 7.51958C104.712 5.42151 102.51 1.55664 102.51 1.55664Z" fill="url(#paint64_linear_1699_7269)"/>
<path d="M93.9219 18.1207C93.9219 18.1207 100.859 18.8937 105.153 14.5871C105.153 14.5871 105.373 14.2559 104.933 14.3663C104.602 14.4767 102.07 16.1331 99.9779 16.9061C97.8858 17.5686 93.9219 18.1207 93.9219 18.1207Z" fill="url(#paint65_linear_1699_7269)"/>
<path d="M114.843 11.6055C114.843 11.6055 118.917 18.3414 117.265 23.973C117.265 23.973 117.045 24.3043 116.935 23.8626C116.825 23.4209 117.265 20.329 116.825 17.8997C116.384 15.6912 114.843 11.6055 114.843 11.6055Z" fill="url(#paint66_linear_1699_7269)"/>
<path d="M103.833 25.1879C103.833 25.1879 109.669 27.3964 114.844 24.7462C114.844 24.7462 115.174 24.5254 114.734 24.5254C114.403 24.5254 111.541 25.4088 109.559 25.5192C107.467 25.5192 103.833 25.1879 103.833 25.1879Z" fill="url(#paint67_linear_1699_7269)"/>
<path d="M125.303 24.7461C125.303 24.7461 127.285 32.3654 124.092 37.3345C124.092 37.3345 123.762 37.5554 123.762 37.2241C123.762 36.7824 125.083 33.9114 125.303 31.482C125.634 29.0527 125.303 24.7461 125.303 24.7461Z" fill="url(#paint68_linear_1699_7269)"/>
<path d="M110.769 34.4634C110.769 34.4634 115.723 38.3283 121.449 37.224C121.449 37.224 121.779 37.1136 121.449 37.0032C121.119 36.8927 118.146 36.8927 116.164 36.451C114.182 36.0093 110.769 34.4634 110.769 34.4634Z" fill="url(#paint69_linear_1699_7269)"/>
<path d="M131.691 41.3096C131.691 41.3096 130.369 49.0393 125.304 52.2416C125.304 52.2416 124.864 52.3521 125.084 52.0208C125.304 51.6895 127.617 49.481 128.938 47.4934C130.149 45.2849 131.691 41.3096 131.691 41.3096Z" fill="url(#paint70_linear_1699_7269)"/>
<path d="M114.072 45.1743C114.072 45.1743 117.816 50.2539 123.542 50.806C123.542 50.806 123.982 50.806 123.652 50.5851C123.321 50.3643 120.569 49.5913 118.697 48.5975C116.935 47.6037 114.072 45.1743 114.072 45.1743Z" fill="url(#paint71_linear_1699_7269)"/>
<path d="M131.69 57.9834C131.69 57.9834 128.276 65.0506 122.661 66.8174C122.661 66.8174 122.22 66.8174 122.551 66.4861C122.881 66.1548 125.744 64.8297 127.395 63.1734C129.157 61.517 131.69 57.9834 131.69 57.9834Z" fill="url(#paint72_linear_1699_7269)"/>
<path d="M113.632 56.6587C113.632 56.6587 115.834 62.5112 121.229 64.6093C121.229 64.6093 121.67 64.6093 121.339 64.3884C121.119 64.1676 118.587 62.6216 117.155 61.0757C115.724 59.7506 113.632 56.6587 113.632 56.6587Z" fill="url(#paint73_linear_1699_7269)"/>
<path d="M126.955 74.106C126.955 74.106 121.23 79.5168 115.394 79.0751C115.394 79.0751 114.954 78.8542 115.394 78.7438C115.724 78.6334 118.917 78.3021 121.12 77.4187C123.322 76.4249 126.955 74.106 126.955 74.106Z" fill="url(#paint74_linear_1699_7269)"/>
<path d="M110.329 66.376C110.329 66.376 109.998 72.6702 114.072 76.7559C114.072 76.7559 114.403 76.9767 114.293 76.6455C114.183 76.3142 112.531 73.8849 111.76 71.8972C110.989 70.02 110.329 66.376 110.329 66.376Z" fill="url(#paint75_linear_1699_7269)"/>
<path d="M116.495 87.688C116.495 87.688 109.338 90.7799 103.942 88.3505C103.942 88.3505 103.612 88.0193 104.052 88.0193C104.493 88.0193 107.576 88.7922 109.888 88.6818C112.31 88.6818 116.495 87.688 116.495 87.688Z" fill="url(#paint76_linear_1699_7269)"/>
<path d="M103.061 74.7686C103.061 74.7686 100.529 80.5106 103.061 85.811C103.061 85.811 103.281 86.1423 103.281 85.7006C103.281 85.3693 102.511 82.4983 102.511 80.4002C102.511 78.4126 103.061 74.7686 103.061 74.7686Z" fill="url(#paint77_linear_1699_7269)"/>
<path d="M103.282 96.8537C103.282 96.8537 95.684 98.7309 90.7291 95.4182C90.7291 95.4182 90.5089 95.0869 90.8392 95.0869C91.2797 95.0869 94.1425 96.412 96.4548 96.7433C98.9873 97.0745 103.282 96.8537 103.282 96.8537Z" fill="url(#paint78_linear_1699_7269)"/>
<path d="M92.9318 81.8359C92.9318 81.8359 89.5184 87.1363 91.0599 92.768C91.0599 92.768 91.2802 93.0993 91.2802 92.768C91.3903 92.4367 91.06 89.4552 91.3903 87.4676C91.8307 85.3695 92.9318 81.8359 92.9318 81.8359Z" fill="url(#paint79_linear_1699_7269)"/>
<path d="M89.7381 103.037C89.7381 103.037 81.9204 103.92 77.516 99.9452C77.516 99.9452 77.2958 99.5035 77.7362 99.6139C78.1766 99.7243 80.8193 101.381 83.1316 102.043C85.3337 102.706 89.7381 103.037 89.7381 103.037Z" fill="url(#paint80_linear_1699_7269)"/>
<path d="M81.37 86.915C81.37 86.915 77.296 91.6633 78.0668 97.5158C78.0668 97.5158 78.1769 97.8471 78.287 97.5158C78.3971 97.1845 78.5072 94.2031 79.0577 92.2154C79.8285 90.2278 81.37 86.915 81.37 86.915Z" fill="url(#paint81_linear_1699_7269)"/>
<g opacity="0.32">
<path opacity="0.32" d="M126.405 58.3152C125.194 59.0881 124.313 60.1924 123.652 61.1862C123.763 60.5237 123.983 59.8611 124.093 59.1986L124.533 56.8796C124.643 56.1067 124.754 55.3337 124.754 54.4503L124.864 53.2356C124.864 53.1252 124.864 53.0148 124.864 52.9044C127.066 53.2356 128.828 52.7939 130.039 51.6897C130.699 51.1376 131.14 50.3646 131.58 49.5916C131.911 48.8186 132.241 47.8248 132.461 46.9414C132.681 46.058 132.681 45.0642 132.681 44.1808C132.681 43.7391 132.681 43.2974 132.681 42.8557C132.681 42.414 132.571 42.0827 132.571 41.7514C132.461 41.0889 132.351 40.4263 132.351 39.9846C132.241 39.5429 132.241 39.3221 132.241 39.3221C129.488 40.3159 127.727 41.641 126.625 43.0765C126.075 43.7391 125.634 44.5121 125.304 45.285C125.084 45.7267 124.974 46.1684 124.864 46.6101C124.643 43.8495 124.093 41.0889 123.322 38.3283C125.524 37.997 126.956 37.0032 127.837 35.4572C128.277 34.6843 128.497 33.8009 128.607 32.9175C128.717 32.0341 128.717 31.0402 128.497 30.1568C128.277 28.2796 127.506 26.5128 126.956 25.1877C126.625 24.5252 126.295 24.0835 126.185 23.6418C125.965 23.3105 125.855 23.0896 125.855 23.0896C123.542 24.9669 122.331 26.7337 121.781 28.5005C121.23 29.936 121.23 31.2611 121.34 32.4758C121.12 31.9236 120.79 31.3715 120.569 30.8194C119.578 28.8317 118.477 26.9545 117.156 25.1877C119.248 24.0835 120.239 22.648 120.569 20.9916C120.9 19.3352 120.459 17.458 119.689 15.8016C118.918 14.1452 117.817 12.7097 116.826 11.7159C115.945 10.7221 115.174 10.1699 115.174 10.1699C113.522 12.5993 112.862 14.5869 112.752 16.4642C112.642 18.0101 112.972 19.4456 113.522 20.5499C112.091 18.8935 110.439 17.2371 108.788 15.8016C108.347 15.3599 107.797 15.0286 107.356 14.5869C109.008 13.041 109.669 11.3846 109.669 9.72825C109.559 8.07188 108.678 6.4155 107.577 5.09041C106.475 3.65488 105.044 2.55063 103.943 1.77766C102.842 1.00469 101.961 0.562988 101.961 0.562988C100.86 3.32361 100.75 5.42168 101.08 7.18848C101.3 8.73442 101.961 9.83867 102.732 10.8325C102.291 10.5012 101.851 10.1699 101.3 9.83867C99.3184 8.51357 97.3364 7.2989 95.2443 6.19465C94.2534 3.98616 91.2804 0.121289 83.4627 2.77148C83.4627 2.77148 87.5367 10.9429 94.3635 8.29273C96.3454 9.28655 98.2173 10.5012 100.089 11.7159C100.199 11.7159 100.199 11.8263 100.309 11.8263C98.8779 12.0472 97.6667 12.8201 96.6758 13.7035C95.5747 14.6974 94.6938 15.912 94.1432 16.7954C93.5927 17.6788 93.2624 18.4518 93.2624 18.4518C95.5747 19.4456 97.4465 19.7769 99.0982 19.5561C100.75 19.4456 102.071 18.7831 103.062 18.0101C104.053 17.2371 104.714 16.3537 105.264 15.5808C105.925 16.1329 106.696 16.7954 107.356 17.458C108.568 18.5622 109.669 19.6665 110.77 20.7707C109.448 20.6603 108.127 21.102 107.026 21.7646C105.705 22.4271 104.604 23.4209 103.833 24.1939C103.062 24.9669 102.512 25.519 102.512 25.519C104.493 26.9545 106.255 27.7275 107.797 27.9483C109.338 28.1692 110.88 27.9483 111.981 27.3962C113.082 26.9545 113.963 26.292 114.624 25.7398C116.055 27.7275 117.266 29.8256 118.367 31.9236C118.367 32.0341 118.477 32.0341 118.477 32.1445C117.266 31.7028 115.945 31.7028 114.624 32.0341C113.192 32.3653 111.761 32.9175 110.88 33.4696C109.889 34.0217 109.228 34.353 109.228 34.353C110.66 36.2302 112.091 37.3345 113.522 37.997C114.183 38.3283 114.954 38.5491 115.615 38.6595C116.275 38.77 117.046 38.77 117.707 38.77C118.918 38.6595 120.019 38.3283 120.79 37.997C121.56 40.4263 122.001 42.8557 122.331 45.285C121.891 44.9538 121.45 44.7329 121.01 44.5121C120.349 44.1808 119.578 44.0704 118.808 43.9599C117.376 43.7391 115.835 43.8495 114.734 44.0704C113.633 44.1808 112.862 44.4016 112.862 44.4016C113.633 46.6101 114.513 48.1561 115.615 49.2603C116.716 50.3646 118.037 51.0271 119.358 51.3584C120.459 51.6897 121.56 51.6897 122.441 51.6897C122.441 51.8001 122.441 51.8001 122.441 51.9105C122.441 52.2418 122.441 52.6835 122.441 53.0148L122.331 54.119C122.221 54.892 122.221 55.665 122.111 56.4379L121.671 58.6464C121.671 58.7569 121.671 58.8673 121.56 58.9777C120.79 57.9839 119.799 57.2109 118.698 56.7692C117.376 56.1067 115.945 55.7754 114.844 55.5545C113.743 55.3337 112.972 55.3337 112.972 55.3337C112.972 57.6526 113.412 59.4194 114.183 60.7445C114.954 62.0696 115.945 63.1739 117.046 63.9468C118.037 64.6094 119.028 65.0511 119.909 65.2719C119.689 66.0449 119.358 66.8179 119.028 67.4804C118.477 68.9159 117.817 70.2411 117.046 71.5661C116.936 71.787 116.826 72.0078 116.605 72.2287C116.385 70.7932 115.615 69.5785 114.624 68.5847C113.633 67.4804 112.311 66.7075 111.43 66.1553C110.439 65.6032 109.779 65.2719 109.779 65.2719C109.008 67.37 108.788 69.1368 109.008 70.6827C109.228 72.2287 109.779 73.5538 110.55 74.658C111.32 75.7623 112.311 76.5353 112.972 77.0874L113.082 77.1978C111.651 78.9646 110.109 80.5106 108.347 81.9461C107.907 82.2774 107.577 82.6086 107.136 82.9399C107.136 82.9399 107.136 82.9399 107.136 82.8295C107.466 81.2835 107.136 79.7376 106.586 78.3021C105.925 76.977 105.044 75.7623 104.383 74.8789C103.723 73.9955 103.172 73.5538 103.172 73.5538C101.631 75.431 100.75 77.0874 100.419 78.7438C100.089 80.2897 100.199 81.8356 100.64 83.0503C101.08 84.265 101.741 85.3692 102.401 86.0318L102.512 86.1422C100.309 87.4673 97.9971 88.682 95.5747 89.7862C96.1252 88.4611 96.1252 87.0256 95.7949 85.7005C95.4646 84.265 94.914 82.8295 94.4736 81.8356C94.0331 80.8418 93.5927 80.1793 93.5927 80.1793C89.2985 83.2712 88.4176 86.4735 88.858 89.1237C89.0782 90.2279 89.4086 91.2218 89.849 91.9947C87.6468 92.8781 85.3345 93.6511 83.1323 94.3137C83.5728 93.2094 83.6829 92.1052 83.5728 91.0009C83.4627 88.0194 82.1414 85.2588 82.1414 85.2588C77.0763 87.909 75.8651 91.1113 76.0854 93.7615C76.1955 94.7554 76.4157 95.6387 76.6359 96.3013C76.0854 96.5221 75.5348 96.6326 74.9843 96.8534C72.1214 97.8472 69.2586 98.8411 66.3958 100.166C63.5329 98.8411 60.6701 97.7368 57.8073 96.8534C57.2567 96.6326 56.7062 96.5221 56.1556 96.3013C56.486 95.5283 56.7062 94.6449 56.7062 93.7615C56.9264 91.1113 55.6051 87.7986 50.6502 85.2588C50.6502 85.2588 49.3289 87.909 49.2188 91.0009C49.2188 92.1052 49.3289 93.2094 49.6592 94.3137C47.3469 93.5407 45.1447 92.7677 42.9425 91.9947C43.383 91.2218 43.8234 90.2279 43.9335 89.1237C44.374 86.4735 43.4931 83.2712 39.1988 80.1793C39.1988 80.1793 38.7584 80.8418 38.318 81.8356C37.8775 82.8295 37.2169 84.1546 36.9966 85.7005C36.7764 87.0256 36.7764 88.4611 37.2169 89.7862C34.7945 88.682 32.4822 87.5777 30.28 86.1422L30.3901 86.0318C30.9406 85.3692 31.7114 84.265 32.1518 83.0503C32.5923 81.8356 32.7024 80.2897 32.3721 78.7438C32.0417 77.1978 31.1609 75.431 29.6193 73.5538C29.6193 73.5538 29.0688 74.1059 28.4081 74.8789C27.7475 75.7623 26.8666 76.8665 26.206 78.3021C25.5453 79.6272 25.215 81.1731 25.6554 82.8295C25.6554 82.8295 25.6554 82.8295 25.6554 82.9399C25.215 82.6086 24.8846 82.2774 24.4442 81.9461C22.6825 80.5106 21.1409 78.8542 19.7095 77.1978L19.8196 77.0874C20.5904 76.5353 21.5814 75.7623 22.242 74.658C23.0128 73.5538 23.5633 72.2287 23.7836 70.6827C24.0038 69.1368 23.7836 67.37 23.0128 65.2719C23.0128 65.2719 22.3521 65.6032 21.3612 66.1553C20.3702 66.7075 19.159 67.4804 18.168 68.5847C17.177 69.5785 16.4062 70.7932 16.186 72.2287C16.0759 72.0078 15.9658 71.787 15.7456 71.5661C15.0849 70.2411 14.3142 68.9159 13.7636 67.4804C13.4333 66.7075 13.2131 66.0449 12.8828 65.2719C13.7636 65.0511 14.7546 64.6094 15.7456 63.9468C16.8467 63.1739 17.8377 62.18 18.6084 60.7445C19.2691 59.309 19.7095 57.6526 19.8196 55.3337C19.8196 55.3337 19.0489 55.3337 17.9478 55.5545C16.8467 55.7754 15.4153 56.1067 14.094 56.7692C12.9929 57.3213 12.0019 57.9839 11.2311 58.9777C11.2311 58.8673 11.2311 58.7569 11.121 58.6464L10.6806 56.4379C10.5705 55.665 10.4604 54.892 10.4604 54.119L10.3503 53.0148C10.3503 52.6835 10.3503 52.2418 10.3503 51.9105C10.3503 51.8001 10.3503 51.8001 10.3503 51.6897C11.2311 51.8001 12.3322 51.6897 13.4333 51.3584C14.7546 51.0271 15.9658 50.3646 17.177 49.2603C18.2781 48.1561 19.2691 46.6101 19.9297 44.4016C19.9297 44.4016 19.159 44.1808 18.0579 44.0704C16.9568 43.9599 15.5254 43.7391 13.9839 43.9599C13.2131 44.0704 12.4423 44.1808 11.7817 44.5121C11.3412 44.7329 10.9008 44.9538 10.4604 45.285C10.7907 42.8557 11.2311 40.3159 12.0019 37.997C12.7727 38.3283 13.8737 38.6595 15.0849 38.77C15.7456 38.77 16.4063 38.77 17.177 38.6595C17.8377 38.5491 18.6084 38.3283 19.2691 37.997C20.7005 37.3345 22.1319 36.2302 23.5633 34.353C23.5633 34.353 22.9027 33.9113 21.9117 33.4696C20.9207 32.9175 19.5994 32.3653 18.168 32.0341C16.9568 31.8132 15.6355 31.7028 14.3142 32.1445C14.3142 32.0341 14.4243 32.0341 14.4243 31.9236C15.5254 29.7151 16.7366 27.7275 18.168 25.7398C18.8286 26.292 19.7095 26.9545 20.8106 27.3962C22.0218 27.8379 23.4532 28.1692 24.9948 27.9483C26.6464 27.7275 28.298 26.9545 30.28 25.519C30.28 25.519 29.8396 24.9669 28.9587 24.1939C28.1879 23.4209 26.9767 22.4271 25.7655 21.7646C24.6644 21.2124 23.3431 20.7707 22.0218 20.7707C23.1229 19.5561 24.224 18.4518 25.4352 17.458C26.0958 16.7954 26.8666 16.2433 27.5273 15.5808C27.9677 16.3537 28.7385 17.2371 29.7294 18.0101C30.8305 18.7831 32.1518 19.4456 33.6934 19.5561C35.345 19.6665 37.2169 19.3352 39.5292 18.4518C39.5292 18.4518 39.1988 17.7893 38.6483 16.7954C38.318 16.0225 37.5472 14.8078 36.336 13.814C35.345 12.9306 34.1338 12.1576 32.7024 11.9367C32.8125 11.9367 32.8125 11.8263 32.9226 11.8263C34.7945 10.6116 36.6663 9.39697 38.6483 8.40315C45.5852 11.0533 49.5491 2.88191 49.5491 2.88191C41.8414 0.231714 38.8685 4.09658 37.8775 6.30508C35.7854 7.40933 33.8035 8.624 31.8215 9.9491C31.3811 10.2804 30.8305 10.6116 30.3901 10.9429C31.1609 9.9491 31.7114 8.73442 32.0417 7.2989C32.3721 5.5321 32.262 3.32361 31.1609 0.673413C31.1609 0.673413 30.28 1.11511 29.1789 1.88809C28.0778 2.66106 26.6464 3.76531 25.5453 5.20083C24.4442 6.52593 23.5633 8.1823 23.4532 9.83867C23.3431 11.495 24.0038 13.1514 25.7655 14.6974C25.3251 15.1391 24.7745 15.4703 24.3341 15.912C22.6825 17.458 21.1409 19.0039 19.5994 20.6603C20.15 19.4456 20.4803 18.1205 20.3702 16.5746C20.2601 14.8078 19.5994 12.7097 17.9478 10.2804C17.9478 10.2804 17.2871 10.8325 16.2961 11.8263C15.4153 12.8201 14.3142 14.2557 13.4333 15.912C12.6625 17.5684 12.2221 19.4456 12.5524 21.102C12.8828 22.7584 13.9839 24.1939 15.9658 25.2981C14.7546 27.0649 13.5434 28.9422 12.5524 30.9298C12.2221 31.4819 12.0019 32.0341 11.7817 32.5862C11.8918 31.3715 11.7817 30.0464 11.3412 28.6109C10.7907 26.9545 9.57949 25.0773 7.2672 23.2001C7.2672 23.2001 7.15709 23.4209 6.93687 23.7522C6.71665 24.0835 6.38633 24.6356 6.16611 25.2981C5.50545 26.6232 4.8448 28.39 4.62458 30.2673C4.51447 31.1507 4.40436 32.1445 4.51447 33.0279C4.62458 33.9113 4.8448 34.7947 5.28524 35.5677C6.056 37.0032 7.48742 37.997 9.79971 38.4387C9.02894 41.0889 8.58851 43.8495 8.25818 46.7206C8.14807 46.2789 8.03796 45.8372 7.81774 45.3955C7.48742 44.6225 7.04698 43.9599 6.49644 43.187C5.39534 41.7514 3.6336 40.4263 0.880872 39.4325C0.880872 39.4325 0.770763 39.6534 0.770763 40.0951C0.660654 40.5368 0.550545 41.0889 0.550545 41.8619C0.550545 42.1931 0.440436 42.6348 0.440436 42.9661C0.440436 43.4078 0.440436 43.8495 0.440436 44.2912C0.440436 45.1746 0.440436 46.1684 0.660654 47.0518C0.880873 47.9352 1.10109 48.8186 1.54153 49.702C1.98196 50.475 2.4224 51.248 3.08305 51.8001C4.29425 52.9044 5.94589 53.3461 8.25818 53.0148C8.25818 53.1252 8.25818 53.2356 8.25818 53.3461L8.36829 54.5607C8.4784 55.3337 8.4784 56.2171 8.58851 56.9901L8.80873 59.0881C8.91883 59.7507 9.02894 60.4132 9.24916 61.0758C8.58851 60.082 7.70763 59.0881 6.49644 58.3152C4.95491 57.3213 2.86284 56.5484 0 56.5484C0 56.5484 0 56.7692 0 57.2109C0 57.6526 0.110109 58.2047 0.220218 58.8673C0.330327 59.5298 0.550545 60.4132 0.880872 61.1862C1.10109 62.0696 1.54153 62.953 1.98196 63.726C2.4224 64.6094 2.97294 65.3824 3.6336 66.0449C4.29425 66.7075 4.95491 67.2596 5.72567 67.5909C7.2672 68.2534 8.91883 68.143 10.9008 67.1491C11.0109 67.5909 11.2311 68.0325 11.4513 68.4743C12.0019 70.0202 12.7727 71.4557 13.5434 72.8912C13.7636 73.2225 13.9839 73.5538 14.2041 73.9955C14.094 73.8851 13.9839 73.8851 13.8737 73.7746C13.2131 73.4434 12.4423 73.1121 11.5615 72.8912C9.79971 72.3391 7.59753 72.3391 4.8448 73.2225C4.8448 73.2225 5.17513 74.1059 5.94589 75.431C6.71665 76.6457 7.92785 78.1916 9.35927 79.4063C10.7907 80.621 12.5524 81.5044 14.2041 81.6148C15.6355 81.7252 17.177 81.0627 18.4983 79.7376C19.8196 81.2835 21.1409 82.6086 22.6825 83.9337C22.9027 84.1546 23.1229 84.265 23.3431 84.4858C22.6825 84.3754 22.0218 84.3754 21.251 84.4858C19.4893 84.7067 17.3972 85.4797 15.0849 87.2465C15.0849 87.2465 15.3052 87.4673 15.5254 87.6882C15.8557 88.0194 16.2961 88.3507 16.8467 88.7924C17.9478 89.6758 19.4893 90.6696 21.1409 91.3322C22.7926 91.9947 24.6644 92.326 26.206 91.8843C27.6374 91.553 28.8486 90.5592 29.7294 88.9028C31.8215 90.1175 33.9136 91.2218 36.0057 92.2156C33.6934 92.326 30.9406 93.4303 28.298 96.9639C28.298 96.9639 28.5182 97.0743 28.8486 97.2951C29.1789 97.516 29.6193 97.7368 30.28 98.0681C31.4912 98.6202 33.0327 99.2828 34.7945 99.5036C38.0977 100.056 41.5111 99.2828 42.8324 94.9762C45.475 95.97 48.0076 96.8534 50.6502 97.6264C48.0076 97.6264 44.9245 98.8411 42.392 103.479C42.392 103.479 45.475 104.914 48.6682 105.025C51.8614 105.135 55.2748 104.031 56.1556 99.5036C56.3758 99.614 56.5961 99.614 56.9264 99.7245C59.0185 100.497 61.1105 101.27 63.2026 102.154C61.3307 103.368 59.569 104.694 58.1376 106.46C57.9174 106.792 57.8073 107.123 57.8073 107.565C57.8073 107.785 57.9174 107.896 57.9174 108.117C57.9174 108.227 58.0275 108.227 58.0275 108.338C58.1376 108.448 58.1376 108.448 58.2477 108.558C58.9083 109.111 59.7892 109 60.3398 108.338C61.8813 106.46 63.9734 104.914 66.2857 103.7C68.5979 104.914 70.69 106.46 72.2315 108.338C72.7821 109 73.663 109.111 74.3236 108.558C74.4337 108.448 74.4337 108.448 74.5438 108.338C74.5438 108.227 74.654 108.227 74.654 108.117C74.8742 107.565 74.8742 106.902 74.4337 106.46C73.0023 104.694 71.2406 103.258 69.3687 102.154C71.3507 101.27 73.5528 100.497 75.6449 99.7245C75.8651 99.614 76.0854 99.614 76.4157 99.5036C77.4067 104.031 80.7099 105.246 83.9031 105.025C87.0963 104.914 90.1793 103.479 90.1793 103.479C87.6468 98.7306 84.5638 97.516 81.9212 97.6264C84.5638 96.743 87.0963 95.8596 89.7389 94.9762C91.0602 99.1723 94.4736 100.056 97.7768 99.5036C99.4285 99.1723 101.08 98.6202 102.291 98.0681C102.842 97.8473 103.392 97.516 103.723 97.2951C104.053 97.0743 104.273 96.9639 104.273 96.9639C101.631 93.4303 98.8779 92.326 96.5656 92.2156C98.7678 91.2218 100.86 90.1175 102.842 88.9028C103.833 90.5592 105.044 91.4426 106.365 91.8843C108.017 92.326 109.779 91.9947 111.43 91.3322C113.082 90.6696 114.624 89.6758 115.725 88.7924C116.275 88.3507 116.716 87.909 117.046 87.6882C117.376 87.3569 117.486 87.2465 117.486 87.2465C115.174 85.3692 113.192 84.7067 111.32 84.4858C110.549 84.3754 109.889 84.3754 109.228 84.4858C109.448 84.265 109.669 84.1546 109.889 83.9337C111.43 82.6086 112.752 81.2835 114.073 79.7376C115.394 81.0627 116.826 81.6148 118.367 81.6148C120.019 81.5044 121.781 80.621 123.212 79.4063C124.643 78.1916 125.855 76.6457 126.625 75.431C127.396 74.2163 127.727 73.2225 127.727 73.2225C124.974 72.3391 122.772 72.3391 121.01 72.6704C120.129 72.8912 119.358 73.2225 118.698 73.5538C118.587 73.6642 118.477 73.6642 118.367 73.7746C118.587 73.4434 118.808 73.1121 119.028 72.6704C119.799 71.2349 120.569 69.7993 121.12 68.2534C121.34 67.8117 121.45 67.37 121.671 66.9283C123.652 67.9221 125.304 68.0325 126.846 67.37C127.616 67.0387 128.387 66.4866 128.938 65.8241C129.598 65.1615 130.149 64.3885 130.589 63.5051C131.03 62.6217 131.47 61.8488 131.69 60.9654C132.021 60.082 132.241 59.309 132.351 58.6464C132.461 57.9839 132.571 57.3213 132.571 56.9901C132.571 56.5484 132.571 56.3275 132.571 56.3275C130.039 56.5484 127.947 57.3213 126.405 58.3152Z" fill="url(#paint82_radial_1699_7269)"/>
</g>
<defs>
<radialGradient id="paint0_radial_1699_7269" cx="0" cy="0" r="1" gradientUnits="userSpaceOnUse" gradientTransform="translate(61.8182 46.334) scale(63.4344 63.6163)">
<stop offset="0.083784" stop-color="#D18D2F"/>
<stop offset="0.4141" stop-color="#FDD35C"/>
<stop offset="0.5426" stop-color="#FDD056"/>
<stop offset="0.709" stop-color="#FEC746"/>
<stop offset="0.7423" stop-color="#FEC542"/>
<stop offset="1" stop-color="#CD994D"/>
</radialGradient>
<radialGradient id="paint1_radial_1699_7269" cx="0" cy="0" r="1" gradientUnits="userSpaceOnUse" gradientTransform="translate(61.8182 46.334) scale(63.4344 63.6163)">
<stop offset="0.083784" stop-color="#D18D2F"/>
<stop offset="0.4141" stop-color="#FDD35C"/>
<stop offset="0.5426" stop-color="#FDD056"/>
<stop offset="0.709" stop-color="#FEC746"/>
<stop offset="0.7423" stop-color="#FEC542"/>
<stop offset="1" stop-color="#CD994D"/>
</radialGradient>
<linearGradient id="paint2_linear_1699_7269" x1="8.90145" y1="57.1654" x2="75.0929" y2="57.1654" gradientUnits="userSpaceOnUse">
<stop stop-color="#BC7610"/>
<stop offset="0.1405" stop-color="#EBAC2A"/>
<stop offset="0.2446" stop-color="#CD994D"/>
<stop offset="0.7081" stop-color="#BC7610"/>
</linearGradient>
<linearGradient id="paint3_linear_1699_7269" x1="37.6994" y1="7.97583" x2="49.9997" y2="2.02631" gradientUnits="userSpaceOnUse">
<stop offset="0.083784" stop-color="#D18D2F"/>
<stop offset="0.4141" stop-color="#FDD35C"/>
<stop offset="0.5426" stop-color="#FDD056"/>
<stop offset="0.709" stop-color="#FEC746"/>
<stop offset="0.7423" stop-color="#FEC542"/>
<stop offset="1" stop-color="#CD994D"/>
</linearGradient>
<linearGradient id="paint4_linear_1699_7269" x1="55.0744" y1="98.2863" x2="50.5278" y2="85.298" gradientUnits="userSpaceOnUse">
<stop offset="0.083784" stop-color="#D18D2F"/>
<stop offset="0.4141" stop-color="#FDD35C"/>
<stop offset="0.5426" stop-color="#FDD056"/>
<stop offset="0.709" stop-color="#FEC746"/>
<stop offset="0.7423" stop-color="#FEC542"/>
<stop offset="1" stop-color="#CD994D"/>
</linearGradient>
<linearGradient id="paint5_linear_1699_7269" x1="56.1102" y1="99.4806" x2="42.4102" y2="103.811" gradientUnits="userSpaceOnUse">
<stop offset="0.083784" stop-color="#D18D2F"/>
<stop offset="0.4141" stop-color="#FDD35C"/>
<stop offset="0.5426" stop-color="#FDD056"/>
<stop offset="0.709" stop-color="#FEC746"/>
<stop offset="0.7423" stop-color="#FEC542"/>
<stop offset="1" stop-color="#CD994D"/>
</linearGradient>
<linearGradient id="paint6_linear_1699_7269" x1="41.8849" y1="93.7039" x2="38.8118" y2="80.4049" gradientUnits="userSpaceOnUse">
<stop offset="0.083784" stop-color="#D18D2F"/>
<stop offset="0.4141" stop-color="#FDD35C"/>
<stop offset="0.5426" stop-color="#FDD056"/>
<stop offset="0.709" stop-color="#FEC746"/>
<stop offset="0.7423" stop-color="#FEC542"/>
<stop offset="1" stop-color="#CD994D"/>
</linearGradient>
<linearGradient id="paint7_linear_1699_7269" x1="43.112" y1="94.4376" x2="28.9261" y2="97.6691" gradientUnits="userSpaceOnUse">
<stop offset="0.083784" stop-color="#D18D2F"/>
<stop offset="0.4141" stop-color="#FDD35C"/>
<stop offset="0.5426" stop-color="#FDD056"/>
<stop offset="0.709" stop-color="#FEC746"/>
<stop offset="0.7423" stop-color="#FEC542"/>
<stop offset="1" stop-color="#CD994D"/>
</linearGradient>
<linearGradient id="paint8_linear_1699_7269" x1="28.844" y1="87.3302" x2="29.3359" y2="73.3531" gradientUnits="userSpaceOnUse">
<stop offset="0.083784" stop-color="#D18D2F"/>
<stop offset="0.4141" stop-color="#FDD35C"/>
<stop offset="0.5426" stop-color="#FDD056"/>
<stop offset="0.709" stop-color="#FEC746"/>
<stop offset="0.7423" stop-color="#FEC542"/>
<stop offset="1" stop-color="#CD994D"/>
</linearGradient>
<linearGradient id="paint9_linear_1699_7269" x1="30.6249" y1="88.6566" x2="14.4867" y2="87.7423" gradientUnits="userSpaceOnUse">
<stop offset="0.083784" stop-color="#D18D2F"/>
<stop offset="0.4141" stop-color="#FDD35C"/>
<stop offset="0.5426" stop-color="#FDD056"/>
<stop offset="0.709" stop-color="#FEC746"/>
<stop offset="0.7423" stop-color="#FEC542"/>
<stop offset="1" stop-color="#CD994D"/>
</linearGradient>
<linearGradient id="paint10_linear_1699_7269" x1="17.5341" y1="78.209" x2="22.756" y2="64.7936" gradientUnits="userSpaceOnUse">
<stop offset="0.083784" stop-color="#D18D2F"/>
<stop offset="0.4141" stop-color="#FDD35C"/>
<stop offset="0.5426" stop-color="#FDD056"/>
<stop offset="0.709" stop-color="#FEC746"/>
<stop offset="0.7423" stop-color="#FEC542"/>
<stop offset="1" stop-color="#CD994D"/>
</linearGradient>
<linearGradient id="paint11_linear_1699_7269" x1="18.6046" y1="79.6075" x2="4.83975" y2="74.0563" gradientUnits="userSpaceOnUse">
<stop offset="0.083784" stop-color="#D18D2F"/>
<stop offset="0.4141" stop-color="#FDD35C"/>
<stop offset="0.5426" stop-color="#FDD056"/>
<stop offset="0.709" stop-color="#FEC746"/>
<stop offset="0.7423" stop-color="#FEC542"/>
<stop offset="1" stop-color="#CD994D"/>
</linearGradient>
<linearGradient id="paint12_linear_1699_7269" x1="10.7753" y1="65.08" x2="19.3619" y2="54.9279" gradientUnits="userSpaceOnUse">
<stop offset="0.083784" stop-color="#D18D2F"/>
<stop offset="0.4141" stop-color="#FDD35C"/>
<stop offset="0.5426" stop-color="#FDD056"/>
<stop offset="0.709" stop-color="#FEC746"/>
<stop offset="0.7423" stop-color="#FEC542"/>
<stop offset="1" stop-color="#CD994D"/>
</linearGradient>
<linearGradient id="paint13_linear_1699_7269" x1="10.9425" y1="67.2057" x2="-0.884598" y2="56.879" gradientUnits="userSpaceOnUse">
<stop offset="0.083784" stop-color="#D18D2F"/>
<stop offset="0.4141" stop-color="#FDD35C"/>
<stop offset="0.5426" stop-color="#FDD056"/>
<stop offset="0.709" stop-color="#FEC746"/>
<stop offset="0.7423" stop-color="#FEC542"/>
<stop offset="1" stop-color="#CD994D"/>
</linearGradient>
<linearGradient id="paint14_linear_1699_7269" x1="8.73464" y1="50.5576" x2="19.6929" y2="44.0868" gradientUnits="userSpaceOnUse">
<stop offset="0.083784" stop-color="#D18D2F"/>
<stop offset="0.4141" stop-color="#FDD35C"/>
<stop offset="0.5426" stop-color="#FDD056"/>
<stop offset="0.709" stop-color="#FEC746"/>
<stop offset="0.7423" stop-color="#FEC542"/>
<stop offset="1" stop-color="#CD994D"/>
</linearGradient>
<linearGradient id="paint15_linear_1699_7269" x1="7.25527" y1="52.8182" x2="0.991458" y2="40.2652" gradientUnits="userSpaceOnUse">
<stop offset="0.083784" stop-color="#D18D2F"/>
<stop offset="0.4141" stop-color="#FDD35C"/>
<stop offset="0.5426" stop-color="#FDD056"/>
<stop offset="0.709" stop-color="#FEC746"/>
<stop offset="0.7423" stop-color="#FEC542"/>
<stop offset="1" stop-color="#CD994D"/>
</linearGradient>
<linearGradient id="paint16_linear_1699_7269" x1="11.2127" y1="36.3376" x2="24.1439" y2="33.8685" gradientUnits="userSpaceOnUse">
<stop offset="0.083784" stop-color="#D18D2F"/>
<stop offset="0.4141" stop-color="#FDD35C"/>
<stop offset="0.5426" stop-color="#FDD056"/>
<stop offset="0.709" stop-color="#FEC746"/>
<stop offset="0.7423" stop-color="#FEC542"/>
<stop offset="1" stop-color="#CD994D"/>
</linearGradient>
<linearGradient id="paint17_linear_1699_7269" x1="9.19023" y1="37.4506" x2="6.33207" y2="23.2008" gradientUnits="userSpaceOnUse">
<stop offset="0.083784" stop-color="#D18D2F"/>
<stop offset="0.4141" stop-color="#FDD35C"/>
<stop offset="0.5426" stop-color="#FDD056"/>
<stop offset="0.709" stop-color="#FEC746"/>
<stop offset="0.7423" stop-color="#FEC542"/>
<stop offset="1" stop-color="#CD994D"/>
</linearGradient>
<linearGradient id="paint18_linear_1699_7269" x1="16.8637" y1="24.2232" x2="30.3642" y2="24.7714" gradientUnits="userSpaceOnUse">
<stop offset="0.0619214" stop-color="#D18D2F"/>
<stop offset="0.083784" stop-color="#D18D2F"/>
<stop offset="0.4141" stop-color="#FDD35C"/>
<stop offset="0.5426" stop-color="#FDD056"/>
<stop offset="0.709" stop-color="#FEC746"/>
<stop offset="0.7423" stop-color="#FEC542"/>
<stop offset="1" stop-color="#CD994D"/>
</linearGradient>
<linearGradient id="paint19_linear_1699_7269" x1="15.4496" y1="24.8476" x2="17.5703" y2="9.76868" gradientUnits="userSpaceOnUse">
<stop offset="0.083784" stop-color="#D18D2F"/>
<stop offset="0.4141" stop-color="#FDD35C"/>
<stop offset="0.5426" stop-color="#FDD056"/>
<stop offset="0.709" stop-color="#FEC746"/>
<stop offset="0.7423" stop-color="#FEC542"/>
<stop offset="1" stop-color="#CD994D"/>
</linearGradient>
<linearGradient id="paint20_linear_1699_7269" x1="27.8253" y1="13.6352" x2="40.6729" y2="18.8511" gradientUnits="userSpaceOnUse">
<stop offset="0.083784" stop-color="#D18D2F"/>
<stop offset="0.4141" stop-color="#FDD35C"/>
<stop offset="0.5426" stop-color="#FDD056"/>
<stop offset="0.709" stop-color="#FEC746"/>
<stop offset="0.7423" stop-color="#FEC542"/>
<stop offset="1" stop-color="#CD994D"/>
</linearGradient>
<linearGradient id="paint21_linear_1699_7269" x1="26.2613" y1="13.2541" x2="29.7641" y2="0.937404" gradientUnits="userSpaceOnUse">
<stop offset="0.083784" stop-color="#D18D2F"/>
<stop offset="0.4141" stop-color="#FDD35C"/>
<stop offset="0.5426" stop-color="#FDD056"/>
<stop offset="0.709" stop-color="#FEC746"/>
<stop offset="0.7423" stop-color="#FEC542"/>
<stop offset="1" stop-color="#CD994D"/>
</linearGradient>
<linearGradient id="paint22_linear_1699_7269" x1="46.5491" y1="6.09501" x2="40.5254" y2="4.35708" gradientUnits="userSpaceOnUse">
<stop stop-color="#BC7610"/>
<stop offset="0.1405" stop-color="#EBAC2A"/>
<stop offset="0.2446" stop-color="#CD994D"/>
<stop offset="0.7081" stop-color="#BC7610"/>
</linearGradient>
<linearGradient id="paint23_linear_1699_7269" x1="29.2466" y1="3.33724" x2="25.4692" y2="13.1436" gradientUnits="userSpaceOnUse">
<stop stop-color="#BC7610"/>
<stop offset="0.1405" stop-color="#EBAC2A"/>
<stop offset="0.2446" stop-color="#CD994D"/>
<stop offset="0.7081" stop-color="#BC7610"/>
</linearGradient>
<linearGradient id="paint24_linear_1699_7269" x1="37.0735" y1="18.0956" x2="27.5391" y2="16.294" gradientUnits="userSpaceOnUse">
<stop stop-color="#BC7610"/>
<stop offset="0.1405" stop-color="#EBAC2A"/>
<stop offset="0.2446" stop-color="#CD994D"/>
<stop offset="0.7081" stop-color="#BC7610"/>
</linearGradient>
<linearGradient id="paint25_linear_1699_7269" x1="17.3271" y1="13.5388" x2="15.1991" y2="23.805" gradientUnits="userSpaceOnUse">
<stop stop-color="#BC7610"/>
<stop offset="0.1405" stop-color="#EBAC2A"/>
<stop offset="0.2446" stop-color="#CD994D"/>
<stop offset="0.7081" stop-color="#BC7610"/>
</linearGradient>
<linearGradient id="paint26_linear_1699_7269" x1="27.4114" y1="25.4697" x2="18.6661" y2="27.1544" gradientUnits="userSpaceOnUse">
<stop stop-color="#BC7610"/>
<stop offset="0.1405" stop-color="#EBAC2A"/>
<stop offset="0.2446" stop-color="#CD994D"/>
<stop offset="0.7081" stop-color="#BC7610"/>
</linearGradient>
<linearGradient id="paint27_linear_1699_7269" x1="7.47852" y1="26.7705" x2="8.41413" y2="37.2141" gradientUnits="userSpaceOnUse">
<stop stop-color="#BC7610"/>
<stop offset="0.1405" stop-color="#EBAC2A"/>
<stop offset="0.2446" stop-color="#CD994D"/>
<stop offset="0.7081" stop-color="#BC7610"/>
</linearGradient>
<linearGradient id="paint28_linear_1699_7269" x1="20.5687" y1="35.2725" x2="12.6756" y2="39.4076" gradientUnits="userSpaceOnUse">
<stop stop-color="#BC7610"/>
<stop offset="0.1405" stop-color="#EBAC2A"/>
<stop offset="0.2446" stop-color="#CD994D"/>
<stop offset="0.7081" stop-color="#BC7610"/>
</linearGradient>
<linearGradient id="paint29_linear_1699_7269" x1="1.93443" y1="43.2111" x2="7.17747" y2="52.2832" gradientUnits="userSpaceOnUse">
<stop stop-color="#BC7610"/>
<stop offset="0.1405" stop-color="#EBAC2A"/>
<stop offset="0.2446" stop-color="#CD994D"/>
<stop offset="0.7081" stop-color="#BC7610"/>
</linearGradient>
<linearGradient id="paint30_linear_1699_7269" x1="17.6338" y1="46.4213" x2="11.2105" y2="52.6069" gradientUnits="userSpaceOnUse">
<stop stop-color="#BC7610"/>
<stop offset="0.1405" stop-color="#EBAC2A"/>
<stop offset="0.2446" stop-color="#CD994D"/>
<stop offset="0.7081" stop-color="#BC7610"/>
</linearGradient>
<linearGradient id="paint31_linear_1699_7269" x1="2.42913" y1="59.6584" x2="9.9009" y2="66.9933" gradientUnits="userSpaceOnUse">
<stop stop-color="#BC7610"/>
<stop offset="0.1405" stop-color="#EBAC2A"/>
<stop offset="0.2446" stop-color="#CD994D"/>
<stop offset="0.7081" stop-color="#BC7610"/>
</linearGradient>
<linearGradient id="paint32_linear_1699_7269" x1="18.4129" y1="58.1773" x2="13.8731" y2="65.8605" gradientUnits="userSpaceOnUse">
<stop stop-color="#BC7610"/>
<stop offset="0.1405" stop-color="#EBAC2A"/>
<stop offset="0.2446" stop-color="#CD994D"/>
<stop offset="0.7081" stop-color="#BC7610"/>
</linearGradient>
<linearGradient id="paint33_linear_1699_7269" x1="7.67235" y1="75.2464" x2="17.2725" y2="79.4007" gradientUnits="userSpaceOnUse">
<stop stop-color="#BC7610"/>
<stop offset="0.1405" stop-color="#EBAC2A"/>
<stop offset="0.2446" stop-color="#CD994D"/>
<stop offset="0.7081" stop-color="#BC7610"/>
</linearGradient>
<linearGradient id="paint34_linear_1699_7269" x1="22.4211" y1="68.1598" x2="21.4108" y2="77.0329" gradientUnits="userSpaceOnUse">
<stop stop-color="#BC7610"/>
<stop offset="0.1405" stop-color="#EBAC2A"/>
<stop offset="0.2446" stop-color="#CD994D"/>
<stop offset="0.7081" stop-color="#BC7610"/>
</linearGradient>
<linearGradient id="paint35_linear_1699_7269" x1="18.419" y1="88.2168" x2="28.8565" y2="88.8347" gradientUnits="userSpaceOnUse">
<stop stop-color="#BC7610"/>
<stop offset="0.1405" stop-color="#EBAC2A"/>
<stop offset="0.2446" stop-color="#CD994D"/>
<stop offset="0.7081" stop-color="#BC7610"/>
</linearGradient>
<linearGradient id="paint36_linear_1699_7269" x1="30.2184" y1="76.4864" x2="32.3206" y2="85.1649" gradientUnits="userSpaceOnUse">
<stop stop-color="#BC7610"/>
<stop offset="0.1405" stop-color="#EBAC2A"/>
<stop offset="0.2446" stop-color="#CD994D"/>
<stop offset="0.7081" stop-color="#BC7610"/>
</linearGradient>
<linearGradient id="paint37_linear_1699_7269" x1="31.6809" y1="96.9659" x2="42.0809" y2="95.8828" gradientUnits="userSpaceOnUse">
<stop stop-color="#BC7610"/>
<stop offset="0.1405" stop-color="#EBAC2A"/>
<stop offset="0.2446" stop-color="#CD994D"/>
<stop offset="0.7081" stop-color="#BC7610"/>
</linearGradient>
<linearGradient id="paint38_linear_1699_7269" x1="40.6394" y1="83.4674" x2="44.1272" y2="91.685" gradientUnits="userSpaceOnUse">
<stop stop-color="#BC7610"/>
<stop offset="0.1405" stop-color="#EBAC2A"/>
<stop offset="0.2446" stop-color="#CD994D"/>
<stop offset="0.7081" stop-color="#BC7610"/>
</linearGradient>
<linearGradient id="paint39_linear_1699_7269" x1="45.2762" y1="102.931" x2="55.4468" y2="100.5" gradientUnits="userSpaceOnUse">
<stop stop-color="#BC7610"/>
<stop offset="0.1405" stop-color="#EBAC2A"/>
<stop offset="0.2446" stop-color="#CD994D"/>
<stop offset="0.7081" stop-color="#BC7610"/>
</linearGradient>
<linearGradient id="paint40_linear_1699_7269" x1="52.3954" y1="88.3724" x2="56.9289" y2="96.0594" gradientUnits="userSpaceOnUse">
<stop stop-color="#BC7610"/>
<stop offset="0.1405" stop-color="#EBAC2A"/>
<stop offset="0.2446" stop-color="#CD994D"/>
<stop offset="0.7081" stop-color="#BC7610"/>
</linearGradient>
<radialGradient id="paint41_radial_1699_7269" cx="0" cy="0" r="1" gradientUnits="userSpaceOnUse" gradientTransform="translate(71.1106 46.334) rotate(180) scale(63.4344 63.6163)">
<stop offset="0.083784" stop-color="#D18D2F"/>
<stop offset="0.4141" stop-color="#FDD35C"/>
<stop offset="0.5426" stop-color="#FDD056"/>
<stop offset="0.709" stop-color="#FEC746"/>
<stop offset="0.7423" stop-color="#FEC542"/>
<stop offset="1" stop-color="#CD994D"/>
</radialGradient>
<radialGradient id="paint42_radial_1699_7269" cx="0" cy="0" r="1" gradientUnits="userSpaceOnUse" gradientTransform="translate(71.1106 46.334) rotate(180) scale(63.4344 63.6163)">
<stop offset="0.083784" stop-color="#D18D2F"/>
<stop offset="0.4141" stop-color="#FDD35C"/>
<stop offset="0.5426" stop-color="#FDD056"/>
<stop offset="0.709" stop-color="#FEC746"/>
<stop offset="0.7423" stop-color="#FEC542"/>
<stop offset="1" stop-color="#CD994D"/>
</radialGradient>
<linearGradient id="paint43_linear_1699_7269" x1="124.028" y1="57.1653" x2="57.8366" y2="57.1653" gradientUnits="userSpaceOnUse">
<stop stop-color="#BC7610"/>
<stop offset="0.1405" stop-color="#EBAC2A"/>
<stop offset="0.2446" stop-color="#CD994D"/>
<stop offset="0.7081" stop-color="#BC7610"/>
</linearGradient>
<linearGradient id="paint44_linear_1699_7269" x1="95.2298" y1="7.97583" x2="82.9294" y2="2.0263" gradientUnits="userSpaceOnUse">
<stop offset="0.083784" stop-color="#D18D2F"/>
<stop offset="0.4141" stop-color="#FDD35C"/>
<stop offset="0.5426" stop-color="#FDD056"/>
<stop offset="0.709" stop-color="#FEC746"/>
<stop offset="0.7423" stop-color="#FEC542"/>
<stop offset="1" stop-color="#CD994D"/>
</linearGradient>
<linearGradient id="paint45_linear_1699_7269" x1="77.8551" y1="98.2863" x2="82.4017" y2="85.298" gradientUnits="userSpaceOnUse">
<stop offset="0.083784" stop-color="#D18D2F"/>
<stop offset="0.4141" stop-color="#FDD35C"/>
<stop offset="0.5426" stop-color="#FDD056"/>
<stop offset="0.709" stop-color="#FEC746"/>
<stop offset="0.7423" stop-color="#FEC542"/>
<stop offset="1" stop-color="#CD994D"/>
</linearGradient>
<linearGradient id="paint46_linear_1699_7269" x1="76.8195" y1="99.4801" x2="90.5195" y2="103.81" gradientUnits="userSpaceOnUse">
<stop offset="0.083784" stop-color="#D18D2F"/>
<stop offset="0.4141" stop-color="#FDD35C"/>
<stop offset="0.5426" stop-color="#FDD056"/>
<stop offset="0.709" stop-color="#FEC746"/>
<stop offset="0.7423" stop-color="#FEC542"/>
<stop offset="1" stop-color="#CD994D"/>
</linearGradient>
<linearGradient id="paint47_linear_1699_7269" x1="91.0436" y1="93.7039" x2="94.1167" y2="80.4049" gradientUnits="userSpaceOnUse">
<stop offset="0.083784" stop-color="#D18D2F"/>
<stop offset="0.4141" stop-color="#FDD35C"/>
<stop offset="0.5426" stop-color="#FDD056"/>
<stop offset="0.709" stop-color="#FEC746"/>
<stop offset="0.7423" stop-color="#FEC542"/>
<stop offset="1" stop-color="#CD994D"/>
</linearGradient>
<linearGradient id="paint48_linear_1699_7269" x1="89.8165" y1="94.4376" x2="104.002" y2="97.6691" gradientUnits="userSpaceOnUse">
<stop offset="0.083784" stop-color="#D18D2F"/>
<stop offset="0.4141" stop-color="#FDD35C"/>
<stop offset="0.5426" stop-color="#FDD056"/>
<stop offset="0.709" stop-color="#FEC746"/>
<stop offset="0.7423" stop-color="#FEC542"/>
<stop offset="1" stop-color="#CD994D"/>
</linearGradient>
<linearGradient id="paint49_linear_1699_7269" x1="104.085" y1="87.3302" x2="103.593" y2="73.3531" gradientUnits="userSpaceOnUse">
<stop offset="0.083784" stop-color="#D18D2F"/>
<stop offset="0.4141" stop-color="#FDD35C"/>
<stop offset="0.5426" stop-color="#FDD056"/>
<stop offset="0.709" stop-color="#FEC746"/>
<stop offset="0.7423" stop-color="#FEC542"/>
<stop offset="1" stop-color="#CD994D"/>
</linearGradient>
<linearGradient id="paint50_linear_1699_7269" x1="102.305" y1="88.6566" x2="118.443" y2="87.7423" gradientUnits="userSpaceOnUse">
<stop offset="0.083784" stop-color="#D18D2F"/>
<stop offset="0.4141" stop-color="#FDD35C"/>
<stop offset="0.5426" stop-color="#FDD056"/>
<stop offset="0.709" stop-color="#FEC746"/>
<stop offset="0.7423" stop-color="#FEC542"/>
<stop offset="1" stop-color="#CD994D"/>
</linearGradient>
<linearGradient id="paint51_linear_1699_7269" x1="115.394" y1="78.2085" x2="110.173" y2="64.7931" gradientUnits="userSpaceOnUse">
<stop offset="0.083784" stop-color="#D18D2F"/>
<stop offset="0.4141" stop-color="#FDD35C"/>
<stop offset="0.5426" stop-color="#FDD056"/>
<stop offset="0.709" stop-color="#FEC746"/>
<stop offset="0.7423" stop-color="#FEC542"/>
<stop offset="1" stop-color="#CD994D"/>
</linearGradient>
<linearGradient id="paint52_linear_1699_7269" x1="114.324" y1="79.6073" x2="128.089" y2="74.056" gradientUnits="userSpaceOnUse">
<stop offset="0.083784" stop-color="#D18D2F"/>
<stop offset="0.4141" stop-color="#FDD35C"/>
<stop offset="0.5426" stop-color="#FDD056"/>
<stop offset="0.709" stop-color="#FEC746"/>
<stop offset="0.7423" stop-color="#FEC542"/>
<stop offset="1" stop-color="#CD994D"/>
</linearGradient>
<linearGradient id="paint53_linear_1699_7269" x1="122.154" y1="65.0796" x2="113.567" y2="54.9274" gradientUnits="userSpaceOnUse">
<stop offset="0.083784" stop-color="#D18D2F"/>
<stop offset="0.4141" stop-color="#FDD35C"/>
<stop offset="0.5426" stop-color="#FDD056"/>
<stop offset="0.709" stop-color="#FEC746"/>
<stop offset="0.7423" stop-color="#FEC542"/>
<stop offset="1" stop-color="#CD994D"/>
</linearGradient>
<linearGradient id="paint54_linear_1699_7269" x1="121.987" y1="67.2047" x2="133.815" y2="56.878" gradientUnits="userSpaceOnUse">
<stop offset="0.083784" stop-color="#D18D2F"/>
<stop offset="0.4141" stop-color="#FDD35C"/>
<stop offset="0.5426" stop-color="#FDD056"/>
<stop offset="0.709" stop-color="#FEC746"/>
<stop offset="0.7423" stop-color="#FEC542"/>
<stop offset="1" stop-color="#CD994D"/>
</linearGradient>
<linearGradient id="paint55_linear_1699_7269" x1="124.194" y1="50.5576" x2="113.236" y2="44.0868" gradientUnits="userSpaceOnUse">
<stop offset="0.083784" stop-color="#D18D2F"/>
<stop offset="0.4141" stop-color="#FDD35C"/>
<stop offset="0.5426" stop-color="#FDD056"/>
<stop offset="0.709" stop-color="#FEC746"/>
<stop offset="0.7423" stop-color="#FEC542"/>
<stop offset="1" stop-color="#CD994D"/>
</linearGradient>
<linearGradient id="paint56_linear_1699_7269" x1="125.673" y1="52.8182" x2="131.936" y2="40.2652" gradientUnits="userSpaceOnUse">
<stop offset="0.083784" stop-color="#D18D2F"/>
<stop offset="0.4141" stop-color="#FDD35C"/>
<stop offset="0.5426" stop-color="#FDD056"/>
<stop offset="0.709" stop-color="#FEC746"/>
<stop offset="0.7423" stop-color="#FEC542"/>
<stop offset="1" stop-color="#CD994D"/>
</linearGradient>
<linearGradient id="paint57_linear_1699_7269" x1="121.717" y1="36.3376" x2="108.786" y2="33.8685" gradientUnits="userSpaceOnUse">
<stop offset="0.083784" stop-color="#D18D2F"/>
<stop offset="0.4141" stop-color="#FDD35C"/>
<stop offset="0.5426" stop-color="#FDD056"/>
<stop offset="0.709" stop-color="#FEC746"/>
<stop offset="0.7423" stop-color="#FEC542"/>
<stop offset="1" stop-color="#CD994D"/>
</linearGradient>
<linearGradient id="paint58_linear_1699_7269" x1="123.74" y1="37.4506" x2="126.598" y2="23.2008" gradientUnits="userSpaceOnUse">
<stop offset="0.083784" stop-color="#D18D2F"/>
<stop offset="0.4141" stop-color="#FDD35C"/>
<stop offset="0.5426" stop-color="#FDD056"/>
<stop offset="0.709" stop-color="#FEC746"/>
<stop offset="0.7423" stop-color="#FEC542"/>
<stop offset="1" stop-color="#CD994D"/>
</linearGradient>
<linearGradient id="paint59_linear_1699_7269" x1="116.065" y1="24.2233" x2="102.565" y2="24.7715" gradientUnits="userSpaceOnUse">
<stop offset="0.0619214" stop-color="#D18D2F"/>
<stop offset="0.083784" stop-color="#D18D2F"/>
<stop offset="0.4141" stop-color="#FDD35C"/>
<stop offset="0.5426" stop-color="#FDD056"/>
<stop offset="0.709" stop-color="#FEC746"/>
<stop offset="0.7423" stop-color="#FEC542"/>
<stop offset="1" stop-color="#CD994D"/>
</linearGradient>
<linearGradient id="paint60_linear_1699_7269" x1="117.479" y1="24.8477" x2="115.358" y2="9.7688" gradientUnits="userSpaceOnUse">
<stop offset="0.083784" stop-color="#D18D2F"/>
<stop offset="0.4141" stop-color="#FDD35C"/>
<stop offset="0.5426" stop-color="#FDD056"/>
<stop offset="0.709" stop-color="#FEC746"/>
<stop offset="0.7423" stop-color="#FEC542"/>
<stop offset="1" stop-color="#CD994D"/>
</linearGradient>
<linearGradient id="paint61_linear_1699_7269" x1="105.104" y1="13.6356" x2="92.2565" y2="18.8514" gradientUnits="userSpaceOnUse">
<stop offset="0.083784" stop-color="#D18D2F"/>
<stop offset="0.4141" stop-color="#FDD35C"/>
<stop offset="0.5426" stop-color="#FDD056"/>
<stop offset="0.709" stop-color="#FEC746"/>
<stop offset="0.7423" stop-color="#FEC542"/>
<stop offset="1" stop-color="#CD994D"/>
</linearGradient>
<linearGradient id="paint62_linear_1699_7269" x1="106.667" y1="13.254" x2="103.165" y2="0.937332" gradientUnits="userSpaceOnUse">
<stop offset="0.083784" stop-color="#D18D2F"/>
<stop offset="0.4141" stop-color="#FDD35C"/>
<stop offset="0.5426" stop-color="#FDD056"/>
<stop offset="0.709" stop-color="#FEC746"/>
<stop offset="0.7423" stop-color="#FEC542"/>
<stop offset="1" stop-color="#CD994D"/>
</linearGradient>
<linearGradient id="paint63_linear_1699_7269" x1="86.3796" y1="6.09501" x2="92.4033" y2="4.35708" gradientUnits="userSpaceOnUse">
<stop stop-color="#BC7610"/>
<stop offset="0.1405" stop-color="#EBAC2A"/>
<stop offset="0.2446" stop-color="#CD994D"/>
<stop offset="0.7081" stop-color="#BC7610"/>
</linearGradient>
<linearGradient id="paint64_linear_1699_7269" x1="103.681" y1="3.33724" x2="107.459" y2="13.1436" gradientUnits="userSpaceOnUse">
<stop stop-color="#BC7610"/>
<stop offset="0.1405" stop-color="#EBAC2A"/>
<stop offset="0.2446" stop-color="#CD994D"/>
<stop offset="0.7081" stop-color="#BC7610"/>
</linearGradient>
<linearGradient id="paint65_linear_1699_7269" x1="95.8543" y1="18.0961" x2="105.389" y2="16.2945" gradientUnits="userSpaceOnUse">
<stop stop-color="#BC7610"/>
<stop offset="0.1405" stop-color="#EBAC2A"/>
<stop offset="0.2446" stop-color="#CD994D"/>
<stop offset="0.7081" stop-color="#BC7610"/>
</linearGradient>
<linearGradient id="paint66_linear_1699_7269" x1="115.602" y1="13.5388" x2="117.73" y2="23.805" gradientUnits="userSpaceOnUse">
<stop stop-color="#BC7610"/>
<stop offset="0.1405" stop-color="#EBAC2A"/>
<stop offset="0.2446" stop-color="#CD994D"/>
<stop offset="0.7081" stop-color="#BC7610"/>
</linearGradient>
<linearGradient id="paint67_linear_1699_7269" x1="105.519" y1="25.4697" x2="114.264" y2="27.1544" gradientUnits="userSpaceOnUse">
<stop stop-color="#BC7610"/>
<stop offset="0.1405" stop-color="#EBAC2A"/>
<stop offset="0.2446" stop-color="#CD994D"/>
<stop offset="0.7081" stop-color="#BC7610"/>
</linearGradient>
<linearGradient id="paint68_linear_1699_7269" x1="125.45" y1="26.7705" x2="124.514" y2="37.2141" gradientUnits="userSpaceOnUse">
<stop stop-color="#BC7610"/>
<stop offset="0.1405" stop-color="#EBAC2A"/>
<stop offset="0.2446" stop-color="#CD994D"/>
<stop offset="0.7081" stop-color="#BC7610"/>
</linearGradient>
<linearGradient id="paint69_linear_1699_7269" x1="112.359" y1="35.2723" x2="120.253" y2="39.4077" gradientUnits="userSpaceOnUse">
<stop stop-color="#BC7610"/>
<stop offset="0.1405" stop-color="#EBAC2A"/>
<stop offset="0.2446" stop-color="#CD994D"/>
<stop offset="0.7081" stop-color="#BC7610"/>
</linearGradient>
<linearGradient id="paint70_linear_1699_7269" x1="130.996" y1="43.2111" x2="125.753" y2="52.2832" gradientUnits="userSpaceOnUse">
<stop stop-color="#BC7610"/>
<stop offset="0.1405" stop-color="#EBAC2A"/>
<stop offset="0.2446" stop-color="#CD994D"/>
<stop offset="0.7081" stop-color="#BC7610"/>
</linearGradient>
<linearGradient id="paint71_linear_1699_7269" x1="115.295" y1="46.4208" x2="121.718" y2="52.6065" gradientUnits="userSpaceOnUse">
<stop stop-color="#BC7610"/>
<stop offset="0.1405" stop-color="#EBAC2A"/>
<stop offset="0.2446" stop-color="#CD994D"/>
<stop offset="0.7081" stop-color="#BC7610"/>
</linearGradient>
<linearGradient id="paint72_linear_1699_7269" x1="130.5" y1="59.6578" x2="123.028" y2="66.9927" gradientUnits="userSpaceOnUse">
<stop stop-color="#BC7610"/>
<stop offset="0.1405" stop-color="#EBAC2A"/>
<stop offset="0.2446" stop-color="#CD994D"/>
<stop offset="0.7081" stop-color="#BC7610"/>
</linearGradient>
<linearGradient id="paint73_linear_1699_7269" x1="114.516" y1="58.1774" x2="119.055" y2="65.8606" gradientUnits="userSpaceOnUse">
<stop stop-color="#BC7610"/>
<stop offset="0.1405" stop-color="#EBAC2A"/>
<stop offset="0.2446" stop-color="#CD994D"/>
<stop offset="0.7081" stop-color="#BC7610"/>
</linearGradient>
<linearGradient id="paint74_linear_1699_7269" x1="125.257" y1="75.2464" x2="115.657" y2="79.4007" gradientUnits="userSpaceOnUse">
<stop stop-color="#BC7610"/>
<stop offset="0.1405" stop-color="#EBAC2A"/>
<stop offset="0.2446" stop-color="#CD994D"/>
<stop offset="0.7081" stop-color="#BC7610"/>
</linearGradient>
<linearGradient id="paint75_linear_1699_7269" x1="110.508" y1="68.1598" x2="111.518" y2="77.0329" gradientUnits="userSpaceOnUse">
<stop stop-color="#BC7610"/>
<stop offset="0.1405" stop-color="#EBAC2A"/>
<stop offset="0.2446" stop-color="#CD994D"/>
<stop offset="0.7081" stop-color="#BC7610"/>
</linearGradient>
<linearGradient id="paint76_linear_1699_7269" x1="114.51" y1="88.2163" x2="104.072" y2="88.8342" gradientUnits="userSpaceOnUse">
<stop stop-color="#BC7610"/>
<stop offset="0.1405" stop-color="#EBAC2A"/>
<stop offset="0.2446" stop-color="#CD994D"/>
<stop offset="0.7081" stop-color="#BC7610"/>
</linearGradient>
<linearGradient id="paint77_linear_1699_7269" x1="102.71" y1="76.4864" x2="100.608" y2="85.165" gradientUnits="userSpaceOnUse">
<stop stop-color="#BC7610"/>
<stop offset="0.1405" stop-color="#EBAC2A"/>
<stop offset="0.2446" stop-color="#CD994D"/>
<stop offset="0.7081" stop-color="#BC7610"/>
</linearGradient>
<linearGradient id="paint78_linear_1699_7269" x1="101.247" y1="96.9664" x2="90.8474" y2="95.8832" gradientUnits="userSpaceOnUse">
<stop stop-color="#BC7610"/>
<stop offset="0.1405" stop-color="#EBAC2A"/>
<stop offset="0.2446" stop-color="#CD994D"/>
<stop offset="0.7081" stop-color="#BC7610"/>
</linearGradient>
<linearGradient id="paint79_linear_1699_7269" x1="92.2897" y1="83.468" x2="88.802" y2="91.6854" gradientUnits="userSpaceOnUse">
<stop stop-color="#BC7610"/>
<stop offset="0.1405" stop-color="#EBAC2A"/>
<stop offset="0.2446" stop-color="#CD994D"/>
<stop offset="0.7081" stop-color="#BC7610"/>
</linearGradient>
<linearGradient id="paint80_linear_1699_7269" x1="87.6529" y1="102.93" x2="77.482" y2="100.499" gradientUnits="userSpaceOnUse">
<stop stop-color="#BC7610"/>
<stop offset="0.1405" stop-color="#EBAC2A"/>
<stop offset="0.2446" stop-color="#CD994D"/>
<stop offset="0.7081" stop-color="#BC7610"/>
</linearGradient>
<linearGradient id="paint81_linear_1699_7269" x1="80.5333" y1="88.3724" x2="76" y2="96.0594" gradientUnits="userSpaceOnUse">
<stop stop-color="#BC7610"/>
<stop offset="0.1405" stop-color="#EBAC2A"/>
<stop offset="0.2446" stop-color="#CD994D"/>
<stop offset="0.7081" stop-color="#BC7610"/>
</linearGradient>
<radialGradient id="paint82_radial_1699_7269" cx="0" cy="0" r="1" gradientUnits="userSpaceOnUse" gradientTransform="translate(66.4651 54.7723) scale(60.5784 60.7521)">
<stop stop-color="#D3CB00"/>
<stop offset="0.4324" stop-color="#DBD778"/>
<stop offset="1" stop-color="#F5FF7E"/>
</radialGradient>
</defs>
</svg>
