<svg width="27" height="31" viewBox="0 0 27 31" fill="none" xmlns="http://www.w3.org/2000/svg">
<path d="M19.978 10.2148L2.51972 0.34427C1.65466 -0.146525 0.884969 -0.0942133 0.408203 0.384567L15.0436 15.1364L17.8194 13.8167C19.2619 13.0029 21.4187 11.0321 19.978 10.2148Z" fill="white"/>
<path d="M14.9903 15.1367L18.5564 17.3695C19.9895 18.1795 21.2542 18.9702 19.8278 19.9976L2.59153 29.791C1.66581 30.3113 0.872594 30.2281 0.408203 29.6507L5.01228 24.1407L14.9903 15.1367Z" fill="white"/>
<path d="M25.9212 13.5699L19.9068 10.2266L15 15.0726L19.8569 19.9084L25.9177 16.4946C26.0979 16.3943 26.2557 16.2859 26.3908 16.1716C26.5259 16.0572 26.6387 15.9368 26.7289 15.8123C26.7515 15.7813 26.7727 15.7498 26.7924 15.7184C27.2462 14.992 26.9561 14.1492 25.9212 13.5699Z" fill="white"/>
<path d="M0.501902 0.408691C0.186473 0.72639 -0.000736531 1.23165 2.17801e-06 1.89295L0.0286008 28.328C0.0292339 28.9155 0.178136 29.4068 0.433413 29.7269L15 15.1059L0.501902 0.408691Z" fill="white"/>
</svg>
